<svg width="20" height="20" viewBox="0 0 20 20" fill="none" xmlns="http://www.w3.org/2000/svg">
<g clip-path="url(#clip0_5_4790)">
<path d="M7.50001 10.8334C7.96024 10.8334 8.33334 10.4603 8.33334 10C8.33334 9.53978 7.96024 9.16669 7.50001 9.16669C7.03977 9.16669 6.66667 9.53978 6.66667 10C6.66667 10.4603 7.03977 10.8334 7.50001 10.8334Z" fill="#777E90" stroke="#777E90" stroke-linecap="round" stroke-linejoin="round"/>
<path d="M12.5 10.8334C12.9602 10.8334 13.3333 10.4603 13.3333 10C13.3333 9.53978 12.9602 9.16669 12.5 9.16669C12.0398 9.16669 11.6667 9.53978 11.6667 10C11.6667 10.4603 12.0398 10.8334 12.5 10.8334Z" fill="#777E90" stroke="#777E90" stroke-linecap="round" stroke-linejoin="round"/>
<path d="M6.25 6.25C9.16667 5.41667 10.8333 5.41667 13.75 6.25" stroke="#777E90" stroke-linecap="round" stroke-linejoin="round"/>
<path d="M5.83333 13.75C8.75 14.5833 11.25 14.5833 14.1667 13.75" stroke="#777E90" stroke-linecap="round" stroke-linejoin="round"/>
<path d="M12.9167 14.1666C12.9167 15 14.1667 16.6666 14.5833 16.6666C15.8333 16.6666 16.9442 15.2775 17.5 14.1666C18.0558 12.7775 17.9167 9.30581 16.25 4.58331C15.0358 3.73748 13.75 3.46665 12.5 3.33331L11.6667 5.41665" stroke="#777E90" stroke-linecap="round" stroke-linejoin="round"/>
<path d="M7.08333 14.1666C7.08333 15 5.95333 16.6666 5.55667 16.6666C4.36583 16.6666 3.30833 15.2775 2.77917 14.1666C2.25 12.7775 2.3825 9.30581 3.96917 4.58331C5.12583 3.73748 6.2875 3.46665 7.5 3.33331L8.33333 5.41665" stroke="#777E90" stroke-linecap="round" stroke-linejoin="round"/>
</g>
<defs>
<clipPath id="clip0_5_4790">
<rect width="20" height="20" fill="white"/>
</clipPath>
</defs>
</svg>
