<svg width="20" height="20" viewBox="0 0 20 20" fill="none" xmlns="http://www.w3.org/2000/svg">
<g clip-path="url(#clip0_5_4804)">
<path d="M13.3333 3.33331H6.66667C4.82572 3.33331 3.33333 4.8257 3.33333 6.66665V13.3333C3.33333 15.1743 4.82572 16.6666 6.66667 16.6666H13.3333C15.1743 16.6666 16.6667 15.1743 16.6667 13.3333V6.66665C16.6667 4.8257 15.1743 3.33331 13.3333 3.33331Z" stroke="#777E90" stroke-linecap="round" stroke-linejoin="round"/>
<path d="M10 12.5C11.3807 12.5 12.5 11.3807 12.5 10C12.5 8.61929 11.3807 7.5 10 7.5C8.61929 7.5 7.5 8.61929 7.5 10C7.5 11.3807 8.61929 12.5 10 12.5Z" stroke="#777E90" stroke-linecap="round" stroke-linejoin="round"/>
<path d="M13.75 6.25V6.251" stroke="#777E90" stroke-linecap="round" stroke-linejoin="round"/>
</g>
<defs>
<clipPath id="clip0_5_4804">
<rect width="20" height="20" fill="white"/>
</clipPath>
</defs>
</svg>
