<svg width="32" height="32" viewBox="0 0 32 32" fill="none" xmlns="http://www.w3.org/2000/svg">
<path d="M10.9428 8.94281C10.4221 8.42211 9.57789 8.42211 9.05719 8.94281C8.53649 9.46351 8.53649 10.3077 9.05719 10.8284L22.2565 24.0278C22.7772 24.5485 23.6214 24.5485 24.1421 24.0278C24.6628 23.5071 24.6628 22.6628 24.1421 22.1421L10.9428 8.94281Z" fill="#777E91"/>
<path d="M8.94281 22.0572C8.42211 22.5779 8.42211 23.4221 8.94281 23.9428C9.46351 24.4635 10.3077 24.4635 10.8284 23.9428L24.0278 10.7435C24.5485 10.2228 24.5485 9.37856 24.0278 8.85786C23.5071 8.33717 22.6628 8.33716 22.1421 8.85786L8.94281 22.0572Z" fill="#777E91"/>
</svg>
