<svg width="72" height="40" viewBox="0 0 72 40" fill="none" xmlns="http://www.w3.org/2000/svg">
<path d="M39.1974 39.0712C46.7762 39.0712 52.92 32.9274 52.92 25.3486C52.92 17.7698 46.7762 11.626 39.1974 11.626C31.6186 11.626 25.4748 17.7698 25.4748 25.3486C25.4748 32.9274 31.6186 39.0712 39.1974 39.0712Z" fill="#5EC7C4"/>
<path d="M27.5232 18.1366C29.6832 19.3132 32.16 19.9822 34.7916 19.9822C39.7284 19.9822 44.1138 17.6296 46.8936 13.9858C44.6988 12.4966 42.0504 11.6254 39.198 11.6254C34.2648 11.6248 29.9418 14.2294 27.5232 18.1366Z" fill="url(#paint0_linear_5_4748)"/>
<path d="M1.09979 16.2706H12.7338L12.7146 18.0412L4.06019 31.372L2.87399 33.1336L4.67639 33.16H13.1298V34.6546H0.88739V33.0286L9.73559 19.5472L10.9044 17.7646H8.78399H1.09979V16.2706Z" fill="#35235D"/>
<path d="M14.8392 27.9412C14.8392 25.9486 15.3642 24.3136 16.413 23.0368C17.532 21.6736 19.0782 20.9914 21.0546 20.9914C23.013 20.9914 24.5604 21.6736 25.6962 23.0368C26.7456 24.313 27.27 25.9486 27.27 27.9412C27.27 29.9344 26.7456 31.5604 25.6962 32.8192C24.5592 34.183 23.0124 34.8646 21.0546 34.8646C19.0968 34.8646 17.5488 34.183 16.413 32.8192C15.3642 31.5604 14.8392 29.9344 14.8392 27.9412ZM16.5702 27.9412C16.5702 29.323 16.8936 30.5206 17.5404 31.534C18.3624 32.8282 19.5336 33.475 21.054 33.475C22.5582 33.475 23.7198 32.8372 24.5418 31.5604C25.206 30.529 25.5384 29.323 25.5384 27.9412C25.5384 26.56 25.2144 25.3534 24.5682 24.3226C23.7462 23.029 22.575 22.3822 21.054 22.3822C19.5336 22.3822 18.3696 23.0206 17.5662 24.2968C16.902 25.345 16.5702 26.56 16.5702 27.9412Z" fill="#35235D"/>
<path d="M32.9586 15.0526H31.1484V17.365H32.9586V15.0526Z" fill="#35235D"/>
<path d="M32.8788 21.175H31.227V34.6552H32.8788V21.175Z" fill="#35235D"/>
<path d="M38.8848 34.6546H37.233V24.2956L37.1538 21.2008H38.6226V23.9806C39.0246 23.1238 39.5322 22.4506 40.1436 21.961C40.9476 21.3142 41.9268 20.9908 43.0812 20.9908C45.0564 20.9908 46.4118 21.664 47.1456 23.0104C47.583 23.8144 47.8014 24.9076 47.8014 26.2882V34.654H46.1496V26.3662C46.1496 25.1596 46.0362 24.3208 45.8094 23.8492C45.3372 22.8706 44.3484 22.3804 42.846 22.3804C41.6574 22.3804 40.6998 22.8304 39.9744 23.731C39.249 24.6316 38.8866 25.6588 38.8866 26.8126V34.6546H38.8848Z" fill="#35235D"/>
<path d="M51.3036 14.6446H52.956V27.1282L53.0946 27.1366L59.199 21.2026L61.3494 21.2014L54.7134 27.4162L62.0298 34.654L59.6886 34.6618L53.0802 28.0522L52.956 28.0456V34.6546H51.303V14.6446H51.3036Z" fill="#35235D"/>
<path d="M71.253 21.6994L71.148 23.011C70.1346 22.591 69.0762 22.3816 67.9746 22.3816C67.0836 22.3816 66.3918 22.5478 65.9028 22.8802C65.4138 23.2126 65.1684 23.6758 65.1684 24.2698C65.1684 24.9166 65.3784 25.4236 65.7978 25.7902C66.1122 26.071 66.8244 26.4376 67.9356 26.8918C69.0456 27.3472 69.8454 27.7666 70.335 28.1512C71.2614 28.903 71.7246 29.8642 71.7246 31.036C71.7246 32.155 71.3316 33.055 70.5444 33.7372C69.6876 34.489 68.4726 34.8646 66.8994 34.8646C65.6406 34.8646 64.461 34.6636 63.3594 34.2616L63.4644 32.6878C63.9888 32.9332 64.5522 33.1252 65.1552 33.265C65.7588 33.4048 66.3576 33.4756 66.9516 33.4756C67.9482 33.4756 68.7042 33.2524 69.2202 32.8066C69.7356 32.3608 69.9942 31.7704 69.9942 31.0366C69.9942 30.2848 69.7314 29.6818 69.207 29.227C68.9622 29.0164 68.4816 28.7548 67.7646 28.4398C66.3132 27.8278 65.334 27.3214 64.827 26.9188C63.9702 26.2366 63.5418 25.3546 63.5418 24.2704C63.5418 23.3086 63.9438 22.522 64.7484 21.9094C65.5524 21.2974 66.654 20.9914 68.0526 20.9914C68.6652 20.9914 69.2154 21.049 69.705 21.1618C70.1952 21.2752 70.7112 21.4546 71.253 21.6994Z" fill="#35235D"/>
<path d="M2.88477 1.53992H3.96477V6.61111H9.91916V1.53992H10.9992V13.0077H9.91916V7.54411H3.96477V13.0077H2.88477V1.53992Z" fill="#35235D"/>
<path d="M20.1618 9.11435H14.2398C14.2398 9.99875 14.5014 10.7458 15.0252 11.3554C15.5922 12.0208 16.3392 12.3538 17.2662 12.3538C17.9424 12.3538 18.6948 12.1468 19.524 11.7316V12.6808C18.7488 13.0078 17.9748 13.1716 17.2008 13.1716C16.0344 13.1716 15.096 12.8278 14.3874 12.1408C13.5696 11.3554 13.161 10.2004 13.161 8.67335C13.161 7.44035 13.4856 6.43475 14.1342 5.65535C14.7834 4.87595 15.6738 4.48535 16.809 4.48535C18.216 4.48535 19.1808 5.05235 19.704 6.18635C20.01 6.84035 20.163 7.70795 20.163 8.78735L20.1618 9.11435ZM14.2398 8.24735H19.0818C19.0818 7.52735 18.9564 6.92795 18.7062 6.44795C18.324 5.71655 17.6922 5.35175 16.8084 5.35175C15.9792 5.35175 15.3246 5.67875 14.8452 6.33335C14.4414 6.88955 14.2398 7.52735 14.2398 8.24735Z" fill="#35235D"/>
<path d="M27.9258 0.526001H28.956V11.386L29.0214 13.0078H28.056L28.0404 11.2738C27.7674 11.8402 27.4188 12.283 26.9928 12.5992C26.5242 12.9592 25.9896 13.138 25.3902 13.138C24.3978 13.138 23.5854 12.838 22.9524 12.238C22.167 11.4856 21.7746 10.3468 21.7746 8.8186C21.7746 7.3036 22.1676 6.1684 22.9524 5.4166C23.5956 4.795 24.4092 4.4836 25.3902 4.4836C26.0334 4.4836 26.595 4.6798 27.075 5.0728C27.402 5.3344 27.6864 5.6836 27.9258 6.1198V0.526001ZM27.9258 8.8198C27.9258 7.6852 27.6528 6.8026 27.108 6.169C26.6394 5.6248 26.067 5.3518 25.3908 5.3518C24.7146 5.3518 24.1416 5.6188 23.673 6.1534C23.1276 6.7858 22.8546 7.6744 22.8546 8.8186C22.8546 9.9424 23.1276 10.8208 23.673 11.4532C24.1416 11.9986 24.714 12.2716 25.3908 12.2716C26.0454 12.2716 26.6118 11.9986 27.0918 11.4532C27.648 10.8214 27.9258 9.943 27.9258 8.8198Z" fill="#35235D"/>
<path d="M37.2174 12.8932V11.5036C36.8796 12.1144 36.4596 12.556 35.9574 12.8284C35.5752 13.0354 35.1498 13.1398 34.6818 13.1398C33.6018 13.1398 32.7408 12.775 32.0964 12.0436C31.4094 11.269 31.0656 10.1896 31.0656 8.80538C31.0656 7.40978 31.4034 6.32977 32.079 5.56657C32.7222 4.84717 33.5898 4.48657 34.6806 4.48657C35.2368 4.48657 35.7414 4.64977 36.1932 4.97737C36.6456 5.30437 37.0086 5.76277 37.281 6.35137L37.3458 4.61677H38.3112L38.2458 6.23617V12.9922C38.2458 14.4976 37.7166 15.544 36.6588 16.1332C36.015 16.4932 35.1642 16.6726 34.107 16.6726C33.6816 16.6726 33.2946 16.6366 32.9448 16.5658C32.5956 16.4944 32.2314 16.378 31.8486 16.2142V15.2008C32.2194 15.3754 32.6202 15.5194 33.051 15.6346C33.4824 15.7486 33.8988 15.8062 34.302 15.8062C35.2398 15.8062 35.9604 15.5434 36.462 15.0208C36.9666 14.4964 37.2174 13.7878 37.2174 12.8932ZM37.2174 8.80357C37.2174 7.68037 36.9444 6.80257 36.3996 6.16897C35.9304 5.62477 35.3586 5.35177 34.6824 5.35177C34.0278 5.35177 33.4608 5.62477 32.9808 6.16897C32.4246 6.80257 32.1462 7.68037 32.1462 8.80357C32.1462 9.93817 32.4192 10.8214 32.964 11.4538C33.4326 11.9992 34.005 12.2722 34.6818 12.2722C35.358 12.2722 35.9298 12.0046 36.399 11.4706C36.9444 10.8376 37.2174 9.94897 37.2174 8.80357Z" fill="#35235D"/>
<path d="M47.2782 9.11435H41.3568C41.3568 9.99875 41.6184 10.7458 42.1422 11.3554C42.7092 12.0208 43.4556 12.3538 44.3832 12.3538C45.0594 12.3538 45.8118 12.1468 46.641 11.7316V12.6808C45.8664 13.0078 45.0918 13.1716 44.3184 13.1716C43.1514 13.1716 42.2136 12.8278 41.5044 12.1408C40.6872 11.3554 40.2774 10.2004 40.2774 8.67335C40.2774 7.44035 40.602 6.43475 41.2506 5.65535C41.8992 4.87595 42.7908 4.48535 43.9254 4.48535C45.333 4.48535 46.2978 5.05235 46.821 6.18635C47.1264 6.84035 47.2794 7.70795 47.2794 8.78735L47.2782 9.11435ZM41.3562 8.24735H46.1976C46.1976 7.52735 46.0722 6.92795 45.8214 6.44795C45.4398 5.71655 44.808 5.35175 43.9236 5.35175C43.095 5.35175 42.4404 5.67875 41.961 6.33335C41.5584 6.88955 41.3562 7.52735 41.3562 8.24735Z" fill="#35235D"/>
<defs>
<linearGradient id="paint0_linear_5_4748" x1="27.5231" y1="15.8038" x2="46.8939" y2="15.8038" gradientUnits="userSpaceOnUse">
<stop stop-color="#E1F4F4"/>
<stop offset="1" stop-color="#9EDDDB"/>
</linearGradient>
</defs>
</svg>
