<svg width="433" height="299" viewBox="0 0 433 299" fill="none" xmlns="http://www.w3.org/2000/svg">
<g clip-path="url(#clip0_117_2322)">
<path d="M68.85 286.02C82.69 274.7 84.48 255.66 82.52 238.83C82.19 236.02 82.26 233.03 80.7 230.67C79.14 228.31 75.84 226.88 73.38 228.28C71.34 229.44 70.62 231.95 69.6 234.06C68.24 236.87 66.07 239.28 63.43 240.92C61.69 242 59.49 242.75 57.61 241.93C55.04 240.79 54.47 237.46 54.26 234.66C53.87 229.44 53.47 224.22 53.08 218.99C52.87 216.19 52.64 213.33 51.54 210.74C50.44 208.15 48.29 205.85 45.53 205.32C42.77 204.8 39.56 206.61 39.21 209.4C39.07 210.56 39.4 211.73 39.42 212.89C39.44 214.06 38.99 215.39 37.9 215.81C36.79 216.23 35.59 215.53 34.68 214.78C31.52 212.19 29.23 208.71 27.08 205.24C24.93 201.77 22.82 198.21 19.91 195.35C17 192.48 13.12 190.34 9.04 190.45C4.96 190.56 0.829999 193.39 0.119999 197.41C-0.590001 201.44 2.08 205.26 4.88 208.24C9.04 212.67 13.84 216.5 19.08 219.56C20.03 220.11 21.05 220.71 21.48 221.72C22.25 223.54 20.61 225.54 18.79 226.31C16.73 227.18 14.42 227.15 12.23 227.59C10.04 228.03 7.72 229.19 7.05 231.32C6.12 234.28 8.79 237.08 11.34 238.85C16.44 242.39 22.15 245.05 28.15 246.68C30.3 247.26 32.55 247.74 34.35 249.05C36.15 250.36 37.37 252.79 36.52 254.85C35.66 256.91 33.1 257.76 30.89 257.54C28.67 257.32 26.62 256.31 24.47 255.71C20.45 254.58 15.44 255.26 13.21 258.79C11.75 261.11 11.85 264.17 12.9 266.71C13.94 269.25 15.81 271.35 17.77 273.28C24.61 280 33.09 285.17 42.39 287.52C51.69 289.87 60.14 290.02 68.87 286.03" fill="#EBEBEB"/>
<path d="M70.06 298.51C68.89 291.88 66.76 284.11 63.53 275.82C60.32 267.52 56.03 258.7 51.22 249.64C50.01 247.38 48.82 245.14 47.64 242.94C46.46 240.74 45.29 238.57 44.01 236.51C41.47 232.38 38.71 228.6 35.98 225.09C33.25 221.58 30.52 218.35 27.95 215.34C25.37 212.34 22.92 209.59 20.57 207.17C15.89 202.32 11.66 198.86 8.65998 196.6C7.15998 195.46 5.96998 194.62 5.14998 194.06C4.74998 193.79 4.43998 193.58 4.21998 193.43C4.00998 193.29 3.88998 193.23 3.88998 193.23C3.88998 193.23 3.98998 193.32 4.18998 193.47C4.40998 193.63 4.70998 193.85 5.09998 194.14C5.89998 194.72 7.06998 195.59 8.55998 196.74C11.53 199.04 15.72 202.52 20.36 207.38C22.69 209.8 25.12 212.56 27.68 215.57C30.24 218.58 32.95 221.82 35.66 225.33C38.38 228.84 41.12 232.61 43.65 236.72C44.92 238.77 46.08 240.93 47.26 243.14C48.44 245.34 49.63 247.58 50.84 249.84C55.64 258.9 59.93 267.69 63.16 275.97C66.4 284.24 68.56 291.97 69.76 298.57" fill="#E0E0E0"/>
<path d="M43.9 236.48C43.9 236.48 43.98 236.05 44.06 235.26C44.14 234.47 44.22 233.33 44.3 231.92C44.46 229.1 44.56 225.19 44.66 220.89C44.76 216.58 44.92 212.69 45.15 209.88C45.26 208.47 45.36 207.34 45.44 206.55C45.52 205.77 45.55 205.33 45.52 205.32C45.49 205.32 45.41 205.75 45.28 206.53C45.15 207.31 45 208.45 44.85 209.85C44.55 212.66 44.33 216.57 44.23 220.88C44.14 225.15 44.06 229.01 43.99 231.91C43.95 233.26 43.91 234.38 43.88 235.25C43.86 236.04 43.86 236.48 43.88 236.48H43.9Z" fill="#E0E0E0"/>
<path d="M6.87 232.75C6.87 232.75 7 232.77 7.25 232.78C7.55 232.78 7.91 232.78 8.34 232.78C9.28 232.78 10.65 232.78 12.33 232.82C15.7 232.89 20.36 233.16 25.47 233.68C30.59 234.21 35.2 234.89 38.52 235.49C40.18 235.77 41.52 236.04 42.45 236.22C42.87 236.3 43.23 236.37 43.52 236.42C43.77 236.46 43.9 236.48 43.9 236.46C43.9 236.45 43.78 236.4 43.54 236.33C43.25 236.25 42.91 236.16 42.49 236.05C41.57 235.82 40.24 235.5 38.58 235.18C35.27 234.51 30.65 233.78 25.51 233.25C20.38 232.73 15.71 232.51 12.33 232.51C10.64 232.5 9.27 232.55 8.33 232.6C7.9 232.63 7.54 232.65 7.24 232.68C6.99 232.7 6.86 232.72 6.86 232.74L6.87 232.75Z" fill="#E0E0E0"/>
<path d="M63.07 275.18C63.07 275.18 63.15 275.03 63.27 274.72C63.4 274.37 63.57 273.92 63.78 273.36C64.22 272.18 64.81 270.46 65.52 268.32C66.93 264.05 68.71 258.09 70.58 251.48C72.45 244.88 74.18 238.91 75.52 234.62C76.19 232.52 76.73 230.79 77.13 229.54C77.31 228.98 77.45 228.52 77.56 228.16C77.65 227.84 77.7 227.67 77.68 227.67C77.67 227.67 77.6 227.82 77.48 228.13C77.35 228.48 77.18 228.93 76.97 229.49C76.53 230.67 75.94 232.39 75.23 234.53C73.82 238.8 72.04 244.76 70.17 251.37C68.3 257.97 66.57 263.94 65.23 268.23C64.56 270.33 64.02 272.06 63.62 273.31C63.44 273.87 63.3 274.33 63.19 274.69C63.1 275.01 63.05 275.18 63.07 275.18Z" fill="#E0E0E0"/>
<path d="M13.32 263.76C13.32 263.76 13.49 263.82 13.82 263.91C14.2 264 14.68 264.11 15.27 264.25C16.58 264.55 18.39 264.96 20.6 265.47C25.1 266.5 31.3 268.01 38.14 269.68C44.99 271.36 51.2 272.82 55.72 273.78C57.98 274.26 59.81 274.63 61.08 274.87C61.68 274.98 62.17 275.07 62.54 275.13C62.88 275.19 63.05 275.21 63.06 275.19C63.06 275.18 62.89 275.13 62.56 275.04C62.19 274.95 61.71 274.84 61.11 274.7C59.8 274.4 57.99 273.99 55.78 273.48C51.28 272.45 45.08 270.94 38.24 269.26C31.4 267.58 25.18 266.12 20.66 265.17C18.4 264.69 16.57 264.32 15.3 264.08C14.7 263.97 14.21 263.89 13.84 263.82C13.5 263.76 13.33 263.74 13.32 263.76Z" fill="#E0E0E0"/>
<path d="M200.234 0.279496L127.933 22.0257L142.591 70.7591L214.892 49.0129L200.234 0.279496Z" fill="white"/>
<path d="M214.89 48.99C214.89 48.99 214.78 48.68 214.6 48.1C214.41 47.5 214.15 46.64 213.8 45.53C213.1 43.26 212.09 39.96 210.8 35.73C208.23 27.26 204.53 15.12 200.03 0.32L200.29 0.46C180.34 6.48 155.22 14.05 128.01 22.26L128.18 21.94C133.4 39.31 138.36 55.83 142.82 70.68L142.52 70.52C163.8 64.17 181.86 58.78 194.61 54.97C200.99 53.08 206.04 51.58 209.52 50.55C211.25 50.04 212.58 49.65 213.5 49.38C213.94 49.25 214.28 49.16 214.53 49.08C214.76 49.01 214.89 48.99 214.89 48.99C214.89 48.99 214.79 49.03 214.56 49.1C214.32 49.18 213.99 49.28 213.56 49.41C212.65 49.69 211.34 50.09 209.65 50.62C206.19 51.68 201.17 53.21 194.83 55.15C182.06 59.02 163.97 64.51 142.66 70.97L142.43 71.04L142.36 70.81C137.89 55.96 132.91 39.45 127.68 22.08L127.6 21.83L127.85 21.75C155.08 13.59 180.21 6.05 200.17 0.06L200.37 0L200.43 0.2C204.86 15.08 208.49 27.29 211.03 35.8C212.28 40.02 213.25 43.32 213.92 45.58C214.24 46.69 214.49 47.54 214.66 48.13C214.82 48.7 214.9 48.99 214.9 48.99H214.89Z" fill="#E0E0E0"/>
<path d="M200.23 0.26001C200.23 0.26001 200.2 0.34001 200.13 0.48001C200.04 0.65001 199.93 0.85001 199.79 1.10001C199.46 1.68001 199.01 2.46001 198.44 3.46001C197.23 5.54001 195.51 8.49001 193.39 12.13C189.06 19.47 183.09 29.59 176.45 40.87L176.34 41.06L176.13 40.98C175.43 40.71 174.68 40.42 173.92 40.12C161.22 35.17 149.72 30.68 141.36 27.42C137.23 25.78 133.88 24.45 131.51 23.51C130.38 23.05 129.49 22.69 128.84 22.42C128.56 22.3 128.33 22.2 128.15 22.13C128 22.06 127.92 22.02 127.92 22.01C127.92 22.01 128.01 22.02 128.17 22.08C128.36 22.15 128.59 22.23 128.88 22.33C129.54 22.57 130.44 22.9 131.58 23.33C133.96 24.23 137.33 25.51 141.49 27.08C149.87 30.31 161.39 34.74 174.11 39.64C174.87 39.93 175.62 40.23 176.32 40.5L176 40.61C182.7 29.37 188.72 19.28 193.08 11.96C195.26 8.36001 197.02 5.43001 198.26 3.37001C198.86 2.39001 199.34 1.62001 199.69 1.06001C199.84 0.82001 199.97 0.62001 200.07 0.47001C200.16 0.34001 200.21 0.27001 200.21 0.28001L200.23 0.26001Z" fill="#E0E0E0"/>
<path d="M410.58 194.91C410.58 194.91 405.9 190.27 396.75 201.86C387.6 213.45 383.63 220.4 383.63 220.4C383.63 220.4 381.35 222.76 379.85 220.62C378.34 218.48 376.8 212.96 373.46 213.24C370 213.52 368.19 216.96 367.75 222.46C367.3 227.95 365.89 239.95 365.75 241.04C365.62 242.1 364.71 243.53 363.45 242.24C362.19 240.95 355.66 229.93 350.62 233.34C345.58 236.75 346.85 252.26 346.96 253.96C347.07 255.66 346.61 256.28 345.77 256.53C344.92 256.78 343.08 252.87 341.09 249.81C339.11 246.75 336.27 243.56 333.52 245.77C330.78 247.98 327.87 258.85 334.79 278.82L338.6 287.86L348.36 289.25C369.43 290.95 379.22 285.42 380.68 282.21C382.13 279 378.33 277.05 374.87 275.9C371.41 274.74 367.17 273.93 367.2 273.05C367.23 272.17 367.72 271.57 369.39 271.25C371.06 270.93 386.4 268.28 388.44 262.55C390.48 256.82 378.18 253.25 376.62 252.36C375.05 251.46 376.21 250.23 377.21 249.84C378.23 249.44 389.49 245.06 394.7 243.26C399.91 241.45 402.79 238.84 402.19 235.42C401.62 232.12 395.89 232.01 393.44 231.08C390.99 230.16 392.71 227.36 392.71 227.36C392.71 227.36 398.44 221.77 407.38 210.01C416.32 198.25 410.49 194.82 410.49 194.82" fill="#EBEBEB"/>
<path d="M402.37 205.28C402.37 205.28 402.32 205.37 402.21 205.53C402.08 205.71 401.91 205.95 401.7 206.24C401.22 206.89 400.55 207.8 399.7 208.95C397.96 211.3 395.4 214.68 392.22 218.84C385.87 227.16 376.99 238.58 367.12 251.14C357.28 263.71 348.37 275.08 341.9 283.35C338.71 287.46 336.11 290.8 334.29 293.14C333.4 294.27 332.71 295.16 332.21 295.79C331.98 296.07 331.8 296.3 331.66 296.47C331.53 296.62 331.47 296.7 331.46 296.69C331.46 296.69 331.51 296.6 331.62 296.44C331.75 296.26 331.92 296.02 332.13 295.73C332.61 295.08 333.28 294.17 334.13 293.02C335.87 290.67 338.43 287.29 341.6 283.13C347.95 274.81 356.83 263.39 366.7 250.83C376.54 238.27 385.44 226.89 391.91 218.63C395.1 214.52 397.7 211.18 399.52 208.84C400.41 207.71 401.1 206.82 401.6 206.19C401.83 205.91 402.01 205.68 402.15 205.51C402.28 205.36 402.34 205.28 402.35 205.29L402.37 205.28Z" fill="#E0E0E0"/>
<path d="M375.3 221.05C375.37 221.05 375.52 222.04 375.67 223.67C375.82 225.3 375.95 227.55 376.04 230.03C376.1 232.42 376.16 234.58 376.21 236.39C376.25 238.02 376.28 239.02 376.21 239.03C376.14 239.03 375.98 238.04 375.84 236.41C375.71 234.78 375.6 232.53 375.51 230.05C375.43 227.66 375.35 225.5 375.29 223.69C375.24 222.06 375.21 221.05 375.29 221.05H375.3Z" fill="#E0E0E0"/>
<path d="M377.06 239.38C377.05 239.24 381.67 238.73 387.38 238.26C393.1 237.78 397.74 237.51 397.75 237.66C397.76 237.8 393.14 238.31 387.42 238.78C381.71 239.26 377.06 239.53 377.05 239.38H377.06Z" fill="#E0E0E0"/>
<path d="M360.47 258.67C360.49 258.6 361.5 258.78 363.13 259.1C364.76 259.41 367.02 259.84 369.52 260.24C372.02 260.64 374.29 260.94 375.94 261.16C377.59 261.37 378.61 261.51 378.6 261.59C378.6 261.66 377.56 261.65 375.9 261.53C374.24 261.41 371.95 261.17 369.43 260.76C366.92 260.36 364.66 259.87 363.05 259.47C361.43 259.06 360.45 258.75 360.47 258.68V258.67Z" fill="#E0E0E0"/>
<path d="M355.23 242.44C355.3 242.42 355.66 243.3 356.2 244.74C356.74 246.18 357.44 248.18 358.19 250.41C358.94 252.63 359.59 254.65 360.04 256.13C360.49 257.61 360.73 258.52 360.66 258.55C360.59 258.57 360.23 257.69 359.69 256.25C359.15 254.81 358.45 252.81 357.7 250.58C356.95 248.36 356.3 246.34 355.85 244.86C355.4 243.39 355.16 242.47 355.23 242.44Z" fill="#E0E0E0"/>
<path d="M338.41 257.61C338.48 257.59 338.94 258.72 339.63 260.56C340.32 262.41 341.24 264.97 342.23 267.8C343.22 270.64 344.08 273.22 344.69 275.1C345.29 276.98 345.63 278.15 345.56 278.17C345.49 278.19 345.03 277.06 344.34 275.22C343.65 273.38 342.73 270.81 341.74 267.97C340.75 265.13 339.89 262.55 339.28 260.67C338.68 258.79 338.34 257.62 338.41 257.6V257.61Z" fill="#E0E0E0"/>
<path d="M345.54 277.63C345.55 277.56 346.85 277.75 348.93 278.08C351.01 278.4 353.89 278.85 357.08 279.27C360.27 279.69 363.16 280.02 365.26 280.24C367.36 280.47 368.65 280.62 368.65 280.69C368.65 280.76 367.34 280.74 365.23 280.61C363.12 280.48 360.21 280.21 357.01 279.79C353.81 279.37 350.94 278.86 348.87 278.44C346.8 278.02 345.53 277.7 345.55 277.63H345.54Z" fill="#E0E0E0"/>
<path d="M366.475 96.5759L364.105 174.13L420.779 175.861L423.148 98.3074L366.475 96.5759Z" fill="#F5F5F5"/>
<path d="M356.031 106.876L353.662 184.429L410.335 186.161L412.705 108.607L356.031 106.876Z" fill="white"/>
<path d="M410.33 186.16C410.33 186.16 410.33 186.03 410.33 185.78C410.33 185.52 410.34 185.16 410.35 184.68C410.37 183.7 410.41 182.28 410.45 180.44C410.55 176.73 410.69 171.34 410.87 164.51C411.26 150.86 411.81 131.5 412.46 108.6L412.69 108.84C395.62 108.33 376.35 107.75 356.02 107.13L356.29 106.88C355.39 135.85 354.55 162.66 353.87 184.43L353.66 184.21C370.8 184.78 384.94 185.25 394.81 185.58C399.74 185.75 403.61 185.89 406.26 185.98C407.57 186.03 408.58 186.07 409.28 186.1C409.96 186.13 410.33 186.16 410.33 186.16C410.33 186.16 410 186.16 409.33 186.16C408.64 186.14 407.65 186.12 406.35 186.09C403.71 186.02 399.86 185.92 394.95 185.8C385.05 185.52 370.86 185.13 353.66 184.65H353.45V184.43C354.1 162.66 354.9 135.85 355.77 106.88V106.62H356.04C376.37 107.25 395.64 107.85 412.7 108.37H412.94V108.61C412.19 131.58 411.56 150.99 411.11 164.67C410.88 171.47 410.69 176.85 410.56 180.54C410.49 182.36 410.44 183.76 410.4 184.73C410.38 185.19 410.36 185.54 410.35 185.8C410.34 186.04 410.33 186.15 410.33 186.15V186.16Z" fill="#E0E0E0"/>
<path d="M390.56 124.83C390.56 124.97 384.39 124.9 376.78 124.67C369.17 124.44 363.01 124.13 363.02 123.99C363.02 123.85 369.19 123.92 376.8 124.15C384.4 124.38 390.57 124.69 390.56 124.83Z" fill="#E0E0E0"/>
<path d="M405.25 132.02C405.25 132.16 395.74 131.99 384.03 131.63C372.31 131.27 362.82 130.87 362.82 130.72C362.82 130.57 372.33 130.75 384.05 131.11C395.77 131.47 405.26 131.87 405.26 132.02H405.25Z" fill="#E0E0E0"/>
<path d="M405.04 139.05C405.04 139.19 395.53 139.02 383.82 138.66C372.1 138.3 362.61 137.9 362.61 137.75C362.61 137.61 372.12 137.78 383.84 138.14C395.56 138.5 405.05 138.9 405.05 139.05H405.04Z" fill="#E0E0E0"/>
<path d="M404.82 146.08C404.82 146.22 395.31 146.05 383.6 145.69C371.88 145.33 362.39 144.93 362.39 144.78C362.39 144.64 371.9 144.81 383.62 145.17C395.34 145.53 404.83 145.93 404.83 146.08H404.82Z" fill="#E0E0E0"/>
<path d="M404.61 153.11C404.61 153.25 395.1 153.08 383.39 152.72C371.67 152.36 362.18 151.96 362.18 151.81C362.18 151.67 371.69 151.84 383.41 152.2C395.13 152.56 404.62 152.96 404.62 153.11H404.61Z" fill="#E0E0E0"/>
<path d="M404.39 160.14C404.39 160.28 394.88 160.11 383.17 159.75C371.45 159.39 361.96 158.99 361.96 158.84C361.96 158.7 371.47 158.87 383.19 159.23C394.91 159.59 404.4 159.99 404.4 160.14H404.39Z" fill="#E0E0E0"/>
<path d="M404.18 167.17C404.18 167.31 394.67 167.14 382.96 166.78C371.24 166.42 361.75 166.02 361.75 165.87C361.75 165.73 371.26 165.9 382.98 166.26C394.7 166.62 404.19 167.02 404.19 167.17H404.18Z" fill="#E0E0E0"/>
<path d="M384.34 173.6C384.34 173.74 379.23 173.7 372.93 173.51C366.63 173.32 361.53 173.05 361.53 172.9C361.53 172.76 366.64 172.8 372.94 172.99C379.24 173.18 384.34 173.45 384.34 173.6Z" fill="#E0E0E0"/>
<path d="M244.337 55.3254L226.603 99.8649L282.31 122.045L300.044 77.5051L244.337 55.3254Z" fill="white"/>
<path d="M300.04 77.51C300.04 77.51 299.95 77.48 299.77 77.41C299.59 77.34 299.33 77.24 298.99 77.1C298.3 76.83 297.29 76.43 295.97 75.91C293.33 74.86 289.46 73.33 284.56 71.39C274.77 67.5 260.85 61.98 244.3 55.41L244.42 55.36C239.15 68.62 233.1 83.81 226.7 99.9L226.64 99.77C247.26 107.99 266.43 115.62 282.34 121.97L282.23 122.02C287.59 108.61 292.03 97.49 295.14 89.72C296.7 85.83 297.92 82.79 298.75 80.71C299.17 79.67 299.49 78.88 299.7 78.34C299.92 77.8 300.04 77.52 300.04 77.52C300.04 77.52 299.94 77.79 299.73 78.33C299.52 78.87 299.21 79.66 298.8 80.7C297.98 82.78 296.77 85.83 295.24 89.71C292.15 97.5 287.73 108.65 282.39 122.09L282.36 122.17L282.28 122.14C266.36 115.81 247.19 108.18 226.57 99.98L226.48 99.94L226.52 99.85C232.93 83.77 238.98 68.57 244.26 55.32L244.29 55.24L244.37 55.27C260.93 61.88 274.86 67.45 284.65 71.36C289.53 73.32 293.39 74.86 296.02 75.91C297.33 76.44 298.34 76.84 299.02 77.12C299.36 77.26 299.61 77.36 299.79 77.43C299.96 77.5 300.05 77.54 300.05 77.54L300.04 77.51Z" fill="#E0E0E0"/>
<path d="M245.103 58.9341L229.603 97.8621L281.399 118.484L296.898 79.5565L245.103 58.9341Z" fill="#EBEBEB"/>
<path d="M229.81 97.99L257.53 80.99L262.71 100.59L273.54 95.53L281.6 118.61L229.81 97.99Z" fill="#E0E0E0"/>
<path d="M274.68 84.38C273.78 86.63 271.23 87.73 268.98 86.83C266.73 85.93 265.63 83.38 266.53 81.13C267.43 78.88 269.98 77.78 272.23 78.68C274.48 79.58 275.58 82.13 274.68 84.38Z" fill="#E0E0E0"/>
<path d="M99.06 126.82C99.06 126.82 99.45 127.08 100.25 127.02C100.64 126.97 101.13 126.8 101.53 126.38C101.91 125.97 102.19 125.31 102.59 124.66C104.14 121.96 106.35 118.1 109.07 113.34C109.76 112.15 110.48 110.9 111.23 109.59C111.61 108.94 111.99 108.27 112.38 107.6C112.57 107.26 112.8 106.92 112.91 106.59C113.02 106.25 113.03 105.87 112.94 105.52C112.85 105.17 112.65 104.85 112.37 104.61C112.1 104.39 111.69 104.2 111.34 104C110.61 103.59 109.87 103.18 109.12 102.76C107.61 101.92 106.07 101.05 104.48 100.16C98.13 96.59 91.15 92.68 83.82 88.57C83.01 88.1 81.9 88.41 81.39 89.18C80.87 90.07 80.35 90.95 79.84 91.83C78.81 93.6 77.8 95.34 76.8 97.05C74.8 100.47 72.88 103.77 71.04 106.92C70.81 107.31 70.58 107.7 70.36 108.09C70.13 108.45 70.03 108.83 70.04 109.23C70.06 109.62 70.2 110.01 70.45 110.3C70.68 110.61 71.05 110.77 71.44 111C72.94 111.85 74.4 112.67 75.81 113.47C78.62 115.07 81.25 116.55 83.65 117.91C88.41 120.63 92.27 122.83 94.98 124.38C96.29 125.14 97.32 125.74 98.05 126.16C98.38 126.36 98.64 126.51 98.84 126.63C99.02 126.74 99.11 126.8 99.1 126.81C99.1 126.81 99 126.77 98.81 126.68C98.6 126.57 98.33 126.43 97.99 126.25C97.25 125.85 96.2 125.28 94.87 124.55C92.14 123.04 88.25 120.88 83.46 118.23C81.05 116.89 78.42 115.42 75.59 113.84C74.18 113.05 72.71 112.23 71.21 111.39C70.86 111.18 70.4 110.99 70.09 110.59C69.77 110.22 69.59 109.73 69.57 109.24C69.55 108.75 69.7 108.24 69.95 107.84C70.18 107.45 70.4 107.06 70.63 106.67C72.46 103.52 74.37 100.21 76.36 96.78C77.35 95.07 78.37 93.32 79.39 91.55C79.91 90.66 80.43 89.77 80.96 88.86C81.6 87.88 83.02 87.48 84.07 88.09C91.39 92.21 98.36 96.14 104.71 99.72C106.29 100.62 107.84 101.49 109.34 102.34C110.09 102.76 110.83 103.18 111.56 103.59C111.92 103.81 112.28 103.96 112.66 104.26C113.01 104.56 113.26 104.96 113.37 105.39C113.48 105.82 113.46 106.28 113.33 106.7C113.18 107.13 112.94 107.44 112.76 107.78C112.37 108.45 111.98 109.12 111.6 109.76C110.84 111.06 110.11 112.3 109.41 113.49C106.63 118.21 104.37 122.04 102.78 124.73C102.36 125.38 102.09 126.01 101.66 126.46C101.22 126.89 100.69 127.06 100.28 127.09C99.86 127.12 99.55 127.03 99.36 126.94C99.17 126.86 99.08 126.79 99.08 126.79L99.06 126.82Z" fill="#E0E0E0"/>
<path d="M93.78 106.32L96.3 110.8L91.1 110.89L85.9 110.99L88.58 106.42L91.26 101.85L93.78 106.32Z" fill="#E0E0E0"/>
<path d="M432.91 296.98C432.91 297.13 337.26 297.26 219.3 297.26C101.34 297.26 5.67001 297.14 5.67001 296.98C5.67001 296.82 101.3 296.7 219.3 296.7C337.3 296.7 432.91 296.82 432.91 296.98Z" fill="#263238"/>
<path d="M111.42 233.45L81.22 203.12L96.4 175.24C111.58 155.81 143.72 157.06 143.72 157.06C143.72 157.06 165.59 154.95 191.11 159.92C216.64 164.89 214.58 181.78 214.58 181.78L218 244.35L221.67 295.3L127.52 297.2L111.42 233.45Z" fill="#32245A"/>
<path d="M162.14 294.27L77.81 295.3C57.55 295.55 44.03 274.48 52.7 256.16L88.76 189.29L121.6 211.49L99.2 257.98L167.47 259.2L162.15 294.26L162.14 294.27Z" fill="#32245A"/>
<path d="M211.57 171.62L279.24 276.1L239.76 278.68C239.76 278.68 216.18 241.53 216.72 242.3C217.68 243.69 211.57 171.62 211.57 171.62Z" fill="#32245A"/>
<path d="M119.9 217.5C119.9 217.5 119.92 217.31 119.99 216.96C120.09 216.56 120.2 216.06 120.35 215.45C120.66 214.14 121.12 212.24 121.59 209.87C122.06 207.51 122.57 204.68 122.91 201.51C123.23 198.35 123.43 194.83 122.95 191.21C122.41 187.6 121.05 184.32 119.46 181.59C117.86 178.85 116.07 176.6 114.44 174.83C112.81 173.06 111.37 171.74 110.34 170.87C109.32 169.99 108.73 169.53 108.76 169.49C108.77 169.48 108.93 169.58 109.22 169.78C109.51 169.99 109.95 170.28 110.47 170.71C111.54 171.54 113.03 172.83 114.71 174.58C116.39 176.33 118.24 178.58 119.88 181.35C121.52 184.11 122.92 187.44 123.47 191.14C123.96 194.84 123.74 198.39 123.4 201.57C123.03 204.75 122.48 207.59 121.96 209.95C121.44 212.31 120.93 214.2 120.55 215.5C120.36 216.15 120.21 216.65 120.1 216.99C119.99 217.33 119.92 217.5 119.9 217.5Z" fill="#263238"/>
<path d="M117.19 221.1C117.19 221.1 117.01 221.65 116.61 222.61C116.21 223.57 115.6 224.95 114.84 226.64C113.31 230.03 111.14 234.69 108.64 239.79C106.14 244.89 103.78 249.46 102.03 252.74C101.16 254.38 100.44 255.7 99.92 256.61C99.41 257.52 99.11 258.01 99.08 257.99C99.05 257.97 99.28 257.45 99.74 256.51C100.24 255.5 100.9 254.17 101.7 252.56C103.39 249.15 105.66 244.59 108.17 239.54C110.63 234.47 112.85 229.89 114.51 226.46C115.29 224.85 115.94 223.51 116.43 222.5C116.89 221.57 117.16 221.06 117.19 221.07V221.1Z" fill="#263238"/>
<path d="M162.14 294.27C162.14 294.27 162.14 294.21 162.14 294.09C162.15 293.95 162.16 293.78 162.18 293.58C162.23 293.1 162.3 292.43 162.38 291.59C162.58 289.81 162.85 287.28 163.21 284.09C163.96 277.63 165.01 268.52 166.25 257.79L166.49 258.06C158.9 258.06 150.46 258.07 141.58 258.08C124.57 258.05 109.18 258.02 98 258C92.45 257.97 87.95 257.94 84.79 257.92C83.26 257.9 82.06 257.88 81.2 257.87C80.81 257.86 80.5 257.85 80.27 257.84C80.06 257.84 79.95 257.82 79.95 257.81C79.95 257.8 80.06 257.79 80.27 257.78C80.51 257.78 80.82 257.76 81.2 257.75C82.06 257.74 83.26 257.72 84.79 257.7C87.94 257.68 92.45 257.65 98 257.62C109.18 257.6 124.57 257.57 141.58 257.54C150.46 257.54 158.9 257.56 166.49 257.56H166.76L166.73 257.83C165.41 268.55 164.3 277.65 163.51 284.11C163.1 287.29 162.78 289.82 162.55 291.6C162.43 292.44 162.34 293.1 162.28 293.58C162.25 293.79 162.22 293.95 162.2 294.09C162.18 294.2 162.17 294.26 162.16 294.26L162.14 294.27Z" fill="#263238"/>
<path d="M99.79 258.7C99.72 258.74 99.14 257.89 98.11 256.59C97.08 255.3 95.54 253.59 93.61 251.96C91.68 250.33 89.74 249.1 88.29 248.3C86.84 247.49 85.9 247.07 85.93 246.99C85.95 246.93 86.95 247.24 88.46 247.97C89.97 248.7 91.98 249.9 93.94 251.56C95.9 253.22 97.43 255 98.4 256.36C99.38 257.73 99.84 258.66 99.79 258.69V258.7Z" fill="#263238"/>
<path d="M219.41 265.32C219.41 265.32 219.35 265.02 219.28 264.46C219.21 263.85 219.12 263.02 219 261.97C218.77 259.81 218.46 256.68 218.13 252.8C217.45 245.05 216.66 234.34 215.95 222.49C215.25 210.64 214.76 199.91 214.48 192.14C214.34 188.25 214.24 185.11 214.2 182.94C214.18 181.89 214.17 181.05 214.16 180.44C214.16 179.87 214.16 179.57 214.18 179.57C214.2 179.57 214.23 179.87 214.26 180.44C214.29 181.06 214.34 181.89 214.4 182.94C214.51 185.16 214.66 188.29 214.85 192.14C215.23 199.91 215.77 210.63 216.47 222.48C217.17 234.32 217.9 245.04 218.49 252.79C218.79 256.63 219.03 259.75 219.2 261.97C219.28 263.02 219.34 263.85 219.38 264.47C219.42 265.04 219.43 265.34 219.41 265.34V265.32Z" fill="#263238"/>
<path d="M144.13 208.47C144.13 208.47 144.14 207.99 144.24 207.1C144.36 206.15 144.51 204.88 144.7 203.32C145.14 200.02 145.74 195.5 146.44 190.26L146.83 190.5C144.81 191.91 142.63 193.44 140.36 195.03C138.05 196.64 135.83 198.18 133.78 199.61L133.31 199.94L133.4 199.37C134.19 194.18 134.88 189.7 135.38 186.43C135.63 184.89 135.84 183.64 136 182.7C136.15 181.83 136.25 181.36 136.28 181.37C136.31 181.37 136.27 181.85 136.17 182.73C136.05 183.68 135.89 184.94 135.7 186.48C135.25 189.76 134.62 194.25 133.9 199.45L133.51 199.21C135.55 197.78 137.77 196.23 140.08 194.61C142.35 193.03 144.54 191.5 146.56 190.1L147.03 189.77L146.95 190.34C146.18 195.56 145.52 200.08 145.03 203.37C144.78 204.92 144.58 206.18 144.43 207.13C144.28 208.01 144.19 208.48 144.16 208.47H144.13Z" fill="#E0E0E0"/>
<path d="M181.77 212.53C181.77 212.53 181.4 212.21 180.79 211.57C180.13 210.87 179.25 209.94 178.17 208.8C175.91 206.35 172.82 203 169.24 199.12L169.67 198.97C169.47 201.42 169.25 204.08 169.02 206.84C168.78 209.64 168.55 212.34 168.33 214.83L168.28 215.41L167.9 214.98C164.42 211.05 161.41 207.66 159.21 205.18C158.19 204 157.36 203.04 156.73 202.32C156.16 201.65 155.86 201.27 155.88 201.26C155.9 201.24 156.24 201.58 156.85 202.21C157.5 202.91 158.37 203.83 159.43 204.97C161.66 207.41 164.72 210.76 168.26 214.64L167.83 214.78C168.04 212.29 168.26 209.59 168.49 206.79C168.73 204.03 168.96 201.37 169.17 198.92L169.22 198.35L169.6 198.78C173.13 202.71 176.17 206.11 178.4 208.59C179.44 209.77 180.28 210.73 180.91 211.46C181.49 212.13 181.79 212.51 181.77 212.53Z" fill="#E0E0E0"/>
<path d="M200.71 211.19C200.71 211.19 200.49 211.62 200.03 212.38C199.52 213.19 198.84 214.28 198.01 215.61C196.21 218.41 193.74 222.25 190.88 226.69L190.63 226.31C193.05 225.89 195.68 225.44 198.41 224.97C201.18 224.5 203.86 224.05 206.32 223.63L206.89 223.53L206.57 224.01C203.64 228.37 201.11 232.13 199.27 234.88C198.38 236.16 197.66 237.21 197.12 237.99C196.61 238.71 196.33 239.09 196.3 239.08C196.28 239.06 196.52 238.65 196.98 237.9C197.49 237.09 198.17 236.02 199.01 234.71C200.82 231.94 203.29 228.14 206.16 223.74L206.41 224.12C203.95 224.54 201.28 225 198.51 225.48C195.78 225.94 193.15 226.39 190.72 226.8L190.15 226.9L190.47 226.42C193.39 222.02 195.92 218.22 197.76 215.45C198.64 214.15 199.36 213.1 199.91 212.3C200.42 211.57 200.7 211.18 200.73 211.2L200.71 211.19Z" fill="#E0E0E0"/>
<path d="M175.52 230.56C175.52 230.56 175.3 230.99 174.84 231.75C174.33 232.56 173.65 233.65 172.82 234.98C171.02 237.78 168.55 241.62 165.69 246.06L165.44 245.68C167.86 245.26 170.49 244.81 173.22 244.34C175.99 243.87 178.67 243.42 181.13 243L181.7 242.9L181.38 243.38C178.45 247.74 175.92 251.5 174.08 254.25C173.19 255.53 172.47 256.58 171.93 257.36C171.42 258.08 171.14 258.46 171.11 258.45C171.09 258.43 171.33 258.02 171.79 257.27C172.3 256.46 172.98 255.39 173.82 254.08C175.63 251.31 178.1 247.51 180.97 243.11L181.22 243.49C178.76 243.91 176.09 244.37 173.32 244.85C170.59 245.31 167.96 245.76 165.53 246.17L164.96 246.27L165.28 245.79C168.2 241.39 170.73 237.59 172.57 234.82C173.45 233.52 174.17 232.47 174.72 231.67C175.23 230.94 175.51 230.55 175.54 230.57L175.52 230.56Z" fill="#E0E0E0"/>
<path d="M229.94 210.91C229.94 210.91 229.72 211.34 229.26 212.1C228.75 212.91 228.07 214 227.24 215.33C225.44 218.13 222.97 221.97 220.11 226.41L219.86 226.03C222.28 225.61 224.91 225.16 227.64 224.69C230.41 224.22 233.09 223.77 235.55 223.35L236.12 223.25L235.8 223.73C232.87 228.09 230.34 231.85 228.5 234.6C227.61 235.88 226.89 236.93 226.35 237.71C225.84 238.43 225.56 238.81 225.53 238.8C225.51 238.78 225.75 238.37 226.21 237.62C226.72 236.81 227.4 235.74 228.24 234.43C230.05 231.66 232.52 227.86 235.39 223.46L235.64 223.84C233.18 224.26 230.51 224.72 227.74 225.2C225.01 225.66 222.38 226.11 219.95 226.52L219.38 226.62L219.7 226.14C222.62 221.74 225.15 217.94 226.99 215.17C227.87 213.87 228.59 212.82 229.14 212.02C229.65 211.29 229.93 210.9 229.96 210.92L229.94 210.91Z" fill="#E0E0E0"/>
<path d="M102.49 194.91C102.49 194.91 102.27 195.34 101.81 196.1C101.3 196.91 100.62 198 99.79 199.33C97.99 202.13 95.52 205.97 92.66 210.41L92.41 210.03C94.83 209.61 97.46 209.16 100.19 208.69C102.96 208.22 105.64 207.77 108.1 207.35L108.67 207.25L108.35 207.73C105.42 212.09 102.89 215.85 101.05 218.6C100.16 219.88 99.44 220.93 98.9 221.71C98.39 222.43 98.11 222.81 98.08 222.8C98.06 222.78 98.3 222.37 98.76 221.62C99.27 220.81 99.95 219.74 100.79 218.43C102.6 215.66 105.07 211.86 107.94 207.46L108.19 207.84C105.73 208.26 103.06 208.72 100.29 209.2C97.56 209.66 94.93 210.11 92.5 210.52L91.93 210.62L92.25 210.14C95.17 205.74 97.7 201.94 99.54 199.17C100.42 197.87 101.14 196.82 101.69 196.02C102.2 195.29 102.48 194.9 102.51 194.92L102.49 194.91Z" fill="#E0E0E0"/>
<path d="M62.96 269.68C62.96 269.68 63.31 270.02 63.88 270.7C64.49 271.44 65.31 272.42 66.32 273.63C68.42 276.21 71.3 279.75 74.63 283.85L74.19 283.97C74.55 281.54 74.93 278.9 75.33 276.15C75.75 273.37 76.15 270.69 76.51 268.22L76.6 267.65L76.95 268.1C80.18 272.24 82.97 275.81 85.01 278.42C85.96 279.66 86.72 280.67 87.3 281.43C87.83 282.14 88.1 282.53 88.08 282.55C88.06 282.57 87.74 282.21 87.17 281.54C86.56 280.8 85.76 279.82 84.76 278.62C82.69 276.04 79.85 272.51 76.56 268.42L77 268.3C76.64 270.77 76.25 273.45 75.84 276.23C75.43 278.97 75.04 281.61 74.67 284.04L74.59 284.61L74.24 284.16C70.97 280.02 68.14 276.44 66.07 273.82C65.11 272.58 64.33 271.56 63.74 270.8C63.21 270.09 62.93 269.7 62.95 269.68H62.96Z" fill="#E0E0E0"/>
<path d="M153.25 221.27C153.25 221.27 152.77 221.36 151.89 221.44C150.93 221.52 149.66 221.63 148.09 221.77C144.77 222.02 140.22 222.36 134.95 222.75L135.1 222.32C136.89 224 138.84 225.83 140.86 227.72C142.91 229.65 144.88 231.51 146.69 233.22L147.11 233.62L146.54 233.65C141.3 233.94 136.77 234.19 133.47 234.37C131.91 234.44 130.64 234.49 129.69 234.53C128.81 234.56 128.33 234.56 128.33 234.53C128.33 234.5 128.8 234.44 129.68 234.36C130.63 234.28 131.9 234.18 133.45 234.05C136.75 233.82 141.27 233.51 146.51 233.15L146.36 233.58C144.54 231.87 142.56 230.02 140.51 228.09C138.5 226.19 136.55 224.36 134.77 222.67L134.35 222.28L134.92 222.25C140.19 221.93 144.75 221.66 148.07 221.46C149.64 221.38 150.92 221.32 151.88 221.28C152.77 221.25 153.25 221.24 153.25 221.28V221.27Z" fill="#E0E0E0"/>
<path d="M131.1 271.67C131.1 271.67 131.45 272 132.04 272.67C132.67 273.4 133.51 274.36 134.54 275.55C136.69 278.09 139.64 281.58 143.05 285.61L142.61 285.74C142.92 283.3 143.25 280.65 143.6 277.9C143.96 275.11 144.31 272.42 144.63 269.95L144.7 269.38L145.06 269.83C148.37 273.9 151.23 277.42 153.32 279.99C154.29 281.21 155.08 282.21 155.67 282.95C156.21 283.65 156.49 284.03 156.47 284.05C156.45 284.07 156.12 283.72 155.54 283.06C154.92 282.34 154.09 281.37 153.08 280.19C150.96 277.65 148.05 274.18 144.68 270.15L145.12 270.02C144.81 272.5 144.47 275.18 144.12 277.97C143.76 280.72 143.42 283.36 143.11 285.8L143.04 286.37L142.68 285.93C139.33 281.85 136.43 278.33 134.31 275.75C133.33 274.52 132.53 273.53 131.93 272.78C131.38 272.08 131.1 271.69 131.12 271.68L131.1 271.67Z" fill="#E0E0E0"/>
<path d="M91.49 234.7C91.49 234.7 91.01 234.79 90.13 234.88C89.17 234.96 87.9 235.07 86.33 235.21C83.01 235.46 78.46 235.8 73.19 236.19L73.34 235.76C75.13 237.44 77.08 239.27 79.1 241.16C81.15 243.09 83.12 244.95 84.93 246.66L85.35 247.06L84.78 247.09C79.54 247.38 75.01 247.63 71.71 247.81C70.15 247.88 68.88 247.93 67.93 247.97C67.05 248 66.57 248 66.57 247.97C66.57 247.94 67.04 247.88 67.92 247.8C68.87 247.72 70.14 247.62 71.69 247.49C74.99 247.26 79.51 246.95 84.75 246.59L84.6 247.02C82.78 245.31 80.8 243.46 78.75 241.54C76.74 239.64 74.79 237.81 73.01 236.12L72.59 235.73L73.16 235.7C78.43 235.38 82.99 235.11 86.31 234.91C87.88 234.83 89.16 234.77 90.12 234.73C91.01 234.7 91.49 234.69 91.49 234.73V234.7Z" fill="#E0E0E0"/>
<path d="M125.52 270.53C125.52 270.53 125.04 270.62 124.16 270.71C123.2 270.79 121.93 270.9 120.36 271.04C117.04 271.29 112.49 271.63 107.22 272.02L107.37 271.59C109.16 273.27 111.11 275.1 113.13 276.99C115.18 278.92 117.15 280.78 118.96 282.49L119.38 282.89L118.81 282.92C113.57 283.21 109.04 283.46 105.74 283.64C104.18 283.71 102.91 283.76 101.96 283.8C101.08 283.83 100.6 283.83 100.6 283.8C100.6 283.77 101.07 283.71 101.95 283.63C102.9 283.55 104.17 283.45 105.72 283.32C109.02 283.09 113.54 282.78 118.78 282.42L118.63 282.85C116.81 281.14 114.83 279.29 112.78 277.37C110.77 275.47 108.82 273.64 107.04 271.95L106.62 271.56L107.19 271.53C112.46 271.21 117.02 270.94 120.34 270.74C121.91 270.66 123.19 270.6 124.15 270.56C125.04 270.53 125.52 270.52 125.52 270.56V270.53Z" fill="#E0E0E0"/>
<path d="M202.33 179.38C202.33 179.38 201.85 179.47 200.97 179.55C200.01 179.63 198.74 179.74 197.17 179.88C193.85 180.13 189.3 180.47 184.03 180.86L184.18 180.43C185.97 182.11 187.92 183.94 189.94 185.83C191.99 187.76 193.96 189.62 195.77 191.33L196.19 191.73L195.62 191.76C190.38 192.05 185.85 192.3 182.55 192.48C180.99 192.55 179.72 192.6 178.77 192.64C177.89 192.67 177.41 192.67 177.41 192.64C177.41 192.61 177.88 192.55 178.76 192.47C179.71 192.39 180.98 192.29 182.53 192.16C185.83 191.93 190.35 191.62 195.59 191.26L195.44 191.69C193.62 189.98 191.64 188.13 189.59 186.21C187.58 184.31 185.63 182.48 183.85 180.79L183.43 180.4L184 180.37C189.27 180.05 193.83 179.78 197.15 179.58C198.72 179.5 200 179.44 200.96 179.4C201.85 179.37 202.33 179.36 202.33 179.4V179.38Z" fill="#E0E0E0"/>
<path d="M164.96 270.53C164.96 270.53 181.79 265.68 187.35 264.26C189.52 263.71 198.81 268.61 205.23 272.68C205.23 272.68 214.07 277.92 213.35 279.54C212.56 281.32 209.3 280.95 204.11 278.51C204.11 278.51 205.92 283.78 202.36 283.66C202.36 283.66 204.13 289.35 200.79 289.94C197.45 290.53 196.67 283.27 193.72 282.87C190.78 282.48 184.69 282.08 184.69 282.08C184.69 282.08 179.62 290.47 175.7 291.06C171.77 291.65 162.68 290.59 162.68 290.59L164.95 270.52L164.96 270.53Z" fill="#FFBE9D"/>
<path d="M193.68 271.69C193.76 271.57 195.86 272.76 198.38 274.35C200.9 275.94 202.88 277.32 202.8 277.45C202.72 277.57 200.62 276.38 198.1 274.79C195.58 273.2 193.6 271.82 193.68 271.69Z" fill="#EB996E"/>
<path d="M192.69 274.93C192.75 274.8 195.25 275.82 198.27 277.22C201.29 278.61 203.69 279.85 203.63 279.98C203.57 280.11 201.07 279.09 198.05 277.69C195.03 276.3 192.63 275.06 192.69 274.93Z" fill="#EB996E"/>
<path d="M194.49 282.77C194.51 282.63 196.21 282.74 198.29 283.03C200.37 283.31 202.04 283.66 202.02 283.8C202 283.94 200.3 283.83 198.22 283.54C196.14 283.26 194.47 282.91 194.49 282.77Z" fill="#EB996E"/>
<path d="M143.08 96.98C143.47 98.27 143.03 99.77 142 100.63C140.97 101.5 139.41 101.67 138.21 101.07C135.93 99.91 135.64 96.77 136.09 94.25C136.54 91.73 137.39 89.05 136.34 86.72C135.53 84.94 133.78 83.81 132.42 82.41C130.04 79.97 128.78 76.41 129.36 73.05C129.94 69.69 132.46 66.67 135.74 65.76C139.09 64.82 143.22 65.85 145.71 63.43C147.52 61.67 147.63 58.79 149.03 56.7C151.2 53.44 155.79 52.93 159.67 53.46C163.55 53.99 167.49 55.23 171.29 54.29C174.46 53.5 177.07 51.29 180.04 49.93C186.48 46.98 194.72 48.58 199.59 53.72C204.47 58.86 205.62 67.17 202.34 73.45C201.16 75.71 199.38 77.75 197.03 78.71" fill="#7AC4C3"/>
<path d="M162.37 179.58C173.11 179.57 181.77 170.78 181.63 160.04L181.38 141.66C181.38 141.66 196.82 140.11 197.85 124.81C198.87 109.51 198.13 74.21 198.13 74.21C180.82 65.63 160.22 67.08 144.29 78.02L141.93 79.64L143.08 160.58C143.23 171.13 151.83 179.6 162.38 179.58H162.37Z" fill="#FFBE9D"/>
<path d="M194.07 101.91C191.35 101.37 191.37 97.86 194.1 97.36C194.22 97.34 194.35 97.34 194.47 97.36C197.19 97.9 197.17 101.41 194.44 101.91C194.32 101.93 194.19 101.93 194.07 101.91Z" fill="#263238"/>
<path d="M197.07 97.03C196.82 97.28 195.38 96.04 193.27 95.92C191.16 95.76 189.57 96.8 189.35 96.52C189.24 96.39 189.51 95.93 190.2 95.46C190.88 94.99 192.03 94.57 193.35 94.65C194.66 94.74 195.75 95.31 196.36 95.87C196.99 96.43 197.19 96.93 197.06 97.04L197.07 97.03Z" fill="#263238"/>
<path d="M172.68 97.54C173.69 98.24 173.94 99.63 173.24 100.64C172.54 101.65 171.15 101.9 170.14 101.2C169.13 100.5 168.88 99.11 169.58 98.1C170.28 97.09 171.67 96.84 172.68 97.54Z" fill="#263238"/>
<path d="M174.07 97.64C173.82 97.89 172.38 96.65 170.27 96.53C168.16 96.37 166.57 97.41 166.35 97.13C166.24 97 166.51 96.54 167.2 96.07C167.88 95.6 169.03 95.18 170.35 95.26C171.66 95.35 172.75 95.92 173.36 96.48C173.99 97.04 174.19 97.54 174.07 97.65V97.64Z" fill="#263238"/>
<path d="M181.57 115.49C181.57 115.32 182.88 115.13 185.02 114.95C185.58 114.92 186.01 114.82 186.07 114.52C186.19 114.19 186.01 113.59 185.76 112.92C185.29 111.5 184.82 110.05 184.33 108.54C182.36 102.31 181.02 97.18 181.33 97.08C181.65 96.98 183.5 101.95 185.47 108.18C185.93 109.7 186.38 111.15 186.81 112.58C186.98 113.23 187.32 113.99 186.99 114.89C186.81 115.34 186.36 115.64 185.99 115.72C185.62 115.81 185.31 115.79 185.04 115.79C182.9 115.75 181.57 115.64 181.56 115.48L181.57 115.49Z" fill="#263238"/>
<path d="M174.6 117.45C177.3 118.7 180.52 120.26 184.78 121.02C184.78 121.02 182.1 124.82 177.78 122.96C173.29 121.03 174.61 117.45 174.61 117.45H174.6Z" fill="white"/>
<path d="M181.41 141.43C181.41 141.43 171.69 141.69 161.76 134.67C161.76 134.67 165.88 145.95 181.23 145.4L181.41 141.43Z" fill="#EB996E"/>
<path d="M198.23 78.07C198.23 78.07 188.99 82.77 176.73 76.94C168.69 73.12 159.36 71.36 157.35 73C155.34 74.64 155.06 82.86 147.22 85.41C147.22 85.41 148.07 101.06 141.81 100.62C135.55 100.18 138.99 75.85 138.99 75.85L154.12 68.09L170.73 64.62L186.48 66.53L198.7 69.62L198.24 78.07H198.23Z" fill="#7AC4C3"/>
<path d="M142.95 95.59C142.7 95.46 132.6 91.9 132.36 102.39C132.12 112.88 142.7 110.95 142.73 110.65C142.75 110.35 142.95 95.59 142.95 95.59Z" fill="#FFBE9D"/>
<path d="M139.62 106.61C139.62 106.61 139.43 106.73 139.12 106.87C138.82 107 138.3 107.08 137.75 106.87C136.65 106.44 135.76 104.66 135.75 102.77C135.75 101.81 135.96 100.91 136.32 100.17C136.66 99.41 137.17 98.89 137.73 98.8C138.29 98.68 138.68 99.03 138.8 99.33C138.93 99.63 138.86 99.83 138.92 99.85C138.95 99.88 139.15 99.68 139.07 99.24C139.03 99.03 138.91 98.78 138.67 98.57C138.42 98.36 138.06 98.25 137.67 98.28C136.86 98.32 136.12 99.05 135.73 99.86C135.3 100.68 135.03 101.7 135.03 102.77C135.05 104.88 136.09 106.89 137.59 107.36C138.32 107.57 138.94 107.36 139.27 107.12C139.6 106.87 139.66 106.64 139.62 106.62V106.61Z" fill="#EB996E"/>
<path d="M137.61 62.76C137.55 62.64 139.27 62.15 141.25 62.89C143.23 63.62 144.21 65.12 144.09 65.17C143.98 65.28 142.9 64.04 141.07 63.38C139.25 62.68 137.63 62.91 137.61 62.76Z" fill="#263238"/>
<path d="M143.92 56.48C144.1 56.49 143.82 58.69 144.18 61.31C144.54 63.96 145.78 65.8 145.64 65.88C145.59 65.92 145.21 65.51 144.76 64.72C144.32 63.94 143.85 62.75 143.66 61.39C143.28 58.64 143.81 56.46 143.91 56.48H143.92Z" fill="#263238"/>
<path d="M187.01 91.99C186.95 91.87 187.4 91.51 188.25 91.16C189.1 90.81 190.36 90.52 191.77 90.53C193.18 90.55 194.43 90.87 195.27 91.23C196.11 91.59 196.56 91.96 196.5 92.09C196.37 92.37 194.35 91.58 191.76 91.57C189.17 91.52 187.13 92.27 187.01 91.99Z" fill="#263238"/>
<path d="M163.62 89.79C163.56 89.67 164.01 89.31 164.86 88.96C165.71 88.61 166.97 88.32 168.38 88.33C169.79 88.35 171.04 88.67 171.88 89.03C172.72 89.39 173.17 89.76 173.11 89.89C172.98 90.17 170.96 89.38 168.37 89.37C165.78 89.32 163.74 90.07 163.62 89.79Z" fill="#263238"/>
<path d="M185.2 93.64C185.2 93.64 185.23 93.87 185.24 94.26C185.25 94.7 185.27 95.26 185.29 95.95C185.31 96.69 185.32 97.57 185.34 98.58C185.34 99.59 185.4 100.77 185.84 101.98C186.26 103.18 186.98 104.42 188.05 105.47C189.13 106.5 190.54 107.36 192.18 107.74C193 107.93 193.86 108.03 194.74 107.96C195.62 107.92 196.51 107.74 197.36 107.41C199.07 106.78 200.62 105.55 201.67 103.92C202.67 102.37 203.12 100.56 203.08 98.8C203.08 97.01 203.08 95.28 203.09 93.63L203.33 93.87C198.09 93.82 193.61 93.78 190.35 93.75C188.79 93.72 187.53 93.7 186.58 93.68C186.18 93.67 185.84 93.66 185.56 93.65C185.33 93.65 185.2 93.63 185.19 93.62C185.17 93.6 185.62 93.58 186.48 93.56C187.41 93.54 188.65 93.52 190.19 93.49C193.48 93.46 198.02 93.42 203.33 93.37H203.57V93.61C203.57 95.26 203.57 96.99 203.58 98.78C203.64 100.6 203.16 102.55 202.1 104.18C200.99 105.9 199.34 107.21 197.53 107.86C196.63 108.21 195.69 108.39 194.76 108.43C193.83 108.49 192.92 108.39 192.06 108.18C190.33 107.77 188.85 106.85 187.74 105.75C186.63 104.63 185.9 103.33 185.48 102.06C185.05 100.79 185.01 99.57 185.04 98.52C185.06 97.49 185.08 96.59 185.09 95.83C185.11 95.15 185.13 94.6 185.14 94.16C185.15 93.78 185.17 93.6 185.18 93.61L185.2 93.64Z" fill="#263238"/>
<path d="M160.68 93.12C160.68 93.12 160.71 93.35 160.72 93.74C160.73 94.18 160.75 94.74 160.77 95.43C160.79 96.17 160.8 97.05 160.82 98.06C160.82 99.07 160.88 100.25 161.32 101.46C161.74 102.66 162.46 103.9 163.53 104.95C164.61 105.98 166.02 106.84 167.66 107.22C168.48 107.41 169.34 107.51 170.22 107.44C171.1 107.4 171.99 107.22 172.84 106.89C174.55 106.26 176.1 105.03 177.15 103.4C178.15 101.85 178.6 100.04 178.56 98.28C178.56 96.49 178.56 94.76 178.57 93.11L178.81 93.35C173.57 93.3 169.09 93.26 165.83 93.23C164.27 93.2 163.01 93.18 162.06 93.16C161.66 93.15 161.32 93.14 161.04 93.13C160.81 93.13 160.68 93.11 160.67 93.1C160.65 93.08 161.1 93.06 161.96 93.04C162.89 93.02 164.13 93 165.67 92.97C168.96 92.94 173.5 92.9 178.81 92.85H179.05V93.09C179.05 94.74 179.05 96.47 179.06 98.26C179.12 100.08 178.64 102.03 177.58 103.66C176.47 105.38 174.82 106.69 173.01 107.34C172.11 107.69 171.17 107.87 170.24 107.91C169.31 107.97 168.4 107.87 167.54 107.66C165.81 107.25 164.33 106.33 163.22 105.23C162.11 104.11 161.38 102.81 160.96 101.54C160.53 100.27 160.49 99.05 160.52 98C160.54 96.97 160.56 96.07 160.57 95.31C160.59 94.63 160.61 94.08 160.62 93.64C160.63 93.26 160.65 93.08 160.66 93.09L160.68 93.12Z" fill="#263238"/>
<path d="M185.42 94.37C185.42 94.51 183.87 94.63 181.97 94.63C180.07 94.63 178.52 94.51 178.52 94.37C178.52 94.23 180.07 94.11 181.97 94.11C183.87 94.11 185.42 94.23 185.42 94.37Z" fill="#263238"/>
<path d="M141.56 94.51C141.56 94.37 145.84 94.24 151.12 94.22C156.4 94.2 160.68 94.31 160.68 94.45C160.68 94.59 156.4 94.72 151.12 94.74C145.84 94.76 141.56 94.65 141.56 94.51Z" fill="#263238"/>
<path d="M333.7 106.93L303.93 96.24L274.45 106.79C270.69 108.57 267.39 109.63 267.39 113.14V130.6C267.39 142.72 270.57 154.74 277.1 165.34C282.6 174.26 291.11 183.45 304.22 189.29C316.27 185.38 325.26 174.94 330.76 166.02C337.29 155.41 340.47 143.4 340.47 131.28V115.58C340.47 110.58 337.82 108.14 333.7 106.94V106.93Z" fill="#32245A"/>
<g opacity="0.3">
<path d="M304.22 179.15C293.85 174.53 287.11 167.1 282.76 160.04C277.59 151.65 275.08 142.15 275.08 132.55V120.31C275.08 117.54 276.75 114.94 280.08 113.39L303.94 104.47V96.24L274.45 106.79C271.36 108.14 267.39 109.63 267.39 113.14V130.6C267.39 142.72 270.57 154.74 277.1 165.34C282.6 174.26 291.11 183.45 304.22 189.29V179.16V179.15Z" fill="black"/>
</g>
<g opacity="0.4">
<path d="M304.22 189.28C306.31 188.58 308.23 187.78 310.07 186.77C315.01 184.08 319.23 180.38 322.45 177.03C326.05 173.29 328.73 169.24 331.06 165.46C337.59 154.85 340.77 142.84 340.48 130.39L340.5 115.98C340.48 108.8 336.8 108.27 333.71 106.92L303.94 96.23V104.46L328.09 113.53C331.41 115.08 333.09 117.68 333.09 120.45V132.69C333.09 142.28 330.58 151.78 325.41 160.18C321.06 167.24 314.61 174.52 304.24 179.14V189.27L304.22 189.28Z" fill="black"/>
</g>
<path opacity="0.5" d="M311.83 131.77L311.86 129.41C311.86 125.15 308.39 121.68 304.13 121.68C299.87 121.68 296.4 125.15 296.4 129.4L296.37 131.8C294.28 132.11 292.68 133.9 292.68 136.07V149.97C292.68 152.36 294.62 154.3 297 154.3H311.43C313.82 154.3 315.76 152.36 315.76 149.97V136.07C315.76 133.81 314.03 131.96 311.83 131.76V131.77ZM306.2 146.51H302.43L303.02 143.79C302.37 143.38 301.93 142.66 301.93 141.84C301.93 140.57 302.96 139.54 304.23 139.54C305.5 139.54 306.53 140.57 306.53 141.84C306.53 142.64 306.13 143.34 305.51 143.75C305.78 144.81 306.2 146.52 306.2 146.52V146.51ZM310.17 131.75H298.04L298.07 129.41C298.07 126.07 300.79 123.35 304.13 123.35C307.47 123.35 310.19 126.07 310.19 129.4L310.16 131.75H310.17Z" fill="white"/>
<path d="M279.9 131.6C279.83 131.6 279.63 130.69 279.45 129.18C279.27 127.67 279.14 125.57 279.21 123.25C279.24 122.09 279.32 120.99 279.42 119.99C279.52 118.99 279.7 118.06 280.09 117.36C280.47 116.66 281 116.24 281.39 116.05C281.79 115.86 282.05 115.87 282.05 115.9C282.1 115.97 281.04 116.17 280.42 117.53C280.11 118.18 279.97 119.05 279.9 120.04C279.82 121.03 279.76 122.12 279.73 123.27C279.66 125.57 279.73 127.65 279.82 129.15C279.9 130.66 279.98 131.59 279.9 131.6Z" fill="white"/>
<path d="M280.34 139.2C280.2 139.2 280.07 138.49 280.05 137.6C280.03 136.71 280.13 135.99 280.28 135.99C280.42 135.99 280.55 136.7 280.57 137.59C280.59 138.48 280.49 139.2 280.34 139.2Z" fill="white"/>
<path d="M248.93 211.19L215.74 293.28H155.88V296.98H334.16L370.62 211.19H248.93Z" fill="#7AC4C3"/>
<path d="M299.67 259.65C298.47 263.78 294.97 266.39 291.85 265.49C288.73 264.58 287.18 260.5 288.38 256.37C289.58 252.24 293.08 249.63 296.2 250.53C299.32 251.44 300.87 255.52 299.67 259.65Z" fill="#FAFAFA"/>
</g>
<defs>
<clipPath id="clip0_117_2322">
<rect width="432.91" height="298.57" fill="white"/>
</clipPath>
</defs>
</svg>
