<svg width="219" height="373" viewBox="0 0 219 373" fill="none" xmlns="http://www.w3.org/2000/svg">
<circle cx="6" cy="19.0029" r="5" transform="rotate(-90 6 19.0029)" stroke="#777E90" stroke-width="2"/>
<line x1="5.5" y1="125.003" x2="5.5" y2="25.0029" stroke="#777E90" stroke-dasharray="4 8"/>
<circle cx="6" cy="131.003" r="5" transform="rotate(-90 6 131.003)" stroke="#777E90" stroke-width="2"/>
<line x1="5.5" y1="237.003" x2="5.5" y2="137.003" stroke="#777E90" stroke-dasharray="4 8"/>
<circle cx="6" cy="243.003" r="5" transform="rotate(-90 6 243.003)" stroke="#777E90" stroke-width="2"/>
<line x1="5.5" y1="349.003" x2="5.5" y2="249.003" stroke="#777E90" stroke-dasharray="4 8"/>
<circle cx="6" cy="355.003" r="5" transform="rotate(-90 6 355.003)" stroke="#777E90" stroke-width="2"/>
<path d="M27.5469 123.003H25.6016L22.9766 118.169C22.8086 117.864 22.5879 117.392 22.3145 116.751C22.4355 117.583 22.4961 118.271 22.4961 118.813V123.003H20.9609V114.999H22.8652L25.5547 119.845C25.6484 120.017 25.709 120.14 25.7363 120.214C25.7676 120.288 25.8242 120.429 25.9062 120.636C25.9883 120.843 26.0723 121.052 26.1582 121.263C26.0605 120.704 26.0117 120.052 26.0117 119.306V114.999H27.5469V123.003ZM35.1055 120.085C35.1055 120.542 35.0312 120.962 34.8828 121.345C34.7344 121.724 34.5234 122.048 34.25 122.317C33.9805 122.583 33.6562 122.79 33.2773 122.938C32.8984 123.087 32.4766 123.161 32.0117 123.161C31.3984 123.161 30.8594 123.028 30.3945 122.763C29.9297 122.497 29.5703 122.122 29.3164 121.638C29.0664 121.153 28.9414 120.608 28.9414 120.003C28.9414 119.397 29.0703 118.86 29.3281 118.392C29.5859 117.923 29.9473 117.56 30.4121 117.302C30.8809 117.04 31.418 116.909 32.0234 116.909C32.4922 116.909 32.916 116.987 33.2949 117.144C33.6777 117.3 34.0039 117.522 34.2734 117.812C34.543 118.097 34.748 118.433 34.8887 118.819C35.0332 119.206 35.1055 119.628 35.1055 120.085ZM33.5117 120.05C33.5117 119.729 33.459 119.415 33.3535 119.106C33.252 118.798 33.0879 118.544 32.8613 118.345C32.6348 118.146 32.3555 118.046 32.0234 118.046C31.707 118.046 31.4336 118.144 31.2031 118.339C30.9766 118.534 30.8086 118.784 30.6992 119.089C30.5898 119.39 30.5352 119.694 30.5352 120.003C30.5352 120.335 30.5859 120.655 30.6875 120.964C30.793 121.272 30.959 121.526 31.1855 121.726C31.4121 121.921 31.6992 122.019 32.0469 122.019C32.293 122.019 32.5098 121.96 32.6973 121.843C32.8848 121.722 33.0371 121.569 33.1543 121.386C33.2715 121.198 33.3594 120.989 33.418 120.759C33.4805 120.524 33.5117 120.288 33.5117 120.05ZM39.6055 123.003H37.8887L35.668 117.062H37.3496L38.3457 119.921C38.6074 120.651 38.7676 121.239 38.8262 121.685C38.9199 121.212 39.0449 120.751 39.2012 120.302L40.2676 117.062H41.8145L39.6055 123.003ZM43.8359 117.577H42.7051L42.4297 114.36H44.123L43.8359 117.577ZM53.8027 121.72V123.003H48.4414V121.661C48.9883 121.165 49.3926 120.792 49.6543 120.542C49.9199 120.292 50.2324 119.97 50.5918 119.575C50.9551 119.177 51.2578 118.78 51.5 118.386C51.7422 117.987 51.8633 117.634 51.8633 117.325C51.8633 116.97 51.7461 116.69 51.5117 116.487C51.2812 116.28 50.9902 116.177 50.6387 116.177C50.0215 116.177 49.3848 116.399 48.7285 116.845L48.5938 115.433C49.4297 115.065 50.2422 114.882 51.0312 114.882C51.5078 114.882 51.9375 114.968 52.3203 115.14C52.7031 115.312 53.0078 115.569 53.2344 115.913C53.4609 116.257 53.5742 116.669 53.5742 117.149C53.5742 117.646 53.4102 118.177 53.082 118.743C52.7539 119.31 52.3574 119.849 51.8926 120.36C51.4277 120.872 50.9648 121.333 50.5039 121.743L53.8027 121.72ZM60.4062 119.019C60.4062 119.448 60.3906 119.831 60.3594 120.167C60.3281 120.499 60.2598 120.835 60.1543 121.175C60.0488 121.515 59.9043 121.815 59.7207 122.077C59.4863 122.417 59.1816 122.679 58.8066 122.862C58.4355 123.046 58.041 123.138 57.623 123.138C56.8965 123.138 56.3262 122.938 55.9121 122.54C55.498 122.138 55.2129 121.63 55.0566 121.017C54.9043 120.399 54.8281 119.733 54.8281 119.019C54.8281 118.304 54.9062 117.64 55.0625 117.026C55.2227 116.409 55.5098 115.897 55.9238 115.491C56.3418 115.085 56.9082 114.882 57.623 114.882C58.3379 114.882 58.9023 115.085 59.3164 115.491C59.7305 115.897 60.0156 116.409 60.1719 117.026C60.3281 117.64 60.4062 118.304 60.4062 119.019ZM58.7891 119.007C58.7891 118.597 58.7656 118.179 58.7188 117.753C58.6758 117.323 58.5684 116.937 58.3965 116.593C58.2246 116.249 57.9668 116.077 57.623 116.077C57.2715 116.077 57.0078 116.251 56.832 116.599C56.6602 116.942 56.5527 117.321 56.5098 117.735C56.4668 118.149 56.4453 118.589 56.4453 119.054C56.4453 119.788 56.5156 120.452 56.6562 121.046C56.7969 121.64 57.1191 121.937 57.623 121.937C57.9668 121.937 58.2246 121.776 58.3965 121.456C58.5723 121.132 58.6816 120.765 58.7246 120.354C58.7676 119.94 58.7891 119.522 58.7891 119.101V119.007ZM66.6699 121.72V123.003H61.3086V121.661C61.8555 121.165 62.2598 120.792 62.5215 120.542C62.7871 120.292 63.0996 119.97 63.459 119.575C63.8223 119.177 64.125 118.78 64.3672 118.386C64.6094 117.987 64.7305 117.634 64.7305 117.325C64.7305 116.97 64.6133 116.69 64.3789 116.487C64.1484 116.28 63.8574 116.177 63.5059 116.177C62.8887 116.177 62.252 116.399 61.5957 116.845L61.4609 115.433C62.2969 115.065 63.1094 114.882 63.8984 114.882C64.375 114.882 64.8047 114.968 65.1875 115.14C65.5703 115.312 65.875 115.569 66.1016 115.913C66.3281 116.257 66.4414 116.669 66.4414 117.149C66.4414 117.646 66.2773 118.177 65.9492 118.743C65.6211 119.31 65.2246 119.849 64.7598 120.36C64.2949 120.872 63.832 121.333 63.3711 121.743L66.6699 121.72ZM73.1035 121.72V123.003H67.7422V121.661C68.2891 121.165 68.6934 120.792 68.9551 120.542C69.2207 120.292 69.5332 119.97 69.8926 119.575C70.2559 119.177 70.5586 118.78 70.8008 118.386C71.043 117.987 71.1641 117.634 71.1641 117.325C71.1641 116.97 71.0469 116.69 70.8125 116.487C70.582 116.28 70.291 116.177 69.9395 116.177C69.3223 116.177 68.6855 116.399 68.0293 116.845L67.8945 115.433C68.7305 115.065 69.543 114.882 70.332 114.882C70.8086 114.882 71.2383 114.968 71.6211 115.14C72.0039 115.312 72.3086 115.569 72.5352 115.913C72.7617 116.257 72.875 116.669 72.875 117.149C72.875 117.646 72.7109 118.177 72.3828 118.743C72.0547 119.31 71.6582 119.849 71.1934 120.36C70.7285 120.872 70.2656 121.333 69.8047 121.743L73.1035 121.72Z" fill="#777E90"/>
<path d="M23.5391 146.003H21.375V135.331H23.5391V146.003ZM26.2188 146.003V135.331H28.6484C29.3099 135.331 29.901 135.352 30.4219 135.394C30.9427 135.435 31.4635 135.532 31.9844 135.683C32.5052 135.834 32.9766 136.058 33.3984 136.354C33.7526 136.594 34.0547 136.878 34.3047 137.206C34.5547 137.534 34.75 137.878 34.8906 138.237C35.0365 138.591 35.1432 138.982 35.2109 139.409C35.2839 139.831 35.3203 140.258 35.3203 140.69C35.3203 141.586 35.1641 142.412 34.8516 143.167C34.5443 143.922 34.0547 144.542 33.3828 145.026C33.0286 145.287 32.6276 145.49 32.1797 145.636C31.7318 145.782 31.2708 145.881 30.7969 145.933C30.3229 145.979 29.8255 146.003 29.3047 146.003H26.2188ZM28.375 144.354C28.4948 144.354 28.5938 144.357 28.6719 144.362C28.75 144.362 28.8333 144.365 28.9219 144.37C29.5521 144.37 30.1172 144.295 30.6172 144.144C31.1172 143.987 31.5443 143.756 31.8984 143.448C32.2578 143.136 32.5339 142.745 32.7266 142.276C32.9193 141.802 33.0156 141.248 33.0156 140.612C33.0156 139.977 32.8776 139.378 32.6016 138.815C32.3255 138.253 31.9297 137.823 31.4141 137.526C31.2005 137.396 30.974 137.297 30.7344 137.229C30.5 137.157 30.25 137.104 29.9844 137.073C29.724 137.042 29.4323 137.021 29.1094 137.011C28.7917 137 28.5469 136.995 28.375 136.995V144.354ZM47.2969 140.737C47.2969 141.8 47.0885 142.75 46.6719 143.589C46.2604 144.427 45.6615 145.081 44.875 145.55C44.0885 146.013 43.1615 146.245 42.0938 146.245C40.9948 146.245 40.0495 146.011 39.2578 145.542C38.4661 145.073 37.8672 144.417 37.4609 143.573C37.0599 142.724 36.8594 141.753 36.8594 140.659C36.8594 139.565 37.0625 138.599 37.4688 137.761C37.875 136.922 38.4714 136.271 39.2578 135.808C40.0495 135.339 40.9948 135.104 42.0938 135.104C42.9271 135.104 43.6719 135.243 44.3281 135.519C44.9844 135.795 45.5312 136.185 45.9688 136.69C46.4062 137.196 46.737 137.789 46.9609 138.472C47.1849 139.154 47.2969 139.909 47.2969 140.737ZM45.0078 140.69C45.0078 140.227 44.9505 139.763 44.8359 139.3C44.7214 138.836 44.5417 138.412 44.2969 138.026C44.0573 137.641 43.7526 137.334 43.3828 137.104C43.013 136.87 42.5781 136.753 42.0781 136.753C41.4219 136.753 40.8724 136.948 40.4297 137.339C39.9922 137.729 39.6693 138.229 39.4609 138.839C39.2526 139.443 39.1484 140.06 39.1484 140.69C39.1484 141.321 39.2526 141.938 39.4609 142.542C39.6693 143.141 39.9948 143.633 40.4375 144.019C40.8854 144.404 41.4375 144.597 42.0938 144.597C42.5833 144.597 43.013 144.482 43.3828 144.253C43.7578 144.024 44.0625 143.716 44.2969 143.331C44.5365 142.946 44.7135 142.524 44.8281 142.065C44.9479 141.607 45.0078 141.149 45.0078 140.69ZM63.5547 146.003H60.9766L60.2266 145.136C59.2943 145.854 58.3516 146.214 57.3984 146.214C56.7214 146.214 56.0833 146.097 55.4844 145.862C54.8906 145.628 54.4062 145.269 54.0312 144.784C53.6615 144.295 53.4766 143.703 53.4766 143.011C53.4766 142.276 53.6641 141.68 54.0391 141.222C54.4193 140.758 54.974 140.388 55.7031 140.112C55.2708 139.716 54.9245 139.315 54.6641 138.909C54.4036 138.503 54.2734 138.068 54.2734 137.604C54.2734 137.042 54.4349 136.576 54.7578 136.206C55.0807 135.836 55.4896 135.565 55.9844 135.394C56.4792 135.222 57.0078 135.136 57.5703 135.136C57.9766 135.136 58.3594 135.188 58.7188 135.292C59.0781 135.396 59.3984 135.55 59.6797 135.753C59.9661 135.956 60.1901 136.216 60.3516 136.534C60.513 136.847 60.5938 137.209 60.5938 137.62C60.5938 138.224 60.401 138.743 60.0156 139.175C59.6302 139.607 59.1198 140.006 58.4844 140.37L60.5156 142.565C60.901 141.966 61.1198 141.183 61.1719 140.214H63.0078C62.9818 140.698 62.9219 141.149 62.8281 141.565C62.7344 141.982 62.5911 142.381 62.3984 142.761C62.2057 143.136 61.9609 143.503 61.6641 143.862L63.5547 146.003ZM56.8203 141.284C56.4609 141.503 56.1641 141.753 55.9297 142.034C55.7005 142.31 55.5859 142.636 55.5859 143.011C55.5859 143.313 55.6719 143.594 55.8438 143.854C56.0208 144.115 56.25 144.318 56.5312 144.464C56.8125 144.604 57.1068 144.675 57.4141 144.675C57.9974 144.675 58.6042 144.435 59.2344 143.956L56.8203 141.284ZM57.2969 139.237C58.2604 138.758 58.7422 138.229 58.7422 137.651C58.7422 137.443 58.6823 137.261 58.5625 137.104C58.4479 136.948 58.2995 136.831 58.1172 136.753C57.9349 136.67 57.737 136.628 57.5234 136.628C57.1901 136.628 56.8984 136.727 56.6484 136.925C56.3984 137.118 56.2734 137.375 56.2734 137.698C56.2734 137.875 56.3229 138.055 56.4219 138.237C56.5208 138.42 56.6432 138.586 56.7891 138.737C56.9349 138.888 57.1042 139.055 57.2969 139.237ZM71.6641 146.003H69.5V135.331H71.6641V146.003ZM76.0391 138.081L76.0859 139.347C76.7214 138.42 77.612 137.956 78.7578 137.956C79.8203 137.956 80.5365 138.271 80.9062 138.901C81.276 139.526 81.4609 140.407 81.4609 141.542V146.003H79.4141V142.019C79.4141 141.315 79.3229 140.745 79.1406 140.308C78.9635 139.87 78.5755 139.651 77.9766 139.651C77.3359 139.651 76.8854 139.909 76.625 140.425C76.3646 140.935 76.2344 141.542 76.2344 142.245V146.003H74.1797V140.964C74.1797 139.844 74.1536 138.883 74.1016 138.081H76.0391ZM87.8281 146.003H85.5391L82.5781 138.081H84.8203L86.1484 141.894C86.4974 142.868 86.7109 143.651 86.7891 144.245C86.9141 143.615 87.0807 143 87.2891 142.401L88.7109 138.081H90.7734L87.8281 146.003ZM98.3281 143.894L98.3594 145.667C97.5208 146.032 96.6146 146.214 95.6406 146.214C94.9896 146.214 94.4089 146.123 93.8984 145.94C93.3932 145.753 92.9609 145.479 92.6016 145.12C92.2422 144.756 91.9688 144.318 91.7812 143.808C91.5938 143.292 91.5 142.706 91.5 142.05C91.5 141.446 91.5859 140.891 91.7578 140.386C91.9349 139.875 92.1875 139.435 92.5156 139.065C92.8438 138.69 93.2474 138.399 93.7266 138.19C94.2109 137.982 94.7578 137.878 95.3672 137.878C95.9609 137.878 96.4844 137.985 96.9375 138.198C97.3906 138.412 97.7578 138.706 98.0391 139.081C98.3255 139.456 98.5391 139.891 98.6797 140.386C98.8203 140.875 98.8906 141.414 98.8906 142.003C98.8906 142.107 98.888 142.185 98.8828 142.237C98.8776 142.289 98.8724 142.354 98.8672 142.433C98.862 142.511 98.8542 142.602 98.8438 142.706H93.5156C93.5677 143.331 93.8099 143.818 94.2422 144.167C94.6797 144.516 95.2214 144.69 95.8672 144.69C96.5964 144.69 97.4167 144.425 98.3281 143.894ZM96.9375 141.284C96.9271 140.93 96.862 140.604 96.7422 140.308C96.6276 140.011 96.4479 139.771 96.2031 139.589C95.9635 139.407 95.6641 139.315 95.3047 139.315C94.9349 139.315 94.6172 139.407 94.3516 139.589C94.0911 139.766 93.888 140.003 93.7422 140.3C93.6016 140.597 93.5156 140.925 93.4844 141.284H96.9375ZM100.172 145.792L100.266 144.065C100.995 144.44 101.667 144.628 102.281 144.628C102.62 144.628 102.94 144.555 103.242 144.409C103.544 144.263 103.695 144.037 103.695 143.729C103.695 143.464 103.479 143.237 103.047 143.05C102.615 142.862 102.18 142.677 101.742 142.495C101.31 142.313 100.935 142.058 100.617 141.729C100.299 141.401 100.141 140.943 100.141 140.354C100.141 139.792 100.305 139.331 100.633 138.972C100.966 138.612 101.388 138.352 101.898 138.19C102.409 138.024 102.938 137.94 103.484 137.94C104.062 137.94 104.714 138.042 105.438 138.245L105.289 139.776C104.654 139.573 104.094 139.472 103.609 139.472C103.255 139.472 102.927 139.532 102.625 139.651C102.323 139.771 102.172 139.979 102.172 140.276C102.172 140.532 102.378 140.745 102.789 140.917C103.206 141.084 103.641 141.253 104.094 141.425C104.552 141.591 104.943 141.844 105.266 142.183C105.594 142.516 105.758 142.995 105.758 143.62C105.758 144.188 105.599 144.662 105.281 145.042C104.969 145.422 104.562 145.701 104.062 145.878C103.562 146.055 103.034 146.144 102.477 146.144C101.841 146.144 101.073 146.026 100.172 145.792ZM111.844 144.308L111.914 145.909C111.393 146.013 110.932 146.065 110.531 146.065C109.859 146.065 109.328 145.943 108.938 145.698C108.547 145.448 108.273 145.097 108.117 144.644C107.961 144.185 107.883 143.625 107.883 142.964V139.651H106.391V138.128H107.914V136.519L109.961 135.847V138.128H111.766V139.651H109.961V142.534C109.961 143.149 110.026 143.618 110.156 143.94C110.292 144.258 110.62 144.417 111.141 144.417C111.333 144.417 111.568 144.381 111.844 144.308ZM115.273 138.081L115.32 139.284C115.576 138.868 115.919 138.542 116.352 138.308C116.789 138.073 117.26 137.956 117.766 137.956C118.318 137.956 118.773 138.071 119.133 138.3C119.497 138.524 119.789 138.878 120.008 139.362C120.273 138.909 120.625 138.563 121.062 138.323C121.505 138.078 121.992 137.956 122.523 137.956C123.508 137.956 124.172 138.269 124.516 138.894C124.859 139.513 125.031 140.352 125.031 141.409V146.003H122.984V142.159V141.847C122.984 141.206 122.909 140.68 122.758 140.269C122.612 139.857 122.289 139.651 121.789 139.651C120.753 139.651 120.234 140.547 120.234 142.339V146.003H118.188V141.94V141.378C118.188 140.92 118.099 140.519 117.922 140.175C117.745 139.826 117.438 139.651 117 139.651C116.432 139.651 116.029 139.894 115.789 140.378C115.549 140.857 115.43 141.409 115.43 142.034V146.003H113.383V140.019C113.383 139.295 113.362 138.649 113.32 138.081H115.273ZM133.406 143.894L133.438 145.667C132.599 146.032 131.693 146.214 130.719 146.214C130.068 146.214 129.487 146.123 128.977 145.94C128.471 145.753 128.039 145.479 127.68 145.12C127.32 144.756 127.047 144.318 126.859 143.808C126.672 143.292 126.578 142.706 126.578 142.05C126.578 141.446 126.664 140.891 126.836 140.386C127.013 139.875 127.266 139.435 127.594 139.065C127.922 138.69 128.326 138.399 128.805 138.19C129.289 137.982 129.836 137.878 130.445 137.878C131.039 137.878 131.562 137.985 132.016 138.198C132.469 138.412 132.836 138.706 133.117 139.081C133.404 139.456 133.617 139.891 133.758 140.386C133.898 140.875 133.969 141.414 133.969 142.003C133.969 142.107 133.966 142.185 133.961 142.237C133.956 142.289 133.951 142.354 133.945 142.433C133.94 142.511 133.932 142.602 133.922 142.706H128.594C128.646 143.331 128.888 143.818 129.32 144.167C129.758 144.516 130.299 144.69 130.945 144.69C131.674 144.69 132.495 144.425 133.406 143.894ZM132.016 141.284C132.005 140.93 131.94 140.604 131.82 140.308C131.706 140.011 131.526 139.771 131.281 139.589C131.042 139.407 130.742 139.315 130.383 139.315C130.013 139.315 129.695 139.407 129.43 139.589C129.169 139.766 128.966 140.003 128.82 140.3C128.68 140.597 128.594 140.925 128.562 141.284H132.016ZM137.539 138.081L137.586 139.347C138.221 138.42 139.112 137.956 140.258 137.956C141.32 137.956 142.036 138.271 142.406 138.901C142.776 139.526 142.961 140.407 142.961 141.542V146.003H140.914V142.019C140.914 141.315 140.823 140.745 140.641 140.308C140.464 139.87 140.076 139.651 139.477 139.651C138.836 139.651 138.385 139.909 138.125 140.425C137.865 140.935 137.734 141.542 137.734 142.245V146.003H135.68V140.964C135.68 139.844 135.654 138.883 135.602 138.081H137.539ZM149.391 144.308L149.461 145.909C148.94 146.013 148.479 146.065 148.078 146.065C147.406 146.065 146.875 145.943 146.484 145.698C146.094 145.448 145.82 145.097 145.664 144.644C145.508 144.185 145.43 143.625 145.43 142.964V139.651H143.938V138.128H145.461V136.519L147.508 135.847V138.128H149.312V139.651H147.508V142.534C147.508 143.149 147.573 143.618 147.703 143.94C147.839 144.258 148.167 144.417 148.688 144.417C148.88 144.417 149.115 144.381 149.391 144.308ZM161.883 144.261V146.003H155.562V135.331H157.719V144.261H161.883ZM169.805 146.003H167.977L167.945 144.815C167.701 145.237 167.357 145.563 166.914 145.792C166.477 146.016 166 146.128 165.484 146.128C164.958 146.128 164.487 146.037 164.07 145.854C163.659 145.672 163.333 145.396 163.094 145.026C162.854 144.651 162.734 144.198 162.734 143.667C162.734 142.677 163.122 142 163.898 141.636C164.674 141.271 165.62 141.089 166.734 141.089C166.896 141.089 167 141.091 167.047 141.097C167.094 141.097 167.198 141.102 167.359 141.112C167.521 141.118 167.685 141.125 167.852 141.136C167.852 140.547 167.708 140.11 167.422 139.823C167.135 139.537 166.693 139.394 166.094 139.394C165.188 139.394 164.37 139.683 163.641 140.261L163.578 138.479C164.427 138.12 165.346 137.94 166.336 137.94C166.706 137.94 167.073 137.977 167.438 138.05C167.802 138.123 168.138 138.245 168.445 138.417C168.758 138.584 169.016 138.808 169.219 139.089C169.427 139.37 169.562 139.693 169.625 140.058C169.693 140.417 169.727 140.847 169.727 141.347C169.727 141.862 169.727 142.381 169.727 142.901C169.732 143.422 169.737 143.899 169.742 144.331C169.753 144.758 169.773 145.315 169.805 146.003ZM167.883 142.401C167.831 142.391 167.75 142.386 167.641 142.386H167.391C166.943 142.386 166.531 142.412 166.156 142.464C165.786 142.511 165.461 142.636 165.18 142.839C164.904 143.037 164.766 143.328 164.766 143.714C164.766 144.026 164.888 144.276 165.133 144.464C165.383 144.646 165.672 144.737 166 144.737C166.62 144.737 167.089 144.508 167.406 144.05C167.724 143.591 167.883 143.042 167.883 142.401ZM178.922 138.081V142.917C178.932 143.141 178.943 143.487 178.953 143.956C178.969 144.425 178.982 144.8 178.992 145.081C179.003 145.362 179.018 145.67 179.039 146.003H177.102L177.039 144.784C176.857 145.071 176.635 145.313 176.375 145.511C176.12 145.709 175.831 145.862 175.508 145.972C175.185 146.076 174.862 146.128 174.539 146.128C173.805 146.128 173.232 145.977 172.82 145.675C172.409 145.373 172.125 144.959 171.969 144.433C171.818 143.907 171.742 143.279 171.742 142.55V138.081H173.789V141.894C173.789 142.388 173.812 142.808 173.859 143.151C173.911 143.49 174.044 143.787 174.258 144.042C174.471 144.292 174.794 144.417 175.227 144.417C175.846 144.417 176.276 144.157 176.516 143.636C176.755 143.11 176.875 142.495 176.875 141.792V138.081H178.922ZM183.039 138.081L183.086 139.347C183.721 138.42 184.612 137.956 185.758 137.956C186.82 137.956 187.536 138.271 187.906 138.901C188.276 139.526 188.461 140.407 188.461 141.542V146.003H186.414V142.019C186.414 141.315 186.323 140.745 186.141 140.308C185.964 139.87 185.576 139.651 184.977 139.651C184.336 139.651 183.885 139.909 183.625 140.425C183.365 140.935 183.234 141.542 183.234 142.245V146.003H181.18V140.964C181.18 139.844 181.154 138.883 181.102 138.081H183.039ZM195.82 144.034L195.938 145.761C195.25 145.964 194.635 146.065 194.094 146.065C193.49 146.065 192.935 145.974 192.43 145.792C191.924 145.604 191.49 145.334 191.125 144.979C190.766 144.625 190.49 144.196 190.297 143.69C190.109 143.18 190.016 142.618 190.016 142.003C190.016 141.222 190.182 140.529 190.516 139.925C190.854 139.321 191.328 138.852 191.938 138.519C192.552 138.185 193.245 138.019 194.016 138.019C194.589 138.019 195.169 138.104 195.758 138.276L195.602 139.925C195.133 139.743 194.711 139.651 194.336 139.651C193.909 139.651 193.526 139.758 193.188 139.972C192.849 140.18 192.589 140.461 192.406 140.815C192.229 141.164 192.141 141.555 192.141 141.987C192.141 142.701 192.349 143.274 192.766 143.706C193.182 144.138 193.742 144.354 194.445 144.354C194.893 144.354 195.352 144.248 195.82 144.034ZM204.648 146.003H202.602V142.159C202.602 141.399 202.518 140.792 202.352 140.339C202.19 139.881 201.805 139.651 201.195 139.651C200.539 139.651 200.078 139.922 199.812 140.464C199.547 141 199.414 141.631 199.414 142.354V142.753V146.003H197.367V134.479H199.414V139.206C199.711 138.779 200.068 138.461 200.484 138.253C200.901 138.045 201.378 137.94 201.914 137.94C202.471 137.94 202.93 138.032 203.289 138.214C203.654 138.391 203.932 138.633 204.125 138.94C204.323 139.248 204.458 139.607 204.531 140.019C204.609 140.425 204.648 140.904 204.648 141.456V146.003Z" fill="black"/>
<path d="M20.9609 237.003V228.999H22.7832C23.2793 228.999 23.7227 229.015 24.1133 229.046C24.5039 229.077 24.8945 229.149 25.2852 229.263C25.6758 229.376 26.0293 229.544 26.3457 229.767C26.6113 229.946 26.8379 230.159 27.0254 230.405C27.2129 230.651 27.3594 230.909 27.4648 231.179C27.5742 231.444 27.6543 231.737 27.7051 232.058C27.7598 232.374 27.7871 232.694 27.7871 233.019C27.7871 233.69 27.6699 234.31 27.4355 234.876C27.2051 235.442 26.8379 235.907 26.334 236.271C26.0684 236.466 25.7676 236.618 25.4316 236.728C25.0957 236.837 24.75 236.911 24.3945 236.95C24.0391 236.985 23.666 237.003 23.2754 237.003H20.9609ZM22.5781 235.767C22.668 235.767 22.7422 235.769 22.8008 235.772C22.8594 235.772 22.9219 235.774 22.9883 235.778C23.4609 235.778 23.8848 235.722 24.2598 235.608C24.6348 235.491 24.9551 235.317 25.2207 235.087C25.4902 234.853 25.6973 234.56 25.8418 234.208C25.9863 233.853 26.0586 233.437 26.0586 232.96C26.0586 232.483 25.9551 232.034 25.748 231.612C25.541 231.19 25.2441 230.868 24.8574 230.646C24.6973 230.548 24.5273 230.474 24.3477 230.423C24.1719 230.368 23.9844 230.329 23.7852 230.306C23.5898 230.282 23.3711 230.267 23.1289 230.259C22.8906 230.251 22.707 230.247 22.5781 230.247V235.767ZM33.9219 235.421L33.9453 236.751C33.3164 237.024 32.6367 237.161 31.9062 237.161C31.418 237.161 30.9824 237.093 30.5996 236.956C30.2207 236.815 29.8965 236.61 29.627 236.341C29.3574 236.067 29.1523 235.739 29.0117 235.356C28.8711 234.97 28.8008 234.53 28.8008 234.038C28.8008 233.585 28.8652 233.169 28.9941 232.79C29.127 232.407 29.3164 232.077 29.5625 231.8C29.8086 231.519 30.1113 231.3 30.4707 231.144C30.834 230.987 31.2441 230.909 31.7012 230.909C32.1465 230.909 32.5391 230.989 32.8789 231.149C33.2188 231.31 33.4941 231.53 33.7051 231.812C33.9199 232.093 34.0801 232.419 34.1855 232.79C34.291 233.157 34.3438 233.562 34.3438 234.003C34.3438 234.081 34.3418 234.14 34.3379 234.179C34.334 234.218 34.3301 234.267 34.3262 234.325C34.3223 234.384 34.3164 234.452 34.3086 234.53H30.3125C30.3516 234.999 30.5332 235.364 30.8574 235.626C31.1855 235.888 31.5918 236.019 32.0762 236.019C32.623 236.019 33.2383 235.819 33.9219 235.421ZM32.8789 233.464C32.8711 233.198 32.8223 232.954 32.7324 232.731C32.6465 232.509 32.5117 232.329 32.3281 232.192C32.1484 232.056 31.9238 231.987 31.6543 231.987C31.377 231.987 31.1387 232.056 30.9395 232.192C30.7441 232.325 30.5918 232.503 30.4824 232.726C30.377 232.948 30.3125 233.194 30.2891 233.464H32.8789ZM39.5879 235.526L39.6758 236.821C39.1602 236.974 38.6992 237.05 38.293 237.05C37.8398 237.05 37.4238 236.981 37.0449 236.845C36.666 236.704 36.3398 236.501 36.0664 236.235C35.7969 235.97 35.5898 235.647 35.4453 235.269C35.3047 234.886 35.2344 234.464 35.2344 234.003C35.2344 233.417 35.3594 232.897 35.6094 232.444C35.8633 231.991 36.2188 231.64 36.6758 231.39C37.1367 231.14 37.6562 231.015 38.2344 231.015C38.6641 231.015 39.0996 231.079 39.541 231.208L39.4238 232.444C39.0723 232.308 38.7559 232.239 38.4746 232.239C38.1543 232.239 37.8672 232.319 37.6133 232.479C37.3594 232.636 37.1641 232.847 37.0273 233.112C36.8945 233.374 36.8281 233.667 36.8281 233.991C36.8281 234.526 36.9844 234.956 37.2969 235.28C37.6094 235.604 38.0293 235.767 38.5566 235.767C38.8926 235.767 39.2363 235.687 39.5879 235.526ZM41.8789 231.577H40.748L40.4727 228.36H42.166L41.8789 231.577ZM55.1855 235.72V237.003H49.8242V235.661C50.3711 235.165 50.7754 234.792 51.0371 234.542C51.3027 234.292 51.6152 233.97 51.9746 233.575C52.3379 233.177 52.6406 232.78 52.8828 232.386C53.125 231.987 53.2461 231.634 53.2461 231.325C53.2461 230.97 53.1289 230.69 52.8945 230.487C52.6641 230.28 52.373 230.177 52.0215 230.177C51.4043 230.177 50.7676 230.399 50.1113 230.845L49.9766 229.433C50.8125 229.065 51.625 228.882 52.4141 228.882C52.8906 228.882 53.3203 228.968 53.7031 229.14C54.0859 229.312 54.3906 229.569 54.6172 229.913C54.8438 230.257 54.957 230.669 54.957 231.149C54.957 231.646 54.793 232.177 54.4648 232.743C54.1367 233.31 53.7402 233.849 53.2754 234.36C52.8105 234.872 52.3477 235.333 51.8867 235.743L55.1855 235.72ZM61.7891 233.019C61.7891 233.448 61.7734 233.831 61.7422 234.167C61.7109 234.499 61.6426 234.835 61.5371 235.175C61.4316 235.515 61.2871 235.815 61.1035 236.077C60.8691 236.417 60.5645 236.679 60.1895 236.862C59.8184 237.046 59.4238 237.138 59.0059 237.138C58.2793 237.138 57.709 236.938 57.2949 236.54C56.8809 236.138 56.5957 235.63 56.4395 235.017C56.2871 234.399 56.2109 233.733 56.2109 233.019C56.2109 232.304 56.2891 231.64 56.4453 231.026C56.6055 230.409 56.8926 229.897 57.3066 229.491C57.7246 229.085 58.291 228.882 59.0059 228.882C59.7207 228.882 60.2852 229.085 60.6992 229.491C61.1133 229.897 61.3984 230.409 61.5547 231.026C61.7109 231.64 61.7891 232.304 61.7891 233.019ZM60.1719 233.007C60.1719 232.597 60.1484 232.179 60.1016 231.753C60.0586 231.323 59.9512 230.937 59.7793 230.593C59.6074 230.249 59.3496 230.077 59.0059 230.077C58.6543 230.077 58.3906 230.251 58.2148 230.599C58.043 230.942 57.9355 231.321 57.8926 231.735C57.8496 232.149 57.8281 232.589 57.8281 233.054C57.8281 233.788 57.8984 234.452 58.0391 235.046C58.1797 235.64 58.502 235.937 59.0059 235.937C59.3496 235.937 59.6074 235.776 59.7793 235.456C59.9551 235.132 60.0645 234.765 60.1074 234.354C60.1504 233.94 60.1719 233.522 60.1719 233.101V233.007ZM68.0527 235.72V237.003H62.6914V235.661C63.2383 235.165 63.6426 234.792 63.9043 234.542C64.1699 234.292 64.4824 233.97 64.8418 233.575C65.2051 233.177 65.5078 232.78 65.75 232.386C65.9922 231.987 66.1133 231.634 66.1133 231.325C66.1133 230.97 65.9961 230.69 65.7617 230.487C65.5312 230.28 65.2402 230.177 64.8887 230.177C64.2715 230.177 63.6348 230.399 62.9785 230.845L62.8438 229.433C63.6797 229.065 64.4922 228.882 65.2812 228.882C65.7578 228.882 66.1875 228.968 66.5703 229.14C66.9531 229.312 67.2578 229.569 67.4844 229.913C67.7109 230.257 67.8242 230.669 67.8242 231.149C67.8242 231.646 67.6602 232.177 67.332 232.743C67.0039 233.31 66.6074 233.849 66.1426 234.36C65.6777 234.872 65.2148 235.333 64.7539 235.743L68.0527 235.72ZM74.4863 235.72V237.003H69.125V235.661C69.6719 235.165 70.0762 234.792 70.3379 234.542C70.6035 234.292 70.916 233.97 71.2754 233.575C71.6387 233.177 71.9414 232.78 72.1836 232.386C72.4258 231.987 72.5469 231.634 72.5469 231.325C72.5469 230.97 72.4297 230.69 72.1953 230.487C71.9648 230.28 71.6738 230.177 71.3223 230.177C70.7051 230.177 70.0684 230.399 69.4121 230.845L69.2773 229.433C70.1133 229.065 70.9258 228.882 71.7148 228.882C72.1914 228.882 72.6211 228.968 73.0039 229.14C73.3867 229.312 73.6914 229.569 73.918 229.913C74.1445 230.257 74.2578 230.669 74.2578 231.149C74.2578 231.646 74.0938 232.177 73.7656 232.743C73.4375 233.31 73.041 233.849 72.5762 234.36C72.1113 234.872 71.6484 235.333 71.1875 235.743L74.4863 235.72Z" fill="#777E90"/>
<path d="M31.25 256.003H28.8984L27.9688 253.573H23.5547L22.6406 256.003H20.4141L24.5781 245.331H26.9766L31.25 256.003ZM27.3125 251.823L25.9375 248.05C25.9062 247.966 25.8359 247.732 25.7266 247.347C25.6849 247.508 25.6432 247.672 25.6016 247.839C25.5599 248 25.5234 248.131 25.4922 248.229L24.2109 251.823H27.3125ZM44.7734 256.003H42.6172V249.698C42.6484 248.74 42.6953 247.779 42.7578 246.815H42.6953C42.5911 247.237 42.4844 247.607 42.375 247.925L39.6562 256.003H37.6719L35.3672 249.331C35.0807 248.498 34.8359 247.659 34.6328 246.815H34.5703C34.6745 247.847 34.7266 248.782 34.7266 249.62V256.003H32.6797V245.331H36.0859L38.0234 250.933C38.3255 251.834 38.5547 252.709 38.7109 253.558C38.8047 253.11 38.8932 252.722 38.9766 252.394C39.0651 252.06 39.1641 251.727 39.2734 251.394L41.3203 245.331H44.7734V256.003ZM59.4297 256.003H57.2734V249.698C57.3047 248.74 57.3516 247.779 57.4141 246.815H57.3516C57.2474 247.237 57.1406 247.607 57.0312 247.925L54.3125 256.003H52.3281L50.0234 249.331C49.737 248.498 49.4922 247.659 49.2891 246.815H49.2266C49.3307 247.847 49.3828 248.782 49.3828 249.62V256.003H47.3359V245.331H50.7422L52.6797 250.933C52.9818 251.834 53.2109 252.709 53.3672 253.558C53.4609 253.11 53.5495 252.722 53.6328 252.394C53.7214 252.06 53.8203 251.727 53.9297 251.394L55.9766 245.331H59.4297V256.003ZM68.2344 256.003H66.1875V244.479H68.2344V256.003ZM76.9219 256.003H75.0938L75.0625 254.815C74.8177 255.237 74.474 255.563 74.0312 255.792C73.5938 256.016 73.1172 256.128 72.6016 256.128C72.0755 256.128 71.6042 256.037 71.1875 255.854C70.776 255.672 70.4505 255.396 70.2109 255.026C69.9714 254.651 69.8516 254.198 69.8516 253.667C69.8516 252.677 70.2396 252 71.0156 251.636C71.7917 251.271 72.737 251.089 73.8516 251.089C74.013 251.089 74.1172 251.091 74.1641 251.097C74.2109 251.097 74.3151 251.102 74.4766 251.112C74.638 251.118 74.8021 251.125 74.9688 251.136C74.9688 250.547 74.8255 250.11 74.5391 249.823C74.2526 249.537 73.8099 249.394 73.2109 249.394C72.3047 249.394 71.487 249.683 70.7578 250.261L70.6953 248.479C71.5443 248.12 72.4635 247.94 73.4531 247.94C73.8229 247.94 74.1901 247.977 74.5547 248.05C74.9193 248.123 75.2552 248.245 75.5625 248.417C75.875 248.584 76.1328 248.808 76.3359 249.089C76.5443 249.37 76.6797 249.693 76.7422 250.058C76.8099 250.417 76.8438 250.847 76.8438 251.347C76.8438 251.862 76.8438 252.381 76.8438 252.901C76.849 253.422 76.8542 253.899 76.8594 254.331C76.8698 254.758 76.8906 255.315 76.9219 256.003ZM75 252.401C74.9479 252.391 74.8672 252.386 74.7578 252.386H74.5078C74.0599 252.386 73.6484 252.412 73.2734 252.464C72.9036 252.511 72.5781 252.636 72.2969 252.839C72.0208 253.037 71.8828 253.328 71.8828 253.714C71.8828 254.026 72.0052 254.276 72.25 254.464C72.5 254.646 72.7891 254.737 73.1172 254.737C73.737 254.737 74.2057 254.508 74.5234 254.05C74.8411 253.591 75 253.042 75 252.401ZM86.0391 248.081V252.917C86.0495 253.141 86.0599 253.487 86.0703 253.956C86.0859 254.425 86.099 254.8 86.1094 255.081C86.1198 255.362 86.1354 255.67 86.1562 256.003H84.2188L84.1562 254.784C83.974 255.071 83.7526 255.313 83.4922 255.511C83.237 255.709 82.9479 255.862 82.625 255.972C82.3021 256.076 81.9792 256.128 81.6562 256.128C80.9219 256.128 80.349 255.977 79.9375 255.675C79.526 255.373 79.2422 254.959 79.0859 254.433C78.9349 253.907 78.8594 253.279 78.8594 252.55V248.081H80.9062V251.894C80.9062 252.388 80.9297 252.808 80.9766 253.151C81.0286 253.49 81.1615 253.787 81.375 254.042C81.5885 254.292 81.9115 254.417 82.3438 254.417C82.9635 254.417 83.3932 254.157 83.6328 253.636C83.8724 253.11 83.9922 252.495 83.9922 251.792V248.081H86.0391ZM90.1562 248.081L90.2031 249.347C90.8385 248.42 91.7292 247.956 92.875 247.956C93.9375 247.956 94.6536 248.271 95.0234 248.901C95.3932 249.526 95.5781 250.407 95.5781 251.542V256.003H93.5312V252.019C93.5312 251.315 93.4401 250.745 93.2578 250.308C93.0807 249.87 92.6927 249.651 92.0938 249.651C91.4531 249.651 91.0026 249.909 90.7422 250.425C90.4818 250.935 90.3516 251.542 90.3516 252.245V256.003H88.2969V250.964C88.2969 249.844 88.2708 248.883 88.2188 248.081H90.1562ZM102.938 254.034L103.055 255.761C102.367 255.964 101.753 256.065 101.211 256.065C100.607 256.065 100.052 255.974 99.5469 255.792C99.0417 255.604 98.6068 255.334 98.2422 254.979C97.8828 254.625 97.6068 254.196 97.4141 253.69C97.2266 253.18 97.1328 252.618 97.1328 252.003C97.1328 251.222 97.2995 250.529 97.6328 249.925C97.9714 249.321 98.4453 248.852 99.0547 248.519C99.6693 248.185 100.362 248.019 101.133 248.019C101.706 248.019 102.286 248.104 102.875 248.276L102.719 249.925C102.25 249.743 101.828 249.651 101.453 249.651C101.026 249.651 100.643 249.758 100.305 249.972C99.9661 250.18 99.7057 250.461 99.5234 250.815C99.3464 251.164 99.2578 251.555 99.2578 251.987C99.2578 252.701 99.4661 253.274 99.8828 253.706C100.299 254.138 100.859 254.354 101.562 254.354C102.01 254.354 102.469 254.248 102.938 254.034ZM111.766 256.003H109.719V252.159C109.719 251.399 109.635 250.792 109.469 250.339C109.307 249.881 108.922 249.651 108.312 249.651C107.656 249.651 107.195 249.922 106.93 250.464C106.664 251 106.531 251.631 106.531 252.354V252.753V256.003H104.484V244.479H106.531V249.206C106.828 248.779 107.185 248.461 107.602 248.253C108.018 248.045 108.495 247.94 109.031 247.94C109.589 247.94 110.047 248.032 110.406 248.214C110.771 248.391 111.049 248.633 111.242 248.94C111.44 249.248 111.576 249.607 111.648 250.019C111.727 250.425 111.766 250.904 111.766 251.456V256.003Z" fill="black"/>
<path d="M23.5742 341.999V347.46C23.5742 348.003 23.5059 348.466 23.3691 348.849C23.2324 349.228 22.998 349.526 22.666 349.745C22.334 349.964 21.8926 350.073 21.3418 350.073C21.0059 350.073 20.6152 350.019 20.1699 349.909L20.2051 348.538C20.4863 348.62 20.7266 348.661 20.9258 348.661C21.3242 348.661 21.5977 348.538 21.7461 348.292C21.8945 348.046 21.9688 347.716 21.9688 347.302V341.999H23.5742ZM30.2715 350.003H28.9004L28.877 349.112C28.6934 349.429 28.4355 349.673 28.1035 349.845C27.7754 350.013 27.418 350.097 27.0312 350.097C26.6367 350.097 26.2832 350.028 25.9707 349.892C25.6621 349.755 25.418 349.548 25.2383 349.271C25.0586 348.989 24.9688 348.649 24.9688 348.251C24.9688 347.509 25.2598 347.001 25.8418 346.728C26.4238 346.454 27.1328 346.317 27.9688 346.317C28.0898 346.317 28.168 346.319 28.2031 346.323C28.2383 346.323 28.3164 346.327 28.4375 346.335C28.5586 346.339 28.6816 346.345 28.8066 346.353C28.8066 345.911 28.6992 345.583 28.4844 345.368C28.2695 345.153 27.9375 345.046 27.4883 345.046C26.8086 345.046 26.1953 345.263 25.6484 345.696L25.6016 344.36C26.2383 344.091 26.9277 343.956 27.6699 343.956C27.9473 343.956 28.2227 343.983 28.4961 344.038C28.7695 344.093 29.0215 344.185 29.252 344.313C29.4863 344.438 29.6797 344.606 29.832 344.817C29.9883 345.028 30.0898 345.271 30.1367 345.544C30.1875 345.813 30.2129 346.136 30.2129 346.511C30.2129 346.897 30.2129 347.286 30.2129 347.677C30.2168 348.067 30.2207 348.425 30.2246 348.749C30.2324 349.069 30.248 349.487 30.2715 350.003ZM28.8301 347.302C28.791 347.294 28.7305 347.29 28.6484 347.29H28.4609C28.125 347.29 27.8164 347.31 27.5352 347.349C27.2578 347.384 27.0137 347.478 26.8027 347.63C26.5957 347.778 26.4922 347.997 26.4922 348.286C26.4922 348.521 26.584 348.708 26.7676 348.849C26.9551 348.985 27.1719 349.054 27.418 349.054C27.8828 349.054 28.2344 348.882 28.4727 348.538C28.7109 348.194 28.8301 347.782 28.8301 347.302ZM33.2246 344.062L33.2598 345.011C33.7363 344.315 34.4043 343.968 35.2637 343.968C36.0605 343.968 36.5977 344.204 36.875 344.677C37.1523 345.146 37.291 345.806 37.291 346.657V350.003H35.7559V347.015C35.7559 346.487 35.6875 346.06 35.5508 345.731C35.418 345.403 35.127 345.239 34.6777 345.239C34.1973 345.239 33.8594 345.433 33.6641 345.819C33.4688 346.202 33.3711 346.657 33.3711 347.185V350.003H31.8301V346.224C31.8301 345.384 31.8105 344.663 31.7715 344.062H33.2246ZM39.9219 344.577H38.791L38.5156 341.36H40.209L39.9219 344.577ZM49.8887 348.72V350.003H44.5273V348.661C45.0742 348.165 45.4785 347.792 45.7402 347.542C46.0059 347.292 46.3184 346.97 46.6777 346.575C47.041 346.177 47.3438 345.78 47.5859 345.386C47.8281 344.987 47.9492 344.634 47.9492 344.325C47.9492 343.97 47.832 343.69 47.5977 343.487C47.3672 343.28 47.0762 343.177 46.7246 343.177C46.1074 343.177 45.4707 343.399 44.8145 343.845L44.6797 342.433C45.5156 342.065 46.3281 341.882 47.1172 341.882C47.5938 341.882 48.0234 341.968 48.4062 342.14C48.7891 342.312 49.0938 342.569 49.3203 342.913C49.5469 343.257 49.6602 343.669 49.6602 344.149C49.6602 344.646 49.4961 345.177 49.168 345.743C48.8398 346.31 48.4434 346.849 47.9785 347.36C47.5137 347.872 47.0508 348.333 46.5898 348.743L49.8887 348.72ZM56.4922 346.019C56.4922 346.448 56.4766 346.831 56.4453 347.167C56.4141 347.499 56.3457 347.835 56.2402 348.175C56.1348 348.515 55.9902 348.815 55.8066 349.077C55.5723 349.417 55.2676 349.679 54.8926 349.862C54.5215 350.046 54.127 350.138 53.709 350.138C52.9824 350.138 52.4121 349.938 51.998 349.54C51.584 349.138 51.2988 348.63 51.1426 348.017C50.9902 347.399 50.9141 346.733 50.9141 346.019C50.9141 345.304 50.9922 344.64 51.1484 344.026C51.3086 343.409 51.5957 342.897 52.0098 342.491C52.4277 342.085 52.9941 341.882 53.709 341.882C54.4238 341.882 54.9883 342.085 55.4023 342.491C55.8164 342.897 56.1016 343.409 56.2578 344.026C56.4141 344.64 56.4922 345.304 56.4922 346.019ZM54.875 346.007C54.875 345.597 54.8516 345.179 54.8047 344.753C54.7617 344.323 54.6543 343.937 54.4824 343.593C54.3105 343.249 54.0527 343.077 53.709 343.077C53.3574 343.077 53.0938 343.251 52.918 343.599C52.7461 343.942 52.6387 344.321 52.5957 344.735C52.5527 345.149 52.5312 345.589 52.5312 346.054C52.5312 346.788 52.6016 347.452 52.7422 348.046C52.8828 348.64 53.2051 348.937 53.709 348.937C54.0527 348.937 54.3105 348.776 54.4824 348.456C54.6582 348.132 54.7676 347.765 54.8105 347.354C54.8535 346.94 54.875 346.522 54.875 346.101V346.007ZM62.7559 348.72V350.003H57.3945V348.661C57.9414 348.165 58.3457 347.792 58.6074 347.542C58.873 347.292 59.1855 346.97 59.5449 346.575C59.9082 346.177 60.2109 345.78 60.4531 345.386C60.6953 344.987 60.8164 344.634 60.8164 344.325C60.8164 343.97 60.6992 343.69 60.4648 343.487C60.2344 343.28 59.9434 343.177 59.5918 343.177C58.9746 343.177 58.3379 343.399 57.6816 343.845L57.5469 342.433C58.3828 342.065 59.1953 341.882 59.9844 341.882C60.4609 341.882 60.8906 341.968 61.2734 342.14C61.6562 342.312 61.9609 342.569 62.1875 342.913C62.4141 343.257 62.5273 343.669 62.5273 344.149C62.5273 344.646 62.3633 345.177 62.0352 345.743C61.707 346.31 61.3105 346.849 60.8457 347.36C60.3809 347.872 59.918 348.333 59.457 348.743L62.7559 348.72ZM63.8633 349.845L63.957 348.468C64.5664 348.737 65.168 348.872 65.7617 348.872C66.2109 348.872 66.5996 348.778 66.9277 348.591C67.2598 348.403 67.4258 348.103 67.4258 347.688C67.4258 347.224 67.2285 346.911 66.834 346.751C66.4395 346.591 65.9648 346.511 65.4102 346.511C65.2852 346.511 65.1094 346.519 64.8828 346.534V345.228C64.9961 345.235 65.1641 345.239 65.3867 345.239C65.9141 345.239 66.3789 345.159 66.7812 344.999C67.1875 344.839 67.3906 344.534 67.3906 344.085C67.3906 343.858 67.3203 343.675 67.1797 343.534C67.0391 343.394 66.8613 343.294 66.6465 343.235C66.4355 343.173 66.2207 343.142 66.002 343.142C65.3145 343.142 64.7051 343.28 64.1738 343.558L64.0801 342.239C64.8301 342.001 65.5625 341.882 66.2773 341.882C67.082 341.882 67.7441 342.048 68.2637 342.38C68.7871 342.712 69.0488 343.253 69.0488 344.003C69.0488 344.288 68.9844 344.562 68.8555 344.823C68.7305 345.081 68.5527 345.296 68.3223 345.468C68.0918 345.64 67.8379 345.751 67.5605 345.802C67.9629 345.935 68.2188 346.038 68.3281 346.112C68.5898 346.288 68.7871 346.536 68.9199 346.856C69.0527 347.173 69.1191 347.505 69.1191 347.853C69.1191 348.376 68.9648 348.81 68.6562 349.153C68.3477 349.497 67.9531 349.747 67.4727 349.903C66.9922 350.06 66.4922 350.138 65.9727 350.138C65.6172 350.138 65.2676 350.114 64.9238 350.067C64.584 350.024 64.2305 349.95 63.8633 349.845Z" fill="#777E90"/>
<path d="M25.1328 358.331V365.612C25.1328 366.336 25.0417 366.953 24.8594 367.464C24.6771 367.969 24.3646 368.368 23.9219 368.659C23.4792 368.951 22.8906 369.097 22.1562 369.097C21.7083 369.097 21.1875 369.024 20.5938 368.878L20.6406 367.05C21.0156 367.159 21.3359 367.214 21.6016 367.214C22.1328 367.214 22.4974 367.05 22.6953 366.722C22.8932 366.394 22.9922 365.953 22.9922 365.401V358.331H25.1328ZM35.2109 365.112C35.2109 365.722 35.112 366.282 34.9141 366.792C34.7161 367.297 34.4349 367.729 34.0703 368.089C33.7109 368.443 33.2786 368.719 32.7734 368.917C32.2682 369.115 31.7057 369.214 31.0859 369.214C30.2682 369.214 29.5495 369.037 28.9297 368.683C28.3099 368.328 27.8307 367.828 27.4922 367.183C27.1589 366.537 26.9922 365.81 26.9922 365.003C26.9922 364.196 27.1641 363.479 27.5078 362.854C27.8516 362.229 28.3333 361.745 28.9531 361.401C29.5781 361.052 30.2943 360.878 31.1016 360.878C31.7266 360.878 32.2917 360.982 32.7969 361.19C33.3073 361.399 33.7422 361.696 34.1016 362.081C34.4609 362.461 34.7344 362.909 34.9219 363.425C35.1146 363.94 35.2109 364.503 35.2109 365.112ZM33.0859 365.065C33.0859 364.638 33.0156 364.219 32.875 363.808C32.7396 363.396 32.5208 363.058 32.2188 362.792C31.9167 362.526 31.5443 362.394 31.1016 362.394C30.6797 362.394 30.3151 362.524 30.0078 362.784C29.7057 363.045 29.4818 363.378 29.3359 363.784C29.1901 364.185 29.1172 364.591 29.1172 365.003C29.1172 365.446 29.1849 365.873 29.3203 366.284C29.4609 366.696 29.6823 367.034 29.9844 367.3C30.2865 367.56 30.6693 367.69 31.1328 367.69C31.4609 367.69 31.75 367.612 32 367.456C32.25 367.295 32.4531 367.091 32.6094 366.847C32.7656 366.597 32.8828 366.318 32.9609 366.011C33.0443 365.698 33.0859 365.383 33.0859 365.065ZM38.8906 369.003H36.8438V361.081H38.8906V369.003ZM38.9219 359.644H36.8125V357.706H38.9219V359.644ZM42.9062 361.081L42.9531 362.347C43.5885 361.42 44.4792 360.956 45.625 360.956C46.6875 360.956 47.4036 361.271 47.7734 361.901C48.1432 362.526 48.3281 363.407 48.3281 364.542V369.003H46.2812V365.019C46.2812 364.315 46.1901 363.745 46.0078 363.308C45.8307 362.87 45.4427 362.651 44.8438 362.651C44.2031 362.651 43.7526 362.909 43.4922 363.425C43.2318 363.935 43.1016 364.542 43.1016 365.245V369.003H41.0469V363.964C41.0469 362.844 41.0208 361.883 40.9688 361.081H42.9062ZM61.3906 369.003H59.5625L59.5312 367.815C59.2865 368.237 58.9427 368.563 58.5 368.792C58.0625 369.016 57.5859 369.128 57.0703 369.128C56.5443 369.128 56.0729 369.037 55.6562 368.854C55.2448 368.672 54.9193 368.396 54.6797 368.026C54.4401 367.651 54.3203 367.198 54.3203 366.667C54.3203 365.677 54.7083 365 55.4844 364.636C56.2604 364.271 57.2057 364.089 58.3203 364.089C58.4818 364.089 58.5859 364.091 58.6328 364.097C58.6797 364.097 58.7839 364.102 58.9453 364.112C59.1068 364.118 59.2708 364.125 59.4375 364.136C59.4375 363.547 59.2943 363.11 59.0078 362.823C58.7214 362.537 58.2786 362.394 57.6797 362.394C56.7734 362.394 55.9557 362.683 55.2266 363.261L55.1641 361.479C56.013 361.12 56.9323 360.94 57.9219 360.94C58.2917 360.94 58.6589 360.977 59.0234 361.05C59.388 361.123 59.724 361.245 60.0312 361.417C60.3438 361.584 60.6016 361.808 60.8047 362.089C61.013 362.37 61.1484 362.693 61.2109 363.058C61.2786 363.417 61.3125 363.847 61.3125 364.347C61.3125 364.862 61.3125 365.381 61.3125 365.901C61.3177 366.422 61.3229 366.899 61.3281 367.331C61.3385 367.758 61.3594 368.315 61.3906 369.003ZM59.4688 365.401C59.4167 365.391 59.3359 365.386 59.2266 365.386H58.9766C58.5286 365.386 58.1172 365.412 57.7422 365.464C57.3724 365.511 57.0469 365.636 56.7656 365.839C56.4896 366.037 56.3516 366.328 56.3516 366.714C56.3516 367.026 56.474 367.276 56.7188 367.464C56.9688 367.646 57.2578 367.737 57.5859 367.737C58.2057 367.737 58.6745 367.508 58.9922 367.05C59.3099 366.591 59.4688 366.042 59.4688 365.401ZM65.3281 361.081L65.375 362.347C66.0104 361.42 66.901 360.956 68.0469 360.956C69.1094 360.956 69.8255 361.271 70.1953 361.901C70.5651 362.526 70.75 363.407 70.75 364.542V369.003H68.7031V365.019C68.7031 364.315 68.612 363.745 68.4297 363.308C68.2526 362.87 67.8646 362.651 67.2656 362.651C66.625 362.651 66.1745 362.909 65.9141 363.425C65.6536 363.935 65.5234 364.542 65.5234 365.245V369.003H63.4688V363.964C63.4688 362.844 63.4427 361.883 63.3906 361.081H65.3281ZM80.0625 369.003H78.125L78.0938 367.659C77.8594 368.133 77.5234 368.498 77.0859 368.753C76.6536 369.003 76.1641 369.128 75.6172 369.128C75.0443 369.128 74.5417 369.016 74.1094 368.792C73.6823 368.563 73.3359 368.256 73.0703 367.87C72.8047 367.485 72.6068 367.047 72.4766 366.558C72.3516 366.068 72.2891 365.555 72.2891 365.019C72.2891 364.31 72.4062 363.646 72.6406 363.026C72.875 362.401 73.237 361.899 73.7266 361.519C74.2214 361.133 74.8359 360.94 75.5703 360.94C76.1224 360.94 76.6042 361.063 77.0156 361.308C77.4271 361.552 77.7656 361.914 78.0312 362.394C77.9792 362.008 77.9531 361.539 77.9531 360.987V357.479H80V366.698C80.0104 367.209 80.0182 367.657 80.0234 368.042C80.0339 368.427 80.0469 368.748 80.0625 369.003ZM77.9844 365.097C77.9844 364.685 77.9193 364.297 77.7891 363.933C77.6589 363.563 77.4531 363.258 77.1719 363.019C76.8958 362.774 76.5521 362.651 76.1406 362.651C75.526 362.651 75.0833 362.888 74.8125 363.362C74.5469 363.831 74.4141 364.399 74.4141 365.065C74.4141 365.69 74.5625 366.256 74.8594 366.761C75.1562 367.266 75.5938 367.519 76.1719 367.519C76.5625 367.519 76.8958 367.401 77.1719 367.167C77.4531 366.927 77.6589 366.625 77.7891 366.261C77.9193 365.891 77.9844 365.503 77.9844 365.097ZM93.2031 369.003H91.375L91.3438 367.815C91.099 368.237 90.7552 368.563 90.3125 368.792C89.875 369.016 89.3984 369.128 88.8828 369.128C88.3568 369.128 87.8854 369.037 87.4688 368.854C87.0573 368.672 86.7318 368.396 86.4922 368.026C86.2526 367.651 86.1328 367.198 86.1328 366.667C86.1328 365.677 86.5208 365 87.2969 364.636C88.0729 364.271 89.0182 364.089 90.1328 364.089C90.2943 364.089 90.3984 364.091 90.4453 364.097C90.4922 364.097 90.5964 364.102 90.7578 364.112C90.9193 364.118 91.0833 364.125 91.25 364.136C91.25 363.547 91.1068 363.11 90.8203 362.823C90.5339 362.537 90.0911 362.394 89.4922 362.394C88.5859 362.394 87.7682 362.683 87.0391 363.261L86.9766 361.479C87.8255 361.12 88.7448 360.94 89.7344 360.94C90.1042 360.94 90.4714 360.977 90.8359 361.05C91.2005 361.123 91.5365 361.245 91.8438 361.417C92.1562 361.584 92.4141 361.808 92.6172 362.089C92.8255 362.37 92.9609 362.693 93.0234 363.058C93.0911 363.417 93.125 363.847 93.125 364.347C93.125 364.862 93.125 365.381 93.125 365.901C93.1302 366.422 93.1354 366.899 93.1406 367.331C93.151 367.758 93.1719 368.315 93.2031 369.003ZM91.2812 365.401C91.2292 365.391 91.1484 365.386 91.0391 365.386H90.7891C90.3411 365.386 89.9297 365.412 89.5547 365.464C89.1849 365.511 88.8594 365.636 88.5781 365.839C88.3021 366.037 88.1641 366.328 88.1641 366.714C88.1641 367.026 88.2865 367.276 88.5312 367.464C88.7812 367.646 89.0703 367.737 89.3984 367.737C90.0182 367.737 90.487 367.508 90.8047 367.05C91.1224 366.591 91.2812 366.042 91.2812 365.401ZM107.672 361.081L105.219 369.003H102.836L101.844 365.933C101.62 365.203 101.451 364.62 101.336 364.183C101.221 363.74 101.13 363.25 101.062 362.714C101 363.068 100.935 363.391 100.867 363.683C100.799 363.969 100.716 364.302 100.617 364.683C100.518 365.063 100.427 365.42 100.344 365.753L99.3516 369.003H96.9922L94.3047 361.081H96.4688L97.3984 363.933C97.8255 365.256 98.112 366.412 98.2578 367.401C98.3411 366.839 98.4375 366.318 98.5469 365.839C98.6615 365.36 98.7995 364.841 98.9609 364.284L99.9062 361.081H102.273L103.398 364.651C103.716 365.62 103.935 366.526 104.055 367.37C104.174 366.495 104.375 365.578 104.656 364.62L105.688 361.081H107.672ZM115.484 369.003H113.656L113.625 367.815C113.38 368.237 113.036 368.563 112.594 368.792C112.156 369.016 111.68 369.128 111.164 369.128C110.638 369.128 110.167 369.037 109.75 368.854C109.339 368.672 109.013 368.396 108.773 368.026C108.534 367.651 108.414 367.198 108.414 366.667C108.414 365.677 108.802 365 109.578 364.636C110.354 364.271 111.299 364.089 112.414 364.089C112.576 364.089 112.68 364.091 112.727 364.097C112.773 364.097 112.878 364.102 113.039 364.112C113.201 364.118 113.365 364.125 113.531 364.136C113.531 363.547 113.388 363.11 113.102 362.823C112.815 362.537 112.372 362.394 111.773 362.394C110.867 362.394 110.049 362.683 109.32 363.261L109.258 361.479C110.107 361.12 111.026 360.94 112.016 360.94C112.385 360.94 112.753 360.977 113.117 361.05C113.482 361.123 113.818 361.245 114.125 361.417C114.438 361.584 114.695 361.808 114.898 362.089C115.107 362.37 115.242 362.693 115.305 363.058C115.372 363.417 115.406 363.847 115.406 364.347C115.406 364.862 115.406 365.381 115.406 365.901C115.411 366.422 115.417 366.899 115.422 367.331C115.432 367.758 115.453 368.315 115.484 369.003ZM113.562 365.401C113.51 365.391 113.43 365.386 113.32 365.386H113.07C112.622 365.386 112.211 365.412 111.836 365.464C111.466 365.511 111.141 365.636 110.859 365.839C110.583 366.037 110.445 366.328 110.445 366.714C110.445 367.026 110.568 367.276 110.812 367.464C111.062 367.646 111.352 367.737 111.68 367.737C112.299 367.737 112.768 367.508 113.086 367.05C113.404 366.591 113.562 366.042 113.562 365.401ZM119.531 369.003H117.484V361.081H119.531V369.003ZM119.562 359.644H117.453V357.706H119.562V359.644ZM126.039 367.308L126.109 368.909C125.589 369.013 125.128 369.065 124.727 369.065C124.055 369.065 123.523 368.943 123.133 368.698C122.742 368.448 122.469 368.097 122.312 367.644C122.156 367.185 122.078 366.625 122.078 365.964V362.651H120.586V361.128H122.109V359.519L124.156 358.847V361.128H125.961V362.651H124.156V365.534C124.156 366.149 124.221 366.618 124.352 366.94C124.487 367.258 124.815 367.417 125.336 367.417C125.529 367.417 125.763 367.381 126.039 367.308ZM134.031 369.003H131.984V362.651H130.398V361.128H131.984C131.995 360.482 132.023 359.972 132.07 359.597C132.117 359.216 132.24 358.86 132.438 358.526C132.682 358.146 133.016 357.87 133.438 357.698C133.865 357.521 134.326 357.433 134.82 357.433C135.195 357.433 135.562 357.482 135.922 357.581L135.797 359.229C135.594 359.162 135.391 359.128 135.188 359.128C134.844 359.128 134.586 359.229 134.414 359.433C134.242 359.631 134.135 359.865 134.094 360.136C134.052 360.401 134.031 360.732 134.031 361.128H135.828V362.651H134.031V369.003ZM144.914 365.112C144.914 365.722 144.815 366.282 144.617 366.792C144.419 367.297 144.138 367.729 143.773 368.089C143.414 368.443 142.982 368.719 142.477 368.917C141.971 369.115 141.409 369.214 140.789 369.214C139.971 369.214 139.253 369.037 138.633 368.683C138.013 368.328 137.534 367.828 137.195 367.183C136.862 366.537 136.695 365.81 136.695 365.003C136.695 364.196 136.867 363.479 137.211 362.854C137.555 362.229 138.036 361.745 138.656 361.401C139.281 361.052 139.997 360.878 140.805 360.878C141.43 360.878 141.995 360.982 142.5 361.19C143.01 361.399 143.445 361.696 143.805 362.081C144.164 362.461 144.438 362.909 144.625 363.425C144.818 363.94 144.914 364.503 144.914 365.112ZM142.789 365.065C142.789 364.638 142.719 364.219 142.578 363.808C142.443 363.396 142.224 363.058 141.922 362.792C141.62 362.526 141.247 362.394 140.805 362.394C140.383 362.394 140.018 362.524 139.711 362.784C139.409 363.045 139.185 363.378 139.039 363.784C138.893 364.185 138.82 364.591 138.82 365.003C138.82 365.446 138.888 365.873 139.023 366.284C139.164 366.696 139.385 367.034 139.688 367.3C139.99 367.56 140.372 367.69 140.836 367.69C141.164 367.69 141.453 367.612 141.703 367.456C141.953 367.295 142.156 367.091 142.312 366.847C142.469 366.597 142.586 366.318 142.664 366.011C142.747 365.698 142.789 365.383 142.789 365.065ZM148.656 369.003H146.609V363.464C146.583 362.146 146.562 361.352 146.547 361.081H148.406L148.453 363.081C148.63 362.456 148.898 361.956 149.258 361.581C149.622 361.206 150.096 361.019 150.68 361.019C150.857 361.019 151.057 361.045 151.281 361.097V363.019C151.01 362.946 150.771 362.909 150.562 362.909C150.078 362.909 149.693 363.037 149.406 363.292C149.12 363.547 148.922 363.875 148.812 364.276C148.708 364.672 148.656 365.107 148.656 365.581V365.737V369.003ZM158.953 361.081L159 362.284C159.255 361.868 159.599 361.542 160.031 361.308C160.469 361.073 160.94 360.956 161.445 360.956C161.997 360.956 162.453 361.071 162.812 361.3C163.177 361.524 163.469 361.878 163.688 362.362C163.953 361.909 164.305 361.563 164.742 361.323C165.185 361.078 165.672 360.956 166.203 360.956C167.188 360.956 167.852 361.269 168.195 361.894C168.539 362.513 168.711 363.352 168.711 364.409V369.003H166.664V365.159V364.847C166.664 364.206 166.589 363.68 166.438 363.269C166.292 362.857 165.969 362.651 165.469 362.651C164.432 362.651 163.914 363.547 163.914 365.339V369.003H161.867V364.94V364.378C161.867 363.92 161.779 363.519 161.602 363.175C161.424 362.826 161.117 362.651 160.68 362.651C160.112 362.651 159.708 362.894 159.469 363.378C159.229 363.857 159.109 364.409 159.109 365.034V369.003H157.062V363.019C157.062 362.295 157.042 361.649 157 361.081H158.953ZM178.477 365.112C178.477 365.722 178.378 366.282 178.18 366.792C177.982 367.297 177.701 367.729 177.336 368.089C176.977 368.443 176.544 368.719 176.039 368.917C175.534 369.115 174.971 369.214 174.352 369.214C173.534 369.214 172.815 369.037 172.195 368.683C171.576 368.328 171.096 367.828 170.758 367.183C170.424 366.537 170.258 365.81 170.258 365.003C170.258 364.196 170.43 363.479 170.773 362.854C171.117 362.229 171.599 361.745 172.219 361.401C172.844 361.052 173.56 360.878 174.367 360.878C174.992 360.878 175.557 360.982 176.062 361.19C176.573 361.399 177.008 361.696 177.367 362.081C177.727 362.461 178 362.909 178.188 363.425C178.38 363.94 178.477 364.503 178.477 365.112ZM176.352 365.065C176.352 364.638 176.281 364.219 176.141 363.808C176.005 363.396 175.786 363.058 175.484 362.792C175.182 362.526 174.81 362.394 174.367 362.394C173.945 362.394 173.581 362.524 173.273 362.784C172.971 363.045 172.747 363.378 172.602 363.784C172.456 364.185 172.383 364.591 172.383 365.003C172.383 365.446 172.451 365.873 172.586 366.284C172.727 366.696 172.948 367.034 173.25 367.3C173.552 367.56 173.935 367.69 174.398 367.69C174.727 367.69 175.016 367.612 175.266 367.456C175.516 367.295 175.719 367.091 175.875 366.847C176.031 366.597 176.148 366.318 176.227 366.011C176.31 365.698 176.352 365.383 176.352 365.065ZM182.219 369.003H180.172V363.464C180.146 362.146 180.125 361.352 180.109 361.081H181.969L182.016 363.081C182.193 362.456 182.461 361.956 182.82 361.581C183.185 361.206 183.659 361.019 184.242 361.019C184.419 361.019 184.62 361.045 184.844 361.097V363.019C184.573 362.946 184.333 362.909 184.125 362.909C183.641 362.909 183.255 363.037 182.969 363.292C182.682 363.547 182.484 363.875 182.375 364.276C182.271 364.672 182.219 365.107 182.219 365.581V365.737V369.003ZM192.477 366.894L192.508 368.667C191.669 369.032 190.763 369.214 189.789 369.214C189.138 369.214 188.557 369.123 188.047 368.94C187.542 368.753 187.109 368.479 186.75 368.12C186.391 367.756 186.117 367.318 185.93 366.808C185.742 366.292 185.648 365.706 185.648 365.05C185.648 364.446 185.734 363.891 185.906 363.386C186.083 362.875 186.336 362.435 186.664 362.065C186.992 361.69 187.396 361.399 187.875 361.19C188.359 360.982 188.906 360.878 189.516 360.878C190.109 360.878 190.633 360.985 191.086 361.198C191.539 361.412 191.906 361.706 192.188 362.081C192.474 362.456 192.688 362.891 192.828 363.386C192.969 363.875 193.039 364.414 193.039 365.003C193.039 365.107 193.036 365.185 193.031 365.237C193.026 365.289 193.021 365.354 193.016 365.433C193.01 365.511 193.003 365.602 192.992 365.706H187.664C187.716 366.331 187.958 366.818 188.391 367.167C188.828 367.516 189.37 367.69 190.016 367.69C190.745 367.69 191.565 367.425 192.477 366.894ZM191.086 364.284C191.076 363.93 191.01 363.604 190.891 363.308C190.776 363.011 190.596 362.771 190.352 362.589C190.112 362.407 189.812 362.315 189.453 362.315C189.083 362.315 188.766 362.407 188.5 362.589C188.24 362.766 188.036 363.003 187.891 363.3C187.75 363.597 187.664 363.925 187.633 364.284H191.086Z" fill="black"/>
<path d="M28.4023 9.05371C28.4023 9.85059 28.2461 10.5635 27.9336 11.1924C27.625 11.8213 27.1758 12.3115 26.5859 12.6631C25.9961 13.0107 25.3008 13.1846 24.5 13.1846C23.6758 13.1846 22.9668 13.0088 22.373 12.6572C21.7793 12.3057 21.3301 11.8135 21.0254 11.1807C20.7246 10.5439 20.5742 9.81543 20.5742 8.99512C20.5742 8.1748 20.7266 7.4502 21.0312 6.82129C21.3359 6.19238 21.7832 5.7041 22.373 5.35645C22.9668 5.00488 23.6758 4.8291 24.5 4.8291C25.125 4.8291 25.6836 4.93262 26.1758 5.13965C26.668 5.34668 27.0781 5.63965 27.4062 6.01855C27.7344 6.39746 27.9824 6.84277 28.1504 7.35449C28.3184 7.86621 28.4023 8.43262 28.4023 9.05371ZM26.6855 9.01855C26.6855 8.6709 26.6426 8.32324 26.5566 7.97559C26.4707 7.62793 26.3359 7.30957 26.1523 7.02051C25.9727 6.73145 25.7441 6.50098 25.4668 6.3291C25.1895 6.15332 24.8633 6.06543 24.4883 6.06543C23.9961 6.06543 23.584 6.21191 23.252 6.50488C22.9238 6.79785 22.6816 7.17285 22.5254 7.62988C22.3691 8.08301 22.291 8.5459 22.291 9.01855C22.291 9.49121 22.3691 9.9541 22.5254 10.4072C22.6816 10.8564 22.9258 11.2256 23.2578 11.5146C23.5938 11.8037 24.0078 11.9482 24.5 11.9482C24.8672 11.9482 25.1895 11.8623 25.4668 11.6904C25.748 11.5186 25.9766 11.2881 26.1523 10.999C26.332 10.71 26.4648 10.3936 26.5508 10.0498C26.6406 9.70605 26.6855 9.3623 26.6855 9.01855ZM33.7871 11.5264L33.875 12.8213C33.3594 12.9736 32.8984 13.0498 32.4922 13.0498C32.0391 13.0498 31.623 12.9814 31.2441 12.8447C30.8652 12.7041 30.5391 12.501 30.2656 12.2354C29.9961 11.9697 29.7891 11.6475 29.6445 11.2686C29.5039 10.8857 29.4336 10.4639 29.4336 10.0029C29.4336 9.41699 29.5586 8.89746 29.8086 8.44434C30.0625 7.99121 30.418 7.63965 30.875 7.38965C31.3359 7.13965 31.8555 7.01465 32.4336 7.01465C32.8633 7.01465 33.2988 7.0791 33.7402 7.20801L33.623 8.44434C33.2715 8.30762 32.9551 8.23926 32.6738 8.23926C32.3535 8.23926 32.0664 8.31934 31.8125 8.47949C31.5586 8.63574 31.3633 8.84668 31.2266 9.1123C31.0938 9.37402 31.0273 9.66699 31.0273 9.99121C31.0273 10.5264 31.1836 10.9561 31.4961 11.2803C31.8086 11.6045 32.2285 11.7666 32.7559 11.7666C33.0918 11.7666 33.4355 11.6865 33.7871 11.5264ZM38.2695 11.7314L38.3223 12.9326C37.9316 13.0107 37.5859 13.0498 37.2852 13.0498C36.7812 13.0498 36.3828 12.958 36.0898 12.7744C35.7969 12.5869 35.5918 12.3232 35.4746 11.9834C35.3574 11.6396 35.2988 11.2197 35.2988 10.7236V8.23926H34.1797V7.09668H35.3223V5.88965L36.8574 5.38574V7.09668H38.2109V8.23926H36.8574V10.4014C36.8574 10.8623 36.9062 11.2139 37.0039 11.4561C37.1055 11.6943 37.3516 11.8135 37.7422 11.8135C37.8867 11.8135 38.0625 11.7861 38.2695 11.7314ZM40.5078 7.57715H39.377L39.1016 4.36035H40.7949L40.5078 7.57715ZM50.4746 11.7197V13.0029H45.1133V11.6611C45.6602 11.165 46.0645 10.792 46.3262 10.542C46.5918 10.292 46.9043 9.96973 47.2637 9.5752C47.627 9.17676 47.9297 8.78027 48.1719 8.38574C48.4141 7.9873 48.5352 7.63379 48.5352 7.3252C48.5352 6.96973 48.418 6.69043 48.1836 6.4873C47.9531 6.28027 47.6621 6.17676 47.3105 6.17676C46.6934 6.17676 46.0566 6.39941 45.4004 6.84473L45.2656 5.43262C46.1016 5.06543 46.9141 4.88184 47.7031 4.88184C48.1797 4.88184 48.6094 4.96777 48.9922 5.13965C49.375 5.31152 49.6797 5.56934 49.9062 5.91309C50.1328 6.25684 50.2461 6.66895 50.2461 7.14941C50.2461 7.64551 50.082 8.17676 49.7539 8.74316C49.4258 9.30957 49.0293 9.84863 48.5645 10.3604C48.0996 10.8721 47.6367 11.333 47.1758 11.7432L50.4746 11.7197ZM57.0781 9.01855C57.0781 9.44824 57.0625 9.83105 57.0312 10.167C57 10.499 56.9316 10.835 56.8262 11.1748C56.7207 11.5146 56.5762 11.8154 56.3926 12.0771C56.1582 12.417 55.8535 12.6787 55.4785 12.8623C55.1074 13.0459 54.7129 13.1377 54.2949 13.1377C53.5684 13.1377 52.998 12.9385 52.584 12.54C52.1699 12.1377 51.8848 11.6299 51.7285 11.0166C51.5762 10.3994 51.5 9.7334 51.5 9.01855C51.5 8.30371 51.5781 7.63965 51.7344 7.02637C51.8945 6.40918 52.1816 5.89746 52.5957 5.49121C53.0137 5.08496 53.5801 4.88184 54.2949 4.88184C55.0098 4.88184 55.5742 5.08496 55.9883 5.49121C56.4023 5.89746 56.6875 6.40918 56.8438 7.02637C57 7.63965 57.0781 8.30371 57.0781 9.01855ZM55.4609 9.00684C55.4609 8.59668 55.4375 8.17871 55.3906 7.75293C55.3477 7.32324 55.2402 6.93652 55.0684 6.59277C54.8965 6.24902 54.6387 6.07715 54.2949 6.07715C53.9434 6.07715 53.6797 6.25098 53.5039 6.59863C53.332 6.94238 53.2246 7.32129 53.1816 7.73535C53.1387 8.14941 53.1172 8.58887 53.1172 9.05371C53.1172 9.78809 53.1875 10.4521 53.3281 11.0459C53.4688 11.6396 53.791 11.9365 54.2949 11.9365C54.6387 11.9365 54.8965 11.7764 55.0684 11.4561C55.2441 11.1318 55.3535 10.7646 55.3965 10.3545C55.4395 9.94043 55.4609 9.52246 55.4609 9.10059V9.00684ZM63.3418 11.7197V13.0029H57.9805V11.6611C58.5273 11.165 58.9316 10.792 59.1934 10.542C59.459 10.292 59.7715 9.96973 60.1309 9.5752C60.4941 9.17676 60.7969 8.78027 61.0391 8.38574C61.2812 7.9873 61.4023 7.63379 61.4023 7.3252C61.4023 6.96973 61.2852 6.69043 61.0508 6.4873C60.8203 6.28027 60.5293 6.17676 60.1777 6.17676C59.5605 6.17676 58.9238 6.39941 58.2676 6.84473L58.1328 5.43262C58.9688 5.06543 59.7812 4.88184 60.5703 4.88184C61.0469 4.88184 61.4766 4.96777 61.8594 5.13965C62.2422 5.31152 62.5469 5.56934 62.7734 5.91309C63 6.25684 63.1133 6.66895 63.1133 7.14941C63.1133 7.64551 62.9492 8.17676 62.6211 8.74316C62.293 9.30957 61.8965 9.84863 61.4316 10.3604C60.9668 10.8721 60.5039 11.333 60.043 11.7432L63.3418 11.7197ZM69.7754 11.7197V13.0029H64.4141V11.6611C64.9609 11.165 65.3652 10.792 65.627 10.542C65.8926 10.292 66.2051 9.96973 66.5645 9.5752C66.9277 9.17676 67.2305 8.78027 67.4727 8.38574C67.7148 7.9873 67.8359 7.63379 67.8359 7.3252C67.8359 6.96973 67.7188 6.69043 67.4844 6.4873C67.2539 6.28027 66.9629 6.17676 66.6113 6.17676C65.9941 6.17676 65.3574 6.39941 64.7012 6.84473L64.5664 5.43262C65.4023 5.06543 66.2148 4.88184 67.0039 4.88184C67.4805 4.88184 67.9102 4.96777 68.293 5.13965C68.6758 5.31152 68.9805 5.56934 69.207 5.91309C69.4336 6.25684 69.5469 6.66895 69.5469 7.14941C69.5469 7.64551 69.3828 8.17676 69.0547 8.74316C68.7266 9.30957 68.3301 9.84863 67.8652 10.3604C67.4004 10.8721 66.9375 11.333 66.4766 11.7432L69.7754 11.7197Z" fill="#777E90"/>
<path d="M28.0547 34.2607V36.0029H21.7344V25.3311H23.8906V34.2607H28.0547ZM35.9766 36.0029H34.1484L34.1172 34.8154C33.8724 35.2373 33.5286 35.5628 33.0859 35.792C32.6484 36.016 32.1719 36.1279 31.6562 36.1279C31.1302 36.1279 30.6589 36.0368 30.2422 35.8545C29.8307 35.6722 29.5052 35.3962 29.2656 35.0264C29.026 34.6514 28.9062 34.1982 28.9062 33.667C28.9062 32.6774 29.2943 32.0003 30.0703 31.6357C30.8464 31.2712 31.7917 31.0889 32.9062 31.0889C33.0677 31.0889 33.1719 31.0915 33.2188 31.0967C33.2656 31.0967 33.3698 31.1019 33.5312 31.1123C33.6927 31.1175 33.8568 31.1253 34.0234 31.1357C34.0234 30.5472 33.8802 30.1097 33.5938 29.8232C33.3073 29.5368 32.8646 29.3936 32.2656 29.3936C31.3594 29.3936 30.5417 29.6826 29.8125 30.2607L29.75 28.4795C30.599 28.1201 31.5182 27.9404 32.5078 27.9404C32.8776 27.9404 33.2448 27.9769 33.6094 28.0498C33.974 28.1227 34.3099 28.2451 34.6172 28.417C34.9297 28.5837 35.1875 28.8076 35.3906 29.0889C35.599 29.3701 35.7344 29.693 35.7969 30.0576C35.8646 30.417 35.8984 30.8467 35.8984 31.3467C35.8984 31.8623 35.8984 32.3805 35.8984 32.9014C35.9036 33.4222 35.9089 33.8988 35.9141 34.3311C35.9245 34.7581 35.9453 35.3154 35.9766 36.0029ZM34.0547 32.4014C34.0026 32.391 33.9219 32.3857 33.8125 32.3857H33.5625C33.1146 32.3857 32.7031 32.4118 32.3281 32.4639C31.9583 32.5107 31.6328 32.6357 31.3516 32.8389C31.0755 33.0368 30.9375 33.3285 30.9375 33.7139C30.9375 34.0264 31.0599 34.2764 31.3047 34.4639C31.5547 34.6462 31.8438 34.7373 32.1719 34.7373C32.7917 34.7373 33.2604 34.5081 33.5781 34.0498C33.8958 33.5915 34.0547 33.042 34.0547 32.4014ZM45.0938 28.0811V32.917C45.1042 33.141 45.1146 33.4873 45.125 33.9561C45.1406 34.4248 45.1536 34.7998 45.1641 35.0811C45.1745 35.3623 45.1901 35.6696 45.2109 36.0029H43.2734L43.2109 34.7842C43.0286 35.0706 42.8073 35.3128 42.5469 35.5107C42.2917 35.7087 42.0026 35.8623 41.6797 35.9717C41.3568 36.0758 41.0339 36.1279 40.7109 36.1279C39.9766 36.1279 39.4036 35.9769 38.9922 35.6748C38.5807 35.3727 38.2969 34.9587 38.1406 34.4326C37.9896 33.9066 37.9141 33.279 37.9141 32.5498V28.0811H39.9609V31.8936C39.9609 32.3883 39.9844 32.8076 40.0312 33.1514C40.0833 33.4899 40.2161 33.7868 40.4297 34.042C40.6432 34.292 40.9661 34.417 41.3984 34.417C42.0182 34.417 42.4479 34.1566 42.6875 33.6357C42.9271 33.1097 43.0469 32.4951 43.0469 31.792V28.0811H45.0938ZM49.2109 28.0811L49.2578 29.3467C49.8932 28.4196 50.7839 27.9561 51.9297 27.9561C52.9922 27.9561 53.7083 28.2712 54.0781 28.9014C54.4479 29.5264 54.6328 30.4066 54.6328 31.542V36.0029H52.5859V32.0186C52.5859 31.3154 52.4948 30.7451 52.3125 30.3076C52.1354 29.8701 51.7474 29.6514 51.1484 29.6514C50.5078 29.6514 50.0573 29.9092 49.7969 30.4248C49.5365 30.9352 49.4062 31.542 49.4062 32.2451V36.0029H47.3516V30.9639C47.3516 29.8441 47.3255 28.8831 47.2734 28.0811H49.2109ZM61.9922 34.0342L62.1094 35.7607C61.4219 35.9639 60.8073 36.0654 60.2656 36.0654C59.6615 36.0654 59.1068 35.9743 58.6016 35.792C58.0964 35.6045 57.6615 35.3337 57.2969 34.9795C56.9375 34.6253 56.6615 34.1956 56.4688 33.6904C56.2812 33.18 56.1875 32.6175 56.1875 32.0029C56.1875 31.2217 56.3542 30.529 56.6875 29.9248C57.026 29.3206 57.5 28.8519 58.1094 28.5186C58.724 28.1852 59.4167 28.0186 60.1875 28.0186C60.7604 28.0186 61.3411 28.1045 61.9297 28.2764L61.7734 29.9248C61.3047 29.7425 60.8828 29.6514 60.5078 29.6514C60.0807 29.6514 59.6979 29.7581 59.3594 29.9717C59.0208 30.18 58.7604 30.4613 58.5781 30.8154C58.401 31.1644 58.3125 31.555 58.3125 31.9873C58.3125 32.7008 58.5208 33.2738 58.9375 33.7061C59.3542 34.1383 59.9141 34.3545 60.6172 34.3545C61.0651 34.3545 61.5234 34.2477 61.9922 34.0342ZM70.8203 36.0029H68.7734V32.1592C68.7734 31.3988 68.6901 30.792 68.5234 30.3389C68.362 29.8805 67.9766 29.6514 67.3672 29.6514C66.7109 29.6514 66.25 29.9222 65.9844 30.4639C65.7188 31.0003 65.5859 31.6305 65.5859 32.3545V32.7529V36.0029H63.5391V24.4795H65.5859V29.2061C65.8828 28.779 66.2396 28.4613 66.6562 28.2529C67.0729 28.0446 67.5495 27.9404 68.0859 27.9404C68.6432 27.9404 69.1016 28.0316 69.4609 28.2139C69.8255 28.391 70.1042 28.6331 70.2969 28.9404C70.4948 29.2477 70.6302 29.6071 70.7031 30.0186C70.7812 30.4248 70.8203 30.904 70.8203 31.4561V36.0029ZM81.2578 39.2529H79.3203C78.7943 38.404 78.3568 37.5967 78.0078 36.8311C77.6589 36.0706 77.388 35.2738 77.1953 34.4404C77.0026 33.6071 76.9062 32.7477 76.9062 31.8623C76.9062 30.5915 77.1198 29.3493 77.5469 28.1357C77.974 26.9222 78.5651 25.7035 79.3203 24.4795H81.2578C80.9401 25.0316 80.6406 25.6045 80.3594 26.1982C80.0833 26.792 79.8411 27.4014 79.6328 28.0264C79.4297 28.6462 79.2734 29.2712 79.1641 29.9014C79.0547 30.5264 79 31.1514 79 31.7764C79 32.4326 79.0547 33.0811 79.1641 33.7217C79.2734 34.3571 79.4297 34.9821 79.6328 35.5967C79.8359 36.2113 80.0755 36.818 80.3516 37.417C80.6276 38.0212 80.9297 38.6331 81.2578 39.2529ZM83.2344 36.0029V25.3311H86.6406C87.6979 25.3311 88.5859 25.529 89.3047 25.9248C90.0234 26.3154 90.3828 27.0133 90.3828 28.0186C90.3828 28.7061 90.2057 29.2451 89.8516 29.6357C89.5026 30.0212 88.9818 30.2868 88.2891 30.4326C88.6328 30.4691 88.9583 30.5576 89.2656 30.6982C89.5781 30.8337 89.8464 31.016 90.0703 31.2451C90.2943 31.4691 90.4661 31.7321 90.5859 32.0342C90.7057 32.3311 90.7656 32.6722 90.7656 33.0576C90.7656 33.3857 90.7135 33.7035 90.6094 34.0107C90.5052 34.318 90.349 34.5967 90.1406 34.8467C89.9323 35.0915 89.6823 35.2998 89.3906 35.4717C88.9896 35.7113 88.5703 35.8597 88.1328 35.917C87.7005 35.9743 87.1458 36.0029 86.4688 36.0029H83.2344ZM85.3906 34.3701H86.4297C87.0443 34.3701 87.5625 34.2529 87.9844 34.0186C88.4115 33.779 88.625 33.3779 88.625 32.8154C88.625 32.2686 88.4297 31.8727 88.0391 31.6279C87.6484 31.3779 87.1615 31.2529 86.5781 31.2529H85.3906V34.3701ZM85.3906 29.6514H86.4141C86.9401 29.6514 87.375 29.5524 87.7188 29.3545C88.0677 29.1566 88.2422 28.818 88.2422 28.3389C88.2422 27.8441 88.0807 27.4951 87.7578 27.292C87.4349 27.0837 87.0104 26.9795 86.4844 26.9795H85.3906V29.6514ZM99.2266 36.0029H97.3984L97.3672 34.8154C97.1224 35.2373 96.7786 35.5628 96.3359 35.792C95.8984 36.016 95.4219 36.1279 94.9062 36.1279C94.3802 36.1279 93.9089 36.0368 93.4922 35.8545C93.0807 35.6722 92.7552 35.3962 92.5156 35.0264C92.276 34.6514 92.1562 34.1982 92.1562 33.667C92.1562 32.6774 92.5443 32.0003 93.3203 31.6357C94.0964 31.2712 95.0417 31.0889 96.1562 31.0889C96.3177 31.0889 96.4219 31.0915 96.4688 31.0967C96.5156 31.0967 96.6198 31.1019 96.7812 31.1123C96.9427 31.1175 97.1068 31.1253 97.2734 31.1357C97.2734 30.5472 97.1302 30.1097 96.8438 29.8232C96.5573 29.5368 96.1146 29.3936 95.5156 29.3936C94.6094 29.3936 93.7917 29.6826 93.0625 30.2607L93 28.4795C93.849 28.1201 94.7682 27.9404 95.7578 27.9404C96.1276 27.9404 96.4948 27.9769 96.8594 28.0498C97.224 28.1227 97.5599 28.2451 97.8672 28.417C98.1797 28.5837 98.4375 28.8076 98.6406 29.0889C98.849 29.3701 98.9844 29.693 99.0469 30.0576C99.1146 30.417 99.1484 30.8467 99.1484 31.3467C99.1484 31.8623 99.1484 32.3805 99.1484 32.9014C99.1536 33.4222 99.1589 33.8988 99.1641 34.3311C99.1745 34.7581 99.1953 35.3154 99.2266 36.0029ZM97.3047 32.4014C97.2526 32.391 97.1719 32.3857 97.0625 32.3857H96.8125C96.3646 32.3857 95.9531 32.4118 95.5781 32.4639C95.2083 32.5107 94.8828 32.6357 94.6016 32.8389C94.3255 33.0368 94.1875 33.3285 94.1875 33.7139C94.1875 34.0264 94.3099 34.2764 94.5547 34.4639C94.8047 34.6462 95.0938 34.7373 95.4219 34.7373C96.0417 34.7373 96.5104 34.5081 96.8281 34.0498C97.1458 33.5915 97.3047 33.042 97.3047 32.4014ZM100.875 35.792L100.969 34.0654C101.698 34.4404 102.37 34.6279 102.984 34.6279C103.323 34.6279 103.643 34.555 103.945 34.4092C104.247 34.2633 104.398 34.0368 104.398 33.7295C104.398 33.4639 104.182 33.2373 103.75 33.0498C103.318 32.8623 102.883 32.6774 102.445 32.4951C102.013 32.3128 101.638 32.0576 101.32 31.7295C101.003 31.4014 100.844 30.943 100.844 30.3545C100.844 29.792 101.008 29.3311 101.336 28.9717C101.669 28.6123 102.091 28.3519 102.602 28.1904C103.112 28.0238 103.641 27.9404 104.188 27.9404C104.766 27.9404 105.417 28.042 106.141 28.2451L105.992 29.7764C105.357 29.5732 104.797 29.4717 104.312 29.4717C103.958 29.4717 103.63 29.5316 103.328 29.6514C103.026 29.7712 102.875 29.9795 102.875 30.2764C102.875 30.5316 103.081 30.7451 103.492 30.917C103.909 31.0837 104.344 31.2529 104.797 31.4248C105.255 31.5915 105.646 31.8441 105.969 32.1826C106.297 32.516 106.461 32.9951 106.461 33.6201C106.461 34.1878 106.302 34.6618 105.984 35.042C105.672 35.4222 105.266 35.7008 104.766 35.8779C104.266 36.055 103.737 36.1436 103.18 36.1436C102.544 36.1436 101.776 36.0264 100.875 35.792ZM110.164 36.0029H108.117V28.0811H110.164V36.0029ZM110.195 26.6436H108.086V24.7061H110.195V26.6436ZM117.602 34.0342L117.719 35.7607C117.031 35.9639 116.417 36.0654 115.875 36.0654C115.271 36.0654 114.716 35.9743 114.211 35.792C113.706 35.6045 113.271 35.3337 112.906 34.9795C112.547 34.6253 112.271 34.1956 112.078 33.6904C111.891 33.18 111.797 32.6175 111.797 32.0029C111.797 31.2217 111.964 30.529 112.297 29.9248C112.635 29.3206 113.109 28.8519 113.719 28.5186C114.333 28.1852 115.026 28.0186 115.797 28.0186C116.37 28.0186 116.951 28.1045 117.539 28.2764L117.383 29.9248C116.914 29.7425 116.492 29.6514 116.117 29.6514C115.69 29.6514 115.307 29.7581 114.969 29.9717C114.63 30.18 114.37 30.4613 114.188 30.8154C114.01 31.1644 113.922 31.555 113.922 31.9873C113.922 32.7008 114.13 33.2738 114.547 33.7061C114.964 34.1383 115.523 34.3545 116.227 34.3545C116.674 34.3545 117.133 34.2477 117.602 34.0342ZM118.797 35.792L118.891 34.0654C119.62 34.4404 120.292 34.6279 120.906 34.6279C121.245 34.6279 121.565 34.555 121.867 34.4092C122.169 34.2633 122.32 34.0368 122.32 33.7295C122.32 33.4639 122.104 33.2373 121.672 33.0498C121.24 32.8623 120.805 32.6774 120.367 32.4951C119.935 32.3128 119.56 32.0576 119.242 31.7295C118.924 31.4014 118.766 30.943 118.766 30.3545C118.766 29.792 118.93 29.3311 119.258 28.9717C119.591 28.6123 120.013 28.3519 120.523 28.1904C121.034 28.0238 121.562 27.9404 122.109 27.9404C122.688 27.9404 123.339 28.042 124.062 28.2451L123.914 29.7764C123.279 29.5732 122.719 29.4717 122.234 29.4717C121.88 29.4717 121.552 29.5316 121.25 29.6514C120.948 29.7712 120.797 29.9795 120.797 30.2764C120.797 30.5316 121.003 30.7451 121.414 30.917C121.831 31.0837 122.266 31.2529 122.719 31.4248C123.177 31.5915 123.568 31.8441 123.891 32.1826C124.219 32.516 124.383 32.9951 124.383 33.6201C124.383 34.1878 124.224 34.6618 123.906 35.042C123.594 35.4222 123.188 35.7008 122.688 35.8779C122.188 36.055 121.659 36.1436 121.102 36.1436C120.466 36.1436 119.698 36.0264 118.797 35.792ZM132.992 31.1514H130V29.7607H132.992V26.8311H134.461V29.7607H137.469V31.1514H134.461V34.0811H132.992V31.1514ZM150.086 34.2607V36.0029H143.766V25.3311H145.922V34.2607H150.086ZM158.516 28.0811V32.917C158.526 33.141 158.536 33.4873 158.547 33.9561C158.562 34.4248 158.576 34.7998 158.586 35.0811C158.596 35.3623 158.612 35.6696 158.633 36.0029H156.695L156.633 34.7842C156.451 35.0706 156.229 35.3128 155.969 35.5107C155.714 35.7087 155.424 35.8623 155.102 35.9717C154.779 36.0758 154.456 36.1279 154.133 36.1279C153.398 36.1279 152.826 35.9769 152.414 35.6748C152.003 35.3727 151.719 34.9587 151.562 34.4326C151.411 33.9066 151.336 33.279 151.336 32.5498V28.0811H153.383V31.8936C153.383 32.3883 153.406 32.8076 153.453 33.1514C153.505 33.4899 153.638 33.7868 153.852 34.042C154.065 34.292 154.388 34.417 154.82 34.417C155.44 34.417 155.87 34.1566 156.109 33.6357C156.349 33.1097 156.469 32.4951 156.469 31.792V28.0811H158.516ZM162.633 28.0811L162.68 29.3467C163.315 28.4196 164.206 27.9561 165.352 27.9561C166.414 27.9561 167.13 28.2712 167.5 28.9014C167.87 29.5264 168.055 30.4066 168.055 31.542V36.0029H166.008V32.0186C166.008 31.3154 165.917 30.7451 165.734 30.3076C165.557 29.8701 165.169 29.6514 164.57 29.6514C163.93 29.6514 163.479 29.9092 163.219 30.4248C162.958 30.9352 162.828 31.542 162.828 32.2451V36.0029H160.773V30.9639C160.773 29.8441 160.747 28.8831 160.695 28.0811H162.633ZM175.414 34.0342L175.531 35.7607C174.844 35.9639 174.229 36.0654 173.688 36.0654C173.083 36.0654 172.529 35.9743 172.023 35.792C171.518 35.6045 171.083 35.3337 170.719 34.9795C170.359 34.6253 170.083 34.1956 169.891 33.6904C169.703 33.18 169.609 32.6175 169.609 32.0029C169.609 31.2217 169.776 30.529 170.109 29.9248C170.448 29.3206 170.922 28.8519 171.531 28.5186C172.146 28.1852 172.839 28.0186 173.609 28.0186C174.182 28.0186 174.763 28.1045 175.352 28.2764L175.195 29.9248C174.727 29.7425 174.305 29.6514 173.93 29.6514C173.503 29.6514 173.12 29.7581 172.781 29.9717C172.443 30.18 172.182 30.4613 172 30.8154C171.823 31.1644 171.734 31.555 171.734 31.9873C171.734 32.7008 171.943 33.2738 172.359 33.7061C172.776 34.1383 173.336 34.3545 174.039 34.3545C174.487 34.3545 174.945 34.2477 175.414 34.0342ZM184.242 36.0029H182.195V32.1592C182.195 31.3988 182.112 30.792 181.945 30.3389C181.784 29.8805 181.398 29.6514 180.789 29.6514C180.133 29.6514 179.672 29.9222 179.406 30.4639C179.141 31.0003 179.008 31.6305 179.008 32.3545V32.7529V36.0029H176.961V24.4795H179.008V29.2061C179.305 28.779 179.661 28.4613 180.078 28.2529C180.495 28.0446 180.971 27.9404 181.508 27.9404C182.065 27.9404 182.523 28.0316 182.883 28.2139C183.247 28.391 183.526 28.6331 183.719 28.9404C183.917 29.2477 184.052 29.6071 184.125 30.0186C184.203 30.4248 184.242 30.904 184.242 31.4561V36.0029ZM186.516 36.0029V25.3311H189.922C190.979 25.3311 191.867 25.529 192.586 25.9248C193.305 26.3154 193.664 27.0133 193.664 28.0186C193.664 28.7061 193.487 29.2451 193.133 29.6357C192.784 30.0212 192.263 30.2868 191.57 30.4326C191.914 30.4691 192.24 30.5576 192.547 30.6982C192.859 30.8337 193.128 31.016 193.352 31.2451C193.576 31.4691 193.747 31.7321 193.867 32.0342C193.987 32.3311 194.047 32.6722 194.047 33.0576C194.047 33.3857 193.995 33.7035 193.891 34.0107C193.786 34.318 193.63 34.5967 193.422 34.8467C193.214 35.0915 192.964 35.2998 192.672 35.4717C192.271 35.7113 191.852 35.8597 191.414 35.917C190.982 35.9743 190.427 36.0029 189.75 36.0029H186.516ZM188.672 34.3701H189.711C190.326 34.3701 190.844 34.2529 191.266 34.0186C191.693 33.779 191.906 33.3779 191.906 32.8154C191.906 32.2686 191.711 31.8727 191.32 31.6279C190.93 31.3779 190.443 31.2529 189.859 31.2529H188.672V34.3701ZM188.672 29.6514H189.695C190.221 29.6514 190.656 29.5524 191 29.3545C191.349 29.1566 191.523 28.818 191.523 28.3389C191.523 27.8441 191.362 27.4951 191.039 27.292C190.716 27.0837 190.292 26.9795 189.766 26.9795H188.672V29.6514ZM203.656 32.1123C203.656 32.7217 203.557 33.2816 203.359 33.792C203.161 34.2972 202.88 34.7295 202.516 35.0889C202.156 35.443 201.724 35.7191 201.219 35.917C200.714 36.1149 200.151 36.2139 199.531 36.2139C198.714 36.2139 197.995 36.0368 197.375 35.6826C196.755 35.3285 196.276 34.8285 195.938 34.1826C195.604 33.5368 195.438 32.8102 195.438 32.0029C195.438 31.1956 195.609 30.4795 195.953 29.8545C196.297 29.2295 196.779 28.7451 197.398 28.4014C198.023 28.0524 198.74 27.8779 199.547 27.8779C200.172 27.8779 200.737 27.9821 201.242 28.1904C201.753 28.3988 202.188 28.6956 202.547 29.0811C202.906 29.4613 203.18 29.9092 203.367 30.4248C203.56 30.9404 203.656 31.5029 203.656 32.1123ZM201.531 32.0654C201.531 31.6383 201.461 31.2191 201.32 30.8076C201.185 30.3962 200.966 30.0576 200.664 29.792C200.362 29.5264 199.99 29.3936 199.547 29.3936C199.125 29.3936 198.76 29.5238 198.453 29.7842C198.151 30.0446 197.927 30.3779 197.781 30.7842C197.635 31.1852 197.562 31.5915 197.562 32.0029C197.562 32.4456 197.63 32.8727 197.766 33.2842C197.906 33.6956 198.128 34.0342 198.43 34.2998C198.732 34.5602 199.115 34.6904 199.578 34.6904C199.906 34.6904 200.195 34.6123 200.445 34.4561C200.695 34.2946 200.898 34.0915 201.055 33.8467C201.211 33.5967 201.328 33.318 201.406 33.0107C201.49 32.6982 201.531 32.3831 201.531 32.0654ZM212.695 36.0029H210.234L208.797 33.6045C208.76 33.542 208.721 33.4795 208.68 33.417C208.643 33.3545 208.607 33.292 208.57 33.2295C208.534 33.167 208.497 33.1045 208.461 33.042C208.414 33.1514 208.297 33.3545 208.109 33.6514L206.664 36.0029H204.406L207.164 31.8936L204.664 28.0811H207.078L208.391 30.2139C208.536 30.4378 208.633 30.5967 208.68 30.6904C208.768 30.5342 208.833 30.4196 208.875 30.3467C208.917 30.2738 208.964 30.1904 209.016 30.0967L210.234 28.0811H212.391L209.992 31.8936L212.695 36.0029ZM213.516 39.2529C214.031 38.2738 214.443 37.4196 214.75 36.6904C215.062 35.9665 215.31 35.1956 215.492 34.3779C215.68 33.5602 215.773 32.693 215.773 31.7764C215.773 31.1514 215.719 30.5238 215.609 29.8936C215.5 29.2581 215.341 28.6305 215.133 28.0107C214.93 27.391 214.695 26.7972 214.43 26.2295C214.169 25.6618 213.865 25.0785 213.516 24.4795H215.453C216.229 25.7295 216.826 26.9508 217.242 28.1436C217.659 29.3363 217.867 30.5758 217.867 31.8623C217.867 32.7477 217.771 33.6071 217.578 34.4404C217.385 35.2738 217.115 36.0706 216.766 36.8311C216.417 37.5967 215.979 38.404 215.453 39.2529H213.516Z" fill="black"/>
</svg>
