<svg width="1120" height="105" viewBox="0 0 1120 105" fill="none" xmlns="http://www.w3.org/2000/svg">
<circle cx="128" cy="6" r="5" stroke="#777E90" stroke-width="2"/>
<circle cx="416" cy="6" r="5" stroke="#777E90" stroke-width="2"/>
<circle cx="704" cy="6" r="5" stroke="#777E90" stroke-width="2"/>
<circle cx="992" cy="6" r="5" stroke="#777E90" stroke-width="2"/>
<line x1="144" y1="5.5" x2="400" y2="5.5" stroke="#777E90" stroke-dasharray="4 8"/>
<line x1="432" y1="5.5" x2="688" y2="5.5" stroke="#777E90" stroke-dasharray="4 8"/>
<line x1="720" y1="5.5" x2="976" y2="5.5" stroke="#777E90" stroke-dasharray="4 8"/>
<path d="M110.902 38.0508C110.902 38.8477 110.746 39.5605 110.434 40.1895C110.125 40.8184 109.676 41.3086 109.086 41.6602C108.496 42.0078 107.801 42.1816 107 42.1816C106.176 42.1816 105.467 42.0059 104.873 41.6543C104.279 41.3027 103.83 40.8105 103.525 40.1777C103.225 39.541 103.074 38.8125 103.074 37.9922C103.074 37.1719 103.227 36.4473 103.531 35.8184C103.836 35.1895 104.283 34.7012 104.873 34.3535C105.467 34.002 106.176 33.8262 107 33.8262C107.625 33.8262 108.184 33.9297 108.676 34.1367C109.168 34.3438 109.578 34.6367 109.906 35.0156C110.234 35.3945 110.482 35.8398 110.65 36.3516C110.818 36.8633 110.902 37.4297 110.902 38.0508ZM109.186 38.0156C109.186 37.668 109.143 37.3203 109.057 36.9727C108.971 36.625 108.836 36.3066 108.652 36.0176C108.473 35.7285 108.244 35.498 107.967 35.3262C107.689 35.1504 107.363 35.0625 106.988 35.0625C106.496 35.0625 106.084 35.209 105.752 35.502C105.424 35.7949 105.182 36.1699 105.025 36.627C104.869 37.0801 104.791 37.543 104.791 38.0156C104.791 38.4883 104.869 38.9512 105.025 39.4043C105.182 39.8535 105.426 40.2227 105.758 40.5117C106.094 40.8008 106.508 40.9453 107 40.9453C107.367 40.9453 107.689 40.8594 107.967 40.6875C108.248 40.5156 108.477 40.2852 108.652 39.9961C108.832 39.707 108.965 39.3906 109.051 39.0469C109.141 38.7031 109.186 38.3594 109.186 38.0156ZM116.287 40.5234L116.375 41.8184C115.859 41.9707 115.398 42.0469 114.992 42.0469C114.539 42.0469 114.123 41.9785 113.744 41.8418C113.365 41.7012 113.039 41.498 112.766 41.2324C112.496 40.9668 112.289 40.6445 112.145 40.2656C112.004 39.8828 111.934 39.4609 111.934 39C111.934 38.4141 112.059 37.8945 112.309 37.4414C112.562 36.9883 112.918 36.6367 113.375 36.3867C113.836 36.1367 114.355 36.0117 114.934 36.0117C115.363 36.0117 115.799 36.0762 116.24 36.2051L116.123 37.4414C115.771 37.3047 115.455 37.2363 115.174 37.2363C114.854 37.2363 114.566 37.3164 114.312 37.4766C114.059 37.6328 113.863 37.8438 113.727 38.1094C113.594 38.3711 113.527 38.6641 113.527 38.9883C113.527 39.5234 113.684 39.9531 113.996 40.2773C114.309 40.6016 114.729 40.7637 115.256 40.7637C115.592 40.7637 115.936 40.6836 116.287 40.5234ZM120.77 40.7285L120.822 41.9297C120.432 42.0078 120.086 42.0469 119.785 42.0469C119.281 42.0469 118.883 41.9551 118.59 41.7715C118.297 41.584 118.092 41.3203 117.975 40.9805C117.857 40.6367 117.799 40.2168 117.799 39.7207V37.2363H116.68V36.0938H117.822V34.8867L119.357 34.3828V36.0938H120.711V37.2363H119.357V39.3984C119.357 39.8594 119.406 40.2109 119.504 40.4531C119.605 40.6914 119.852 40.8105 120.242 40.8105C120.387 40.8105 120.562 40.7832 120.77 40.7285ZM123.008 36.5742H121.877L121.602 33.3574H123.295L123.008 36.5742ZM132.975 40.7168V42H127.613V40.6582C128.16 40.1621 128.564 39.7891 128.826 39.5391C129.092 39.2891 129.404 38.9668 129.764 38.5723C130.127 38.1738 130.43 37.7773 130.672 37.3828C130.914 36.9844 131.035 36.6309 131.035 36.3223C131.035 35.9668 130.918 35.6875 130.684 35.4844C130.453 35.2773 130.162 35.1738 129.811 35.1738C129.193 35.1738 128.557 35.3965 127.9 35.8418L127.766 34.4297C128.602 34.0625 129.414 33.8789 130.203 33.8789C130.68 33.8789 131.109 33.9648 131.492 34.1367C131.875 34.3086 132.18 34.5664 132.406 34.9102C132.633 35.2539 132.746 35.666 132.746 36.1465C132.746 36.6426 132.582 37.1738 132.254 37.7402C131.926 38.3066 131.529 38.8457 131.064 39.3574C130.6 39.8691 130.137 40.3301 129.676 40.7402L132.975 40.7168ZM139.578 38.0156C139.578 38.4453 139.562 38.8281 139.531 39.1641C139.5 39.4961 139.432 39.832 139.326 40.1719C139.221 40.5117 139.076 40.8125 138.893 41.0742C138.658 41.4141 138.354 41.6758 137.979 41.8594C137.607 42.043 137.213 42.1348 136.795 42.1348C136.068 42.1348 135.498 41.9355 135.084 41.5371C134.67 41.1348 134.385 40.627 134.229 40.0137C134.076 39.3965 134 38.7305 134 38.0156C134 37.3008 134.078 36.6367 134.234 36.0234C134.395 35.4062 134.682 34.8945 135.096 34.4883C135.514 34.082 136.08 33.8789 136.795 33.8789C137.51 33.8789 138.074 34.082 138.488 34.4883C138.902 34.8945 139.188 35.4062 139.344 36.0234C139.5 36.6367 139.578 37.3008 139.578 38.0156ZM137.961 38.0039C137.961 37.5938 137.938 37.1758 137.891 36.75C137.848 36.3203 137.74 35.9336 137.568 35.5898C137.396 35.2461 137.139 35.0742 136.795 35.0742C136.443 35.0742 136.18 35.248 136.004 35.5957C135.832 35.9395 135.725 36.3184 135.682 36.7324C135.639 37.1465 135.617 37.5859 135.617 38.0508C135.617 38.7852 135.688 39.4492 135.828 40.043C135.969 40.6367 136.291 40.9336 136.795 40.9336C137.139 40.9336 137.396 40.7734 137.568 40.4531C137.744 40.1289 137.854 39.7617 137.896 39.3516C137.939 38.9375 137.961 38.5195 137.961 38.0977V38.0039ZM145.842 40.7168V42H140.48V40.6582C141.027 40.1621 141.432 39.7891 141.693 39.5391C141.959 39.2891 142.271 38.9668 142.631 38.5723C142.994 38.1738 143.297 37.7773 143.539 37.3828C143.781 36.9844 143.902 36.6309 143.902 36.3223C143.902 35.9668 143.785 35.6875 143.551 35.4844C143.32 35.2773 143.029 35.1738 142.678 35.1738C142.061 35.1738 141.424 35.3965 140.768 35.8418L140.633 34.4297C141.469 34.0625 142.281 33.8789 143.07 33.8789C143.547 33.8789 143.977 33.9648 144.359 34.1367C144.742 34.3086 145.047 34.5664 145.273 34.9102C145.5 35.2539 145.613 35.666 145.613 36.1465C145.613 36.6426 145.449 37.1738 145.121 37.7402C144.793 38.3066 144.396 38.8457 143.932 39.3574C143.467 39.8691 143.004 40.3301 142.543 40.7402L145.842 40.7168ZM152.275 40.7168V42H146.914V40.6582C147.461 40.1621 147.865 39.7891 148.127 39.5391C148.393 39.2891 148.705 38.9668 149.064 38.5723C149.428 38.1738 149.73 37.7773 149.973 37.3828C150.215 36.9844 150.336 36.6309 150.336 36.3223C150.336 35.9668 150.219 35.6875 149.984 35.4844C149.754 35.2773 149.463 35.1738 149.111 35.1738C148.494 35.1738 147.857 35.3965 147.201 35.8418L147.066 34.4297C147.902 34.0625 148.715 33.8789 149.504 33.8789C149.98 33.8789 150.41 33.9648 150.793 34.1367C151.176 34.3086 151.48 34.5664 151.707 34.9102C151.934 35.2539 152.047 35.666 152.047 36.1465C152.047 36.6426 151.883 37.1738 151.555 37.7402C151.227 38.3066 150.83 38.8457 150.365 39.3574C149.9 39.8691 149.438 40.3301 148.977 40.7402L152.275 40.7168Z" fill="#777E90"/>
<path d="M36.5547 95.2578V97H30.2344V86.3281H32.3906V95.2578H36.5547ZM44.4766 97H42.6484L42.6172 95.8125C42.3724 96.2344 42.0286 96.5599 41.5859 96.7891C41.1484 97.013 40.6719 97.125 40.1562 97.125C39.6302 97.125 39.1589 97.0339 38.7422 96.8516C38.3307 96.6693 38.0052 96.3932 37.7656 96.0234C37.526 95.6484 37.4062 95.1953 37.4062 94.6641C37.4062 93.6745 37.7943 92.9974 38.5703 92.6328C39.3464 92.2682 40.2917 92.0859 41.4062 92.0859C41.5677 92.0859 41.6719 92.0885 41.7188 92.0938C41.7656 92.0938 41.8698 92.099 42.0312 92.1094C42.1927 92.1146 42.3568 92.1224 42.5234 92.1328C42.5234 91.5443 42.3802 91.1068 42.0938 90.8203C41.8073 90.5339 41.3646 90.3906 40.7656 90.3906C39.8594 90.3906 39.0417 90.6797 38.3125 91.2578L38.25 89.4766C39.099 89.1172 40.0182 88.9375 41.0078 88.9375C41.3776 88.9375 41.7448 88.974 42.1094 89.0469C42.474 89.1198 42.8099 89.2422 43.1172 89.4141C43.4297 89.5807 43.6875 89.8047 43.8906 90.0859C44.099 90.3672 44.2344 90.6901 44.2969 91.0547C44.3646 91.4141 44.3984 91.8438 44.3984 92.3438C44.3984 92.8594 44.3984 93.3776 44.3984 93.8984C44.4036 94.4193 44.4089 94.8958 44.4141 95.3281C44.4245 95.7552 44.4453 96.3125 44.4766 97ZM42.5547 93.3984C42.5026 93.388 42.4219 93.3828 42.3125 93.3828H42.0625C41.6146 93.3828 41.2031 93.4089 40.8281 93.4609C40.4583 93.5078 40.1328 93.6328 39.8516 93.8359C39.5755 94.0339 39.4375 94.3255 39.4375 94.7109C39.4375 95.0234 39.5599 95.2734 39.8047 95.4609C40.0547 95.6432 40.3438 95.7344 40.6719 95.7344C41.2917 95.7344 41.7604 95.5052 42.0781 95.0469C42.3958 94.5885 42.5547 94.0391 42.5547 93.3984ZM53.5938 89.0781V93.9141C53.6042 94.138 53.6146 94.4844 53.625 94.9531C53.6406 95.4219 53.6536 95.7969 53.6641 96.0781C53.6745 96.3594 53.6901 96.6667 53.7109 97H51.7734L51.7109 95.7812C51.5286 96.0677 51.3073 96.3099 51.0469 96.5078C50.7917 96.7057 50.5026 96.8594 50.1797 96.9688C49.8568 97.0729 49.5339 97.125 49.2109 97.125C48.4766 97.125 47.9036 96.974 47.4922 96.6719C47.0807 96.3698 46.7969 95.9557 46.6406 95.4297C46.4896 94.9036 46.4141 94.276 46.4141 93.5469V89.0781H48.4609V92.8906C48.4609 93.3854 48.4844 93.8047 48.5312 94.1484C48.5833 94.487 48.7161 94.7839 48.9297 95.0391C49.1432 95.2891 49.4661 95.4141 49.8984 95.4141C50.5182 95.4141 50.9479 95.1536 51.1875 94.6328C51.4271 94.1068 51.5469 93.4922 51.5469 92.7891V89.0781H53.5938ZM57.7109 89.0781L57.7578 90.3438C58.3932 89.4167 59.2839 88.9531 60.4297 88.9531C61.4922 88.9531 62.2083 89.2682 62.5781 89.8984C62.9479 90.5234 63.1328 91.4036 63.1328 92.5391V97H61.0859V93.0156C61.0859 92.3125 60.9948 91.7422 60.8125 91.3047C60.6354 90.8672 60.2474 90.6484 59.6484 90.6484C59.0078 90.6484 58.5573 90.9062 58.2969 91.4219C58.0365 91.9323 57.9062 92.5391 57.9062 93.2422V97H55.8516V91.9609C55.8516 90.8411 55.8255 89.8802 55.7734 89.0781H57.7109ZM70.4922 95.0312L70.6094 96.7578C69.9219 96.9609 69.3073 97.0625 68.7656 97.0625C68.1615 97.0625 67.6068 96.9714 67.1016 96.7891C66.5964 96.6016 66.1615 96.3307 65.7969 95.9766C65.4375 95.6224 65.1615 95.1927 64.9688 94.6875C64.7812 94.1771 64.6875 93.6146 64.6875 93C64.6875 92.2188 64.8542 91.526 65.1875 90.9219C65.526 90.3177 66 89.849 66.6094 89.5156C67.224 89.1823 67.9167 89.0156 68.6875 89.0156C69.2604 89.0156 69.8411 89.1016 70.4297 89.2734L70.2734 90.9219C69.8047 90.7396 69.3828 90.6484 69.0078 90.6484C68.5807 90.6484 68.1979 90.7552 67.8594 90.9688C67.5208 91.1771 67.2604 91.4583 67.0781 91.8125C66.901 92.1615 66.8125 92.5521 66.8125 92.9844C66.8125 93.6979 67.0208 94.2708 67.4375 94.7031C67.8542 95.1354 68.4141 95.3516 69.1172 95.3516C69.5651 95.3516 70.0234 95.2448 70.4922 95.0312ZM79.3203 97H77.2734V93.1562C77.2734 92.3958 77.1901 91.7891 77.0234 91.3359C76.862 90.8776 76.4766 90.6484 75.8672 90.6484C75.2109 90.6484 74.75 90.9193 74.4844 91.4609C74.2188 91.9974 74.0859 92.6276 74.0859 93.3516V93.75V97H72.0391V85.4766H74.0859V90.2031C74.3828 89.776 74.7396 89.4583 75.1562 89.25C75.5729 89.0417 76.0495 88.9375 76.5859 88.9375C77.1432 88.9375 77.6016 89.0286 77.9609 89.2109C78.3255 89.388 78.6042 89.6302 78.7969 89.9375C78.9948 90.2448 79.1302 90.6042 79.2031 91.0156C79.2812 91.4219 79.3203 91.901 79.3203 92.4531V97ZM89.7578 100.25H87.8203C87.2943 99.401 86.8568 98.5938 86.5078 97.8281C86.1589 97.0677 85.888 96.2708 85.6953 95.4375C85.5026 94.6042 85.4062 93.7448 85.4062 92.8594C85.4062 91.5885 85.6198 90.3464 86.0469 89.1328C86.474 87.9193 87.0651 86.7005 87.8203 85.4766H89.7578C89.4401 86.0286 89.1406 86.6016 88.8594 87.1953C88.5833 87.7891 88.3411 88.3984 88.1328 89.0234C87.9297 89.6432 87.7734 90.2682 87.6641 90.8984C87.5547 91.5234 87.5 92.1484 87.5 92.7734C87.5 93.4297 87.5547 94.0781 87.6641 94.7188C87.7734 95.3542 87.9297 95.9792 88.1328 96.5938C88.3359 97.2083 88.5755 97.8151 88.8516 98.4141C89.1276 99.0182 89.4297 99.6302 89.7578 100.25ZM91.7344 97V86.3281H95.1406C96.1979 86.3281 97.0859 86.526 97.8047 86.9219C98.5234 87.3125 98.8828 88.0104 98.8828 89.0156C98.8828 89.7031 98.7057 90.2422 98.3516 90.6328C98.0026 91.0182 97.4818 91.2839 96.7891 91.4297C97.1328 91.4661 97.4583 91.5547 97.7656 91.6953C98.0781 91.8307 98.3464 92.013 98.5703 92.2422C98.7943 92.4661 98.9661 92.7292 99.0859 93.0312C99.2057 93.3281 99.2656 93.6693 99.2656 94.0547C99.2656 94.3828 99.2135 94.7005 99.1094 95.0078C99.0052 95.3151 98.849 95.5938 98.6406 95.8438C98.4323 96.0885 98.1823 96.2969 97.8906 96.4688C97.4896 96.7083 97.0703 96.8568 96.6328 96.9141C96.2005 96.9714 95.6458 97 94.9688 97H91.7344ZM93.8906 95.3672H94.9297C95.5443 95.3672 96.0625 95.25 96.4844 95.0156C96.9115 94.776 97.125 94.375 97.125 93.8125C97.125 93.2656 96.9297 92.8698 96.5391 92.625C96.1484 92.375 95.6615 92.25 95.0781 92.25H93.8906V95.3672ZM93.8906 90.6484H94.9141C95.4401 90.6484 95.875 90.5495 96.2188 90.3516C96.5677 90.1536 96.7422 89.8151 96.7422 89.3359C96.7422 88.8411 96.5807 88.4922 96.2578 88.2891C95.9349 88.0807 95.5104 87.9766 94.9844 87.9766H93.8906V90.6484ZM107.727 97H105.898L105.867 95.8125C105.622 96.2344 105.279 96.5599 104.836 96.7891C104.398 97.013 103.922 97.125 103.406 97.125C102.88 97.125 102.409 97.0339 101.992 96.8516C101.581 96.6693 101.255 96.3932 101.016 96.0234C100.776 95.6484 100.656 95.1953 100.656 94.6641C100.656 93.6745 101.044 92.9974 101.82 92.6328C102.596 92.2682 103.542 92.0859 104.656 92.0859C104.818 92.0859 104.922 92.0885 104.969 92.0938C105.016 92.0938 105.12 92.099 105.281 92.1094C105.443 92.1146 105.607 92.1224 105.773 92.1328C105.773 91.5443 105.63 91.1068 105.344 90.8203C105.057 90.5339 104.615 90.3906 104.016 90.3906C103.109 90.3906 102.292 90.6797 101.562 91.2578L101.5 89.4766C102.349 89.1172 103.268 88.9375 104.258 88.9375C104.628 88.9375 104.995 88.974 105.359 89.0469C105.724 89.1198 106.06 89.2422 106.367 89.4141C106.68 89.5807 106.938 89.8047 107.141 90.0859C107.349 90.3672 107.484 90.6901 107.547 91.0547C107.615 91.4141 107.648 91.8438 107.648 92.3438C107.648 92.8594 107.648 93.3776 107.648 93.8984C107.654 94.4193 107.659 94.8958 107.664 95.3281C107.674 95.7552 107.695 96.3125 107.727 97ZM105.805 93.3984C105.753 93.388 105.672 93.3828 105.562 93.3828H105.312C104.865 93.3828 104.453 93.4089 104.078 93.4609C103.708 93.5078 103.383 93.6328 103.102 93.8359C102.826 94.0339 102.688 94.3255 102.688 94.7109C102.688 95.0234 102.81 95.2734 103.055 95.4609C103.305 95.6432 103.594 95.7344 103.922 95.7344C104.542 95.7344 105.01 95.5052 105.328 95.0469C105.646 94.5885 105.805 94.0391 105.805 93.3984ZM109.375 96.7891L109.469 95.0625C110.198 95.4375 110.87 95.625 111.484 95.625C111.823 95.625 112.143 95.5521 112.445 95.4062C112.747 95.2604 112.898 95.0339 112.898 94.7266C112.898 94.4609 112.682 94.2344 112.25 94.0469C111.818 93.8594 111.383 93.6745 110.945 93.4922C110.513 93.3099 110.138 93.0547 109.82 92.7266C109.503 92.3984 109.344 91.9401 109.344 91.3516C109.344 90.7891 109.508 90.3281 109.836 89.9688C110.169 89.6094 110.591 89.349 111.102 89.1875C111.612 89.0208 112.141 88.9375 112.688 88.9375C113.266 88.9375 113.917 89.0391 114.641 89.2422L114.492 90.7734C113.857 90.5703 113.297 90.4688 112.812 90.4688C112.458 90.4688 112.13 90.5286 111.828 90.6484C111.526 90.7682 111.375 90.9766 111.375 91.2734C111.375 91.5286 111.581 91.7422 111.992 91.9141C112.409 92.0807 112.844 92.25 113.297 92.4219C113.755 92.5885 114.146 92.8411 114.469 93.1797C114.797 93.513 114.961 93.9922 114.961 94.6172C114.961 95.1849 114.802 95.6589 114.484 96.0391C114.172 96.4193 113.766 96.6979 113.266 96.875C112.766 97.0521 112.237 97.1406 111.68 97.1406C111.044 97.1406 110.276 97.0234 109.375 96.7891ZM118.664 97H116.617V89.0781H118.664V97ZM118.695 87.6406H116.586V85.7031H118.695V87.6406ZM126.102 95.0312L126.219 96.7578C125.531 96.9609 124.917 97.0625 124.375 97.0625C123.771 97.0625 123.216 96.9714 122.711 96.7891C122.206 96.6016 121.771 96.3307 121.406 95.9766C121.047 95.6224 120.771 95.1927 120.578 94.6875C120.391 94.1771 120.297 93.6146 120.297 93C120.297 92.2188 120.464 91.526 120.797 90.9219C121.135 90.3177 121.609 89.849 122.219 89.5156C122.833 89.1823 123.526 89.0156 124.297 89.0156C124.87 89.0156 125.451 89.1016 126.039 89.2734L125.883 90.9219C125.414 90.7396 124.992 90.6484 124.617 90.6484C124.19 90.6484 123.807 90.7552 123.469 90.9688C123.13 91.1771 122.87 91.4583 122.688 91.8125C122.51 92.1615 122.422 92.5521 122.422 92.9844C122.422 93.6979 122.63 94.2708 123.047 94.7031C123.464 95.1354 124.023 95.3516 124.727 95.3516C125.174 95.3516 125.633 95.2448 126.102 95.0312ZM127.297 96.7891L127.391 95.0625C128.12 95.4375 128.792 95.625 129.406 95.625C129.745 95.625 130.065 95.5521 130.367 95.4062C130.669 95.2604 130.82 95.0339 130.82 94.7266C130.82 94.4609 130.604 94.2344 130.172 94.0469C129.74 93.8594 129.305 93.6745 128.867 93.4922C128.435 93.3099 128.06 93.0547 127.742 92.7266C127.424 92.3984 127.266 91.9401 127.266 91.3516C127.266 90.7891 127.43 90.3281 127.758 89.9688C128.091 89.6094 128.513 89.349 129.023 89.1875C129.534 89.0208 130.062 88.9375 130.609 88.9375C131.188 88.9375 131.839 89.0391 132.562 89.2422L132.414 90.7734C131.779 90.5703 131.219 90.4688 130.734 90.4688C130.38 90.4688 130.052 90.5286 129.75 90.6484C129.448 90.7682 129.297 90.9766 129.297 91.2734C129.297 91.5286 129.503 91.7422 129.914 91.9141C130.331 92.0807 130.766 92.25 131.219 92.4219C131.677 92.5885 132.068 92.8411 132.391 93.1797C132.719 93.513 132.883 93.9922 132.883 94.6172C132.883 95.1849 132.724 95.6589 132.406 96.0391C132.094 96.4193 131.688 96.6979 131.188 96.875C130.688 97.0521 130.159 97.1406 129.602 97.1406C128.966 97.1406 128.198 97.0234 127.297 96.7891ZM141.492 92.1484H138.5V90.7578H141.492V87.8281H142.961V90.7578H145.969V92.1484H142.961V95.0781H141.492V92.1484ZM158.586 95.2578V97H152.266V86.3281H154.422V95.2578H158.586ZM167.016 89.0781V93.9141C167.026 94.138 167.036 94.4844 167.047 94.9531C167.062 95.4219 167.076 95.7969 167.086 96.0781C167.096 96.3594 167.112 96.6667 167.133 97H165.195L165.133 95.7812C164.951 96.0677 164.729 96.3099 164.469 96.5078C164.214 96.7057 163.924 96.8594 163.602 96.9688C163.279 97.0729 162.956 97.125 162.633 97.125C161.898 97.125 161.326 96.974 160.914 96.6719C160.503 96.3698 160.219 95.9557 160.062 95.4297C159.911 94.9036 159.836 94.276 159.836 93.5469V89.0781H161.883V92.8906C161.883 93.3854 161.906 93.8047 161.953 94.1484C162.005 94.487 162.138 94.7839 162.352 95.0391C162.565 95.2891 162.888 95.4141 163.32 95.4141C163.94 95.4141 164.37 95.1536 164.609 94.6328C164.849 94.1068 164.969 93.4922 164.969 92.7891V89.0781H167.016ZM171.133 89.0781L171.18 90.3438C171.815 89.4167 172.706 88.9531 173.852 88.9531C174.914 88.9531 175.63 89.2682 176 89.8984C176.37 90.5234 176.555 91.4036 176.555 92.5391V97H174.508V93.0156C174.508 92.3125 174.417 91.7422 174.234 91.3047C174.057 90.8672 173.669 90.6484 173.07 90.6484C172.43 90.6484 171.979 90.9062 171.719 91.4219C171.458 91.9323 171.328 92.5391 171.328 93.2422V97H169.273V91.9609C169.273 90.8411 169.247 89.8802 169.195 89.0781H171.133ZM183.914 95.0312L184.031 96.7578C183.344 96.9609 182.729 97.0625 182.188 97.0625C181.583 97.0625 181.029 96.9714 180.523 96.7891C180.018 96.6016 179.583 96.3307 179.219 95.9766C178.859 95.6224 178.583 95.1927 178.391 94.6875C178.203 94.1771 178.109 93.6146 178.109 93C178.109 92.2188 178.276 91.526 178.609 90.9219C178.948 90.3177 179.422 89.849 180.031 89.5156C180.646 89.1823 181.339 89.0156 182.109 89.0156C182.682 89.0156 183.263 89.1016 183.852 89.2734L183.695 90.9219C183.227 90.7396 182.805 90.6484 182.43 90.6484C182.003 90.6484 181.62 90.7552 181.281 90.9688C180.943 91.1771 180.682 91.4583 180.5 91.8125C180.323 92.1615 180.234 92.5521 180.234 92.9844C180.234 93.6979 180.443 94.2708 180.859 94.7031C181.276 95.1354 181.836 95.3516 182.539 95.3516C182.987 95.3516 183.445 95.2448 183.914 95.0312ZM192.742 97H190.695V93.1562C190.695 92.3958 190.612 91.7891 190.445 91.3359C190.284 90.8776 189.898 90.6484 189.289 90.6484C188.633 90.6484 188.172 90.9193 187.906 91.4609C187.641 91.9974 187.508 92.6276 187.508 93.3516V93.75V97H185.461V85.4766H187.508V90.2031C187.805 89.776 188.161 89.4583 188.578 89.25C188.995 89.0417 189.471 88.9375 190.008 88.9375C190.565 88.9375 191.023 89.0286 191.383 89.2109C191.747 89.388 192.026 89.6302 192.219 89.9375C192.417 90.2448 192.552 90.6042 192.625 91.0156C192.703 91.4219 192.742 91.901 192.742 92.4531V97ZM195.016 97V86.3281H198.422C199.479 86.3281 200.367 86.526 201.086 86.9219C201.805 87.3125 202.164 88.0104 202.164 89.0156C202.164 89.7031 201.987 90.2422 201.633 90.6328C201.284 91.0182 200.763 91.2839 200.07 91.4297C200.414 91.4661 200.74 91.5547 201.047 91.6953C201.359 91.8307 201.628 92.013 201.852 92.2422C202.076 92.4661 202.247 92.7292 202.367 93.0312C202.487 93.3281 202.547 93.6693 202.547 94.0547C202.547 94.3828 202.495 94.7005 202.391 95.0078C202.286 95.3151 202.13 95.5938 201.922 95.8438C201.714 96.0885 201.464 96.2969 201.172 96.4688C200.771 96.7083 200.352 96.8568 199.914 96.9141C199.482 96.9714 198.927 97 198.25 97H195.016ZM197.172 95.3672H198.211C198.826 95.3672 199.344 95.25 199.766 95.0156C200.193 94.776 200.406 94.375 200.406 93.8125C200.406 93.2656 200.211 92.8698 199.82 92.625C199.43 92.375 198.943 92.25 198.359 92.25H197.172V95.3672ZM197.172 90.6484H198.195C198.721 90.6484 199.156 90.5495 199.5 90.3516C199.849 90.1536 200.023 89.8151 200.023 89.3359C200.023 88.8411 199.862 88.4922 199.539 88.2891C199.216 88.0807 198.792 87.9766 198.266 87.9766H197.172V90.6484ZM212.156 93.1094C212.156 93.7188 212.057 94.2786 211.859 94.7891C211.661 95.2943 211.38 95.7266 211.016 96.0859C210.656 96.4401 210.224 96.7161 209.719 96.9141C209.214 97.112 208.651 97.2109 208.031 97.2109C207.214 97.2109 206.495 97.0339 205.875 96.6797C205.255 96.3255 204.776 95.8255 204.438 95.1797C204.104 94.5339 203.938 93.8073 203.938 93C203.938 92.1927 204.109 91.4766 204.453 90.8516C204.797 90.2266 205.279 89.7422 205.898 89.3984C206.523 89.0495 207.24 88.875 208.047 88.875C208.672 88.875 209.237 88.9792 209.742 89.1875C210.253 89.3958 210.688 89.6927 211.047 90.0781C211.406 90.4583 211.68 90.9062 211.867 91.4219C212.06 91.9375 212.156 92.5 212.156 93.1094ZM210.031 93.0625C210.031 92.6354 209.961 92.2161 209.82 91.8047C209.685 91.3932 209.466 91.0547 209.164 90.7891C208.862 90.5234 208.49 90.3906 208.047 90.3906C207.625 90.3906 207.26 90.5208 206.953 90.7812C206.651 91.0417 206.427 91.375 206.281 91.7812C206.135 92.1823 206.062 92.5885 206.062 93C206.062 93.4427 206.13 93.8698 206.266 94.2812C206.406 94.6927 206.628 95.0312 206.93 95.2969C207.232 95.5573 207.615 95.6875 208.078 95.6875C208.406 95.6875 208.695 95.6094 208.945 95.4531C209.195 95.2917 209.398 95.0885 209.555 94.8438C209.711 94.5938 209.828 94.3151 209.906 94.0078C209.99 93.6953 210.031 93.3802 210.031 93.0625ZM221.195 97H218.734L217.297 94.6016C217.26 94.5391 217.221 94.4766 217.18 94.4141C217.143 94.3516 217.107 94.2891 217.07 94.2266C217.034 94.1641 216.997 94.1016 216.961 94.0391C216.914 94.1484 216.797 94.3516 216.609 94.6484L215.164 97H212.906L215.664 92.8906L213.164 89.0781H215.578L216.891 91.2109C217.036 91.4349 217.133 91.5938 217.18 91.6875C217.268 91.5312 217.333 91.4167 217.375 91.3438C217.417 91.2708 217.464 91.1875 217.516 91.0938L218.734 89.0781H220.891L218.492 92.8906L221.195 97ZM222.016 100.25C222.531 99.2708 222.943 98.4167 223.25 97.6875C223.562 96.9635 223.81 96.1927 223.992 95.375C224.18 94.5573 224.273 93.6901 224.273 92.7734C224.273 92.1484 224.219 91.5208 224.109 90.8906C224 90.2552 223.841 89.6276 223.633 89.0078C223.43 88.388 223.195 87.7943 222.93 87.2266C222.669 86.6589 222.365 86.0755 222.016 85.4766H223.953C224.729 86.7266 225.326 87.9479 225.742 89.1406C226.159 90.3333 226.367 91.5729 226.367 92.8594C226.367 93.7448 226.271 94.6042 226.078 95.4375C225.885 96.2708 225.615 97.0677 225.266 97.8281C224.917 98.5938 224.479 99.401 223.953 100.25H222.016Z" fill="black"/>
<path d="M396.547 42H394.602L391.977 37.166C391.809 36.8613 391.588 36.3887 391.314 35.748C391.436 36.5801 391.496 37.2676 391.496 37.8105V42H389.961V33.9961H391.865L394.555 38.8418C394.648 39.0137 394.709 39.1367 394.736 39.2109C394.768 39.2852 394.824 39.4258 394.906 39.6328C394.988 39.8398 395.072 40.0488 395.158 40.2598C395.061 39.7012 395.012 39.0488 395.012 38.3027V33.9961H396.547V42ZM404.105 39.082C404.105 39.5391 404.031 39.959 403.883 40.3418C403.734 40.7207 403.523 41.0449 403.25 41.3145C402.98 41.5801 402.656 41.7871 402.277 41.9355C401.898 42.084 401.477 42.1582 401.012 42.1582C400.398 42.1582 399.859 42.0254 399.395 41.7598C398.93 41.4941 398.57 41.1191 398.316 40.6348C398.066 40.1504 397.941 39.6055 397.941 39C397.941 38.3945 398.07 37.8574 398.328 37.3887C398.586 36.9199 398.947 36.5566 399.412 36.2988C399.881 36.0371 400.418 35.9062 401.023 35.9062C401.492 35.9062 401.916 35.9844 402.295 36.1406C402.678 36.2969 403.004 36.5195 403.273 36.8086C403.543 37.0938 403.748 37.4297 403.889 37.8164C404.033 38.2031 404.105 38.625 404.105 39.082ZM402.512 39.0469C402.512 38.7266 402.459 38.4121 402.354 38.1035C402.252 37.7949 402.088 37.541 401.861 37.3418C401.635 37.1426 401.355 37.043 401.023 37.043C400.707 37.043 400.434 37.1406 400.203 37.3359C399.977 37.5312 399.809 37.7812 399.699 38.0859C399.59 38.3867 399.535 38.6914 399.535 39C399.535 39.332 399.586 39.6523 399.688 39.9609C399.793 40.2695 399.959 40.5234 400.186 40.7227C400.412 40.918 400.699 41.0156 401.047 41.0156C401.293 41.0156 401.51 40.957 401.697 40.8398C401.885 40.7188 402.037 40.5664 402.154 40.3828C402.271 40.1953 402.359 39.9863 402.418 39.7559C402.48 39.5215 402.512 39.2852 402.512 39.0469ZM408.605 42H406.889L404.668 36.0586H406.35L407.346 38.918C407.607 39.6484 407.768 40.2363 407.826 40.6816C407.92 40.209 408.045 39.748 408.201 39.2988L409.268 36.0586H410.814L408.605 42ZM412.836 36.5742H411.705L411.43 33.3574H413.123L412.836 36.5742ZM422.803 40.7168V42H417.441V40.6582C417.988 40.1621 418.393 39.7891 418.654 39.5391C418.92 39.2891 419.232 38.9668 419.592 38.5723C419.955 38.1738 420.258 37.7773 420.5 37.3828C420.742 36.9844 420.863 36.6309 420.863 36.3223C420.863 35.9668 420.746 35.6875 420.512 35.4844C420.281 35.2773 419.99 35.1738 419.639 35.1738C419.021 35.1738 418.385 35.3965 417.729 35.8418L417.594 34.4297C418.43 34.0625 419.242 33.8789 420.031 33.8789C420.508 33.8789 420.938 33.9648 421.32 34.1367C421.703 34.3086 422.008 34.5664 422.234 34.9102C422.461 35.2539 422.574 35.666 422.574 36.1465C422.574 36.6426 422.41 37.1738 422.082 37.7402C421.754 38.3066 421.357 38.8457 420.893 39.3574C420.428 39.8691 419.965 40.3301 419.504 40.7402L422.803 40.7168ZM429.406 38.0156C429.406 38.4453 429.391 38.8281 429.359 39.1641C429.328 39.4961 429.26 39.832 429.154 40.1719C429.049 40.5117 428.904 40.8125 428.721 41.0742C428.486 41.4141 428.182 41.6758 427.807 41.8594C427.436 42.043 427.041 42.1348 426.623 42.1348C425.896 42.1348 425.326 41.9355 424.912 41.5371C424.498 41.1348 424.213 40.627 424.057 40.0137C423.904 39.3965 423.828 38.7305 423.828 38.0156C423.828 37.3008 423.906 36.6367 424.062 36.0234C424.223 35.4062 424.51 34.8945 424.924 34.4883C425.342 34.082 425.908 33.8789 426.623 33.8789C427.338 33.8789 427.902 34.082 428.316 34.4883C428.73 34.8945 429.016 35.4062 429.172 36.0234C429.328 36.6367 429.406 37.3008 429.406 38.0156ZM427.789 38.0039C427.789 37.5938 427.766 37.1758 427.719 36.75C427.676 36.3203 427.568 35.9336 427.396 35.5898C427.225 35.2461 426.967 35.0742 426.623 35.0742C426.271 35.0742 426.008 35.248 425.832 35.5957C425.66 35.9395 425.553 36.3184 425.51 36.7324C425.467 37.1465 425.445 37.5859 425.445 38.0508C425.445 38.7852 425.516 39.4492 425.656 40.043C425.797 40.6367 426.119 40.9336 426.623 40.9336C426.967 40.9336 427.225 40.7734 427.396 40.4531C427.572 40.1289 427.682 39.7617 427.725 39.3516C427.768 38.9375 427.789 38.5195 427.789 38.0977V38.0039ZM435.67 40.7168V42H430.309V40.6582C430.855 40.1621 431.26 39.7891 431.521 39.5391C431.787 39.2891 432.1 38.9668 432.459 38.5723C432.822 38.1738 433.125 37.7773 433.367 37.3828C433.609 36.9844 433.73 36.6309 433.73 36.3223C433.73 35.9668 433.613 35.6875 433.379 35.4844C433.148 35.2773 432.857 35.1738 432.506 35.1738C431.889 35.1738 431.252 35.3965 430.596 35.8418L430.461 34.4297C431.297 34.0625 432.109 33.8789 432.898 33.8789C433.375 33.8789 433.805 33.9648 434.188 34.1367C434.57 34.3086 434.875 34.5664 435.102 34.9102C435.328 35.2539 435.441 35.666 435.441 36.1465C435.441 36.6426 435.277 37.1738 434.949 37.7402C434.621 38.3066 434.225 38.8457 433.76 39.3574C433.295 39.8691 432.832 40.3301 432.371 40.7402L435.67 40.7168ZM442.104 40.7168V42H436.742V40.6582C437.289 40.1621 437.693 39.7891 437.955 39.5391C438.221 39.2891 438.533 38.9668 438.893 38.5723C439.256 38.1738 439.559 37.7773 439.801 37.3828C440.043 36.9844 440.164 36.6309 440.164 36.3223C440.164 35.9668 440.047 35.6875 439.812 35.4844C439.582 35.2773 439.291 35.1738 438.939 35.1738C438.322 35.1738 437.686 35.3965 437.029 35.8418L436.895 34.4297C437.73 34.0625 438.543 33.8789 439.332 33.8789C439.809 33.8789 440.238 33.9648 440.621 34.1367C441.004 34.3086 441.309 34.5664 441.535 34.9102C441.762 35.2539 441.875 35.666 441.875 36.1465C441.875 36.6426 441.711 37.1738 441.383 37.7402C441.055 38.3066 440.658 38.8457 440.193 39.3574C439.729 39.8691 439.266 40.3301 438.805 40.7402L442.104 40.7168Z" fill="#777E90"/>
<path d="M326.727 97H324.562V86.3281H326.727V97ZM329.406 97V86.3281H331.836C332.497 86.3281 333.089 86.349 333.609 86.3906C334.13 86.4323 334.651 86.5286 335.172 86.6797C335.693 86.8307 336.164 87.0547 336.586 87.3516C336.94 87.5911 337.242 87.875 337.492 88.2031C337.742 88.5312 337.938 88.875 338.078 89.2344C338.224 89.5885 338.331 89.9792 338.398 90.4062C338.471 90.8281 338.508 91.2552 338.508 91.6875C338.508 92.5833 338.352 93.4089 338.039 94.1641C337.732 94.9193 337.242 95.5391 336.57 96.0234C336.216 96.2839 335.815 96.487 335.367 96.6328C334.919 96.7786 334.458 96.8776 333.984 96.9297C333.51 96.9766 333.013 97 332.492 97H329.406ZM331.562 95.3516C331.682 95.3516 331.781 95.3542 331.859 95.3594C331.938 95.3594 332.021 95.362 332.109 95.3672C332.74 95.3672 333.305 95.2917 333.805 95.1406C334.305 94.9844 334.732 94.7526 335.086 94.4453C335.445 94.1328 335.721 93.7422 335.914 93.2734C336.107 92.7995 336.203 92.2448 336.203 91.6094C336.203 90.974 336.065 90.375 335.789 89.8125C335.513 89.25 335.117 88.8203 334.602 88.5234C334.388 88.3932 334.161 88.2943 333.922 88.2266C333.688 88.1536 333.438 88.1016 333.172 88.0703C332.911 88.0391 332.62 88.0182 332.297 88.0078C331.979 87.9974 331.734 87.9922 331.562 87.9922V95.3516ZM350.484 91.7344C350.484 92.7969 350.276 93.7474 349.859 94.5859C349.448 95.4245 348.849 96.0781 348.062 96.5469C347.276 97.0104 346.349 97.2422 345.281 97.2422C344.182 97.2422 343.237 97.0078 342.445 96.5391C341.654 96.0703 341.055 95.4141 340.648 94.5703C340.247 93.7214 340.047 92.75 340.047 91.6562C340.047 90.5625 340.25 89.5964 340.656 88.7578C341.062 87.9193 341.659 87.2682 342.445 86.8047C343.237 86.3359 344.182 86.1016 345.281 86.1016C346.115 86.1016 346.859 86.2396 347.516 86.5156C348.172 86.7917 348.719 87.1823 349.156 87.6875C349.594 88.1927 349.924 88.7865 350.148 89.4688C350.372 90.151 350.484 90.9062 350.484 91.7344ZM348.195 91.6875C348.195 91.224 348.138 90.7604 348.023 90.2969C347.909 89.8333 347.729 89.4089 347.484 89.0234C347.245 88.638 346.94 88.3307 346.57 88.1016C346.201 87.8672 345.766 87.75 345.266 87.75C344.609 87.75 344.06 87.9453 343.617 88.3359C343.18 88.7266 342.857 89.2266 342.648 89.8359C342.44 90.4401 342.336 91.0573 342.336 91.6875C342.336 92.3177 342.44 92.9349 342.648 93.5391C342.857 94.138 343.182 94.6302 343.625 95.0156C344.073 95.401 344.625 95.5938 345.281 95.5938C345.771 95.5938 346.201 95.4792 346.57 95.25C346.945 95.0208 347.25 94.7135 347.484 94.3281C347.724 93.9427 347.901 93.5208 348.016 93.0625C348.135 92.6042 348.195 92.1458 348.195 91.6875ZM366.742 97H364.164L363.414 96.1328C362.482 96.8516 361.539 97.2109 360.586 97.2109C359.909 97.2109 359.271 97.0938 358.672 96.8594C358.078 96.625 357.594 96.2656 357.219 95.7812C356.849 95.2917 356.664 94.7005 356.664 94.0078C356.664 93.2734 356.852 92.6771 357.227 92.2188C357.607 91.7552 358.161 91.3854 358.891 91.1094C358.458 90.7135 358.112 90.3125 357.852 89.9062C357.591 89.5 357.461 89.0651 357.461 88.6016C357.461 88.0391 357.622 87.5729 357.945 87.2031C358.268 86.8333 358.677 86.5625 359.172 86.3906C359.667 86.2188 360.195 86.1328 360.758 86.1328C361.164 86.1328 361.547 86.1849 361.906 86.2891C362.266 86.3932 362.586 86.5469 362.867 86.75C363.154 86.9531 363.378 87.2135 363.539 87.5312C363.701 87.8438 363.781 88.2057 363.781 88.6172C363.781 89.2214 363.589 89.7396 363.203 90.1719C362.818 90.6042 362.307 91.0026 361.672 91.3672L363.703 93.5625C364.089 92.9635 364.307 92.1797 364.359 91.2109H366.195C366.169 91.6953 366.109 92.1458 366.016 92.5625C365.922 92.9792 365.779 93.3776 365.586 93.7578C365.393 94.1328 365.148 94.5 364.852 94.8594L366.742 97ZM360.008 92.2812C359.648 92.5 359.352 92.75 359.117 93.0312C358.888 93.3073 358.773 93.6328 358.773 94.0078C358.773 94.3099 358.859 94.5911 359.031 94.8516C359.208 95.112 359.438 95.3151 359.719 95.4609C360 95.6016 360.294 95.6719 360.602 95.6719C361.185 95.6719 361.792 95.4323 362.422 94.9531L360.008 92.2812ZM360.484 90.2344C361.448 89.7552 361.93 89.2266 361.93 88.6484C361.93 88.4401 361.87 88.2578 361.75 88.1016C361.635 87.9453 361.487 87.8281 361.305 87.75C361.122 87.6667 360.924 87.625 360.711 87.625C360.378 87.625 360.086 87.724 359.836 87.9219C359.586 88.1146 359.461 88.3724 359.461 88.6953C359.461 88.8724 359.51 89.0521 359.609 89.2344C359.708 89.4167 359.831 89.5833 359.977 89.7344C360.122 89.8854 360.292 90.0521 360.484 90.2344ZM374.852 97H372.688V86.3281H374.852V97ZM379.227 89.0781L379.273 90.3438C379.909 89.4167 380.799 88.9531 381.945 88.9531C383.008 88.9531 383.724 89.2682 384.094 89.8984C384.464 90.5234 384.648 91.4036 384.648 92.5391V97H382.602V93.0156C382.602 92.3125 382.51 91.7422 382.328 91.3047C382.151 90.8672 381.763 90.6484 381.164 90.6484C380.523 90.6484 380.073 90.9062 379.812 91.4219C379.552 91.9323 379.422 92.5391 379.422 93.2422V97H377.367V91.9609C377.367 90.8411 377.341 89.8802 377.289 89.0781H379.227ZM391.016 97H388.727L385.766 89.0781H388.008L389.336 92.8906C389.685 93.8646 389.898 94.6484 389.977 95.2422C390.102 94.612 390.268 93.9974 390.477 93.3984L391.898 89.0781H393.961L391.016 97ZM401.516 94.8906L401.547 96.6641C400.708 97.0286 399.802 97.2109 398.828 97.2109C398.177 97.2109 397.596 97.1198 397.086 96.9375C396.581 96.75 396.148 96.4766 395.789 96.1172C395.43 95.7526 395.156 95.3151 394.969 94.8047C394.781 94.2891 394.688 93.7031 394.688 93.0469C394.688 92.4427 394.773 91.888 394.945 91.3828C395.122 90.8724 395.375 90.4323 395.703 90.0625C396.031 89.6875 396.435 89.3958 396.914 89.1875C397.398 88.9792 397.945 88.875 398.555 88.875C399.148 88.875 399.672 88.9818 400.125 89.1953C400.578 89.4089 400.945 89.7031 401.227 90.0781C401.513 90.4531 401.727 90.888 401.867 91.3828C402.008 91.8724 402.078 92.4115 402.078 93C402.078 93.1042 402.076 93.1823 402.07 93.2344C402.065 93.2865 402.06 93.3516 402.055 93.4297C402.049 93.5078 402.042 93.599 402.031 93.7031H396.703C396.755 94.3281 396.997 94.8151 397.43 95.1641C397.867 95.513 398.409 95.6875 399.055 95.6875C399.784 95.6875 400.604 95.4219 401.516 94.8906ZM400.125 92.2812C400.115 91.9271 400.049 91.6016 399.93 91.3047C399.815 91.0078 399.635 90.7682 399.391 90.5859C399.151 90.4036 398.852 90.3125 398.492 90.3125C398.122 90.3125 397.805 90.4036 397.539 90.5859C397.279 90.763 397.076 91 396.93 91.2969C396.789 91.5938 396.703 91.9219 396.672 92.2812H400.125ZM403.359 96.7891L403.453 95.0625C404.182 95.4375 404.854 95.625 405.469 95.625C405.807 95.625 406.128 95.5521 406.43 95.4062C406.732 95.2604 406.883 95.0339 406.883 94.7266C406.883 94.4609 406.667 94.2344 406.234 94.0469C405.802 93.8594 405.367 93.6745 404.93 93.4922C404.497 93.3099 404.122 93.0547 403.805 92.7266C403.487 92.3984 403.328 91.9401 403.328 91.3516C403.328 90.7891 403.492 90.3281 403.82 89.9688C404.154 89.6094 404.576 89.349 405.086 89.1875C405.596 89.0208 406.125 88.9375 406.672 88.9375C407.25 88.9375 407.901 89.0391 408.625 89.2422L408.477 90.7734C407.841 90.5703 407.281 90.4688 406.797 90.4688C406.443 90.4688 406.115 90.5286 405.812 90.6484C405.51 90.7682 405.359 90.9766 405.359 91.2734C405.359 91.5286 405.565 91.7422 405.977 91.9141C406.393 92.0807 406.828 92.25 407.281 92.4219C407.74 92.5885 408.13 92.8411 408.453 93.1797C408.781 93.513 408.945 93.9922 408.945 94.6172C408.945 95.1849 408.786 95.6589 408.469 96.0391C408.156 96.4193 407.75 96.6979 407.25 96.875C406.75 97.0521 406.221 97.1406 405.664 97.1406C405.029 97.1406 404.26 97.0234 403.359 96.7891ZM415.031 95.3047L415.102 96.9062C414.581 97.0104 414.12 97.0625 413.719 97.0625C413.047 97.0625 412.516 96.9401 412.125 96.6953C411.734 96.4453 411.461 96.0938 411.305 95.6406C411.148 95.1823 411.07 94.6224 411.07 93.9609V90.6484H409.578V89.125H411.102V87.5156L413.148 86.8438V89.125H414.953V90.6484H413.148V93.5312C413.148 94.1458 413.214 94.6146 413.344 94.9375C413.479 95.2552 413.807 95.4141 414.328 95.4141C414.521 95.4141 414.755 95.3776 415.031 95.3047ZM418.461 89.0781L418.508 90.2812C418.763 89.8646 419.107 89.5391 419.539 89.3047C419.977 89.0703 420.448 88.9531 420.953 88.9531C421.505 88.9531 421.961 89.0677 422.32 89.2969C422.685 89.5208 422.977 89.875 423.195 90.3594C423.461 89.9062 423.812 89.5599 424.25 89.3203C424.693 89.0755 425.18 88.9531 425.711 88.9531C426.695 88.9531 427.359 89.2656 427.703 89.8906C428.047 90.5104 428.219 91.349 428.219 92.4062V97H426.172V93.1562V92.8438C426.172 92.2031 426.096 91.6771 425.945 91.2656C425.799 90.8542 425.477 90.6484 424.977 90.6484C423.94 90.6484 423.422 91.5443 423.422 93.3359V97H421.375V92.9375V92.375C421.375 91.9167 421.286 91.5156 421.109 91.1719C420.932 90.8229 420.625 90.6484 420.188 90.6484C419.62 90.6484 419.216 90.8906 418.977 91.375C418.737 91.8542 418.617 92.4062 418.617 93.0312V97H416.57V91.0156C416.57 90.2917 416.549 89.6458 416.508 89.0781H418.461ZM436.594 94.8906L436.625 96.6641C435.786 97.0286 434.88 97.2109 433.906 97.2109C433.255 97.2109 432.674 97.1198 432.164 96.9375C431.659 96.75 431.227 96.4766 430.867 96.1172C430.508 95.7526 430.234 95.3151 430.047 94.8047C429.859 94.2891 429.766 93.7031 429.766 93.0469C429.766 92.4427 429.852 91.888 430.023 91.3828C430.201 90.8724 430.453 90.4323 430.781 90.0625C431.109 89.6875 431.513 89.3958 431.992 89.1875C432.477 88.9792 433.023 88.875 433.633 88.875C434.227 88.875 434.75 88.9818 435.203 89.1953C435.656 89.4089 436.023 89.7031 436.305 90.0781C436.591 90.4531 436.805 90.888 436.945 91.3828C437.086 91.8724 437.156 92.4115 437.156 93C437.156 93.1042 437.154 93.1823 437.148 93.2344C437.143 93.2865 437.138 93.3516 437.133 93.4297C437.128 93.5078 437.12 93.599 437.109 93.7031H431.781C431.833 94.3281 432.076 94.8151 432.508 95.1641C432.945 95.513 433.487 95.6875 434.133 95.6875C434.862 95.6875 435.682 95.4219 436.594 94.8906ZM435.203 92.2812C435.193 91.9271 435.128 91.6016 435.008 91.3047C434.893 91.0078 434.714 90.7682 434.469 90.5859C434.229 90.4036 433.93 90.3125 433.57 90.3125C433.201 90.3125 432.883 90.4036 432.617 90.5859C432.357 90.763 432.154 91 432.008 91.2969C431.867 91.5938 431.781 91.9219 431.75 92.2812H435.203ZM440.727 89.0781L440.773 90.3438C441.409 89.4167 442.299 88.9531 443.445 88.9531C444.508 88.9531 445.224 89.2682 445.594 89.8984C445.964 90.5234 446.148 91.4036 446.148 92.5391V97H444.102V93.0156C444.102 92.3125 444.01 91.7422 443.828 91.3047C443.651 90.8672 443.263 90.6484 442.664 90.6484C442.023 90.6484 441.573 90.9062 441.312 91.4219C441.052 91.9323 440.922 92.5391 440.922 93.2422V97H438.867V91.9609C438.867 90.8411 438.841 89.8802 438.789 89.0781H440.727ZM452.578 95.3047L452.648 96.9062C452.128 97.0104 451.667 97.0625 451.266 97.0625C450.594 97.0625 450.062 96.9401 449.672 96.6953C449.281 96.4453 449.008 96.0938 448.852 95.6406C448.695 95.1823 448.617 94.6224 448.617 93.9609V90.6484H447.125V89.125H448.648V87.5156L450.695 86.8438V89.125H452.5V90.6484H450.695V93.5312C450.695 94.1458 450.76 94.6146 450.891 94.9375C451.026 95.2552 451.354 95.4141 451.875 95.4141C452.068 95.4141 452.302 95.3776 452.578 95.3047ZM465.07 95.2578V97H458.75V86.3281H460.906V95.2578H465.07ZM472.992 97H471.164L471.133 95.8125C470.888 96.2344 470.544 96.5599 470.102 96.7891C469.664 97.013 469.188 97.125 468.672 97.125C468.146 97.125 467.674 97.0339 467.258 96.8516C466.846 96.6693 466.521 96.3932 466.281 96.0234C466.042 95.6484 465.922 95.1953 465.922 94.6641C465.922 93.6745 466.31 92.9974 467.086 92.6328C467.862 92.2682 468.807 92.0859 469.922 92.0859C470.083 92.0859 470.188 92.0885 470.234 92.0938C470.281 92.0938 470.385 92.099 470.547 92.1094C470.708 92.1146 470.872 92.1224 471.039 92.1328C471.039 91.5443 470.896 91.1068 470.609 90.8203C470.323 90.5339 469.88 90.3906 469.281 90.3906C468.375 90.3906 467.557 90.6797 466.828 91.2578L466.766 89.4766C467.615 89.1172 468.534 88.9375 469.523 88.9375C469.893 88.9375 470.26 88.974 470.625 89.0469C470.99 89.1198 471.326 89.2422 471.633 89.4141C471.945 89.5807 472.203 89.8047 472.406 90.0859C472.615 90.3672 472.75 90.6901 472.812 91.0547C472.88 91.4141 472.914 91.8438 472.914 92.3438C472.914 92.8594 472.914 93.3776 472.914 93.8984C472.919 94.4193 472.924 94.8958 472.93 95.3281C472.94 95.7552 472.961 96.3125 472.992 97ZM471.07 93.3984C471.018 93.388 470.938 93.3828 470.828 93.3828H470.578C470.13 93.3828 469.719 93.4089 469.344 93.4609C468.974 93.5078 468.648 93.6328 468.367 93.8359C468.091 94.0339 467.953 94.3255 467.953 94.7109C467.953 95.0234 468.076 95.2734 468.32 95.4609C468.57 95.6432 468.859 95.7344 469.188 95.7344C469.807 95.7344 470.276 95.5052 470.594 95.0469C470.911 94.5885 471.07 94.0391 471.07 93.3984ZM482.109 89.0781V93.9141C482.12 94.138 482.13 94.4844 482.141 94.9531C482.156 95.4219 482.169 95.7969 482.18 96.0781C482.19 96.3594 482.206 96.6667 482.227 97H480.289L480.227 95.7812C480.044 96.0677 479.823 96.3099 479.562 96.5078C479.307 96.7057 479.018 96.8594 478.695 96.9688C478.372 97.0729 478.049 97.125 477.727 97.125C476.992 97.125 476.419 96.974 476.008 96.6719C475.596 96.3698 475.312 95.9557 475.156 95.4297C475.005 94.9036 474.93 94.276 474.93 93.5469V89.0781H476.977V92.8906C476.977 93.3854 477 93.8047 477.047 94.1484C477.099 94.487 477.232 94.7839 477.445 95.0391C477.659 95.2891 477.982 95.4141 478.414 95.4141C479.034 95.4141 479.464 95.1536 479.703 94.6328C479.943 94.1068 480.062 93.4922 480.062 92.7891V89.0781H482.109ZM486.227 89.0781L486.273 90.3438C486.909 89.4167 487.799 88.9531 488.945 88.9531C490.008 88.9531 490.724 89.2682 491.094 89.8984C491.464 90.5234 491.648 91.4036 491.648 92.5391V97H489.602V93.0156C489.602 92.3125 489.51 91.7422 489.328 91.3047C489.151 90.8672 488.763 90.6484 488.164 90.6484C487.523 90.6484 487.073 90.9062 486.812 91.4219C486.552 91.9323 486.422 92.5391 486.422 93.2422V97H484.367V91.9609C484.367 90.8411 484.341 89.8802 484.289 89.0781H486.227ZM499.008 95.0312L499.125 96.7578C498.438 96.9609 497.823 97.0625 497.281 97.0625C496.677 97.0625 496.122 96.9714 495.617 96.7891C495.112 96.6016 494.677 96.3307 494.312 95.9766C493.953 95.6224 493.677 95.1927 493.484 94.6875C493.297 94.1771 493.203 93.6146 493.203 93C493.203 92.2188 493.37 91.526 493.703 90.9219C494.042 90.3177 494.516 89.849 495.125 89.5156C495.74 89.1823 496.432 89.0156 497.203 89.0156C497.776 89.0156 498.357 89.1016 498.945 89.2734L498.789 90.9219C498.32 90.7396 497.898 90.6484 497.523 90.6484C497.096 90.6484 496.714 90.7552 496.375 90.9688C496.036 91.1771 495.776 91.4583 495.594 91.8125C495.417 92.1615 495.328 92.5521 495.328 92.9844C495.328 93.6979 495.536 94.2708 495.953 94.7031C496.37 95.1354 496.93 95.3516 497.633 95.3516C498.081 95.3516 498.539 95.2448 499.008 95.0312ZM507.836 97H505.789V93.1562C505.789 92.3958 505.706 91.7891 505.539 91.3359C505.378 90.8776 504.992 90.6484 504.383 90.6484C503.727 90.6484 503.266 90.9193 503 91.4609C502.734 91.9974 502.602 92.6276 502.602 93.3516V93.75V97H500.555V85.4766H502.602V90.2031C502.898 89.776 503.255 89.4583 503.672 89.25C504.089 89.0417 504.565 88.9375 505.102 88.9375C505.659 88.9375 506.117 89.0286 506.477 89.2109C506.841 89.388 507.12 89.6302 507.312 89.9375C507.51 90.2448 507.646 90.6042 507.719 91.0156C507.797 91.4219 507.836 91.901 507.836 92.4531V97Z" fill="black"/>
<path d="M676.961 42V33.9961H678.783C679.279 33.9961 679.723 34.0117 680.113 34.043C680.504 34.0742 680.895 34.1465 681.285 34.2598C681.676 34.373 682.029 34.541 682.346 34.7637C682.611 34.9434 682.838 35.1562 683.025 35.4023C683.213 35.6484 683.359 35.9062 683.465 36.1758C683.574 36.4414 683.654 36.7344 683.705 37.0547C683.76 37.3711 683.787 37.6914 683.787 38.0156C683.787 38.6875 683.67 39.3066 683.436 39.873C683.205 40.4395 682.838 40.9043 682.334 41.2676C682.068 41.4629 681.768 41.6152 681.432 41.7246C681.096 41.834 680.75 41.9082 680.395 41.9473C680.039 41.9824 679.666 42 679.275 42H676.961ZM678.578 40.7637C678.668 40.7637 678.742 40.7656 678.801 40.7695C678.859 40.7695 678.922 40.7715 678.988 40.7754C679.461 40.7754 679.885 40.7188 680.26 40.6055C680.635 40.4883 680.955 40.3145 681.221 40.084C681.49 39.8496 681.697 39.5566 681.842 39.2051C681.986 38.8496 682.059 38.4336 682.059 37.957C682.059 37.4805 681.955 37.0312 681.748 36.6094C681.541 36.1875 681.244 35.8652 680.857 35.6426C680.697 35.5449 680.527 35.4707 680.348 35.4199C680.172 35.3652 679.984 35.3262 679.785 35.3027C679.59 35.2793 679.371 35.2637 679.129 35.2559C678.891 35.248 678.707 35.2441 678.578 35.2441V40.7637ZM689.922 40.418L689.945 41.748C689.316 42.0215 688.637 42.1582 687.906 42.1582C687.418 42.1582 686.982 42.0898 686.6 41.9531C686.221 41.8125 685.896 41.6074 685.627 41.3379C685.357 41.0645 685.152 40.7363 685.012 40.3535C684.871 39.9668 684.801 39.5273 684.801 39.0352C684.801 38.582 684.865 38.166 684.994 37.7871C685.127 37.4043 685.316 37.0742 685.562 36.7969C685.809 36.5156 686.111 36.2969 686.471 36.1406C686.834 35.9844 687.244 35.9062 687.701 35.9062C688.146 35.9062 688.539 35.9863 688.879 36.1465C689.219 36.3066 689.494 36.5273 689.705 36.8086C689.92 37.0898 690.08 37.416 690.186 37.7871C690.291 38.1543 690.344 38.5586 690.344 39C690.344 39.0781 690.342 39.1367 690.338 39.1758C690.334 39.2148 690.33 39.2637 690.326 39.3223C690.322 39.3809 690.316 39.4492 690.309 39.5273H686.312C686.352 39.9961 686.533 40.3613 686.857 40.623C687.186 40.8848 687.592 41.0156 688.076 41.0156C688.623 41.0156 689.238 40.8164 689.922 40.418ZM688.879 38.4609C688.871 38.1953 688.822 37.9512 688.732 37.7285C688.646 37.5059 688.512 37.3262 688.328 37.1895C688.148 37.0527 687.924 36.9844 687.654 36.9844C687.377 36.9844 687.139 37.0527 686.939 37.1895C686.744 37.3223 686.592 37.5 686.482 37.7227C686.377 37.9453 686.312 38.1914 686.289 38.4609H688.879ZM695.588 40.5234L695.676 41.8184C695.16 41.9707 694.699 42.0469 694.293 42.0469C693.84 42.0469 693.424 41.9785 693.045 41.8418C692.666 41.7012 692.34 41.498 692.066 41.2324C691.797 40.9668 691.59 40.6445 691.445 40.2656C691.305 39.8828 691.234 39.4609 691.234 39C691.234 38.4141 691.359 37.8945 691.609 37.4414C691.863 36.9883 692.219 36.6367 692.676 36.3867C693.137 36.1367 693.656 36.0117 694.234 36.0117C694.664 36.0117 695.1 36.0762 695.541 36.2051L695.424 37.4414C695.072 37.3047 694.756 37.2363 694.475 37.2363C694.154 37.2363 693.867 37.3164 693.613 37.4766C693.359 37.6328 693.164 37.8438 693.027 38.1094C692.895 38.3711 692.828 38.6641 692.828 38.9883C692.828 39.5234 692.984 39.9531 693.297 40.2773C693.609 40.6016 694.029 40.7637 694.557 40.7637C694.893 40.7637 695.236 40.6836 695.588 40.5234ZM697.879 36.5742H696.748L696.473 33.3574H698.166L697.879 36.5742ZM711.186 40.7168V42H705.824V40.6582C706.371 40.1621 706.775 39.7891 707.037 39.5391C707.303 39.2891 707.615 38.9668 707.975 38.5723C708.338 38.1738 708.641 37.7773 708.883 37.3828C709.125 36.9844 709.246 36.6309 709.246 36.3223C709.246 35.9668 709.129 35.6875 708.895 35.4844C708.664 35.2773 708.373 35.1738 708.021 35.1738C707.404 35.1738 706.768 35.3965 706.111 35.8418L705.977 34.4297C706.812 34.0625 707.625 33.8789 708.414 33.8789C708.891 33.8789 709.32 33.9648 709.703 34.1367C710.086 34.3086 710.391 34.5664 710.617 34.9102C710.844 35.2539 710.957 35.666 710.957 36.1465C710.957 36.6426 710.793 37.1738 710.465 37.7402C710.137 38.3066 709.74 38.8457 709.275 39.3574C708.811 39.8691 708.348 40.3301 707.887 40.7402L711.186 40.7168ZM717.789 38.0156C717.789 38.4453 717.773 38.8281 717.742 39.1641C717.711 39.4961 717.643 39.832 717.537 40.1719C717.432 40.5117 717.287 40.8125 717.104 41.0742C716.869 41.4141 716.564 41.6758 716.189 41.8594C715.818 42.043 715.424 42.1348 715.006 42.1348C714.279 42.1348 713.709 41.9355 713.295 41.5371C712.881 41.1348 712.596 40.627 712.439 40.0137C712.287 39.3965 712.211 38.7305 712.211 38.0156C712.211 37.3008 712.289 36.6367 712.445 36.0234C712.605 35.4062 712.893 34.8945 713.307 34.4883C713.725 34.082 714.291 33.8789 715.006 33.8789C715.721 33.8789 716.285 34.082 716.699 34.4883C717.113 34.8945 717.398 35.4062 717.555 36.0234C717.711 36.6367 717.789 37.3008 717.789 38.0156ZM716.172 38.0039C716.172 37.5938 716.148 37.1758 716.102 36.75C716.059 36.3203 715.951 35.9336 715.779 35.5898C715.607 35.2461 715.35 35.0742 715.006 35.0742C714.654 35.0742 714.391 35.248 714.215 35.5957C714.043 35.9395 713.936 36.3184 713.893 36.7324C713.85 37.1465 713.828 37.5859 713.828 38.0508C713.828 38.7852 713.898 39.4492 714.039 40.043C714.18 40.6367 714.502 40.9336 715.006 40.9336C715.35 40.9336 715.607 40.7734 715.779 40.4531C715.955 40.1289 716.064 39.7617 716.107 39.3516C716.15 38.9375 716.172 38.5195 716.172 38.0977V38.0039ZM724.053 40.7168V42H718.691V40.6582C719.238 40.1621 719.643 39.7891 719.904 39.5391C720.17 39.2891 720.482 38.9668 720.842 38.5723C721.205 38.1738 721.508 37.7773 721.75 37.3828C721.992 36.9844 722.113 36.6309 722.113 36.3223C722.113 35.9668 721.996 35.6875 721.762 35.4844C721.531 35.2773 721.24 35.1738 720.889 35.1738C720.271 35.1738 719.635 35.3965 718.979 35.8418L718.844 34.4297C719.68 34.0625 720.492 33.8789 721.281 33.8789C721.758 33.8789 722.188 33.9648 722.57 34.1367C722.953 34.3086 723.258 34.5664 723.484 34.9102C723.711 35.2539 723.824 35.666 723.824 36.1465C723.824 36.6426 723.66 37.1738 723.332 37.7402C723.004 38.3066 722.607 38.8457 722.143 39.3574C721.678 39.8691 721.215 40.3301 720.754 40.7402L724.053 40.7168ZM730.486 40.7168V42H725.125V40.6582C725.672 40.1621 726.076 39.7891 726.338 39.5391C726.604 39.2891 726.916 38.9668 727.275 38.5723C727.639 38.1738 727.941 37.7773 728.184 37.3828C728.426 36.9844 728.547 36.6309 728.547 36.3223C728.547 35.9668 728.43 35.6875 728.195 35.4844C727.965 35.2773 727.674 35.1738 727.322 35.1738C726.705 35.1738 726.068 35.3965 725.412 35.8418L725.277 34.4297C726.113 34.0625 726.926 33.8789 727.715 33.8789C728.191 33.8789 728.621 33.9648 729.004 34.1367C729.387 34.3086 729.691 34.5664 729.918 34.9102C730.145 35.2539 730.258 35.666 730.258 36.1465C730.258 36.6426 730.094 37.1738 729.766 37.7402C729.438 38.3066 729.041 38.8457 728.576 39.3574C728.111 39.8691 727.648 40.3301 727.188 40.7402L730.486 40.7168Z" fill="#777E90"/>
<path d="M668.75 97H666.398L665.469 94.5703H661.055L660.141 97H657.914L662.078 86.3281H664.477L668.75 97ZM664.812 92.8203L663.438 89.0469C663.406 88.9635 663.336 88.7292 663.227 88.3438C663.185 88.5052 663.143 88.6693 663.102 88.8359C663.06 88.9974 663.023 89.1276 662.992 89.2266L661.711 92.8203H664.812ZM682.273 97H680.117V90.6953C680.148 89.737 680.195 88.776 680.258 87.8125H680.195C680.091 88.2344 679.984 88.6042 679.875 88.9219L677.156 97H675.172L672.867 90.3281C672.581 89.4948 672.336 88.6562 672.133 87.8125H672.07C672.174 88.8438 672.227 89.7786 672.227 90.6172V97H670.18V86.3281H673.586L675.523 91.9297C675.826 92.8307 676.055 93.7057 676.211 94.5547C676.305 94.1068 676.393 93.7188 676.477 93.3906C676.565 93.0573 676.664 92.724 676.773 92.3906L678.82 86.3281H682.273V97ZM696.93 97H694.773V90.6953C694.805 89.737 694.852 88.776 694.914 87.8125H694.852C694.747 88.2344 694.641 88.6042 694.531 88.9219L691.812 97H689.828L687.523 90.3281C687.237 89.4948 686.992 88.6562 686.789 87.8125H686.727C686.831 88.8438 686.883 89.7786 686.883 90.6172V97H684.836V86.3281H688.242L690.18 91.9297C690.482 92.8307 690.711 93.7057 690.867 94.5547C690.961 94.1068 691.049 93.7188 691.133 93.3906C691.221 93.0573 691.32 92.724 691.43 92.3906L693.477 86.3281H696.93V97ZM705.734 97H703.688V85.4766H705.734V97ZM714.422 97H712.594L712.562 95.8125C712.318 96.2344 711.974 96.5599 711.531 96.7891C711.094 97.013 710.617 97.125 710.102 97.125C709.576 97.125 709.104 97.0339 708.688 96.8516C708.276 96.6693 707.951 96.3932 707.711 96.0234C707.471 95.6484 707.352 95.1953 707.352 94.6641C707.352 93.6745 707.74 92.9974 708.516 92.6328C709.292 92.2682 710.237 92.0859 711.352 92.0859C711.513 92.0859 711.617 92.0885 711.664 92.0938C711.711 92.0938 711.815 92.099 711.977 92.1094C712.138 92.1146 712.302 92.1224 712.469 92.1328C712.469 91.5443 712.326 91.1068 712.039 90.8203C711.753 90.5339 711.31 90.3906 710.711 90.3906C709.805 90.3906 708.987 90.6797 708.258 91.2578L708.195 89.4766C709.044 89.1172 709.964 88.9375 710.953 88.9375C711.323 88.9375 711.69 88.974 712.055 89.0469C712.419 89.1198 712.755 89.2422 713.062 89.4141C713.375 89.5807 713.633 89.8047 713.836 90.0859C714.044 90.3672 714.18 90.6901 714.242 91.0547C714.31 91.4141 714.344 91.8438 714.344 92.3438C714.344 92.8594 714.344 93.3776 714.344 93.8984C714.349 94.4193 714.354 94.8958 714.359 95.3281C714.37 95.7552 714.391 96.3125 714.422 97ZM712.5 93.3984C712.448 93.388 712.367 93.3828 712.258 93.3828H712.008C711.56 93.3828 711.148 93.4089 710.773 93.4609C710.404 93.5078 710.078 93.6328 709.797 93.8359C709.521 94.0339 709.383 94.3255 709.383 94.7109C709.383 95.0234 709.505 95.2734 709.75 95.4609C710 95.6432 710.289 95.7344 710.617 95.7344C711.237 95.7344 711.706 95.5052 712.023 95.0469C712.341 94.5885 712.5 94.0391 712.5 93.3984ZM723.539 89.0781V93.9141C723.549 94.138 723.56 94.4844 723.57 94.9531C723.586 95.4219 723.599 95.7969 723.609 96.0781C723.62 96.3594 723.635 96.6667 723.656 97H721.719L721.656 95.7812C721.474 96.0677 721.253 96.3099 720.992 96.5078C720.737 96.7057 720.448 96.8594 720.125 96.9688C719.802 97.0729 719.479 97.125 719.156 97.125C718.422 97.125 717.849 96.974 717.438 96.6719C717.026 96.3698 716.742 95.9557 716.586 95.4297C716.435 94.9036 716.359 94.276 716.359 93.5469V89.0781H718.406V92.8906C718.406 93.3854 718.43 93.8047 718.477 94.1484C718.529 94.487 718.661 94.7839 718.875 95.0391C719.089 95.2891 719.411 95.4141 719.844 95.4141C720.464 95.4141 720.893 95.1536 721.133 94.6328C721.372 94.1068 721.492 93.4922 721.492 92.7891V89.0781H723.539ZM727.656 89.0781L727.703 90.3438C728.339 89.4167 729.229 88.9531 730.375 88.9531C731.438 88.9531 732.154 89.2682 732.523 89.8984C732.893 90.5234 733.078 91.4036 733.078 92.5391V97H731.031V93.0156C731.031 92.3125 730.94 91.7422 730.758 91.3047C730.581 90.8672 730.193 90.6484 729.594 90.6484C728.953 90.6484 728.503 90.9062 728.242 91.4219C727.982 91.9323 727.852 92.5391 727.852 93.2422V97H725.797V91.9609C725.797 90.8411 725.771 89.8802 725.719 89.0781H727.656ZM740.438 95.0312L740.555 96.7578C739.867 96.9609 739.253 97.0625 738.711 97.0625C738.107 97.0625 737.552 96.9714 737.047 96.7891C736.542 96.6016 736.107 96.3307 735.742 95.9766C735.383 95.6224 735.107 95.1927 734.914 94.6875C734.727 94.1771 734.633 93.6146 734.633 93C734.633 92.2188 734.799 91.526 735.133 90.9219C735.471 90.3177 735.945 89.849 736.555 89.5156C737.169 89.1823 737.862 89.0156 738.633 89.0156C739.206 89.0156 739.786 89.1016 740.375 89.2734L740.219 90.9219C739.75 90.7396 739.328 90.6484 738.953 90.6484C738.526 90.6484 738.143 90.7552 737.805 90.9688C737.466 91.1771 737.206 91.4583 737.023 91.8125C736.846 92.1615 736.758 92.5521 736.758 92.9844C736.758 93.6979 736.966 94.2708 737.383 94.7031C737.799 95.1354 738.359 95.3516 739.062 95.3516C739.51 95.3516 739.969 95.2448 740.438 95.0312ZM749.266 97H747.219V93.1562C747.219 92.3958 747.135 91.7891 746.969 91.3359C746.807 90.8776 746.422 90.6484 745.812 90.6484C745.156 90.6484 744.695 90.9193 744.43 91.4609C744.164 91.9974 744.031 92.6276 744.031 93.3516V93.75V97H741.984V85.4766H744.031V90.2031C744.328 89.776 744.685 89.4583 745.102 89.25C745.518 89.0417 745.995 88.9375 746.531 88.9375C747.089 88.9375 747.547 89.0286 747.906 89.2109C748.271 89.388 748.549 89.6302 748.742 89.9375C748.94 90.2448 749.076 90.6042 749.148 91.0156C749.227 91.4219 749.266 91.901 749.266 92.4531V97Z" fill="black"/>
<path d="M970.574 33.9961V39.457C970.574 40 970.506 40.4629 970.369 40.8457C970.232 41.2246 969.998 41.5234 969.666 41.7422C969.334 41.9609 968.893 42.0703 968.342 42.0703C968.006 42.0703 967.615 42.0156 967.17 41.9062L967.205 40.5352C967.486 40.6172 967.727 40.6582 967.926 40.6582C968.324 40.6582 968.598 40.5352 968.746 40.2891C968.895 40.043 968.969 39.7129 968.969 39.2988V33.9961H970.574ZM977.271 42H975.9L975.877 41.1094C975.693 41.4258 975.436 41.6699 975.104 41.8418C974.775 42.0098 974.418 42.0938 974.031 42.0938C973.637 42.0938 973.283 42.0254 972.971 41.8887C972.662 41.752 972.418 41.5449 972.238 41.2676C972.059 40.9863 971.969 40.6465 971.969 40.248C971.969 39.5059 972.26 38.998 972.842 38.7246C973.424 38.4512 974.133 38.3145 974.969 38.3145C975.09 38.3145 975.168 38.3164 975.203 38.3203C975.238 38.3203 975.316 38.3242 975.438 38.332C975.559 38.3359 975.682 38.3418 975.807 38.3496C975.807 37.9082 975.699 37.5801 975.484 37.3652C975.27 37.1504 974.938 37.043 974.488 37.043C973.809 37.043 973.195 37.2598 972.648 37.6934L972.602 36.3574C973.238 36.0879 973.928 35.9531 974.67 35.9531C974.947 35.9531 975.223 35.9805 975.496 36.0352C975.77 36.0898 976.021 36.1816 976.252 36.3105C976.486 36.4355 976.68 36.6035 976.832 36.8145C976.988 37.0254 977.09 37.2676 977.137 37.541C977.188 37.8105 977.213 38.1328 977.213 38.5078C977.213 38.8945 977.213 39.2832 977.213 39.6738C977.217 40.0645 977.221 40.4219 977.225 40.7461C977.232 41.0664 977.248 41.4844 977.271 42ZM975.83 39.2988C975.791 39.291 975.73 39.2871 975.648 39.2871H975.461C975.125 39.2871 974.816 39.3066 974.535 39.3457C974.258 39.3809 974.014 39.4746 973.803 39.627C973.596 39.7754 973.492 39.9941 973.492 40.2832C973.492 40.5176 973.584 40.7051 973.768 40.8457C973.955 40.9824 974.172 41.0508 974.418 41.0508C974.883 41.0508 975.234 40.8789 975.473 40.5352C975.711 40.1914 975.83 39.7793 975.83 39.2988ZM980.225 36.0586L980.26 37.0078C980.736 36.3125 981.404 35.9648 982.264 35.9648C983.061 35.9648 983.598 36.2012 983.875 36.6738C984.152 37.1426 984.291 37.8027 984.291 38.6543V42H982.756V39.0117C982.756 38.4844 982.688 38.0566 982.551 37.7285C982.418 37.4004 982.127 37.2363 981.678 37.2363C981.197 37.2363 980.859 37.4297 980.664 37.8164C980.469 38.1992 980.371 38.6543 980.371 39.1816V42H978.83V38.2207C978.83 37.3809 978.811 36.6602 978.771 36.0586H980.225ZM986.922 36.5742H985.791L985.516 33.3574H987.209L986.922 36.5742ZM996.889 40.7168V42H991.527V40.6582C992.074 40.1621 992.479 39.7891 992.74 39.5391C993.006 39.2891 993.318 38.9668 993.678 38.5723C994.041 38.1738 994.344 37.7773 994.586 37.3828C994.828 36.9844 994.949 36.6309 994.949 36.3223C994.949 35.9668 994.832 35.6875 994.598 35.4844C994.367 35.2773 994.076 35.1738 993.725 35.1738C993.107 35.1738 992.471 35.3965 991.814 35.8418L991.68 34.4297C992.516 34.0625 993.328 33.8789 994.117 33.8789C994.594 33.8789 995.023 33.9648 995.406 34.1367C995.789 34.3086 996.094 34.5664 996.32 34.9102C996.547 35.2539 996.66 35.666 996.66 36.1465C996.66 36.6426 996.496 37.1738 996.168 37.7402C995.84 38.3066 995.443 38.8457 994.979 39.3574C994.514 39.8691 994.051 40.3301 993.59 40.7402L996.889 40.7168ZM1003.49 38.0156C1003.49 38.4453 1003.48 38.8281 1003.45 39.1641C1003.41 39.4961 1003.35 39.832 1003.24 40.1719C1003.13 40.5117 1002.99 40.8125 1002.81 41.0742C1002.57 41.4141 1002.27 41.6758 1001.89 41.8594C1001.52 42.043 1001.13 42.1348 1000.71 42.1348C999.982 42.1348 999.412 41.9355 998.998 41.5371C998.584 41.1348 998.299 40.627 998.143 40.0137C997.99 39.3965 997.914 38.7305 997.914 38.0156C997.914 37.3008 997.992 36.6367 998.148 36.0234C998.309 35.4062 998.596 34.8945 999.01 34.4883C999.428 34.082 999.994 33.8789 1000.71 33.8789C1001.42 33.8789 1001.99 34.082 1002.4 34.4883C1002.82 34.8945 1003.1 35.4062 1003.26 36.0234C1003.41 36.6367 1003.49 37.3008 1003.49 38.0156ZM1001.88 38.0039C1001.88 37.5938 1001.85 37.1758 1001.8 36.75C1001.76 36.3203 1001.65 35.9336 1001.48 35.5898C1001.31 35.2461 1001.05 35.0742 1000.71 35.0742C1000.36 35.0742 1000.09 35.248 999.918 35.5957C999.746 35.9395 999.639 36.3184 999.596 36.7324C999.553 37.1465 999.531 37.5859 999.531 38.0508C999.531 38.7852 999.602 39.4492 999.742 40.043C999.883 40.6367 1000.21 40.9336 1000.71 40.9336C1001.05 40.9336 1001.31 40.7734 1001.48 40.4531C1001.66 40.1289 1001.77 39.7617 1001.81 39.3516C1001.85 38.9375 1001.88 38.5195 1001.88 38.0977V38.0039ZM1009.76 40.7168V42H1004.39V40.6582C1004.94 40.1621 1005.35 39.7891 1005.61 39.5391C1005.87 39.2891 1006.19 38.9668 1006.54 38.5723C1006.91 38.1738 1007.21 37.7773 1007.45 37.3828C1007.7 36.9844 1007.82 36.6309 1007.82 36.3223C1007.82 35.9668 1007.7 35.6875 1007.46 35.4844C1007.23 35.2773 1006.94 35.1738 1006.59 35.1738C1005.97 35.1738 1005.34 35.3965 1004.68 35.8418L1004.55 34.4297C1005.38 34.0625 1006.2 33.8789 1006.98 33.8789C1007.46 33.8789 1007.89 33.9648 1008.27 34.1367C1008.66 34.3086 1008.96 34.5664 1009.19 34.9102C1009.41 35.2539 1009.53 35.666 1009.53 36.1465C1009.53 36.6426 1009.36 37.1738 1009.04 37.7402C1008.71 38.3066 1008.31 38.8457 1007.85 39.3574C1007.38 39.8691 1006.92 40.3301 1006.46 40.7402L1009.76 40.7168ZM1010.86 41.8418L1010.96 40.4648C1011.57 40.7344 1012.17 40.8691 1012.76 40.8691C1013.21 40.8691 1013.6 40.7754 1013.93 40.5879C1014.26 40.4004 1014.43 40.0996 1014.43 39.6855C1014.43 39.2207 1014.23 38.9082 1013.83 38.748C1013.44 38.5879 1012.96 38.5078 1012.41 38.5078C1012.29 38.5078 1012.11 38.5156 1011.88 38.5312V37.2246C1012 37.2324 1012.16 37.2363 1012.39 37.2363C1012.91 37.2363 1013.38 37.1562 1013.78 36.9961C1014.19 36.8359 1014.39 36.5312 1014.39 36.082C1014.39 35.8555 1014.32 35.6719 1014.18 35.5312C1014.04 35.3906 1013.86 35.291 1013.65 35.2324C1013.44 35.1699 1013.22 35.1387 1013 35.1387C1012.31 35.1387 1011.71 35.2773 1011.17 35.5547L1011.08 34.2363C1011.83 33.998 1012.56 33.8789 1013.28 33.8789C1014.08 33.8789 1014.74 34.0449 1015.26 34.377C1015.79 34.709 1016.05 35.25 1016.05 36C1016.05 36.2852 1015.98 36.5586 1015.86 36.8203C1015.73 37.0781 1015.55 37.293 1015.32 37.4648C1015.09 37.6367 1014.84 37.748 1014.56 37.7988C1014.96 37.9316 1015.22 38.0352 1015.33 38.1094C1015.59 38.2852 1015.79 38.5332 1015.92 38.8535C1016.05 39.1699 1016.12 39.502 1016.12 39.8496C1016.12 40.373 1015.96 40.8066 1015.66 41.1504C1015.35 41.4941 1014.95 41.7441 1014.47 41.9004C1013.99 42.0566 1013.49 42.1348 1012.97 42.1348C1012.62 42.1348 1012.27 42.1113 1011.92 42.0645C1011.58 42.0215 1011.23 41.9473 1010.86 41.8418Z" fill="#777E90"/>
<path d="M910.133 86.3281V93.6094C910.133 94.3333 910.042 94.9505 909.859 95.4609C909.677 95.9661 909.365 96.3646 908.922 96.6562C908.479 96.9479 907.891 97.0938 907.156 97.0938C906.708 97.0938 906.188 97.0208 905.594 96.875L905.641 95.0469C906.016 95.1562 906.336 95.2109 906.602 95.2109C907.133 95.2109 907.497 95.0469 907.695 94.7188C907.893 94.3906 907.992 93.9505 907.992 93.3984V86.3281H910.133ZM920.211 93.1094C920.211 93.7188 920.112 94.2786 919.914 94.7891C919.716 95.2943 919.435 95.7266 919.07 96.0859C918.711 96.4401 918.279 96.7161 917.773 96.9141C917.268 97.112 916.706 97.2109 916.086 97.2109C915.268 97.2109 914.549 97.0339 913.93 96.6797C913.31 96.3255 912.831 95.8255 912.492 95.1797C912.159 94.5339 911.992 93.8073 911.992 93C911.992 92.1927 912.164 91.4766 912.508 90.8516C912.852 90.2266 913.333 89.7422 913.953 89.3984C914.578 89.0495 915.294 88.875 916.102 88.875C916.727 88.875 917.292 88.9792 917.797 89.1875C918.307 89.3958 918.742 89.6927 919.102 90.0781C919.461 90.4583 919.734 90.9062 919.922 91.4219C920.115 91.9375 920.211 92.5 920.211 93.1094ZM918.086 93.0625C918.086 92.6354 918.016 92.2161 917.875 91.8047C917.74 91.3932 917.521 91.0547 917.219 90.7891C916.917 90.5234 916.544 90.3906 916.102 90.3906C915.68 90.3906 915.315 90.5208 915.008 90.7812C914.706 91.0417 914.482 91.375 914.336 91.7812C914.19 92.1823 914.117 92.5885 914.117 93C914.117 93.4427 914.185 93.8698 914.32 94.2812C914.461 94.6927 914.682 95.0312 914.984 95.2969C915.286 95.5573 915.669 95.6875 916.133 95.6875C916.461 95.6875 916.75 95.6094 917 95.4531C917.25 95.2917 917.453 95.0885 917.609 94.8438C917.766 94.5938 917.883 94.3151 917.961 94.0078C918.044 93.6953 918.086 93.3802 918.086 93.0625ZM923.891 97H921.844V89.0781H923.891V97ZM923.922 87.6406H921.812V85.7031H923.922V87.6406ZM927.906 89.0781L927.953 90.3438C928.589 89.4167 929.479 88.9531 930.625 88.9531C931.688 88.9531 932.404 89.2682 932.773 89.8984C933.143 90.5234 933.328 91.4036 933.328 92.5391V97H931.281V93.0156C931.281 92.3125 931.19 91.7422 931.008 91.3047C930.831 90.8672 930.443 90.6484 929.844 90.6484C929.203 90.6484 928.753 90.9062 928.492 91.4219C928.232 91.9323 928.102 92.5391 928.102 93.2422V97H926.047V91.9609C926.047 90.8411 926.021 89.8802 925.969 89.0781H927.906ZM946.391 97H944.562L944.531 95.8125C944.286 96.2344 943.943 96.5599 943.5 96.7891C943.062 97.013 942.586 97.125 942.07 97.125C941.544 97.125 941.073 97.0339 940.656 96.8516C940.245 96.6693 939.919 96.3932 939.68 96.0234C939.44 95.6484 939.32 95.1953 939.32 94.6641C939.32 93.6745 939.708 92.9974 940.484 92.6328C941.26 92.2682 942.206 92.0859 943.32 92.0859C943.482 92.0859 943.586 92.0885 943.633 92.0938C943.68 92.0938 943.784 92.099 943.945 92.1094C944.107 92.1146 944.271 92.1224 944.438 92.1328C944.438 91.5443 944.294 91.1068 944.008 90.8203C943.721 90.5339 943.279 90.3906 942.68 90.3906C941.773 90.3906 940.956 90.6797 940.227 91.2578L940.164 89.4766C941.013 89.1172 941.932 88.9375 942.922 88.9375C943.292 88.9375 943.659 88.974 944.023 89.0469C944.388 89.1198 944.724 89.2422 945.031 89.4141C945.344 89.5807 945.602 89.8047 945.805 90.0859C946.013 90.3672 946.148 90.6901 946.211 91.0547C946.279 91.4141 946.312 91.8438 946.312 92.3438C946.312 92.8594 946.312 93.3776 946.312 93.8984C946.318 94.4193 946.323 94.8958 946.328 95.3281C946.339 95.7552 946.359 96.3125 946.391 97ZM944.469 93.3984C944.417 93.388 944.336 93.3828 944.227 93.3828H943.977C943.529 93.3828 943.117 93.4089 942.742 93.4609C942.372 93.5078 942.047 93.6328 941.766 93.8359C941.49 94.0339 941.352 94.3255 941.352 94.7109C941.352 95.0234 941.474 95.2734 941.719 95.4609C941.969 95.6432 942.258 95.7344 942.586 95.7344C943.206 95.7344 943.674 95.5052 943.992 95.0469C944.31 94.5885 944.469 94.0391 944.469 93.3984ZM950.328 89.0781L950.375 90.3438C951.01 89.4167 951.901 88.9531 953.047 88.9531C954.109 88.9531 954.826 89.2682 955.195 89.8984C955.565 90.5234 955.75 91.4036 955.75 92.5391V97H953.703V93.0156C953.703 92.3125 953.612 91.7422 953.43 91.3047C953.253 90.8672 952.865 90.6484 952.266 90.6484C951.625 90.6484 951.174 90.9062 950.914 91.4219C950.654 91.9323 950.523 92.5391 950.523 93.2422V97H948.469V91.9609C948.469 90.8411 948.443 89.8802 948.391 89.0781H950.328ZM965.062 97H963.125L963.094 95.6562C962.859 96.1302 962.523 96.4948 962.086 96.75C961.654 97 961.164 97.125 960.617 97.125C960.044 97.125 959.542 97.013 959.109 96.7891C958.682 96.5599 958.336 96.2526 958.07 95.8672C957.805 95.4818 957.607 95.0443 957.477 94.5547C957.352 94.0651 957.289 93.5521 957.289 93.0156C957.289 92.3073 957.406 91.6432 957.641 91.0234C957.875 90.3984 958.237 89.8958 958.727 89.5156C959.221 89.1302 959.836 88.9375 960.57 88.9375C961.122 88.9375 961.604 89.0599 962.016 89.3047C962.427 89.5495 962.766 89.9115 963.031 90.3906C962.979 90.0052 962.953 89.5365 962.953 88.9844V85.4766H965V94.6953C965.01 95.2057 965.018 95.6536 965.023 96.0391C965.034 96.4245 965.047 96.7448 965.062 97ZM962.984 93.0938C962.984 92.6823 962.919 92.2943 962.789 91.9297C962.659 91.5599 962.453 91.2552 962.172 91.0156C961.896 90.7708 961.552 90.6484 961.141 90.6484C960.526 90.6484 960.083 90.8854 959.812 91.3594C959.547 91.8281 959.414 92.3958 959.414 93.0625C959.414 93.6875 959.562 94.2526 959.859 94.7578C960.156 95.263 960.594 95.5156 961.172 95.5156C961.562 95.5156 961.896 95.3984 962.172 95.1641C962.453 94.9245 962.659 94.6224 962.789 94.2578C962.919 93.888 962.984 93.5 962.984 93.0938ZM978.203 97H976.375L976.344 95.8125C976.099 96.2344 975.755 96.5599 975.312 96.7891C974.875 97.013 974.398 97.125 973.883 97.125C973.357 97.125 972.885 97.0339 972.469 96.8516C972.057 96.6693 971.732 96.3932 971.492 96.0234C971.253 95.6484 971.133 95.1953 971.133 94.6641C971.133 93.6745 971.521 92.9974 972.297 92.6328C973.073 92.2682 974.018 92.0859 975.133 92.0859C975.294 92.0859 975.398 92.0885 975.445 92.0938C975.492 92.0938 975.596 92.099 975.758 92.1094C975.919 92.1146 976.083 92.1224 976.25 92.1328C976.25 91.5443 976.107 91.1068 975.82 90.8203C975.534 90.5339 975.091 90.3906 974.492 90.3906C973.586 90.3906 972.768 90.6797 972.039 91.2578L971.977 89.4766C972.826 89.1172 973.745 88.9375 974.734 88.9375C975.104 88.9375 975.471 88.974 975.836 89.0469C976.201 89.1198 976.536 89.2422 976.844 89.4141C977.156 89.5807 977.414 89.8047 977.617 90.0859C977.826 90.3672 977.961 90.6901 978.023 91.0547C978.091 91.4141 978.125 91.8438 978.125 92.3438C978.125 92.8594 978.125 93.3776 978.125 93.8984C978.13 94.4193 978.135 94.8958 978.141 95.3281C978.151 95.7552 978.172 96.3125 978.203 97ZM976.281 93.3984C976.229 93.388 976.148 93.3828 976.039 93.3828H975.789C975.341 93.3828 974.93 93.4089 974.555 93.4609C974.185 93.5078 973.859 93.6328 973.578 93.8359C973.302 94.0339 973.164 94.3255 973.164 94.7109C973.164 95.0234 973.286 95.2734 973.531 95.4609C973.781 95.6432 974.07 95.7344 974.398 95.7344C975.018 95.7344 975.487 95.5052 975.805 95.0469C976.122 94.5885 976.281 94.0391 976.281 93.3984ZM992.672 89.0781L990.219 97H987.836L986.844 93.9297C986.62 93.2005 986.451 92.6172 986.336 92.1797C986.221 91.737 986.13 91.2474 986.062 90.7109C986 91.0651 985.935 91.388 985.867 91.6797C985.799 91.9661 985.716 92.2995 985.617 92.6797C985.518 93.0599 985.427 93.4167 985.344 93.75L984.352 97H981.992L979.305 89.0781H981.469L982.398 91.9297C982.826 93.2526 983.112 94.4089 983.258 95.3984C983.341 94.8359 983.438 94.3151 983.547 93.8359C983.661 93.3568 983.799 92.8385 983.961 92.2812L984.906 89.0781H987.273L988.398 92.6484C988.716 93.6172 988.935 94.5234 989.055 95.3672C989.174 94.4922 989.375 93.5755 989.656 92.6172L990.688 89.0781H992.672ZM1000.48 97H998.656L998.625 95.8125C998.38 96.2344 998.036 96.5599 997.594 96.7891C997.156 97.013 996.68 97.125 996.164 97.125C995.638 97.125 995.167 97.0339 994.75 96.8516C994.339 96.6693 994.013 96.3932 993.773 96.0234C993.534 95.6484 993.414 95.1953 993.414 94.6641C993.414 93.6745 993.802 92.9974 994.578 92.6328C995.354 92.2682 996.299 92.0859 997.414 92.0859C997.576 92.0859 997.68 92.0885 997.727 92.0938C997.773 92.0938 997.878 92.099 998.039 92.1094C998.201 92.1146 998.365 92.1224 998.531 92.1328C998.531 91.5443 998.388 91.1068 998.102 90.8203C997.815 90.5339 997.372 90.3906 996.773 90.3906C995.867 90.3906 995.049 90.6797 994.32 91.2578L994.258 89.4766C995.107 89.1172 996.026 88.9375 997.016 88.9375C997.385 88.9375 997.753 88.974 998.117 89.0469C998.482 89.1198 998.818 89.2422 999.125 89.4141C999.438 89.5807 999.695 89.8047 999.898 90.0859C1000.11 90.3672 1000.24 90.6901 1000.3 91.0547C1000.37 91.4141 1000.41 91.8438 1000.41 92.3438C1000.41 92.8594 1000.41 93.3776 1000.41 93.8984C1000.41 94.4193 1000.42 94.8958 1000.42 95.3281C1000.43 95.7552 1000.45 96.3125 1000.48 97ZM998.562 93.3984C998.51 93.388 998.43 93.3828 998.32 93.3828H998.07C997.622 93.3828 997.211 93.4089 996.836 93.4609C996.466 93.5078 996.141 93.6328 995.859 93.8359C995.583 94.0339 995.445 94.3255 995.445 94.7109C995.445 95.0234 995.568 95.2734 995.812 95.4609C996.062 95.6432 996.352 95.7344 996.68 95.7344C997.299 95.7344 997.768 95.5052 998.086 95.0469C998.404 94.5885 998.562 94.0391 998.562 93.3984ZM1004.53 97H1002.48V89.0781H1004.53V97ZM1004.56 87.6406H1002.45V85.7031H1004.56V87.6406ZM1011.04 95.3047L1011.11 96.9062C1010.59 97.0104 1010.13 97.0625 1009.73 97.0625C1009.05 97.0625 1008.52 96.9401 1008.13 96.6953C1007.74 96.4453 1007.47 96.0938 1007.31 95.6406C1007.16 95.1823 1007.08 94.6224 1007.08 93.9609V90.6484H1005.59V89.125H1007.11V87.5156L1009.16 86.8438V89.125H1010.96V90.6484H1009.16V93.5312C1009.16 94.1458 1009.22 94.6146 1009.35 94.9375C1009.49 95.2552 1009.82 95.4141 1010.34 95.4141C1010.53 95.4141 1010.76 95.3776 1011.04 95.3047ZM1019.03 97H1016.98V90.6484H1015.4V89.125H1016.98C1016.99 88.4792 1017.02 87.9688 1017.07 87.5938C1017.12 87.2135 1017.24 86.8568 1017.44 86.5234C1017.68 86.1432 1018.02 85.8672 1018.44 85.6953C1018.86 85.5182 1019.33 85.4297 1019.82 85.4297C1020.2 85.4297 1020.56 85.4792 1020.92 85.5781L1020.8 87.2266C1020.59 87.1589 1020.39 87.125 1020.19 87.125C1019.84 87.125 1019.59 87.2266 1019.41 87.4297C1019.24 87.6276 1019.14 87.862 1019.09 88.1328C1019.05 88.3984 1019.03 88.7292 1019.03 89.125H1020.83V90.6484H1019.03V97ZM1029.91 93.1094C1029.91 93.7188 1029.82 94.2786 1029.62 94.7891C1029.42 95.2943 1029.14 95.7266 1028.77 96.0859C1028.41 96.4401 1027.98 96.7161 1027.48 96.9141C1026.97 97.112 1026.41 97.2109 1025.79 97.2109C1024.97 97.2109 1024.25 97.0339 1023.63 96.6797C1023.01 96.3255 1022.53 95.8255 1022.2 95.1797C1021.86 94.5339 1021.7 93.8073 1021.7 93C1021.7 92.1927 1021.87 91.4766 1022.21 90.8516C1022.55 90.2266 1023.04 89.7422 1023.66 89.3984C1024.28 89.0495 1025 88.875 1025.8 88.875C1026.43 88.875 1026.99 88.9792 1027.5 89.1875C1028.01 89.3958 1028.45 89.6927 1028.8 90.0781C1029.16 90.4583 1029.44 90.9062 1029.62 91.4219C1029.82 91.9375 1029.91 92.5 1029.91 93.1094ZM1027.79 93.0625C1027.79 92.6354 1027.72 92.2161 1027.58 91.8047C1027.44 91.3932 1027.22 91.0547 1026.92 90.7891C1026.62 90.5234 1026.25 90.3906 1025.8 90.3906C1025.38 90.3906 1025.02 90.5208 1024.71 90.7812C1024.41 91.0417 1024.18 91.375 1024.04 91.7812C1023.89 92.1823 1023.82 92.5885 1023.82 93C1023.82 93.4427 1023.89 93.8698 1024.02 94.2812C1024.16 94.6927 1024.39 95.0312 1024.69 95.2969C1024.99 95.5573 1025.37 95.6875 1025.84 95.6875C1026.16 95.6875 1026.45 95.6094 1026.7 95.4531C1026.95 95.2917 1027.16 95.0885 1027.31 94.8438C1027.47 94.5938 1027.59 94.3151 1027.66 94.0078C1027.75 93.6953 1027.79 93.3802 1027.79 93.0625ZM1033.66 97H1031.61V91.4609C1031.58 90.1432 1031.56 89.349 1031.55 89.0781H1033.41L1033.45 91.0781C1033.63 90.4531 1033.9 89.9531 1034.26 89.5781C1034.62 89.2031 1035.1 89.0156 1035.68 89.0156C1035.86 89.0156 1036.06 89.0417 1036.28 89.0938V91.0156C1036.01 90.9427 1035.77 90.9062 1035.56 90.9062C1035.08 90.9062 1034.69 91.0339 1034.41 91.2891C1034.12 91.5443 1033.92 91.8724 1033.81 92.2734C1033.71 92.6693 1033.66 93.1042 1033.66 93.5781V93.7344V97ZM1043.95 89.0781L1044 90.2812C1044.26 89.8646 1044.6 89.5391 1045.03 89.3047C1045.47 89.0703 1045.94 88.9531 1046.45 88.9531C1047 88.9531 1047.45 89.0677 1047.81 89.2969C1048.18 89.5208 1048.47 89.875 1048.69 90.3594C1048.95 89.9062 1049.3 89.5599 1049.74 89.3203C1050.18 89.0755 1050.67 88.9531 1051.2 88.9531C1052.19 88.9531 1052.85 89.2656 1053.2 89.8906C1053.54 90.5104 1053.71 91.349 1053.71 92.4062V97H1051.66V93.1562V92.8438C1051.66 92.2031 1051.59 91.6771 1051.44 91.2656C1051.29 90.8542 1050.97 90.6484 1050.47 90.6484C1049.43 90.6484 1048.91 91.5443 1048.91 93.3359V97H1046.87V92.9375V92.375C1046.87 91.9167 1046.78 91.5156 1046.6 91.1719C1046.42 90.8229 1046.12 90.6484 1045.68 90.6484C1045.11 90.6484 1044.71 90.8906 1044.47 91.375C1044.23 91.8542 1044.11 92.4062 1044.11 93.0312V97H1042.06V91.0156C1042.06 90.2917 1042.04 89.6458 1042 89.0781H1043.95ZM1063.48 93.1094C1063.48 93.7188 1063.38 94.2786 1063.18 94.7891C1062.98 95.2943 1062.7 95.7266 1062.34 96.0859C1061.98 96.4401 1061.54 96.7161 1061.04 96.9141C1060.53 97.112 1059.97 97.2109 1059.35 97.2109C1058.53 97.2109 1057.82 97.0339 1057.2 96.6797C1056.58 96.3255 1056.1 95.8255 1055.76 95.1797C1055.42 94.5339 1055.26 93.8073 1055.26 93C1055.26 92.1927 1055.43 91.4766 1055.77 90.8516C1056.12 90.2266 1056.6 89.7422 1057.22 89.3984C1057.84 89.0495 1058.56 88.875 1059.37 88.875C1059.99 88.875 1060.56 88.9792 1061.06 89.1875C1061.57 89.3958 1062.01 89.6927 1062.37 90.0781C1062.73 90.4583 1063 90.9062 1063.19 91.4219C1063.38 91.9375 1063.48 92.5 1063.48 93.1094ZM1061.35 93.0625C1061.35 92.6354 1061.28 92.2161 1061.14 91.8047C1061.01 91.3932 1060.79 91.0547 1060.48 90.7891C1060.18 90.5234 1059.81 90.3906 1059.37 90.3906C1058.95 90.3906 1058.58 90.5208 1058.27 90.7812C1057.97 91.0417 1057.75 91.375 1057.6 91.7812C1057.46 92.1823 1057.38 92.5885 1057.38 93C1057.38 93.4427 1057.45 93.8698 1057.59 94.2812C1057.73 94.6927 1057.95 95.0312 1058.25 95.2969C1058.55 95.5573 1058.93 95.6875 1059.4 95.6875C1059.73 95.6875 1060.02 95.6094 1060.27 95.4531C1060.52 95.2917 1060.72 95.0885 1060.88 94.8438C1061.03 94.5938 1061.15 94.3151 1061.23 94.0078C1061.31 93.6953 1061.35 93.3802 1061.35 93.0625ZM1067.22 97H1065.17V91.4609C1065.15 90.1432 1065.12 89.349 1065.11 89.0781H1066.97L1067.02 91.0781C1067.19 90.4531 1067.46 89.9531 1067.82 89.5781C1068.18 89.2031 1068.66 89.0156 1069.24 89.0156C1069.42 89.0156 1069.62 89.0417 1069.84 89.0938V91.0156C1069.57 90.9427 1069.33 90.9062 1069.12 90.9062C1068.64 90.9062 1068.26 91.0339 1067.97 91.2891C1067.68 91.5443 1067.48 91.8724 1067.38 92.2734C1067.27 92.6693 1067.22 93.1042 1067.22 93.5781V93.7344V97ZM1077.48 94.8906L1077.51 96.6641C1076.67 97.0286 1075.76 97.2109 1074.79 97.2109C1074.14 97.2109 1073.56 97.1198 1073.05 96.9375C1072.54 96.75 1072.11 96.4766 1071.75 96.1172C1071.39 95.7526 1071.12 95.3151 1070.93 94.8047C1070.74 94.2891 1070.65 93.7031 1070.65 93.0469C1070.65 92.4427 1070.73 91.888 1070.91 91.3828C1071.08 90.8724 1071.34 90.4323 1071.66 90.0625C1071.99 89.6875 1072.4 89.3958 1072.88 89.1875C1073.36 88.9792 1073.91 88.875 1074.52 88.875C1075.11 88.875 1075.63 88.9818 1076.09 89.1953C1076.54 89.4089 1076.91 89.7031 1077.19 90.0781C1077.47 90.4531 1077.69 90.888 1077.83 91.3828C1077.97 91.8724 1078.04 92.4115 1078.04 93C1078.04 93.1042 1078.04 93.1823 1078.03 93.2344C1078.03 93.2865 1078.02 93.3516 1078.02 93.4297C1078.01 93.5078 1078 93.599 1077.99 93.7031H1072.66C1072.72 94.3281 1072.96 94.8151 1073.39 95.1641C1073.83 95.513 1074.37 95.6875 1075.02 95.6875C1075.74 95.6875 1076.57 95.4219 1077.48 94.8906ZM1076.09 92.2812C1076.08 91.9271 1076.01 91.6016 1075.89 91.3047C1075.78 91.0078 1075.6 90.7682 1075.35 90.5859C1075.11 90.4036 1074.81 90.3125 1074.45 90.3125C1074.08 90.3125 1073.77 90.4036 1073.5 90.5859C1073.24 90.763 1073.04 91 1072.89 91.2969C1072.75 91.5938 1072.66 91.9219 1072.63 92.2812H1076.09Z" fill="black"/>
</svg>
