<svg width="384" height="384" viewBox="0 0 384 384" fill="none" xmlns="http://www.w3.org/2000/svg">
<path d="M74.0225 311.415V317.175H117.261V311.415H74.0225Z" fill="#E0E0E0"/>
<path d="M79.9488 311.654C80.1024 311.654 80.256 312.883 80.256 314.342C80.256 315.802 80.1024 317.03 79.9488 317.03C79.7952 317.03 79.6416 315.802 79.6416 314.342C79.6416 312.883 79.7952 311.654 79.9488 311.654Z" fill="#FAFAFA"/>
<path d="M78.9504 311.501C79.104 311.501 79.2576 312.73 79.2576 314.189C79.2576 315.648 79.104 316.877 78.9504 316.877C78.7968 316.877 78.6432 315.648 78.6432 314.189C78.72 312.73 78.7968 311.501 78.9504 311.501Z" fill="#FAFAFA"/>
<path d="M113.894 311.654C114.048 311.654 114.202 312.883 114.202 314.342C114.202 315.802 114.048 317.03 113.894 317.03C113.741 317.03 113.587 315.802 113.587 314.342C113.664 312.883 113.741 311.654 113.894 311.654Z" fill="#FAFAFA"/>
<path d="M112.973 311.501C113.126 311.501 113.28 312.73 113.28 314.189C113.28 315.648 113.126 316.877 112.973 316.877C112.819 316.877 112.666 315.648 112.666 314.189C112.742 312.73 112.819 311.501 112.973 311.501Z" fill="#FAFAFA"/>
<path d="M107.366 314.496C107.366 314.65 102.451 314.803 96.3072 314.803C90.1632 314.803 85.248 314.65 85.248 314.496C85.248 314.342 90.1632 314.189 96.3072 314.189C102.374 314.189 107.366 314.342 107.366 314.496Z" fill="#FAFAFA"/>
<path d="M73.8158 337.436V348.956H117.054V337.436H73.8158Z" fill="#E0E0E0"/>
<path d="M117.658 345.754C117.658 345.754 117.581 345.83 117.427 345.907C117.274 345.984 117.043 346.138 116.736 346.214C116.122 346.445 115.123 346.829 113.818 347.059C112.512 347.213 110.746 347.29 109.056 346.368C108.211 345.907 107.443 345.216 106.829 344.294C106.214 343.373 105.83 342.221 106.061 340.992C106.138 340.378 106.445 339.763 106.829 339.302C107.29 338.765 107.904 338.458 108.672 338.458C109.363 338.458 110.054 338.918 110.515 339.456C110.976 339.994 111.283 340.685 111.36 341.453C111.514 342.912 110.899 344.448 109.901 345.523C108.902 346.675 107.366 347.366 105.754 347.52C104.141 347.674 102.528 347.443 100.915 346.906C99.3792 346.368 97.7664 345.446 96.6912 344.064C96.1536 343.373 95.7696 342.528 95.6928 341.606C95.616 340.685 95.9232 339.686 96.6144 338.995C96.9984 338.688 97.4592 338.458 97.9968 338.381C98.5344 338.381 98.9952 338.534 99.3792 338.765C100.224 339.302 100.762 340.147 100.992 341.069C101.376 342.989 100.685 344.909 99.3024 346.138C97.92 347.366 96.1536 347.904 94.464 348.134C92.7744 348.288 91.008 348.211 89.3952 347.674C87.7824 347.136 86.4 346.138 85.5552 344.678C84.7104 343.296 84.48 341.53 85.0944 340.07C85.4016 339.379 86.0928 338.688 86.8608 338.611C87.6288 338.458 88.4736 338.688 89.0112 339.149C90.24 340.147 90.4704 341.76 90.0096 343.066C89.6256 344.371 88.704 345.37 87.8592 346.138C86.016 347.674 83.7888 348.365 81.9456 348.442C80.0256 348.518 78.4128 347.981 77.2608 347.366C76.1088 346.752 75.264 346.061 74.8032 345.523C74.5728 345.293 74.4192 345.062 74.2656 344.909C74.1888 344.755 74.112 344.678 74.112 344.678C74.1888 344.602 74.9568 345.907 77.3376 347.136C78.4896 347.674 80.1024 348.211 81.9456 348.058C83.7888 347.981 85.8624 347.29 87.6288 345.754C88.4736 344.986 89.3184 344.064 89.6256 342.835C90.0096 341.683 89.7792 340.224 88.704 339.456C88.1664 339.072 87.552 338.918 86.8608 338.995C86.2464 339.072 85.7088 339.61 85.4784 340.224C84.9408 341.53 85.1712 343.066 85.9392 344.371C86.7072 345.677 88.0128 346.598 89.5488 347.136C91.0848 347.674 92.6976 347.75 94.3872 347.597C96 347.443 97.6896 346.906 98.9184 345.754C100.147 344.678 100.838 342.835 100.454 341.222C100.224 340.378 99.7632 339.686 99.072 339.226C98.3808 338.765 97.536 338.765 96.9984 339.379C96.4608 339.917 96.1536 340.762 96.2304 341.53C96.3072 342.298 96.6144 343.066 97.0752 343.757C98.0736 345.062 99.5328 345.907 101.069 346.445C102.605 346.982 104.141 347.213 105.677 347.059C107.213 346.906 108.595 346.291 109.517 345.216C110.515 344.218 111.053 342.835 110.899 341.53C110.822 340.224 109.824 338.995 108.672 338.918C108.058 338.918 107.52 339.149 107.136 339.61C106.752 340.07 106.522 340.608 106.445 341.146C106.291 342.298 106.598 343.373 107.136 344.218C107.674 345.062 108.442 345.754 109.286 346.214C110.899 347.136 112.589 347.136 113.894 346.982C115.2 346.829 116.198 346.445 116.813 346.214C117.274 345.83 117.658 345.677 117.658 345.754Z" fill="#FAFAFA"/>
<path d="M77.6646 317.327V337.372H117.063V317.327H77.6646Z" fill="#EBEBEB"/>
<path d="M84.2496 318.029C84.4032 318.029 84.5568 322.406 84.5568 327.706C84.5568 333.082 84.4032 337.382 84.2496 337.382C84.096 337.382 83.9424 333.005 83.9424 327.706C83.9424 322.406 84.096 318.029 84.2496 318.029Z" fill="#E0E0E0"/>
<path d="M87.2448 317.798C87.3984 317.798 87.552 322.099 87.552 327.398C87.552 332.698 87.3984 336.998 87.2448 336.998C87.0912 336.998 86.9376 332.698 86.9376 327.398C86.9376 322.099 87.0912 317.798 87.2448 317.798Z" fill="#E0E0E0"/>
<path d="M112.589 317.184C112.742 317.184 112.896 321.715 112.896 327.245C112.896 332.851 112.742 337.306 112.589 337.306C112.435 337.306 112.282 332.774 112.282 327.245C112.358 321.638 112.512 317.184 112.589 317.184Z" fill="#E0E0E0"/>
<path d="M109.133 317.414C109.286 317.414 109.44 321.792 109.44 327.245C109.44 332.698 109.286 337.075 109.133 337.075C108.979 337.075 108.826 332.698 108.826 327.245C108.826 321.792 108.979 317.414 109.133 317.414Z" fill="#E0E0E0"/>
<path d="M321.101 273.638C325.171 271.565 330.01 271.257 334.541 272.025C336.998 272.409 339.533 273.177 341.146 275.021C342.835 276.864 343.142 280.089 341.222 281.625C340.07 282.547 338.534 282.701 337.075 282.701C333.542 282.624 329.626 282.009 326.784 284.16C325.171 285.389 324.096 287.385 322.176 288C320.256 288.614 318.182 287.462 317.184 285.773C316.186 284.083 316.186 281.933 316.646 280.013C316.493 279.936 316.954 275.712 321.101 273.638Z" fill="#EBEBEB"/>
<path d="M311.731 255.514C314.189 259.046 319.104 257.894 321.331 255.744C323.558 253.594 324.557 250.445 325.402 247.373C327.398 240.538 329.395 233.318 327.936 226.33C327.475 224.256 326.707 222.182 325.248 220.57C323.789 219.034 321.485 218.112 319.488 218.65C317.03 219.264 315.494 221.722 314.419 223.949C311.194 230.63 309.504 238.08 309.427 245.53C309.35 249.062 309.734 252.672 311.731 255.514Z" fill="#EBEBEB"/>
<path d="M304.896 260.659C307.584 257.433 308.122 252.749 306.893 248.755C305.664 244.761 302.976 241.305 299.827 238.464C296.141 235.161 291.84 232.627 287.155 231.014C285.312 230.4 283.392 229.862 281.472 230.016C279.552 230.169 277.632 231.168 276.71 232.934C275.405 235.469 276.634 238.541 278.016 241.075C280.474 245.529 283.238 249.753 286.31 253.747C288.768 256.973 291.686 260.121 295.45 261.581C299.213 263.04 303.206 262.886 305.203 260.198" fill="#EBEBEB"/>
<path d="M311.578 309.35C311.654 309.35 311.731 308.813 311.808 307.738C311.885 306.586 312.038 305.05 312.269 303.283C312.499 301.44 312.73 299.213 313.267 296.832C313.805 294.451 314.573 291.84 315.648 289.152C316.723 286.541 318.029 284.16 319.565 282.24C321.101 280.32 322.867 278.938 324.48 278.17C326.17 277.325 327.629 277.018 328.627 276.864C329.626 276.787 330.24 276.71 330.24 276.634C330.24 276.557 329.626 276.557 328.627 276.634C327.552 276.71 326.016 276.941 324.326 277.786C322.56 278.554 320.717 279.936 319.104 281.933C317.491 283.853 316.109 286.31 315.034 288.998C313.958 291.686 313.19 294.298 312.73 296.755C312.269 299.213 312.038 301.44 311.885 303.36C311.731 305.203 311.654 306.739 311.654 307.814C311.501 308.736 311.501 309.35 311.578 309.35Z" fill="#E0E0E0"/>
<path d="M311.885 305.894C311.885 305.894 311.885 305.664 311.962 305.126C311.962 304.589 311.962 303.821 311.962 302.976C311.962 301.133 311.962 298.445 312.038 295.066C312.192 288.384 312.806 281.242 313.882 271.104C314.957 261.581 316.339 250.522 317.798 243.302C318.106 241.69 318.413 240.23 318.72 238.925C319.027 237.619 319.258 236.544 319.488 235.622C319.718 234.778 319.872 234.086 320.026 233.549C320.102 233.088 320.179 232.781 320.179 232.781C320.179 232.781 320.102 233.011 319.949 233.472C319.795 234.01 319.565 234.701 319.334 235.546C319.027 236.467 318.797 237.542 318.413 238.848C318.106 240.154 317.722 241.613 317.338 243.226C315.878 249.754 314.342 258.893 313.19 269.03C312.115 279.168 311.578 288.384 311.501 295.066C311.424 298.445 311.501 301.133 311.654 302.976C311.731 303.821 311.731 304.589 311.808 305.126C311.808 305.664 311.808 305.894 311.885 305.894Z" fill="#E0E0E0"/>
<path d="M311.885 288.154C311.962 288.154 311.962 287.386 311.885 285.926C311.808 284.467 311.578 282.394 311.194 279.859C310.733 277.325 310.195 274.253 309.197 271.027C308.813 269.491 307.814 265.958 305.51 260.506C302.438 253.21 298.291 247.219 294.605 243.533C293.76 242.534 292.838 241.843 292.07 241.152C291.686 240.845 291.302 240.461 290.995 240.23C290.611 240 290.304 239.77 289.997 239.539C288.768 238.694 288.154 238.31 288.077 238.31C288 238.464 290.765 240.077 294.298 243.84C297.83 247.603 301.824 253.517 304.896 260.736C306.586 264.653 307.814 268.186 308.659 271.104C309.658 274.33 310.272 277.325 310.733 279.859C311.194 282.394 311.501 284.467 311.654 285.85C311.731 287.309 311.885 288.154 311.885 288.154Z" fill="#E0E0E0"/>
<path d="M293.53 316.8L295.296 341.299H326.707L328.474 316.8H293.53Z" fill="#EBEBEB"/>
<path d="M332.237 307.2H290.458V316.8H332.237V307.2Z" fill="#EBEBEB"/>
<path d="M290.458 340.301V342.989H292.454H331.546V340.301H290.458Z" fill="#E0E0E0"/>
<path d="M294.374 347.366L292.454 342.682H330.01L327.782 347.366H294.374Z" fill="#E0E0E0"/>
<path d="M327.859 324.787C327.859 324.787 327.782 324.864 327.706 325.018C327.552 325.171 327.398 325.402 327.245 325.632C326.784 326.17 326.17 327.014 325.402 327.936L325.325 328.013L325.248 327.936C324.096 326.323 322.56 324.25 320.717 321.715H320.947C319.642 323.635 318.106 325.709 316.493 328.013L316.339 328.243L316.186 328.09C314.573 326.17 312.806 324.019 310.963 321.869H311.27C311.194 321.946 311.117 322.099 310.963 322.253C309.35 324.326 307.738 326.246 306.278 328.166L306.125 328.397L305.971 328.166C304.358 325.939 302.899 323.789 301.517 321.869H301.747C299.597 324.326 297.754 326.477 296.294 328.09L296.218 328.166L296.141 328.013C295.45 326.784 294.835 325.862 294.451 325.171C294.298 324.864 294.144 324.634 293.99 324.403C293.914 324.25 293.837 324.173 293.837 324.096C293.837 324.096 293.914 324.173 293.99 324.326C294.144 324.557 294.298 324.787 294.451 325.094C294.912 325.786 295.526 326.707 296.218 327.936H296.064C297.446 326.323 299.29 324.173 301.44 321.638L301.594 321.485L301.747 321.638C303.13 323.558 304.589 325.632 306.202 327.859H305.894C307.354 326.016 308.966 324.019 310.579 321.946C310.656 321.792 310.81 321.715 310.886 321.562L311.04 321.408L311.194 321.562C313.037 323.789 314.803 325.862 316.416 327.782H316.109C317.722 325.555 319.258 323.405 320.563 321.562L320.717 321.408L320.87 321.562C322.637 324.096 324.173 326.246 325.248 327.859H325.094C325.862 326.861 326.554 326.17 327.014 325.555C327.245 325.325 327.398 325.094 327.552 324.941C327.782 324.864 327.859 324.787 327.859 324.787Z" fill="#F5F5F5"/>
<path d="M328.934 316.646C328.934 316.723 321.101 316.877 311.347 316.877C301.67 316.877 293.76 316.8 293.76 316.646C293.76 316.569 301.594 316.416 311.347 316.416C321.024 316.493 328.934 316.569 328.934 316.646Z" fill="#F5F5F5"/>
<path d="M149.914 62.0544C149.914 62.0544 149.837 62.0544 149.76 61.9776C149.606 61.9008 149.453 61.824 149.222 61.7472C148.762 61.5168 148.07 61.2864 147.302 60.9024C145.613 60.1344 143.155 59.136 140.237 57.8304C134.246 55.2192 125.952 51.6096 116.89 47.6928C116.582 47.5392 116.352 47.4624 116.045 47.3088H116.198C107.213 51.1488 99.1488 54.6048 93.312 57.0624C90.3936 58.2912 88.0896 59.2896 86.4 59.9808C85.632 60.288 84.9408 60.5952 84.48 60.7488C84.0192 60.9024 83.7888 60.9792 83.7888 60.9792C83.7888 60.9792 84.0192 60.8256 84.4032 60.672C84.864 60.4416 85.4784 60.2112 86.2464 59.8272C87.936 59.0592 90.24 58.0608 93.0816 56.832C98.9184 54.2976 106.982 50.8416 115.891 46.9248H115.968H116.045C116.275 47.0016 116.582 47.1552 116.89 47.3088C125.952 51.3024 134.17 54.912 140.16 57.6C143.078 58.9056 145.536 59.9808 147.226 60.7488C147.994 61.1328 148.685 61.44 149.146 61.5936C149.376 61.6704 149.53 61.7472 149.606 61.824C149.837 62.0544 149.914 62.0544 149.914 62.0544Z" fill="#E0E0E0"/>
<path d="M186.317 58.752H36.3264V171.034H186.317V58.752Z" fill="#E0E0E0"/>
<path d="M181.709 63.9744H41.6256V166.426H181.709V63.9744Z" fill="#FAFAFA"/>
<path d="M72.576 108.749C72.576 108.749 72.7296 125.952 73.5744 131.174L95.1552 130.176C95.1552 130.176 93.2352 113.28 94.0032 108.749H72.576Z" fill="#E0E0E0"/>
<path d="M83.1744 111.13C83.1744 111.13 83.1744 111.13 83.2512 111.13C83.328 111.13 83.4048 111.13 83.4816 111.13C83.712 111.13 84.0192 111.13 84.4032 111.206C84.7872 111.283 85.248 111.36 85.7856 111.59C86.3232 111.821 86.784 112.205 87.2448 112.742C87.7056 113.28 88.0896 113.971 88.2432 114.816C88.3968 115.661 88.32 116.582 88.0128 117.504C87.8592 117.965 87.6288 118.426 87.3984 118.81C87.168 119.27 86.9376 119.654 86.7072 120.192C86.3232 121.114 85.9392 122.189 85.8624 123.264V123.341H85.7856C85.0944 123.341 84.4032 123.341 83.6352 123.341C82.8672 123.341 82.0992 123.341 81.408 123.341H81.3312V123.264C81.3312 122.189 80.7936 121.19 80.3328 120.346C80.1024 119.885 79.7952 119.501 79.488 119.04C79.2576 118.656 78.9504 118.272 78.72 117.811C78.2592 116.966 78.2592 115.968 78.4128 115.2C78.5664 114.355 78.8736 113.664 79.2576 113.05C79.6416 112.435 80.1792 112.051 80.64 111.821C81.1008 111.514 81.5616 111.437 81.9456 111.283C82.3296 111.206 82.6368 111.13 82.7904 111.13C82.8672 111.13 82.944 111.13 83.0208 111.13C83.1744 111.13 83.1744 111.13 83.1744 111.13C83.1744 111.13 83.1744 111.13 83.0976 111.13C83.0208 111.13 82.944 111.13 82.8672 111.13C82.6368 111.13 82.4064 111.206 82.0224 111.283C81.6384 111.36 81.1776 111.514 80.7168 111.821C80.256 112.128 79.7184 112.512 79.3344 113.05C78.9504 113.587 78.72 114.355 78.5664 115.123C78.4128 115.891 78.4896 116.813 78.8736 117.658C79.104 118.042 79.3344 118.426 79.6416 118.886C79.872 119.27 80.1792 119.731 80.4864 120.192C81.024 121.114 81.4848 122.112 81.5616 123.187L81.4848 123.11C82.176 123.11 82.944 123.11 83.712 123.11C84.48 123.11 85.1712 123.11 85.8624 123.11L85.7856 123.187C85.9392 122.035 86.2464 121.037 86.7072 120.115C86.9376 119.654 87.168 119.194 87.3984 118.733C87.6288 118.272 87.8592 117.888 88.0128 117.427C88.32 116.582 88.3968 115.661 88.2432 114.816C88.0896 114.048 87.7056 113.357 87.2448 112.742C86.784 112.205 86.3232 111.821 85.7856 111.59C85.3248 111.36 84.7872 111.206 84.48 111.13C84.096 111.053 83.7888 111.053 83.5584 111.053C83.4816 111.053 83.4048 111.053 83.328 111.053C83.1744 111.13 83.1744 111.13 83.1744 111.13Z" fill="white"/>
<path d="M84.2496 123.11C84.2496 122.957 84.2496 122.957 84.1728 122.88C84.1728 122.726 84.096 122.419 84.0192 122.112C83.9424 121.421 83.7888 120.499 83.712 119.27C83.712 118.963 83.6352 118.656 83.6352 118.349C83.6352 118.042 83.6352 117.658 83.6352 117.35C83.6352 116.966 83.712 116.582 83.8656 116.275C84.0192 115.968 84.3264 115.584 84.7104 115.43C85.0944 115.277 85.5552 115.354 85.8624 115.661C86.016 115.814 86.0928 116.045 86.0928 116.275C86.0928 116.506 86.016 116.736 85.8624 116.89C85.7088 117.043 85.5552 117.197 85.3248 117.274C85.0944 117.35 84.9408 117.427 84.7104 117.504C84.2496 117.581 83.7888 117.658 83.328 117.658C82.8672 117.658 82.4064 117.658 81.9456 117.581C81.7152 117.581 81.4848 117.504 81.3312 117.427C81.1008 117.35 80.9472 117.197 80.7936 117.043C80.64 116.89 80.5632 116.659 80.4864 116.429C80.4096 116.198 80.4864 115.968 80.5632 115.814C80.64 115.584 80.7936 115.43 81.024 115.354C81.2544 115.277 81.4848 115.277 81.6384 115.354C81.792 115.43 81.9456 115.584 82.0992 115.738C82.176 115.891 82.2528 116.122 82.3296 116.275C82.4064 116.659 82.4064 117.043 82.4064 117.35C82.4064 118.042 82.4832 118.733 82.4832 119.347C82.56 120.576 82.56 121.498 82.6368 122.189C82.6368 122.496 82.6368 122.803 82.6368 122.957C82.6368 123.034 82.6368 123.11 82.6368 123.187C82.6368 123.264 82.6368 123.264 82.6368 123.264C82.6368 123.264 82.6368 123.264 82.6368 123.187C82.6368 123.11 82.6368 123.034 82.6368 122.957C82.6368 122.803 82.6368 122.496 82.56 122.189C82.4832 121.498 82.4832 120.499 82.4064 119.347C82.4064 118.733 82.3296 118.118 82.3296 117.35C82.3296 116.966 82.3296 116.659 82.2528 116.275C82.176 116.122 82.176 115.891 82.0224 115.738C81.9456 115.584 81.792 115.43 81.5616 115.354C81.408 115.277 81.1776 115.277 81.024 115.354C80.8704 115.43 80.7168 115.584 80.64 115.738C80.5632 115.891 80.4864 116.122 80.5632 116.352C80.64 116.582 80.7168 116.736 80.8704 116.89C81.1776 117.197 81.5616 117.35 82.0224 117.427C82.4832 117.504 82.944 117.504 83.4048 117.504C83.8656 117.504 84.3264 117.427 84.7872 117.35C85.0176 117.274 85.248 117.274 85.4016 117.12C85.632 117.043 85.7856 116.89 85.8624 116.736C86.016 116.582 86.0928 116.352 86.0928 116.122C86.0928 115.891 86.016 115.738 85.8624 115.584C85.5552 115.277 85.0944 115.2 84.7872 115.354C84.4032 115.507 84.1728 115.814 84.0192 116.122C83.8656 116.429 83.7888 116.813 83.7888 117.197C83.7888 117.581 83.7888 117.888 83.7888 118.195C83.7888 118.502 83.7888 118.81 83.8656 119.117C83.9424 120.346 84.096 121.267 84.1728 121.958C84.2496 122.266 84.2496 122.573 84.2496 122.726C84.2496 122.957 84.2496 123.034 84.2496 123.11Z" fill="white"/>
<path d="M81.408 123.264C81.408 123.264 81.408 123.494 81.4848 123.955C81.4848 124.493 81.5616 125.107 81.5616 125.798V125.722C82.0224 126.259 82.4832 126.797 83.0208 127.411H82.944C83.4816 127.411 84.0192 127.334 84.6336 127.334H84.5568C84.864 127.027 85.0944 126.643 85.4016 126.336C85.5552 126.182 85.7088 126.029 85.7856 125.798V125.875C85.7856 124.877 85.7088 123.955 85.7088 123.11L85.7856 123.187C84.5568 123.187 83.4816 123.187 82.6368 123.187C82.3296 123.187 82.0224 123.187 81.7152 123.187C81.5616 123.264 81.408 123.264 81.408 123.264C81.408 123.264 81.4848 123.264 81.7152 123.264C81.9456 123.264 82.2528 123.264 82.6368 123.187C83.4816 123.187 84.5568 123.11 85.8624 123.034H85.9392V123.11C85.9392 123.955 86.016 124.877 86.016 125.875C85.8624 126.029 85.7088 126.182 85.632 126.413C85.3248 126.797 85.0944 127.104 84.7872 127.411H84.7104C84.096 127.411 83.5584 127.488 83.0208 127.488H82.944C82.4064 126.874 81.9456 126.259 81.4848 125.798C81.4848 125.03 81.4848 124.416 81.4848 123.878C81.408 123.494 81.408 123.264 81.408 123.264Z" fill="white"/>
<path d="M85.7856 125.645C85.7856 125.645 85.7088 125.645 85.632 125.568C85.5552 125.491 85.4016 125.491 85.1712 125.414C84.7872 125.261 84.2496 125.184 83.6352 125.184C83.0208 125.184 82.4832 125.338 82.0992 125.491C81.9456 125.568 81.792 125.645 81.6384 125.722C81.5616 125.798 81.4848 125.798 81.4848 125.798C81.4848 125.798 81.5616 125.722 81.6384 125.722C81.7152 125.645 81.8688 125.568 82.0224 125.491C82.4064 125.338 82.944 125.184 83.5584 125.107C84.1728 125.107 84.7104 125.184 85.0944 125.338C85.248 125.414 85.4016 125.491 85.5552 125.568C85.7088 125.645 85.7856 125.645 85.7856 125.645Z" fill="white"/>
<path d="M85.7856 125.03C85.7856 125.03 85.7088 125.03 85.632 124.954C85.5552 124.877 85.4016 124.877 85.1712 124.8C84.7872 124.646 84.2496 124.57 83.6352 124.57C83.0208 124.57 82.4832 124.723 82.0992 124.877C81.9456 124.954 81.792 125.03 81.6384 125.107C81.5616 125.184 81.4848 125.184 81.4848 125.184C81.4848 125.184 81.5616 125.107 81.6384 125.107C81.7152 125.03 81.8688 124.954 82.0224 124.877C82.4064 124.723 82.944 124.57 83.5584 124.493C84.1728 124.493 84.7104 124.57 85.0944 124.723C85.248 124.8 85.4016 124.877 85.5552 124.954C85.7088 124.954 85.7856 125.03 85.7856 125.03Z" fill="white"/>
<path d="M85.7088 124.339C85.7088 124.339 85.632 124.339 85.5552 124.262C85.4784 124.186 85.3248 124.186 85.0944 124.109C84.7104 123.955 84.1728 123.878 83.5584 123.878C82.944 123.878 82.4064 124.032 82.0224 124.186C81.8688 124.262 81.7152 124.339 81.5616 124.416C81.4848 124.493 81.408 124.493 81.408 124.493C81.408 124.493 81.4848 124.416 81.5616 124.416C81.6384 124.339 81.792 124.262 81.9456 124.186C82.3296 124.032 82.8672 123.878 83.4816 123.802C84.096 123.802 84.6336 123.878 85.0176 124.032C85.1712 124.109 85.3248 124.186 85.4784 124.262C85.7088 124.339 85.7088 124.339 85.7088 124.339Z" fill="white"/>
<path d="M48.5376 80.64C48.5376 80.64 48.6912 97.8432 49.536 103.066L71.1168 102.067C71.1168 102.067 69.1968 85.1712 69.9648 80.64H48.5376Z" fill="#EBEBEB"/>
<path d="M66.6624 87.8592C66.6624 88.0128 63.4368 88.2432 59.4432 88.4736C55.4496 88.704 52.224 88.7808 52.224 88.704C52.224 88.5504 55.4496 88.32 59.4432 88.0896C63.4368 87.7824 66.6624 87.7056 66.6624 87.8592Z" fill="white"/>
<path d="M66.6624 91.4688C66.6624 91.6224 63.4368 91.8528 59.4432 92.0832C55.4496 92.3136 52.224 92.3904 52.224 92.3136C52.224 92.16 55.4496 91.9296 59.4432 91.6992C63.4368 91.4688 66.6624 91.392 66.6624 91.4688Z" fill="white"/>
<path d="M63.0528 95.0784C63.0528 95.232 61.2096 95.3856 58.9056 95.5392C56.6016 95.6928 54.7584 95.6928 54.7584 95.5392C54.7584 95.3856 56.6016 95.232 58.9056 95.0784C61.1328 94.9248 63.0528 94.9248 63.0528 95.0784Z" fill="white"/>
<path d="M47.4624 131.174C47.4624 131.174 47.616 148.378 48.4608 153.6L70.0416 152.602C70.0416 152.602 68.1216 135.706 68.8896 131.174H47.4624Z" fill="#EBEBEB"/>
<path d="M65.664 138.47C65.664 138.624 62.4384 138.854 58.4448 139.085C54.4512 139.315 51.2256 139.392 51.2256 139.315C51.2256 139.162 54.4512 138.931 58.4448 138.701C62.4384 138.394 65.664 138.317 65.664 138.47Z" fill="white"/>
<path d="M65.664 142.08C65.664 142.234 62.4384 142.464 58.4448 142.694C54.4512 142.925 51.2256 143.002 51.2256 142.925C51.2256 142.771 54.4512 142.541 58.4448 142.31C62.4384 142.08 65.664 141.926 65.664 142.08Z" fill="white"/>
<path d="M61.9776 145.69C61.9776 145.843 60.1344 145.997 57.8304 146.15C55.5264 146.304 53.6832 146.304 53.6832 146.15C53.6832 145.997 55.5264 145.843 57.8304 145.69C60.1344 145.536 61.9776 145.536 61.9776 145.69Z" fill="white"/>
<path d="M106.445 85.1712L108.595 134.784L170.496 135.552L167.731 85.7856L106.445 85.1712Z" fill="#EBEBEB"/>
<path d="M167.27 84.7872H105.754V131.251H167.27V84.7872Z" fill="#F5F5F5"/>
<path d="M167.27 131.251C167.27 131.251 167.27 130.944 167.27 130.406C167.27 129.869 167.27 129.024 167.27 127.949C167.27 125.798 167.27 122.573 167.194 118.579C167.194 110.515 167.117 98.9184 167.117 84.864L167.27 85.0176C149.914 85.0176 128.64 85.0176 105.754 85.0176L105.984 84.7872C105.984 101.53 105.984 117.35 105.984 131.251L105.83 131.098C124.032 131.174 139.392 131.174 150.221 131.174C155.597 131.174 159.898 131.251 162.816 131.251C164.275 131.251 165.427 131.251 166.195 131.251C166.579 131.251 166.886 131.251 167.04 131.251C167.117 131.251 167.27 131.251 167.27 131.251C167.27 131.251 167.194 131.251 166.963 131.251C166.733 131.251 166.502 131.251 166.118 131.251C165.35 131.251 164.275 131.251 162.816 131.251C159.898 131.251 155.597 131.251 150.221 131.328C139.392 131.328 123.955 131.405 105.754 131.405H105.6V131.251C105.6 117.35 105.6 101.53 105.6 84.7872V84.5568H105.83C128.717 84.5568 149.99 84.5568 167.347 84.5568H167.501V84.7104C167.501 98.7648 167.424 110.438 167.424 118.502C167.424 122.496 167.424 125.722 167.347 127.872C167.347 128.947 167.347 129.715 167.347 130.33C167.27 131.021 167.27 131.251 167.27 131.251Z" fill="#E0E0E0"/>
<path d="M138.086 94.6176H113.126V126.029H138.086V94.6176Z" fill="#F5F5F5"/>
<path d="M138.086 126.029C138.086 126.029 138.086 125.952 138.086 125.875C138.086 125.722 138.086 125.645 138.086 125.414C138.086 125.03 138.086 124.416 138.086 123.725C138.086 122.189 138.086 120.038 138.01 117.274C138.01 111.744 137.933 103.91 137.933 94.6176L138.086 94.7712C130.637 94.7712 122.112 94.7712 113.126 94.7712C113.05 94.848 113.51 94.3872 113.357 94.5408V94.6176V94.7712V95.0784V95.616V96.6912C113.357 97.3824 113.357 98.1504 113.357 98.8416C113.357 100.301 113.357 101.683 113.357 103.066C113.357 105.83 113.357 108.595 113.357 111.206C113.357 116.506 113.357 121.421 113.357 125.875L113.203 125.722C120.653 125.722 126.874 125.798 131.251 125.798C133.402 125.798 135.091 125.798 136.32 125.875C136.858 125.875 137.318 125.875 137.626 125.875C137.933 126.029 138.086 126.029 138.086 126.029C138.086 126.029 137.933 126.029 137.626 126.029C137.318 126.029 136.858 126.029 136.32 126.029C135.168 126.029 133.478 126.029 131.328 126.106C126.95 126.106 120.653 126.182 113.126 126.182H112.973V126.029C112.973 121.574 112.973 116.582 112.973 111.36C112.973 108.749 112.973 105.984 112.973 103.219C112.973 101.837 112.973 100.378 112.973 98.9952C112.973 98.304 112.973 97.536 112.973 96.8448V95.7696V95.232V94.9248V94.7712V94.6944C112.819 94.848 113.203 94.464 113.203 94.464C122.189 94.464 130.714 94.464 138.163 94.464H138.317V94.6176C138.24 103.987 138.24 111.821 138.24 117.35C138.24 120.115 138.163 122.266 138.163 123.725C138.163 124.416 138.163 125.03 138.163 125.414C138.163 125.568 138.163 125.722 138.163 125.875C138.086 126.029 138.086 126.029 138.086 126.029Z" fill="#E0E0E0"/>
<path d="M161.894 87.4752H114.125V92.0064H161.894V87.4752Z" fill="#F5F5F5"/>
<path d="M161.894 92.0063C161.894 92.0063 161.894 91.9295 161.894 91.6991C161.894 91.4687 161.894 91.1615 161.894 90.8543C161.894 90.0863 161.894 88.9343 161.818 87.5519L161.894 87.6287C153.83 87.7055 135.475 87.7823 114.125 87.7823C114.509 87.3215 114.278 87.6287 114.355 87.5519V87.6287V87.7823V88.0895V88.7039C114.355 89.0879 114.355 89.4719 114.355 89.8559C114.355 90.6239 114.355 91.3919 114.355 92.0831L114.125 91.8527C127.488 91.8527 139.392 91.9295 147.994 91.9295C152.294 91.9295 155.75 92.0063 158.131 92.0063C159.283 92.0063 160.205 92.0063 160.896 92.0063C161.203 92.0063 161.434 92.0063 161.587 92.0063C161.818 92.0063 161.894 92.0063 161.894 92.0063C161.894 92.0063 161.818 92.0063 161.664 92.0063C161.51 92.0063 161.28 92.0063 160.973 92.0063C160.358 92.0063 159.437 92.0063 158.285 92.0063C155.904 92.0063 152.448 92.0063 148.147 92.0831C139.546 92.0831 127.565 92.1599 114.125 92.1599H113.894V91.9295C113.894 91.2383 113.894 90.4703 113.894 89.7023C113.894 89.3183 113.894 88.9343 113.894 88.5503V87.9359V87.6287V87.4751V87.5519C113.971 87.4751 113.664 87.7823 114.125 87.3215C135.475 87.3215 153.83 87.3983 161.894 87.4751H161.971V87.5519C161.971 89.0111 161.971 90.1631 161.894 90.9311C161.894 91.3151 161.894 91.5455 161.894 91.7759C161.894 91.9295 161.894 92.0063 161.894 92.0063Z" fill="#E0E0E0"/>
<path d="M161.894 94.6176H141.158V113.51H161.894V94.6176Z" fill="#F5F5F5"/>
<path d="M161.894 113.587C161.894 113.587 161.894 113.434 161.894 113.203C161.894 112.973 161.894 112.589 161.894 112.205C161.894 111.283 161.894 109.978 161.818 108.365C161.818 105.062 161.741 100.301 161.741 94.6943L161.894 94.8479C155.904 94.8479 148.762 94.8479 141.158 94.8479C141.082 94.9247 141.542 94.4639 141.389 94.6175V94.6943V94.7711V94.9247V95.2319V95.8463C141.389 96.3071 141.389 96.6911 141.389 97.1519C141.389 97.9967 141.389 98.8415 141.389 99.6863C141.389 101.376 141.389 102.989 141.389 104.602C141.389 107.75 141.389 110.746 141.389 113.587L141.235 113.434C147.379 113.51 152.525 113.51 156.211 113.51C157.978 113.51 159.437 113.51 160.435 113.587C160.896 113.587 161.28 113.587 161.587 113.587C161.741 113.587 161.894 113.587 161.894 113.587C161.894 113.587 161.741 113.587 161.51 113.587C161.203 113.587 160.896 113.587 160.435 113.587C159.437 113.587 157.978 113.587 156.211 113.664C152.525 113.664 147.302 113.741 141.082 113.741H140.928V113.587C140.928 110.822 140.928 107.827 140.928 104.602C140.928 102.989 140.928 101.376 140.928 99.6863C140.928 98.8415 140.928 97.9967 140.928 97.1519C140.928 96.6911 140.928 96.3071 140.928 95.8463V95.2319V94.9247V94.7711V94.6943V94.6175C140.774 94.7711 141.158 94.3871 141.158 94.3871C148.762 94.3871 155.904 94.3871 161.894 94.3871H162.048V94.5407C162.048 100.224 161.971 104.986 161.971 108.288C161.971 109.901 161.971 111.206 161.894 112.128C161.894 112.512 161.894 112.896 161.894 113.126C161.894 113.434 161.894 113.587 161.894 113.587Z" fill="#E0E0E0"/>
<path d="M161.894 116.506H141.158V126.029H161.894V116.506Z" fill="#F5F5F5"/>
<path d="M161.894 126.029C161.894 126.029 161.894 125.798 161.894 125.338C161.894 124.877 161.894 124.262 161.894 123.418C161.894 121.728 161.818 119.424 161.818 116.506L161.971 116.659C156.595 116.659 149.222 116.659 141.235 116.736C141.082 116.89 141.466 116.506 141.466 116.506V116.582V116.659V116.813V117.12V117.734C141.466 118.118 141.466 118.579 141.466 118.963C141.466 119.808 141.466 120.576 141.466 121.421C141.466 123.034 141.466 124.57 141.466 126.029L141.235 125.798C147.226 125.875 152.371 125.875 156.058 125.875C157.901 125.875 159.36 125.952 160.358 125.952C160.819 125.952 161.203 125.952 161.51 125.952C161.741 126.029 161.894 126.029 161.894 126.029C161.894 126.029 161.741 126.029 161.51 126.029C161.203 126.029 160.819 126.029 160.358 126.029C159.283 126.029 157.901 126.029 156.058 126.106C152.294 126.106 147.149 126.182 141.082 126.182H140.851V125.952C140.851 124.493 140.851 122.957 140.851 121.344C140.851 120.576 140.851 119.731 140.851 118.886C140.851 118.502 140.851 118.042 140.851 117.658V117.043V116.736V116.582V116.506V116.429C140.774 116.506 141.235 116.045 141.082 116.198C149.146 116.198 156.442 116.275 161.818 116.275H161.971V116.429C161.971 119.347 161.894 121.728 161.894 123.418C161.894 124.186 161.894 124.8 161.818 125.261C161.894 125.798 161.894 126.029 161.894 126.029Z" fill="#E0E0E0"/>
<path d="M137.472 94.6943C129.715 105.37 120.883 115.354 113.126 126.029L137.472 94.6943Z" fill="white"/>
<path d="M113.126 126.029C113.126 126.029 113.203 125.875 113.357 125.645C113.51 125.414 113.741 125.107 113.971 124.723C114.509 123.878 115.43 122.726 116.506 121.267C118.656 118.349 121.728 114.509 125.184 110.208C128.64 105.907 131.712 102.067 133.939 99.2256C135.014 97.8432 135.859 96.6912 136.55 95.8464C136.858 95.4624 137.088 95.1552 137.242 94.9248C137.395 94.6944 137.472 94.6176 137.549 94.6176C137.549 94.6176 137.472 94.7712 137.318 95.0016C137.165 95.232 136.934 95.5392 136.704 95.9232C136.166 96.768 135.245 97.92 134.17 99.3792C132.019 102.298 128.947 106.138 125.491 110.438C122.035 114.739 118.963 118.579 116.736 121.421C115.661 122.803 114.816 123.955 114.125 124.8C113.818 125.184 113.587 125.491 113.434 125.722C113.28 125.952 113.203 126.029 113.126 126.029Z" fill="#E0E0E0"/>
<path d="M138.086 126.029C138.01 126.106 132.326 119.117 125.414 110.438C118.502 101.76 113.05 94.6944 113.126 94.6176C113.203 94.5408 118.886 101.53 125.798 110.208C132.71 118.886 138.163 125.952 138.086 126.029Z" fill="#E0E0E0"/>
<path d="M108.595 94.6944C108.595 96.8448 106.829 98.6112 104.678 98.6112C102.528 98.6112 100.762 96.8448 100.762 94.6944C100.762 92.544 102.528 90.7776 104.678 90.7776C106.829 90.7776 108.595 92.544 108.595 94.6944Z" fill="#E0E0E0"/>
<path d="M172.416 85.248C172.416 87.3984 170.65 89.1648 168.499 89.1648C166.349 89.1648 164.582 87.3984 164.582 85.248C164.582 83.0976 166.349 81.3312 168.499 81.3312C170.65 81.3312 172.416 83.0976 172.416 85.248Z" fill="#E0E0E0"/>
<path d="M325.018 112.435H280.09V177.638H325.018V112.435Z" fill="#E0E0E0"/>
<path d="M322.714 112.435H277.786V177.638H322.714V112.435Z" fill="#F5F5F5"/>
<path d="M317.184 119.501H283.392V170.573H317.184V119.501Z" fill="white"/>
<path d="M317.184 170.496C317.184 170.496 317.184 170.419 317.184 170.266C317.184 170.112 317.184 169.882 317.184 169.574C317.184 168.96 317.184 167.962 317.184 166.81C317.184 164.352 317.184 160.819 317.184 156.288C317.184 147.302 317.184 134.554 317.107 119.501L317.184 119.578C306.893 119.578 295.45 119.578 283.392 119.578L283.546 119.424C283.546 138.701 283.546 156.442 283.546 170.496L283.469 170.419C293.76 170.419 302.208 170.496 308.045 170.496C310.963 170.496 313.267 170.496 314.803 170.496C315.571 170.496 316.186 170.496 316.57 170.496C316.954 170.496 317.184 170.496 317.184 170.496C317.184 170.496 316.954 170.496 316.57 170.496C316.186 170.496 315.571 170.496 314.803 170.496C313.267 170.496 310.963 170.496 308.045 170.496C302.131 170.496 293.683 170.496 283.392 170.573H283.315V170.496C283.315 156.442 283.315 138.701 283.315 119.424V119.27H283.469C295.526 119.27 306.893 119.27 317.261 119.27H317.338V119.347C317.338 134.4 317.261 147.149 317.261 156.211C317.261 160.742 317.261 164.275 317.261 166.733C317.261 167.962 317.261 168.883 317.261 169.498C317.261 169.805 317.261 170.035 317.261 170.189C317.184 170.419 317.184 170.496 317.184 170.496Z" fill="#E0E0E0"/>
<path d="M322.867 112.435C322.867 112.435 322.56 112.896 322.099 113.587C321.562 114.278 320.87 115.2 320.026 116.275C319.181 117.274 318.413 118.195 317.798 118.886C317.184 119.501 316.8 119.885 316.8 119.885C316.8 119.885 317.107 119.424 317.645 118.733C318.259 117.965 319.027 117.12 319.795 116.122C320.64 115.123 321.331 114.202 321.946 113.51C322.483 112.819 322.867 112.435 322.867 112.435Z" fill="#E0E0E0"/>
<path d="M317.338 170.342C319.027 173.03 321.024 175.488 323.251 177.715L317.338 170.342Z" fill="white"/>
<path d="M323.251 177.715C323.251 177.715 322.79 177.408 322.253 176.794C321.638 176.179 320.87 175.334 320.026 174.259C319.181 173.261 318.566 172.262 318.106 171.571C317.645 170.88 317.414 170.342 317.414 170.342C317.414 170.342 317.722 170.726 318.259 171.418C318.72 172.109 319.488 173.03 320.256 174.106C321.101 175.104 321.869 176.026 322.406 176.64C322.944 177.331 323.251 177.715 323.251 177.715Z" fill="#E0E0E0"/>
<path d="M277.786 177.562C279.782 175.104 281.702 172.723 283.699 170.266L277.786 177.562Z" fill="white"/>
<path d="M283.699 170.266C283.776 170.342 282.47 171.955 280.858 173.952C279.245 175.949 277.862 177.562 277.786 177.485C277.709 177.408 279.014 175.795 280.627 173.798C282.24 171.802 283.622 170.266 283.699 170.266Z" fill="#E0E0E0"/>
<path d="M277.786 112.435C277.862 112.358 279.091 113.894 280.627 115.814C282.163 117.734 283.315 119.347 283.315 119.347C283.238 119.424 282.01 117.888 280.474 115.968C278.938 114.048 277.786 112.435 277.786 112.435Z" fill="#E0E0E0"/>
<path d="M306.662 129.869H295.373V161.971H306.662V129.869Z" fill="#E0E0E0"/>
<path d="M314.645 43.2221L308.194 43.2567L308.366 75.2823L314.817 75.2477L314.645 43.2221Z" fill="#E0E0E0"/>
<path d="M269.14 43.2712L252.475 43.3605L252.569 61.0245L269.235 60.9352L269.14 43.2712Z" fill="#EBEBEB"/>
<path d="M285.73 43.1945L269.064 43.2837L269.159 60.9477L285.824 60.8585L285.73 43.1945Z" fill="#F5F5F5"/>
<path d="M252.518 48.2304C263.578 48.3072 274.714 48.2304 285.773 48.0768C286.003 48.0768 286.003 47.6928 285.773 47.6928C274.714 47.616 263.578 47.6928 252.518 47.9232C252.288 47.9232 252.288 48.2304 252.518 48.2304Z" fill="#E0E0E0"/>
<path d="M272.298 60.6689L242.039 60.8311L242.116 75.2695L272.375 75.1073L272.298 60.6689Z" fill="#EBEBEB"/>
<path d="M302.481 60.5152L272.222 60.6772L272.299 75.1156L302.558 74.9536L302.481 60.5152Z" fill="#F5F5F5"/>
<path d="M242.074 64.8192C262.195 65.0496 282.394 64.8192 302.515 64.512C302.746 64.512 302.746 64.128 302.515 64.128C282.394 64.0512 262.195 64.0512 242.074 64.512C241.92 64.512 241.92 64.8192 242.074 64.8192Z" fill="#E0E0E0"/>
<path d="M348.134 75.264H230.784V80.4096H348.134V75.264Z" fill="#E0E0E0"/>
<path d="M254.746 77.7216H249.984V95.3088H254.746V77.7216Z" fill="#E0E0E0"/>
<path d="M325.862 77.7216H321.101V95.3088H325.862V77.7216Z" fill="#E0E0E0"/>
<path d="M320.987 31.2408L314.536 31.2754L314.772 75.3586L321.224 75.324L320.987 31.2408Z" fill="#EBEBEB"/>
<path d="M330.994 39.4492L321.01 39.5027L321.201 75.2147L331.185 75.1612L330.994 39.4492Z" fill="#F5F5F5"/>
<path d="M330.931 46.3103C330.931 46.3871 328.704 46.4639 325.939 46.4639C323.174 46.4639 320.947 46.3871 320.947 46.3103C320.947 46.2335 323.174 46.1567 325.939 46.1567C328.704 46.1567 330.931 46.2335 330.931 46.3103Z" fill="#E0E0E0"/>
<path d="M330.931 44.8511C330.931 44.9279 328.704 45.0047 325.939 45.0047C323.174 45.0047 320.947 44.9279 320.947 44.8511C320.947 44.7743 323.174 44.6975 325.939 44.6975C328.704 44.6207 330.931 44.6975 330.931 44.8511Z" fill="#E0E0E0"/>
<path d="M330.931 69.7344C330.931 69.8112 328.704 69.888 325.939 69.888C323.174 69.888 320.947 69.8112 320.947 69.7344C320.947 69.6576 323.174 69.5807 325.939 69.5807C328.704 69.5807 330.931 69.6576 330.931 69.7344Z" fill="#E0E0E0"/>
<path d="M330.931 68.2752C330.931 68.352 328.704 68.4288 325.939 68.4288C323.174 68.4288 320.947 68.352 320.947 68.2752C320.947 68.1984 323.174 68.1216 325.939 68.1216C328.704 68.1216 330.931 68.1984 330.931 68.2752Z" fill="#E0E0E0"/>
<path d="M326.093 64.9727C326.016 64.9727 325.939 61.3631 325.939 56.9087C325.939 52.4543 326.016 48.8447 326.093 48.8447C326.17 48.8447 326.246 52.4543 326.246 56.9087C326.246 61.3631 326.17 64.9727 326.093 64.9727Z" fill="#E0E0E0"/>
<path d="M341.914 48.2303H331.008V75.1871H341.914V48.2303Z" fill="#EBEBEB"/>
<path d="M336.768 68.1984C335.309 68.1984 334.31 67.2 334.31 65.7408C334.31 64.9728 334.618 64.2816 335.155 63.8976L335.386 64.2048C334.925 64.5888 334.694 65.0496 334.694 65.664C334.694 66.816 335.539 67.584 336.691 67.584C337.843 67.584 338.688 66.7392 338.688 65.664C338.688 65.0496 338.458 64.512 337.997 64.2048L338.227 63.8976C338.842 64.2816 339.072 64.9728 339.072 65.7408C339.226 67.1232 338.227 68.1984 336.768 68.1984Z" fill="#FAFAFA"/>
<path d="M338.611 63.2832L338.227 63.0528C338.534 62.6688 338.842 62.0544 338.842 61.3632C338.842 60.3648 338.458 59.9808 337.92 59.9808C336.538 59.9808 337.536 63.1296 335.693 63.1296C335.002 63.1296 334.387 62.5152 334.387 61.2864C334.387 60.672 334.541 60.0576 334.848 59.6736L335.232 59.904C334.925 60.288 334.771 60.8256 334.771 61.3632C334.771 62.2848 335.155 62.7456 335.693 62.7456C337.152 62.7456 336.077 59.5968 337.92 59.5968C338.688 59.5968 339.226 60.288 339.226 61.5168C339.226 62.1312 338.918 62.8992 338.611 63.2832Z" fill="#FAFAFA"/>
<path d="M338.611 58.9056L338.227 58.6752C338.534 58.2912 338.842 57.6768 338.842 56.9856C338.842 55.9872 338.458 55.6032 337.92 55.6032C336.538 55.6032 337.536 58.752 335.693 58.752C335.002 58.752 334.387 58.1376 334.387 56.9088C334.387 56.2944 334.541 55.6032 334.848 55.296L335.232 55.5264C334.925 55.9104 334.771 56.448 334.771 56.9856C334.771 57.9072 335.155 58.368 335.693 58.368C337.152 58.368 336.077 55.2192 337.92 55.2192C338.688 55.2192 339.226 55.9104 339.226 57.1392C339.226 57.7536 338.918 58.5216 338.611 58.9056Z" fill="#FAFAFA"/>
<path d="M317.645 40.6272C318.663 40.6272 319.488 39.802 319.488 38.784C319.488 37.766 318.663 36.9408 317.645 36.9408C316.627 36.9408 315.802 37.766 315.802 38.784C315.802 39.802 316.627 40.6272 317.645 40.6272Z" fill="#E0E0E0"/>
<path d="M318.182 43.8528H317.03V70.0416H318.182V43.8528Z" fill="#E0E0E0"/>
<path d="M361.574 348.672C361.574 348.749 287.386 348.902 195.917 348.902C104.371 348.902 30.2592 348.826 30.2592 348.672C30.2592 348.595 104.448 348.442 195.917 348.442C287.386 348.518 361.574 348.595 361.574 348.672Z" fill="#7AC4C3"/>
<path d="M119.962 84.6335C107.674 103.987 108.442 130.867 121.882 149.53C130.867 161.971 144.307 170.266 154.982 181.248C165.658 192.23 173.798 208.358 168.115 222.566C162.355 237.082 145.536 242.918 132.941 252.134C119.194 262.118 109.594 277.555 106.598 294.298C103.68 311.04 107.443 328.858 116.89 342.912H247.757C247.757 342.912 270.72 299.059 241.152 265.728C211.584 232.32 195.686 231.782 196.838 209.894C197.914 188.006 213.274 180.864 222.029 172.646C230.784 164.429 273.485 145.306 248.294 84.6335H119.962Z" fill="#FAFAFA"/>
<path d="M119.962 84.6336C119.962 84.6336 120.73 84.6336 122.189 84.6336C123.725 84.6336 125.875 84.6336 128.794 84.6336C134.63 84.6336 143.232 84.6336 154.368 84.6336C176.563 84.6336 208.666 84.5568 248.448 84.5568H248.525V84.6336C250.291 89.1648 252.134 93.8496 253.44 98.8416C254.746 103.757 255.821 108.902 256.205 114.278C256.589 119.578 256.435 125.107 255.36 130.56C254.285 136.013 252.288 141.389 249.446 146.381C247.987 148.915 246.298 151.219 244.531 153.523C242.688 155.827 240.691 157.901 238.464 159.974C236.314 162.048 234.01 163.968 231.629 165.734C229.248 167.578 226.79 169.344 224.333 171.187C223.104 172.109 222.029 173.107 220.877 174.182C219.725 175.181 218.496 176.179 217.267 177.101C214.886 179.021 212.429 180.941 210.125 183.091C205.44 187.238 201.523 192.461 199.373 198.528C198.298 201.523 197.606 204.749 197.299 207.974C197.222 208.819 197.146 209.587 197.069 210.432C197.069 211.277 196.992 212.045 197.069 212.89C197.069 214.502 197.299 216.115 197.53 217.728C198.144 220.954 199.526 224.026 201.446 226.714C203.366 229.402 205.747 231.782 208.205 234.086C213.197 238.618 218.419 242.995 223.488 247.68C228.557 252.365 233.472 257.28 238.234 262.426C240.614 265.037 242.995 267.648 245.069 270.49C247.219 273.331 248.986 276.403 250.522 279.629C253.594 286.08 255.514 293.146 256.128 300.365C256.819 307.584 256.282 314.957 254.822 322.176C254.131 325.786 253.133 329.395 251.981 332.851C250.829 336.384 249.523 339.84 247.834 343.219L247.757 343.296H247.603C246.528 343.296 245.376 343.296 244.224 343.296C199.526 343.296 156.442 343.296 116.736 343.296H116.659L116.582 343.219C110.362 333.85 106.675 323.098 105.6 312.346C104.525 301.594 106.138 290.765 110.131 281.165C114.048 271.565 120.115 263.117 127.411 256.435C131.098 253.056 135.168 250.368 139.238 247.834C143.309 245.299 147.456 242.918 151.373 240.384C155.29 237.773 158.976 235.085 162.048 231.706C165.12 228.403 167.424 224.486 168.653 220.262C169.882 216.038 169.882 211.661 169.19 207.514C168.499 203.366 166.963 199.45 165.12 195.763C163.277 192.154 160.973 188.774 158.515 185.779C156.058 182.707 153.293 180.019 150.528 177.485C144.998 172.416 139.315 167.962 134.246 163.354C131.712 161.05 129.254 158.746 127.027 156.365C124.8 153.984 122.803 151.526 121.037 148.992C117.504 143.923 115.123 138.624 113.51 133.478C111.898 128.333 111.13 123.341 110.976 118.81C110.899 117.658 110.899 116.582 110.899 115.43C110.899 114.355 110.899 113.28 110.976 112.205C111.053 111.13 111.13 110.131 111.206 109.133C111.36 108.134 111.514 107.213 111.59 106.291C112.742 98.8416 114.97 93.4656 116.736 90.0096C117.12 89.1648 117.504 88.32 117.888 87.7056C118.272 87.0912 118.579 86.5536 118.81 86.0928C119.654 85.0944 119.962 84.6336 119.962 84.6336C119.885 84.7104 119.731 85.0944 119.194 85.9392C118.963 86.4 118.656 86.9376 118.272 87.552C117.888 88.1664 117.504 88.9344 117.12 89.856C115.43 93.312 113.203 98.7648 112.051 106.138C111.898 107.059 111.744 107.981 111.667 108.979C111.59 109.978 111.514 110.976 111.437 111.974C111.36 112.973 111.36 114.048 111.36 115.2C111.36 116.275 111.283 117.427 111.437 118.579C111.59 123.11 112.435 128.102 113.971 133.248C115.584 138.394 117.965 143.693 121.421 148.685C123.187 151.219 125.184 153.677 127.411 155.981C129.638 158.362 132.019 160.666 134.63 162.893C139.699 167.501 145.382 171.955 150.989 177.024C153.754 179.558 156.518 182.323 158.976 185.395C161.434 188.467 163.738 191.77 165.581 195.456C167.424 199.066 168.96 203.059 169.651 207.283C170.342 211.43 170.342 215.885 169.114 220.186C167.885 224.41 165.504 228.403 162.432 231.706C159.36 235.085 155.597 237.85 151.757 240.461C147.84 243.072 143.693 245.376 139.622 247.91C135.552 250.445 131.482 253.133 127.872 256.512C120.576 263.117 114.586 271.488 110.669 281.088C106.752 290.611 105.062 301.363 106.214 312.115C107.213 322.867 110.899 333.542 117.12 342.835L116.966 342.758C156.672 342.758 199.834 342.758 244.454 342.758C245.606 342.758 246.758 342.758 247.834 342.758L247.68 342.835C249.293 339.533 250.675 336.077 251.827 332.544C252.979 329.011 253.901 325.478 254.592 321.869C256.051 314.65 256.512 307.354 255.898 300.134C255.283 292.915 253.363 285.926 250.291 279.552C248.755 276.403 246.989 273.254 244.838 270.49C242.765 267.648 240.384 265.037 238.08 262.426C233.318 257.28 228.403 252.365 223.334 247.68C218.266 242.995 213.043 238.694 208.051 234.086C205.594 231.782 203.136 229.402 201.216 226.714C199.219 224.026 197.837 220.877 197.222 217.574C196.915 215.962 196.762 214.272 196.762 212.659C196.685 211.814 196.762 211.046 196.762 210.202C196.762 209.357 196.915 208.589 196.992 207.744C197.222 204.442 197.99 201.293 199.066 198.221C201.216 192.077 205.21 186.854 209.894 182.63C212.198 180.48 214.656 178.56 217.114 176.64C218.342 175.642 219.494 174.72 220.646 173.722C221.798 172.723 222.95 171.648 224.179 170.726C226.637 168.883 229.094 167.117 231.475 165.274C233.856 163.43 236.16 161.51 238.31 159.514C240.461 157.517 242.458 155.366 244.301 153.062C246.144 150.758 247.757 148.454 249.216 145.92C252.058 141.005 253.978 135.629 255.13 130.253C256.205 124.8 256.358 119.347 255.974 114.048C255.59 108.749 254.515 103.603 253.21 98.688C251.904 93.7728 250.138 89.088 248.371 84.5568L248.525 84.6336C208.819 84.6336 176.717 84.5568 154.522 84.5568C143.386 84.5568 134.784 84.5568 128.947 84.5568C126.029 84.5568 123.802 84.5568 122.266 84.5568C120.73 84.7104 119.962 84.6336 119.962 84.6336Z" fill="#7AC4C3"/>
<path d="M243.226 120.192C262.502 123.341 232.09 157.517 214.886 170.957C204.902 178.79 194.227 187.238 189.466 198.989C184.09 212.275 188.083 227.251 185.472 240.691C185.011 242.918 181.786 242.534 181.786 240.307C181.939 231.552 181.709 222.72 180.25 214.042C178.176 201.754 173.491 189.619 164.89 180.634C157.901 173.261 148.685 168.422 141.158 161.51C130.253 151.45 118.963 138.547 117.888 123.802C117.888 123.802 138.854 106.906 150.528 109.056C164.122 111.514 177.562 132.557 198.682 130.176C213.427 128.41 220.877 116.506 243.226 120.192Z" fill="#004442"/>
<path d="M244.915 302.976C244.454 298.138 243.149 292.685 238.848 290.458C236.237 289.075 233.088 289.229 230.246 289.997C227.405 290.765 224.717 292.07 221.952 292.838C216.422 294.451 210.355 294.298 204.902 292.301C199.68 290.381 195.149 286.925 190.31 284.16C185.472 281.395 179.789 279.398 174.336 280.704C165.043 283.008 160.128 294.221 150.912 296.986C146.842 298.214 142.387 297.523 138.24 296.602C134.093 295.68 129.869 294.451 125.645 294.605C122.266 294.758 118.81 295.91 116.506 298.214L116.429 298.291C116.045 298.675 115.661 299.059 115.354 299.52C112.512 303.36 112.051 308.429 112.896 313.114C113.894 318.336 116.352 323.174 118.963 327.782C122.035 333.235 125.568 338.611 130.637 342.221C136.934 346.675 144.845 343.603 152.525 344.218C170.419 345.6 189.696 346.598 207.667 345.216C217.114 344.448 226.022 345.523 233.549 339.686C238.848 335.616 242.304 329.472 243.917 322.944C245.606 316.416 245.606 309.581 244.915 302.976Z" fill="#004442"/>
<g opacity="0.24">
<path d="M211.123 293.76C210.125 295.296 209.664 297.37 210.662 298.982C211.661 300.518 212.966 301.978 213.35 303.821C214.042 306.662 212.275 309.427 211.046 312.038C208.742 316.723 207.744 322.022 208.512 327.168C209.28 332.314 211.891 337.229 216.038 340.378C217.882 341.76 220.186 342.835 222.413 342.221C224.486 341.606 225.792 339.456 226.253 337.382C226.637 335.232 226.33 333.082 226.022 330.931C224.794 320.947 225.024 310.81 226.79 300.902C227.098 299.213 227.328 297.37 226.33 296.064C225.638 295.219 224.563 294.835 223.565 294.528C219.571 293.069 215.194 294.528 211.123 293.76Z" fill="black"/>
</g>
<path d="M107.366 348.902C107.366 348.902 106.982 342.912 114.816 339.533H252.518C252.518 339.533 259.661 343.142 260.582 348.749L107.366 348.902Z" fill="#7AC4C3"/>
<path d="M249.6 85.4016C249.523 85.4016 249.446 85.4784 249.37 85.4784L119.885 84.6336C119.885 84.6336 119.424 84.3264 118.733 83.7888C115.046 80.8704 117.12 74.9568 121.805 75.0336L247.45 76.032C252.672 76.1088 254.285 83.1744 249.6 85.4016Z" fill="#7AC4C3"/>
<g opacity="0.24">
<path d="M228.864 134.784C229.094 135.245 228.173 136.397 226.33 138.01C224.486 139.622 221.722 141.926 218.266 144.691C214.81 147.456 210.586 150.758 205.21 153.907C202.522 155.443 199.526 156.902 196.301 157.978C194.688 158.515 192.922 159.053 191.155 159.36C189.389 159.744 187.546 159.974 185.626 160.051C181.786 160.282 177.946 159.744 174.49 158.515C171.034 157.286 168.115 155.597 165.504 153.907C162.893 152.218 160.666 150.528 158.592 148.915C156.518 147.302 154.598 145.766 152.909 144.23C146.074 138.317 142.541 134.016 143.232 133.171C143.923 132.326 148.762 135.091 156.288 139.699C158.131 140.851 160.205 142.08 162.432 143.462C164.659 144.768 166.963 146.304 169.421 147.61C171.878 148.992 174.336 150.221 176.947 150.989C179.558 151.757 182.323 152.141 185.242 151.987C191.155 151.68 196.838 149.606 201.83 147.226C206.822 144.768 211.277 142.003 215.194 139.853C219.11 137.626 222.413 136.013 224.794 135.168C227.174 134.477 228.634 134.323 228.864 134.784Z" fill="black"/>
</g>
<path d="M181.939 256.742C183.322 256.205 185.088 257.664 184.781 259.123C184.55 260.582 182.477 261.427 181.248 260.429C180.096 259.507 180.403 257.28 181.786 256.742" fill="#004442"/>
<path d="M135.629 156.211C135.629 156.211 135.475 156.058 135.168 155.75C134.861 155.443 134.477 154.982 133.939 154.368C133.402 153.754 132.71 153.062 132.019 152.141C131.328 151.219 130.483 150.221 129.562 149.069C128.717 147.917 127.795 146.611 126.797 145.229C126.336 144.538 125.875 143.77 125.414 143.002C125.184 142.618 124.954 142.234 124.723 141.85C124.493 141.466 124.262 141.005 124.032 140.621C122.112 137.318 120.422 133.402 119.27 129.178C118.042 124.954 117.504 120.73 117.427 116.89C117.427 115.968 117.504 114.97 117.504 114.125C117.504 113.664 117.504 113.203 117.581 112.819C117.658 112.358 117.658 111.974 117.734 111.514C117.811 110.669 117.888 109.824 118.042 109.056C118.195 108.288 118.349 107.52 118.426 106.829C118.656 105.37 119.04 104.141 119.27 102.989C119.424 102.451 119.501 101.914 119.654 101.453C119.808 100.992 119.962 100.531 120.038 100.147C120.269 99.3792 120.499 98.8416 120.653 98.3808C120.806 97.9968 120.883 97.7664 120.883 97.7664C120.883 97.7664 120.806 97.9968 120.73 98.3808C120.576 98.8416 120.422 99.456 120.192 100.147C120.038 100.531 119.962 100.992 119.808 101.453C119.654 101.914 119.578 102.451 119.424 102.989C119.194 104.141 118.81 105.37 118.579 106.752C118.426 107.443 118.349 108.211 118.195 108.979C118.118 109.747 118.042 110.592 117.965 111.437C117.888 111.821 117.888 112.282 117.811 112.742C117.734 113.203 117.811 113.587 117.734 114.048C117.734 114.97 117.658 115.891 117.658 116.813C117.734 120.653 118.272 124.8 119.501 129.024C120.653 133.248 122.342 137.088 124.186 140.467C124.416 140.851 124.646 141.312 124.877 141.696C125.107 142.08 125.338 142.464 125.568 142.848C126.029 143.616 126.49 144.384 126.95 145.075C127.872 146.458 128.794 147.763 129.638 148.915C130.483 150.067 131.328 151.066 132.019 151.987C132.71 152.909 133.402 153.6 133.939 154.214C134.477 154.829 134.861 155.29 135.168 155.674C135.475 155.981 135.629 156.211 135.629 156.211Z" fill="#7AC4C3"/>
<path d="M128.333 270.259C128.333 270.259 128.41 270.182 128.486 270.029C128.563 269.875 128.717 269.645 128.947 269.338C129.178 269.03 129.408 268.646 129.715 268.186C129.869 267.955 130.022 267.725 130.176 267.418C130.33 267.187 130.56 266.88 130.79 266.65C131.251 266.112 131.712 265.498 132.326 264.806C132.941 264.192 133.632 263.501 134.323 262.81C135.782 261.427 137.549 259.891 139.622 258.355C143.693 255.283 148.992 252.211 154.675 248.602C157.517 246.758 160.512 244.838 163.277 242.534C166.118 240.23 168.806 237.542 171.034 234.394C175.411 227.942 177.101 220.493 177.254 213.811C177.408 207.053 176.026 201.062 174.336 196.301C172.646 191.539 170.65 187.853 169.267 185.395C168.576 184.166 167.962 183.245 167.578 182.554C167.424 182.246 167.27 182.016 167.117 181.862C167.04 181.709 166.963 181.632 166.963 181.632C166.963 181.632 167.04 181.709 167.117 181.862C167.27 182.016 167.424 182.246 167.578 182.554C168.038 183.168 168.576 184.09 169.344 185.318C170.803 187.776 172.8 191.386 174.566 196.224C176.333 200.986 177.792 207.053 177.638 213.811C177.638 215.501 177.485 217.267 177.178 218.957C176.947 220.723 176.563 222.49 176.026 224.256C175.027 227.789 173.414 231.322 171.264 234.624C169.037 237.85 166.272 240.538 163.43 242.918C160.589 245.299 157.594 247.219 154.752 248.986C148.992 252.595 143.77 255.59 139.699 258.662C137.626 260.198 135.859 261.658 134.4 263.04C133.709 263.731 133.018 264.422 132.403 265.037C131.866 265.728 131.328 266.266 130.867 266.88C130.637 267.187 130.406 267.418 130.253 267.648C130.099 267.878 129.946 268.186 129.792 268.416C129.485 268.877 129.254 269.261 129.024 269.568C128.794 269.875 128.64 270.106 128.563 270.259C128.41 270.182 128.333 270.259 128.333 270.259Z" fill="#7AC4C3"/>
<path d="M121.19 283.853C121.19 283.853 121.114 284.006 121.037 284.237C120.883 284.467 120.73 284.851 120.499 285.235C120.269 285.619 119.962 286.157 119.654 286.771C119.347 287.386 118.963 288.077 118.656 288.845C118.502 289.229 118.272 289.69 118.118 290.074C117.965 290.534 117.811 290.995 117.581 291.456C117.197 292.378 116.89 293.453 116.582 294.528C115.968 296.755 115.507 299.213 115.277 301.824C115.046 304.435 115.046 306.97 115.277 309.274C115.43 310.426 115.507 311.501 115.661 312.499C115.738 313.037 115.814 313.498 115.891 313.958C115.968 314.419 116.122 314.88 116.198 315.264C116.352 316.109 116.659 316.877 116.813 317.491C116.966 318.182 117.197 318.72 117.35 319.181C117.504 319.642 117.581 319.949 117.734 320.256C117.811 320.486 117.811 320.64 117.811 320.64C117.811 320.64 117.734 320.486 117.658 320.256C117.504 319.949 117.427 319.642 117.197 319.258C117.043 318.797 116.813 318.259 116.582 317.568C116.352 316.877 116.122 316.186 115.891 315.341C115.814 314.88 115.661 314.496 115.584 314.035C115.507 313.574 115.43 313.114 115.277 312.576C115.046 311.578 114.97 310.502 114.816 309.35C114.586 307.046 114.586 304.512 114.816 301.824C115.046 299.136 115.584 296.678 116.198 294.451C116.506 293.376 116.813 292.301 117.274 291.379C117.427 290.918 117.658 290.458 117.811 289.997C118.042 289.536 118.195 289.152 118.349 288.768C118.656 288 119.117 287.309 119.424 286.694C119.731 286.08 120.038 285.542 120.346 285.158C120.576 284.774 120.806 284.467 120.96 284.237C121.114 283.93 121.19 283.853 121.19 283.853Z" fill="#7AC4C3"/>
<path d="M216.115 302.285C216.115 302.285 216.038 302.362 215.962 302.362C215.808 302.438 215.654 302.515 215.501 302.669C215.04 302.976 214.426 303.283 213.658 303.821C213.274 304.051 212.813 304.358 212.275 304.589C211.738 304.896 211.2 305.126 210.586 305.434C209.357 306.048 208.051 306.739 206.438 307.354C205.67 307.661 204.826 308.045 203.981 308.352C203.136 308.659 202.214 308.966 201.293 309.274C199.45 309.965 197.376 310.426 195.226 311.04C190.848 312.038 186.01 312.73 180.787 312.883C175.642 312.96 170.726 312.499 166.272 311.808C164.045 311.347 161.971 310.963 160.051 310.426C159.13 310.118 158.131 309.965 157.286 309.658C156.442 309.35 155.597 309.043 154.752 308.813C153.139 308.275 151.757 307.661 150.528 307.123C149.914 306.816 149.299 306.586 148.838 306.355C148.301 306.125 147.84 305.818 147.456 305.664C146.611 305.203 145.997 304.896 145.536 304.666C145.306 304.589 145.152 304.435 145.075 304.358C144.998 304.282 144.922 304.282 144.922 304.282C144.922 304.282 144.998 304.282 145.075 304.358C145.229 304.435 145.382 304.512 145.613 304.589C146.074 304.819 146.765 305.126 147.533 305.51C147.994 305.741 148.454 305.971 148.915 306.202C149.453 306.432 149.99 306.662 150.605 306.893C151.834 307.354 153.216 308.045 154.829 308.506C155.597 308.813 156.442 309.043 157.363 309.35C158.208 309.658 159.206 309.811 160.128 310.118C162.048 310.656 164.122 311.04 166.272 311.501C170.65 312.192 175.565 312.653 180.71 312.576C185.856 312.422 190.694 311.731 195.072 310.733C197.222 310.195 199.296 309.734 201.139 309.043C202.061 308.736 202.982 308.506 203.827 308.122C204.672 307.814 205.517 307.43 206.285 307.123C207.898 306.509 209.203 305.818 210.432 305.28C211.046 304.973 211.584 304.742 212.122 304.435C212.582 304.128 213.043 303.898 213.504 303.667C214.272 303.206 214.963 302.899 215.424 302.592C215.654 302.515 215.808 302.362 215.962 302.362C216.038 302.362 216.115 302.285 216.115 302.285Z" fill="#7AC4C3"/>
<path d="M224.179 139.776C224.179 139.776 224.102 139.853 224.026 139.93C223.872 140.006 223.718 140.16 223.488 140.314C223.027 140.698 222.336 141.235 221.491 141.85C219.802 143.232 217.344 145.152 214.195 147.456C211.046 149.76 207.283 152.448 202.752 154.982C200.448 156.211 198.067 157.44 195.379 158.362C192.691 159.283 189.85 160.051 186.854 160.282C180.864 160.666 175.181 159.13 170.573 156.902C168.269 155.75 166.195 154.445 164.275 153.139C162.432 151.834 160.666 150.528 159.206 149.299C156.134 146.842 153.754 144.768 152.141 143.386C151.296 142.694 150.682 142.157 150.221 141.773C149.99 141.619 149.837 141.466 149.76 141.312C149.683 141.235 149.606 141.158 149.606 141.158C149.606 141.158 149.683 141.158 149.76 141.312C149.914 141.389 150.067 141.542 150.298 141.696C150.758 142.08 151.45 142.618 152.218 143.309C153.907 144.691 156.288 146.688 159.36 149.146C160.896 150.374 162.586 151.603 164.506 152.909C166.426 154.214 168.499 155.443 170.803 156.595C175.411 158.822 181.018 160.358 186.931 159.898C189.85 159.667 192.691 158.976 195.302 158.054C197.914 157.133 200.371 155.904 202.598 154.752C207.053 152.294 210.893 149.606 214.042 147.302C217.19 144.998 219.648 143.078 221.414 141.773C222.259 141.158 222.95 140.621 223.411 140.237C223.642 140.083 223.795 139.93 223.949 139.853C224.102 139.853 224.102 139.776 224.179 139.776Z" fill="#7AC4C3"/>
<g opacity="0.24">
<path d="M154.906 308.736C158.515 305.894 163.661 306.586 168.192 307.584C172.723 308.506 177.254 310.042 181.786 309.427C185.242 308.966 188.39 307.277 191.77 306.509C195.149 305.741 199.296 306.355 201.139 309.197C186.163 314.112 169.651 313.958 154.906 308.736Z" fill="black"/>
</g>
<path d="M281.856 287.923L265.344 269.414L265.19 291.917L270.182 306.355L220.723 314.957L218.65 275.942L215.117 245.99C214.656 242.304 216.806 238.848 220.186 237.466L233.779 232.09L252.979 235.622L260.659 238.541C263.885 239.77 266.803 241.766 269.03 244.378L292.224 270.95" fill="#32245A"/>
<path d="M264.192 264.96C264.192 264.883 265.267 265.037 266.957 264.73C268.646 264.499 270.95 263.654 272.947 261.888C274.867 260.122 275.866 257.818 276.326 256.205C276.71 254.515 276.634 253.44 276.71 253.44C276.71 253.44 276.787 253.67 276.787 254.208C276.787 254.669 276.71 255.437 276.557 256.282C276.25 257.971 275.251 260.352 273.178 262.195C271.181 264.038 268.723 264.883 266.957 265.037C266.112 265.114 265.344 265.114 264.883 265.114C264.422 265.037 264.192 265.037 264.192 264.96Z" fill="white"/>
<path d="M265.651 290.995C265.805 290.995 265.805 283.162 265.728 273.562C265.651 263.962 265.498 256.128 265.344 256.128C265.19 256.128 265.19 263.962 265.267 273.562C265.344 283.162 265.498 290.995 265.651 290.995Z" fill="#7AC4C3"/>
<path d="M263.808 296.678L233.933 284.621C231.552 283.622 229.862 281.395 229.709 278.784L227.558 250.138C227.558 250.138 227.789 237.926 220.186 237.389L215.885 239.078C210.278 242.074 208.896 250.214 209.664 256.512C210.739 265.421 211.2 278.093 212.429 285.85C213.427 292.224 217.037 297.754 223.258 299.443L260.045 307.43L263.808 296.678Z" fill="#32245A"/>
<path d="M227.866 254.515C227.866 254.515 227.942 254.746 227.942 255.206C228.019 255.667 228.019 256.282 228.173 257.126C228.326 258.816 228.557 261.197 228.787 264.115C229.018 267.034 229.325 270.566 229.709 274.406C229.786 275.405 229.862 276.403 229.939 277.402C230.016 278.4 230.093 279.475 230.323 280.474C230.554 281.472 231.014 282.47 231.782 283.162C232.55 283.853 233.549 284.39 234.547 284.851C242.765 288.384 250.368 291.379 255.898 293.453C258.662 294.451 260.89 295.296 262.426 295.834C263.194 296.141 263.731 296.294 264.192 296.525C264.576 296.678 264.806 296.755 264.806 296.755C264.806 296.755 264.576 296.678 264.192 296.602C263.731 296.448 263.117 296.294 262.349 295.987C260.813 295.45 258.509 294.682 255.744 293.683C250.214 291.686 242.611 288.768 234.317 285.235C233.318 284.774 232.243 284.237 231.475 283.469C230.63 282.701 230.093 281.626 229.862 280.55C229.632 279.475 229.555 278.477 229.478 277.402C229.402 276.403 229.325 275.405 229.248 274.406C228.941 270.566 228.71 267.034 228.48 264.115C228.25 261.197 228.096 258.816 227.942 257.126C227.866 256.358 227.866 255.667 227.789 255.206C227.866 254.746 227.866 254.515 227.866 254.515Z" fill="#7AC4C3"/>
<path d="M210.739 270.106C210.739 270.106 210.739 270.259 210.816 270.49C210.816 270.797 210.893 271.181 210.893 271.565C210.97 272.563 211.123 273.946 211.277 275.635C211.43 277.325 211.661 279.398 211.968 281.626C212.275 283.853 212.659 286.387 213.35 288.922C213.658 290.227 214.118 291.379 214.81 292.378C215.501 293.376 216.269 294.298 217.037 295.142C218.65 296.755 220.339 297.907 221.798 298.752C224.87 300.365 227.098 300.365 227.021 300.442C227.021 300.442 226.867 300.442 226.637 300.442C226.406 300.442 226.022 300.365 225.562 300.288C224.64 300.134 223.258 299.75 221.645 298.982C220.109 298.214 218.342 297.062 216.73 295.373C215.885 294.528 215.117 293.606 214.426 292.608C213.734 291.533 213.197 290.304 212.89 288.998C212.198 286.464 211.814 283.93 211.584 281.702C211.277 279.398 211.123 277.402 210.97 275.635C210.816 273.946 210.739 272.486 210.739 271.565C210.739 271.104 210.739 270.72 210.739 270.49C210.739 270.259 210.739 270.106 210.739 270.106Z" fill="#7AC4C3"/>
<path d="M223.565 290.15C223.488 290.15 223.642 289.536 224.102 288.538C224.563 287.616 225.408 286.387 226.637 285.312C227.866 284.237 229.171 283.622 230.17 283.315C231.168 283.008 231.859 283.008 231.859 283.008C231.859 283.085 231.245 283.162 230.323 283.546C229.402 283.93 228.096 284.544 226.944 285.542C225.792 286.541 224.947 287.693 224.41 288.538C223.872 289.613 223.642 290.227 223.565 290.15Z" fill="#7AC4C3"/>
<path d="M229.402 268.416C229.402 268.416 229.478 268.416 229.555 268.493C229.709 268.57 229.862 268.646 230.093 268.8C230.554 269.03 231.245 269.414 232.243 269.722C234.086 270.336 237.082 271.027 240.614 270.413C244.147 269.875 248.218 267.802 251.059 263.962C252.442 262.042 253.517 259.738 253.824 257.203C253.978 255.898 253.824 254.592 253.44 253.363C253.056 252.134 252.288 250.982 251.29 250.061C250.291 249.139 249.062 248.525 247.757 248.371C246.451 248.141 245.146 248.525 244.224 249.37C243.763 249.83 243.533 250.368 243.533 250.982C243.533 251.597 243.763 252.134 244.147 252.595C244.838 253.594 246.067 253.978 247.219 254.208C249.523 254.515 251.827 254.131 253.747 253.286C255.667 252.442 257.28 251.213 258.355 249.83C259.507 248.448 260.198 246.989 260.582 245.606C260.966 244.224 261.12 242.995 261.12 241.997C261.12 240.998 261.043 240.23 260.966 239.693C260.89 239.462 260.89 239.232 260.89 239.078C260.89 238.925 260.89 238.848 260.89 238.848C260.89 238.848 261.35 239.923 261.35 241.92C261.35 242.918 261.274 244.224 260.813 245.606C260.429 246.989 259.738 248.525 258.586 249.984C257.434 251.443 255.821 252.672 253.901 253.594C251.904 254.438 249.6 254.899 247.142 254.592C245.99 254.438 244.685 253.978 243.84 252.902C243.456 252.365 243.149 251.75 243.149 251.059C243.149 250.368 243.456 249.677 243.917 249.216C244.915 248.218 246.374 247.91 247.757 248.141C249.139 248.294 250.445 248.986 251.443 249.907C252.518 250.829 253.286 252.058 253.67 253.363C254.131 254.669 254.208 256.051 254.054 257.357C253.824 259.968 252.672 262.349 251.213 264.346C248.294 268.262 244.147 270.336 240.538 270.874C236.928 271.411 233.933 270.72 232.09 270.029C230.323 269.107 229.402 268.416 229.402 268.416Z" fill="white"/>
<path d="M209.818 260.736C209.818 260.736 209.971 260.506 210.278 260.122C210.586 259.738 211.123 259.277 211.891 258.739C213.35 257.664 215.731 256.666 218.496 256.358C219.878 256.205 221.184 256.282 222.413 256.512C223.565 256.742 224.64 257.126 225.408 257.587C226.253 257.971 226.79 258.432 227.251 258.662C227.635 258.97 227.866 259.123 227.866 259.2C227.789 259.277 226.944 258.586 225.331 257.818C223.718 257.05 221.261 256.435 218.573 256.742C215.885 256.973 213.504 257.894 212.045 258.893C210.662 259.968 209.894 260.813 209.818 260.736Z" fill="white"/>
<path d="M214.656 240.23C214.733 240.154 215.424 241.152 217.114 241.997C217.958 242.458 218.957 242.765 220.186 242.918C221.414 243.072 222.72 242.918 224.026 242.381C225.331 241.843 226.406 240.998 227.098 240C227.866 239.078 228.326 238.08 228.634 237.158C229.171 235.392 229.018 234.163 229.094 234.24C229.094 234.24 229.171 234.547 229.171 235.085C229.171 235.622 229.094 236.39 228.864 237.312C228.634 238.234 228.096 239.309 227.328 240.307C226.56 241.306 225.408 242.227 224.102 242.765C222.72 243.302 221.338 243.456 220.032 243.302C218.803 243.149 217.651 242.765 216.883 242.304C216.038 241.843 215.424 241.306 215.117 240.922C214.81 240.538 214.656 240.23 214.656 240.23Z" fill="white"/>
<path d="M240.691 287.386C240.691 287.386 240.691 287.155 240.768 286.848C240.845 286.464 240.998 285.926 241.306 285.312C241.92 284.006 243.379 282.394 245.76 281.395C248.064 280.32 251.29 280.166 254.515 281.088C256.128 281.549 257.894 282.163 259.123 283.699C259.738 284.467 259.891 285.619 259.43 286.541C258.97 287.462 258.202 288.077 257.28 288.538C256.358 288.998 255.437 289.229 254.438 289.229C253.44 289.229 252.442 288.998 251.75 288.384C250.982 287.77 250.598 286.848 250.522 285.926C250.445 285.005 250.598 284.16 250.906 283.315C252.211 280.09 254.746 278.093 257.05 277.094C259.43 276.096 261.504 275.942 262.963 276.096C264.346 276.25 265.114 276.557 265.114 276.557C265.114 276.634 264.346 276.326 262.963 276.25C261.581 276.173 259.507 276.326 257.203 277.325C256.051 277.862 254.899 278.554 253.824 279.629C252.749 280.627 251.827 281.933 251.213 283.469C250.906 284.237 250.752 285.082 250.829 285.926C250.906 286.771 251.213 287.616 251.904 288.154C252.595 288.691 253.44 288.922 254.362 288.922C255.283 288.922 256.205 288.691 257.05 288.23C257.894 287.846 258.662 287.232 258.97 286.387C259.354 285.619 259.2 284.621 258.662 284.006C258.125 283.315 257.434 282.778 256.666 282.394C255.898 282.01 255.13 281.779 254.285 281.549C251.136 280.627 247.987 280.781 245.683 281.779C243.379 282.701 241.843 284.237 241.229 285.466C240.768 286.541 240.768 287.386 240.691 287.386Z" fill="white"/>
<path d="M220.8 298.138C220.8 298.061 221.952 297.984 223.642 297.37C225.331 296.755 227.635 295.526 229.555 293.453C231.398 291.379 232.397 288.998 232.858 287.232C233.318 285.466 233.242 284.314 233.318 284.314C233.318 284.314 233.395 284.621 233.395 285.158C233.395 285.696 233.318 286.464 233.165 287.309C232.781 289.152 231.859 291.61 229.862 293.76C227.942 295.91 225.562 297.139 223.795 297.677C222.874 297.984 222.182 298.061 221.645 298.138C221.107 298.214 220.8 298.214 220.8 298.138Z" fill="white"/>
<path d="M211.123 275.866C211.123 275.866 211.277 275.789 211.507 275.712C211.738 275.635 212.122 275.558 212.582 275.405C213.504 275.174 214.886 274.867 216.653 275.021C217.498 275.098 218.496 275.251 219.418 275.712C220.339 276.096 221.338 276.787 222.029 277.709C222.72 278.63 223.104 279.936 223.027 281.165C222.95 281.779 222.797 282.47 222.413 283.008C222.029 283.546 221.568 284.083 220.877 284.314C220.186 284.544 219.418 284.39 218.88 283.93C218.342 283.392 218.189 282.701 218.189 282.086C218.112 280.781 218.419 279.552 218.88 278.554C219.802 276.403 221.568 275.021 223.258 274.406C224.947 273.792 226.406 273.869 227.328 274.022C227.789 274.099 228.173 274.176 228.403 274.33C228.634 274.406 228.787 274.483 228.787 274.483C228.787 274.56 228.25 274.33 227.328 274.176C226.406 274.099 224.947 274.099 223.411 274.714C221.875 275.328 220.186 276.71 219.264 278.707C218.803 279.706 218.573 280.858 218.65 282.086C218.65 282.701 218.803 283.315 219.264 283.699C219.648 284.083 220.339 284.16 220.877 284.006C221.414 283.853 221.875 283.392 222.259 282.854C222.566 282.317 222.72 281.779 222.797 281.165C222.874 280.013 222.49 278.784 221.875 277.939C221.261 277.018 220.339 276.403 219.418 276.019C218.496 275.635 217.574 275.405 216.73 275.328C215.04 275.174 213.658 275.405 212.736 275.635C211.584 275.789 211.123 275.942 211.123 275.866Z" fill="white"/>
<g opacity="0.3">
<path d="M255.206 293.299C251.981 291.456 248.909 290.074 245.53 288.614C242.15 287.078 238.925 285.158 236.698 282.163C232.55 276.634 233.011 268.57 228.787 263.117C229.094 266.803 229.325 270.49 229.632 274.176C229.862 277.555 229.402 280.934 231.552 283.238C233.395 285.158 236.928 286.694 239.462 287.462C244.685 289.075 250.138 291.61 255.206 293.299Z" fill="black"/>
</g>
<path d="M307.2 335.386C307.2 335.386 332.237 342.298 333.235 342.682C334.771 343.219 334.464 348.749 332.16 348.672C331.085 348.595 312.96 349.363 310.656 349.21C308.352 349.056 301.44 346.368 301.44 346.368L307.2 335.386Z" fill="#004442"/>
<path d="M317.568 344.909C317.722 344.909 317.875 343.603 318.643 342.221C319.411 340.838 320.486 339.994 320.41 339.917C320.333 339.84 319.104 340.531 318.259 341.99C317.491 343.526 317.491 344.986 317.568 344.909Z" fill="#7AC4C3"/>
<path d="M314.957 343.757C315.11 343.757 315.341 342.605 316.032 341.299C316.723 339.994 317.491 339.072 317.414 338.995C317.338 338.918 316.339 339.763 315.648 341.146C314.957 342.451 314.88 343.757 314.957 343.757Z" fill="#7AC4C3"/>
<path d="M312.499 343.066C312.653 343.066 312.499 341.837 313.114 340.454C313.651 339.072 314.573 338.227 314.496 338.15C314.419 338.074 313.344 338.842 312.73 340.301C312.115 341.837 312.422 343.142 312.499 343.066Z" fill="#7AC4C3"/>
<path d="M312.96 339.84C313.037 339.84 313.19 339.149 313.19 337.997C313.19 337.382 313.114 336.691 312.96 335.923C312.883 335.539 312.73 335.155 312.576 334.771C312.499 334.541 312.422 334.31 312.192 334.157C311.962 333.926 311.501 334.003 311.347 334.234C311.117 334.464 311.04 334.694 311.04 334.925C311.04 335.155 311.04 335.386 311.04 335.616C311.04 336.077 311.117 336.461 311.194 336.845C311.347 337.613 311.654 338.227 311.962 338.765C312.576 339.763 313.037 340.301 313.114 340.301C313.19 340.224 312.73 339.686 312.269 338.688C312.038 338.15 311.731 337.536 311.578 336.845C311.501 336.461 311.424 336.077 311.424 335.693C311.424 335.309 311.424 334.848 311.654 334.618C311.808 334.541 311.885 334.541 311.962 334.618C312.038 334.694 312.192 334.848 312.269 335.078C312.422 335.462 312.576 335.846 312.653 336.154C312.883 336.845 312.96 337.536 312.96 338.074C313.037 339.149 312.883 339.84 312.96 339.84Z" fill="#7AC4C3"/>
<path d="M312.96 339.61C312.96 339.533 312.346 339.379 311.347 339.379C310.81 339.379 310.195 339.456 309.581 339.61C309.274 339.686 308.89 339.763 308.582 339.994C308.275 340.147 307.891 340.608 308.045 341.146C308.122 341.606 308.582 341.914 308.966 342.067C309.35 342.144 309.734 342.144 310.118 342.067C310.81 341.914 311.347 341.606 311.731 341.299C312.499 340.685 312.96 340.224 312.883 340.147C312.806 340.07 312.346 340.531 311.578 341.069C311.194 341.299 310.656 341.606 310.042 341.76C309.734 341.837 309.427 341.837 309.12 341.76C308.813 341.683 308.582 341.453 308.506 341.146C308.429 340.838 308.582 340.608 308.89 340.454C309.12 340.301 309.504 340.224 309.811 340.07C310.426 339.917 311.04 339.84 311.501 339.763C312.346 339.61 312.96 339.686 312.96 339.61Z" fill="#7AC4C3"/>
<path d="M321.408 345.216C321.562 345.216 321.408 344.141 321.869 342.989C322.33 341.837 323.174 341.146 323.098 341.069C323.021 340.992 322.022 341.53 321.485 342.835C321.024 344.064 321.331 345.216 321.408 345.216Z" fill="#7AC4C3"/>
<path d="M303.974 346.368C303.974 346.368 304.282 346.522 304.973 346.829C305.587 347.059 306.586 347.443 307.738 347.674C310.118 348.288 313.574 348.595 317.261 348.595C321.024 348.518 324.403 348.365 326.861 348.288C328.013 348.211 329.011 348.211 329.779 348.134C330.47 348.058 330.854 348.058 330.854 348.058C330.854 348.058 330.47 347.981 329.779 347.981C329.011 347.981 328.013 347.981 326.861 347.981C324.326 348.058 321.024 348.058 317.261 348.134C313.498 348.211 310.195 347.904 307.814 347.366C305.434 346.906 303.974 346.291 303.974 346.368Z" fill="#7AC4C3"/>
<path d="M303.206 346.906C303.206 346.982 303.898 346.598 305.05 346.061C306.202 345.6 307.891 344.986 309.811 345.293C311.731 345.6 313.037 346.829 313.882 347.75C314.726 348.672 315.264 349.286 315.341 349.21C315.341 349.21 314.957 348.518 314.112 347.52C313.728 347.059 313.19 346.445 312.422 345.984C311.731 345.446 310.81 345.062 309.811 344.909C307.814 344.602 306.048 345.293 304.896 345.83C303.821 346.368 303.206 346.906 303.206 346.906Z" fill="#7AC4C3"/>
<path d="M280.627 328.474C280.627 328.474 256.973 343.987 256.128 344.602C254.822 345.6 256.282 350.131 258.509 349.363C259.584 348.979 279.398 343.45 281.549 342.605C283.699 341.76 289.459 337.075 289.459 337.075L280.627 328.474Z" fill="#004442"/>
<path d="M273.562 340.762C273.638 340.762 273.254 339.379 271.949 338.227C270.72 337.075 269.261 336.768 269.261 336.845C269.184 336.998 270.49 337.382 271.642 338.534C272.947 339.61 273.485 340.838 273.562 340.762Z" fill="#7AC4C3"/>
<path d="M275.712 338.842C275.789 338.765 275.328 337.613 274.253 336.538C273.178 335.462 272.026 334.925 271.949 335.078C271.872 335.155 272.947 335.846 273.946 336.845C275.021 337.843 275.635 338.918 275.712 338.842Z" fill="#7AC4C3"/>
<path d="M277.862 337.459C277.939 337.459 277.862 336.077 276.864 334.848C275.866 333.619 274.56 333.158 274.56 333.312C274.483 333.389 275.635 333.926 276.557 335.155C277.402 336.307 277.709 337.459 277.862 337.459Z" fill="#7AC4C3"/>
<path d="M276.48 334.541C276.557 334.541 276.25 333.85 275.942 332.774C275.789 332.237 275.712 331.546 275.635 330.778C275.635 330.394 275.635 330.01 275.635 329.626C275.635 329.395 275.712 329.242 275.789 329.088C275.866 329.011 275.942 328.934 276.096 329.011C276.403 329.088 276.48 329.549 276.634 329.933C276.787 330.317 276.864 330.701 276.864 331.085C276.941 331.853 276.864 332.467 276.787 333.082C276.634 334.234 276.403 334.925 276.48 334.925C276.557 334.925 276.864 334.31 277.094 333.158C277.248 332.621 277.325 331.853 277.248 331.085C277.248 330.701 277.171 330.317 277.018 329.856C276.941 329.626 276.864 329.472 276.787 329.242C276.71 329.011 276.557 328.781 276.25 328.704C276.019 328.55 275.558 328.627 275.405 328.934C275.251 329.165 275.251 329.395 275.174 329.626C275.174 330.086 275.174 330.47 275.174 330.854C275.251 331.622 275.405 332.314 275.558 332.851C276.019 333.926 276.403 334.541 276.48 334.541Z" fill="#7AC4C3"/>
<path d="M276.403 334.234C276.403 334.31 277.018 334.003 277.939 333.773C278.4 333.696 279.014 333.542 279.629 333.542C279.936 333.542 280.32 333.542 280.627 333.619C280.934 333.696 281.165 333.85 281.165 334.157C281.165 334.464 281.011 334.771 280.781 334.925C280.55 335.078 280.243 335.155 279.936 335.232C279.322 335.309 278.707 335.155 278.246 335.078C277.325 334.771 276.71 334.541 276.71 334.618C276.71 334.694 277.248 335.002 278.17 335.386C278.63 335.539 279.245 335.693 279.936 335.616C280.243 335.616 280.627 335.539 281.011 335.309C281.395 335.078 281.626 334.694 281.626 334.157C281.626 333.619 281.088 333.312 280.704 333.235C280.32 333.158 279.936 333.158 279.629 333.158C278.938 333.235 278.323 333.312 277.862 333.466C276.864 333.85 276.403 334.234 276.403 334.234Z" fill="#7AC4C3"/>
<path d="M261.504 348.518C261.504 348.518 261.888 348.288 262.118 347.597C262.349 346.906 262.195 345.907 261.658 345.062C261.427 344.602 261.12 344.218 260.89 343.91C260.659 343.603 260.352 343.219 260.122 343.066C259.814 342.835 259.584 342.758 259.354 342.758C259.123 342.758 259.046 342.835 259.046 342.835C259.046 342.912 259.507 342.835 259.891 343.296C260.122 343.526 260.352 343.834 260.582 344.141C260.813 344.525 261.12 344.909 261.35 345.293C261.811 346.138 261.965 346.982 261.888 347.597C261.734 348.134 261.427 348.442 261.504 348.518Z" fill="#7AC4C3"/>
<path d="M270.029 342.144C270.106 342.144 270.106 340.915 269.184 339.84C268.262 338.765 267.11 338.534 267.11 338.611C267.034 338.765 268.032 339.149 268.877 340.07C269.645 341.146 269.875 342.221 270.029 342.144Z" fill="#7AC4C3"/>
<path d="M287.002 337.997C287.002 337.997 286.618 338.227 285.926 338.688C285.235 339.149 284.314 339.763 283.008 340.454C281.702 341.146 280.166 341.837 278.4 342.528C276.634 343.219 274.56 343.834 272.486 344.448C268.262 345.677 264.346 346.829 261.581 347.597C260.275 347.981 259.123 348.365 258.278 348.595C257.51 348.826 257.05 348.979 257.126 349.056C257.126 349.056 257.587 348.979 258.355 348.826C259.2 348.595 260.352 348.288 261.658 347.981C264.499 347.213 268.339 346.138 272.563 344.909C274.714 344.294 276.71 343.68 278.477 342.989C280.243 342.298 281.856 341.53 283.085 340.838C284.39 340.147 285.312 339.456 285.926 338.918C286.694 338.304 287.002 337.997 287.002 337.997Z" fill="#7AC4C3"/>
<path d="M287.846 338.304C287.846 338.227 287.078 337.997 285.85 337.766C284.621 337.536 282.701 337.459 280.858 338.381C279.936 338.842 279.245 339.533 278.707 340.224C278.17 340.915 277.862 341.606 277.632 342.221C277.171 343.373 276.941 344.141 276.941 344.218C277.018 344.218 277.325 343.526 277.862 342.374C278.4 341.299 279.322 339.686 281.011 338.842C282.701 337.997 284.544 337.997 285.773 338.15C287.078 338.15 287.846 338.381 287.846 338.304Z" fill="#7AC4C3"/>
<path d="M329.779 290.688C329.779 290.688 336.845 293.222 336.922 301.21C336.998 316.493 306.125 333.235 306.125 333.235L265.037 306.048L262.426 304.973C262.502 304.973 317.952 284.16 329.779 290.688Z" fill="#7AC4C3"/>
<path d="M285.85 319.795C285.85 319.795 286.234 319.565 286.925 319.104C287.616 318.643 288.538 317.875 289.766 316.954C292.147 315.11 295.296 312.576 298.752 309.581C302.208 306.586 305.203 303.821 307.354 301.824C308.429 300.826 309.274 299.981 309.888 299.366C310.502 298.752 310.81 298.445 310.733 298.445C310.733 298.445 310.349 298.752 309.734 299.29C309.043 299.904 308.198 300.672 307.123 301.67C304.896 303.667 301.901 306.432 298.445 309.35C294.989 312.269 291.84 314.88 289.536 316.8C288.461 317.722 287.539 318.49 286.848 319.027C286.157 319.488 285.85 319.795 285.85 319.795Z" fill="#455A64"/>
<path d="M318.182 296.371C318.182 296.294 316.339 296.064 314.189 296.755C312.038 297.37 310.579 298.522 310.656 298.598C310.733 298.675 312.192 297.754 314.266 297.139C316.416 296.525 318.182 296.525 318.182 296.371Z" fill="#455A64"/>
<path d="M314.65 293.99C314.65 293.914 313.267 294.451 312.192 295.834C311.117 297.139 310.81 298.598 310.886 298.598C311.04 298.675 311.424 297.37 312.499 296.064C313.574 294.835 314.726 294.067 314.65 293.99Z" fill="#455A64"/>
<path d="M332.083 342.298C332.083 342.221 331.622 342.144 331.008 342.605C330.47 343.066 330.01 343.91 329.856 344.986C329.702 346.061 329.933 346.982 330.24 347.597C330.547 348.211 330.854 348.518 330.854 348.518C330.931 348.442 330.701 348.134 330.47 347.52C330.24 346.906 330.086 346.061 330.24 345.062C330.394 344.141 330.778 343.296 331.238 342.835C331.622 342.374 332.083 342.374 332.083 342.298Z" fill="#7AC4C3"/>
<path d="M320.333 265.805L305.741 302.899L242.688 303.898L241.536 300.518L263.654 299.674L274.253 266.803L320.333 265.805Z" fill="#455A64"/>
<path d="M290.918 281.856C291.763 281.318 293.222 281.549 293.914 282.163C294.605 282.778 294.912 283.93 294.528 284.851C294.144 285.773 293.222 286.387 292.224 286.464C291.226 286.541 290.074 285.85 289.843 284.851C289.613 283.853 289.92 282.394 290.918 281.856Z" fill="#EBEBEB"/>
<path d="M310.042 335.078C310.042 335.078 251.981 296.986 249.6 296.218C247.219 295.45 241.459 291.686 235.699 293.222C229.939 294.835 224.794 299.981 222.259 307.507C220.8 311.808 220.109 319.181 219.802 324.634C219.418 331.238 221.414 337.766 225.715 342.758C227.635 345.062 230.093 346.982 232.934 347.904C233.549 348.058 234.163 348.288 234.778 348.365C245.76 350.746 257.05 345.83 263.194 336.461L264.576 334.387C264.576 334.387 302.515 348.365 303.13 348.134L310.042 335.078Z" fill="#7AC4C3"/>
<path d="M238.234 324.634C238.234 324.634 238.31 324.71 238.541 324.787C238.771 324.864 239.078 325.018 239.462 325.171C240.307 325.478 241.536 325.939 243.149 326.554C246.374 327.782 251.059 329.549 256.819 331.699C262.656 333.85 269.568 336.461 277.402 339.302C285.235 342.144 293.837 345.293 303.13 348.365L303.283 348.442L303.36 348.288C304.819 345.523 306.355 342.605 307.891 339.61C308.659 338.074 309.504 336.614 310.195 335.155L310.272 335.002L310.118 334.925C292.685 323.866 277.094 313.958 265.805 306.816C260.198 303.283 255.667 300.442 252.518 298.445C250.982 297.446 249.754 296.678 248.909 296.218C248.525 295.987 248.218 295.757 247.987 295.603C247.757 295.45 247.68 295.45 247.68 295.45C247.68 295.45 247.757 295.526 247.987 295.68C248.218 295.834 248.525 296.064 248.909 296.294C249.754 296.832 250.906 297.6 252.518 298.598C255.667 300.595 260.122 303.514 265.728 307.123C276.941 314.266 292.531 324.25 309.965 335.309L309.888 335.002C309.12 336.384 308.352 337.92 307.584 339.456C306.048 342.451 304.512 345.37 303.053 348.134L303.283 348.058C294.067 344.909 285.389 341.837 277.555 338.995C269.722 336.154 262.81 333.619 256.973 331.469C251.136 329.318 246.528 327.629 243.226 326.4C241.613 325.786 240.384 325.402 239.539 325.018C239.155 324.864 238.771 324.787 238.541 324.71C238.31 324.634 238.234 324.634 238.234 324.634Z" fill="#455A64"/>
<path d="M244.224 189.389C245.222 186.701 247.373 185.549 250.138 184.858C252.902 184.166 255.974 185.011 258.125 186.931C259.507 188.237 260.582 190.003 262.272 190.771C265.114 192.077 268.8 190.157 271.488 191.77C273.101 192.691 273.869 194.842 273.254 196.608C272.64 198.374 270.72 199.526 268.877 199.296C270.72 200.141 271.104 202.982 269.798 204.595C268.493 206.208 266.112 206.669 264.192 206.054C262.195 205.517 260.582 204.134 259.123 202.598C257.741 201.062 256.512 199.373 254.976 197.99C253.44 196.608 251.597 195.456 249.523 195.379C246.758 195.302 244.147 197.146 242.688 199.526C241.229 201.907 240.691 204.749 240.307 207.514C239.923 210.278 239.616 213.12 238.541 215.654C238.387 215.962 238.234 216.269 237.926 216.346C237.466 216.422 237.158 215.962 236.928 215.501C234.854 210.586 233.702 205.286 233.626 199.91C233.626 196.838 233.933 193.92 235.853 191.462C237.773 189.005 242.304 187.622 244.224 189.389Z" fill="#7AC4C3"/>
<path d="M237.696 201.83L233.395 232.858C232.704 238.157 236.467 242.918 241.843 243.379C246.758 243.84 251.213 240.307 251.904 235.392C252.211 233.088 252.518 231.091 252.518 230.861C252.518 230.861 260.506 231.168 262.195 223.488C262.963 219.725 264.038 211.891 264.806 204.826C265.728 197.222 260.582 190.157 253.056 188.698L252.288 188.544C244.147 187.315 238.618 193.613 237.696 201.83Z" fill="#FFBE9D"/>
<path d="M252.518 230.707C252.518 230.707 247.526 230.093 242.995 225.792C242.995 225.792 244.301 231.859 252.134 232.704L252.518 230.707Z" fill="#EB996E"/>
<path d="M261.504 209.51C261.427 210.125 260.813 210.509 260.198 210.432C259.584 210.355 259.123 209.818 259.277 209.203C259.354 208.589 259.968 208.205 260.582 208.282C261.12 208.358 261.581 208.896 261.504 209.51Z" fill="#32245A"/>
<path d="M262.349 208.205C262.195 208.358 261.504 207.514 260.275 207.283C259.123 207.053 258.125 207.437 257.971 207.283C257.894 207.206 258.125 206.976 258.586 206.746C259.046 206.515 259.738 206.438 260.429 206.592C261.197 206.746 261.734 207.13 262.042 207.514C262.349 207.898 262.426 208.205 262.349 208.205Z" fill="#32245A"/>
<path d="M249.754 207.59C249.677 208.205 249.062 208.589 248.448 208.512C247.834 208.435 247.373 207.898 247.526 207.283C247.603 206.669 248.218 206.285 248.832 206.362C249.37 206.438 249.83 206.976 249.754 207.59Z" fill="#32245A"/>
<path d="M250.598 206.131C250.445 206.285 249.754 205.44 248.525 205.21C247.373 204.979 246.374 205.363 246.221 205.21C246.144 205.133 246.374 204.902 246.835 204.672C247.296 204.442 247.987 204.365 248.678 204.518C249.446 204.672 249.984 205.056 250.291 205.44C250.598 205.747 250.675 206.054 250.598 206.131Z" fill="#32245A"/>
<path d="M253.133 215.808C253.133 215.731 253.901 215.731 255.13 215.808C255.437 215.808 255.744 215.808 255.821 215.654C255.974 215.424 255.898 215.117 255.821 214.733C255.667 213.965 255.514 213.12 255.36 212.198C254.746 208.666 254.438 205.747 254.515 205.747C254.669 205.747 255.283 208.589 255.821 212.122C255.974 212.966 256.128 213.811 256.205 214.656C256.282 215.04 256.358 215.424 256.128 215.885C255.974 216.115 255.744 216.192 255.514 216.192C255.283 216.192 255.13 216.192 254.976 216.192C253.901 216.038 253.133 215.885 253.133 215.808Z" fill="#32245A"/>
<path d="M249.523 215.962C249.754 215.962 249.446 217.267 250.368 218.419C251.29 219.571 252.672 219.725 252.672 219.878C252.672 219.955 252.288 220.032 251.75 219.955C251.213 219.878 250.368 219.494 249.83 218.803C249.293 218.112 249.139 217.267 249.216 216.73C249.216 216.192 249.37 215.885 249.523 215.962Z" fill="#32245A"/>
<path d="M251.827 201.523C251.674 201.83 250.522 201.446 249.062 201.293C247.603 201.139 246.451 201.37 246.298 200.986C246.221 200.832 246.528 200.602 246.989 200.371C247.526 200.141 248.294 199.987 249.139 200.064C249.984 200.141 250.752 200.448 251.213 200.755C251.674 201.062 251.904 201.37 251.827 201.523Z" fill="#32245A"/>
<path d="M262.579 204.672C262.349 204.902 261.581 204.442 260.582 204.211C259.584 203.981 258.739 204.058 258.586 203.674C258.509 203.52 258.739 203.29 259.123 203.059C259.507 202.906 260.198 202.752 260.89 202.906C261.581 203.059 262.118 203.443 262.426 203.75C262.656 204.288 262.733 204.595 262.579 204.672Z" fill="#32245A"/>
<path d="M237.158 207.667C237.005 207.59 232.166 205.056 231.245 210.355C230.323 215.654 235.93 215.501 235.93 215.347C236.006 215.194 237.158 207.667 237.158 207.667Z" fill="#FFBE9D"/>
<path d="M234.624 213.043C234.624 213.043 234.547 213.12 234.317 213.12C234.163 213.197 233.856 213.197 233.626 213.043C233.088 212.736 232.781 211.738 232.934 210.816C233.011 210.355 233.165 209.894 233.395 209.51C233.626 209.126 233.933 208.896 234.24 208.896C234.547 208.896 234.701 209.05 234.778 209.28C234.854 209.434 234.778 209.51 234.778 209.587C234.778 209.587 234.931 209.51 234.931 209.28C234.931 209.203 234.854 209.05 234.778 208.896C234.701 208.742 234.47 208.666 234.317 208.666C233.933 208.589 233.472 208.973 233.242 209.357C232.934 209.741 232.781 210.278 232.704 210.816C232.55 211.891 232.934 212.966 233.702 213.35C234.086 213.504 234.394 213.427 234.547 213.35C234.624 213.197 234.701 213.043 234.624 213.043Z" fill="#EB996E"/>
<path d="M266.726 203.52C263.117 203.75 259.43 202.138 257.203 199.296C255.667 197.299 254.669 194.765 252.442 193.536C250.982 192.691 249.139 192.691 247.526 193.229C245.914 193.766 244.454 194.765 243.226 195.84C243.917 200.064 242.074 204.288 240.23 208.128C240 208.589 239.77 209.05 239.386 209.203C238.694 209.587 237.773 208.973 237.389 208.282C236.698 207.206 236.621 205.824 236.621 204.518C236.698 201.6 237.158 198.605 238.387 195.917C239.616 193.229 241.459 190.848 243.994 189.235C247.066 187.238 250.982 186.701 254.592 187.469C258.202 188.237 261.427 190.31 263.885 193.075C265.037 194.381 266.035 195.84 266.419 197.453" fill="#7AC4C3"/>
<path d="M51.84 328.55C51.84 328.55 51.9168 328.474 51.9936 328.243C52.0704 328.013 52.224 327.706 52.4544 327.322C52.8384 326.477 53.2992 325.248 53.76 323.635C54.6048 320.333 54.912 315.264 53.6832 309.274C53.0688 306.278 52.1472 303.053 50.9952 299.674C49.8432 296.218 48.5376 292.608 47.4624 288.691C46.3872 284.774 45.5424 280.55 45.696 276.096C45.8496 271.642 47.1552 267.187 48.6144 262.733C50.0736 258.278 51.5328 253.978 51.9936 249.6C52.5312 245.222 51.5328 240.998 49.6128 237.466C47.6928 233.933 45.2352 230.861 43.4688 227.789C41.6256 224.64 40.4736 221.414 39.7824 218.419C38.4 212.352 38.8608 207.283 39.552 203.981C40.2432 200.602 41.088 198.912 41.088 198.912C41.088 198.912 41.088 199.066 41.0112 199.219C40.9344 199.45 40.8576 199.757 40.704 200.218C40.4736 201.062 40.0896 202.368 39.7824 204.058C39.168 207.437 38.784 212.429 40.1664 218.419C40.8576 221.414 42.0096 224.563 43.8528 227.635C45.696 230.707 48.0768 233.779 50.0736 237.312C52.0704 240.845 53.0688 245.299 52.5312 249.677C52.0704 254.131 50.5344 258.509 49.152 262.886C47.6928 267.341 46.3872 271.718 46.2336 276.096C46.08 280.474 46.848 284.698 47.9232 288.614C48.9984 292.531 50.304 296.141 51.3792 299.597C52.5312 303.053 53.4528 306.278 53.9904 309.274C55.2192 315.341 54.8352 320.41 53.9904 323.712C53.5296 325.402 52.992 326.63 52.608 327.398C52.3776 327.782 52.224 328.09 52.1472 328.32C51.84 328.474 51.84 328.627 51.84 328.55Z" fill="#7AC4C3"/>
<path d="M45.8496 230.861C45.8496 230.861 42.1632 219.11 48.768 212.198C48.9984 211.968 49.3824 212.045 49.4592 212.429C49.8432 214.349 50.304 220.262 45.8496 230.861Z" fill="#004442"/>
<path d="M48.0768 216.115C48.1536 216.115 48 216.96 47.8464 218.266C47.616 219.725 47.3088 221.491 47.0016 223.488C46.6944 225.408 46.3872 227.174 46.1568 228.634C45.9264 229.939 45.8496 230.784 45.7728 230.784C45.696 230.784 45.696 229.939 45.8496 228.634C46.0032 227.328 46.2336 225.408 46.5408 223.411C46.848 221.414 47.232 219.571 47.5392 218.266C47.8464 216.883 48 216.115 48.0768 216.115Z" fill="#7AC4C3"/>
<path d="M50.2272 258.509C50.2272 258.509 52.4544 246.374 61.5168 243.379C61.824 243.302 62.1312 243.533 62.0544 243.917C61.44 245.837 59.0592 251.29 50.2272 258.509Z" fill="#004442"/>
<path d="M59.0592 246.528C59.136 246.605 58.5984 247.219 57.8304 248.294C56.9088 249.523 55.8336 250.906 54.6816 252.518C53.5296 254.054 52.4544 255.514 51.5328 256.742C50.7648 257.818 50.2272 258.509 50.1504 258.432C50.0736 258.432 50.5344 257.664 51.2256 256.512C51.9936 255.36 53.0688 253.824 54.2976 252.211C55.5264 250.598 56.6784 249.139 57.6 248.064C58.4448 247.142 58.9824 246.528 59.0592 246.528Z" fill="#7AC4C3"/>
<path d="M47.7696 288.922C47.7696 288.922 46.3872 276.71 54.2208 271.181C54.528 270.95 54.8352 271.181 54.8352 271.488C54.8352 273.485 54.144 279.398 47.7696 288.922Z" fill="#004442"/>
<path d="M52.7616 274.867C52.8384 274.867 52.5312 275.712 52.0704 276.941C51.5328 278.323 50.9184 280.013 50.2272 281.856C49.536 283.699 48.9216 285.389 48.4608 286.771C48 288 47.7696 288.845 47.6928 288.768C47.616 288.768 47.7696 287.923 48.1536 286.618C48.5376 285.312 49.152 283.546 49.8432 281.626C50.5344 279.706 51.2256 277.939 51.7632 276.71C52.3008 275.635 52.6848 274.867 52.7616 274.867Z" fill="#7AC4C3"/>
<path d="M54.6048 319.488C54.6048 319.488 53.6832 307.2 61.6704 301.978C61.9776 301.824 62.2848 301.978 62.2848 302.362C62.1312 304.282 61.2864 310.195 54.6048 319.488Z" fill="#004442"/>
<path d="M60.0576 305.664C60.1344 305.664 59.8272 306.509 59.2896 307.738C58.752 309.12 58.0608 310.81 57.2928 312.576C56.5248 314.419 55.9104 316.032 55.296 317.414C54.8352 318.643 54.528 319.411 54.4512 319.411C54.3744 319.411 54.6048 318.566 54.9888 317.261C55.3728 315.955 56.064 314.266 56.832 312.346C57.6 310.426 58.368 308.736 58.9824 307.507C59.5968 306.355 59.9808 305.587 60.0576 305.664Z" fill="#7AC4C3"/>
<path d="M40.6272 220.493C40.6272 220.493 29.7216 214.81 29.4912 205.286C29.4912 204.979 29.8752 204.749 30.1056 204.902C31.7184 206.054 36.2496 209.894 40.6272 220.493Z" fill="#004442"/>
<path d="M31.7184 208.512C31.7952 208.512 32.256 209.126 33.1008 210.202C34.0224 211.43 35.0208 212.89 36.1728 214.426C37.3248 216.038 38.4 217.421 39.2448 218.65C40.0128 219.725 40.5504 220.416 40.4736 220.416C40.3968 220.493 39.8592 219.878 38.9376 218.803C38.0928 217.805 36.9408 216.269 35.712 214.656C34.4832 212.966 33.4848 211.43 32.7168 210.278C32.1024 209.28 31.7184 208.589 31.7184 208.512Z" fill="#7AC4C3"/>
<path d="M52.3008 245.76C52.3008 245.76 41.088 240.768 40.2432 231.245C40.2432 230.938 40.5504 230.707 40.8576 230.861C42.624 231.859 47.3088 235.469 52.3008 245.76Z" fill="#004442"/>
<path d="M42.7776 234.317C42.8544 234.24 43.392 234.931 44.2368 235.93C45.1584 237.082 46.3104 238.464 47.5392 240C48.768 241.536 49.92 242.918 50.8416 244.07C51.6864 245.069 52.224 245.76 52.224 245.76C52.1472 245.837 51.5328 245.222 50.6112 244.301C49.6896 243.302 48.4608 241.92 47.1552 240.307C45.8496 238.694 44.6976 237.235 43.9296 236.16C43.1616 235.085 42.7008 234.394 42.7776 234.317Z" fill="#7AC4C3"/>
<path d="M45.8496 273.869C45.8496 273.869 38.0928 264.269 41.7792 255.437C41.9328 255.13 42.3168 255.053 42.4704 255.36C43.5456 257.126 46.08 262.426 45.8496 273.869Z" fill="#004442"/>
<path d="M42.5472 259.354C42.624 259.354 42.7776 260.122 43.0848 261.427C43.392 262.886 43.776 264.653 44.2368 266.573C44.6208 268.493 45.0048 270.259 45.3888 271.718C45.696 273.024 45.8496 273.869 45.7728 273.869C45.696 273.869 45.3888 273.101 45.0048 271.795C44.6208 270.49 44.16 268.723 43.776 266.65C43.3152 264.653 43.008 262.81 42.7776 261.504C42.5472 260.198 42.4704 259.43 42.5472 259.354Z" fill="#7AC4C3"/>
<path d="M53.5296 307.046C53.5296 307.046 42.3936 301.824 41.7792 292.301C41.7792 291.994 42.0864 291.763 42.3936 291.917C44.0064 292.992 48.6912 296.602 53.5296 307.046Z" fill="#004442"/>
<path d="M44.16 295.45C44.2368 295.45 44.7744 296.064 45.6192 297.062C46.5408 298.214 47.6928 299.674 48.8448 301.21C50.0736 302.746 51.1488 304.128 52.1472 305.28C52.992 306.355 53.5296 306.97 53.4528 307.046C53.376 307.123 52.7616 306.509 51.9168 305.51C50.9952 304.512 49.7664 303.13 48.5376 301.517C47.232 299.904 46.1568 298.445 45.3888 297.293C44.544 296.218 44.0832 295.526 44.16 295.45Z" fill="#7AC4C3"/>
<path d="M75.7248 258.586C75.7248 258.586 75.7248 258.662 75.7248 258.893C75.7248 259.123 75.7248 259.354 75.7248 259.661C75.7248 260.429 75.648 261.427 75.5712 262.656C75.4176 265.267 75.264 268.954 74.9568 273.331C74.1888 277.786 71.8848 282.701 68.8128 287.539C66.5856 291.072 64.2048 294.298 62.208 297.293C60.2112 300.288 58.4448 303.053 57.2928 305.51C56.064 307.968 55.3728 310.042 54.9888 311.501C54.7584 312.269 54.6816 312.806 54.528 313.19C54.4512 313.574 54.3744 313.805 54.3744 313.805C54.3744 313.805 54.3744 313.574 54.4512 313.19C54.528 312.806 54.6048 312.192 54.8352 311.424C55.2192 309.965 55.8336 307.814 57.0624 305.357C58.2144 302.899 59.904 300.058 61.9776 297.062C63.9744 294.067 66.3552 290.842 68.5056 287.309C71.5008 282.547 73.8048 277.709 74.6496 273.254C74.9568 268.877 75.1872 265.19 75.4176 262.579C75.4944 261.35 75.5712 260.352 75.648 259.584C75.648 259.277 75.7248 259.046 75.7248 258.816C75.7248 258.739 75.7248 258.586 75.7248 258.586Z" fill="#7AC4C3"/>
<path d="M69.12 286.618C69.12 286.618 73.8816 275.251 67.8912 267.802C67.6608 267.571 67.2768 267.648 67.2 267.955C66.5856 269.798 65.664 275.712 69.12 286.618Z" fill="#004442"/>
<path d="M68.1984 271.795C68.2752 271.795 68.4288 272.64 68.5824 273.946C68.736 275.251 68.9664 277.094 69.12 279.168C69.2736 281.242 69.3504 283.085 69.3504 284.39C69.3504 285.773 69.2736 286.541 69.1968 286.541C69.12 286.541 69.12 285.696 68.9664 284.39C68.8896 282.854 68.736 281.088 68.5824 279.168C68.4288 277.248 68.352 275.405 68.1984 273.946C68.1984 272.563 68.1216 271.795 68.1984 271.795Z" fill="#7AC4C3"/>
<g opacity="0.3">
<path d="M69.12 286.618C69.12 286.618 73.8816 275.251 67.8912 267.802C67.6608 267.571 67.2768 267.648 67.2 267.955C66.5856 269.798 65.664 275.712 69.12 286.618Z" fill="black"/>
</g>
<path d="M54.4512 314.035C54.4512 314.035 58.2144 302.285 51.6864 295.373C51.456 295.142 51.072 295.219 50.9952 295.603C50.6112 297.523 50.1504 303.437 54.4512 314.035Z" fill="#004442"/>
<path d="M52.3776 299.29C52.4544 299.29 52.6848 300.058 52.9152 301.44C53.2224 302.746 53.5296 304.589 53.8368 306.586C54.144 308.582 54.3744 310.502 54.4512 311.808C54.528 313.19 54.528 313.958 54.528 313.958C54.4512 313.958 54.3744 313.114 54.144 311.808C53.9136 310.349 53.6832 308.582 53.376 306.586C53.0688 304.666 52.8384 302.899 52.608 301.363C52.4544 300.134 52.3008 299.29 52.3776 299.29Z" fill="#7AC4C3"/>
<g opacity="0.3">
<path d="M54.4512 314.035C54.4512 314.035 58.2144 302.285 51.6864 295.373C51.456 295.142 51.072 295.219 50.9952 295.603C50.6112 297.523 50.1504 303.437 54.4512 314.035Z" fill="black"/>
</g>
<path d="M75.1104 272.717C75.1104 272.717 85.1712 265.651 84.1728 256.205C84.1728 255.898 83.712 255.744 83.4816 255.974C82.0224 257.203 78.1056 261.658 75.1104 272.717Z" fill="#004442"/>
<g opacity="0.3">
<path d="M75.1104 272.717C75.1104 272.717 85.1712 265.651 84.1728 256.205C84.1728 255.898 83.712 255.744 83.4816 255.974C82.0224 257.203 78.1056 261.658 75.1104 272.717Z" fill="black"/>
</g>
<path d="M82.3296 259.738C82.4064 259.738 82.0992 260.506 81.4848 261.734C80.9472 262.963 80.1024 264.576 79.104 266.419C78.1056 268.262 77.184 269.798 76.4928 270.95C75.8016 272.102 75.264 272.717 75.1872 272.717C75.1104 272.717 75.5712 271.949 76.1856 270.797C76.8768 269.491 77.7984 267.878 78.72 266.189C79.6416 264.499 80.4864 262.886 81.2544 261.581C81.8688 260.429 82.2528 259.661 82.3296 259.738Z" fill="#7AC4C3"/>
<path d="M58.5216 302.438C58.5216 302.438 70.656 300.518 73.9584 291.61C74.0352 291.302 73.8048 290.995 73.4976 291.072C71.5776 291.533 66.048 293.76 58.5216 302.438Z" fill="#004442"/>
<g opacity="0.3">
<path d="M58.5216 302.438C58.5216 302.438 70.656 300.518 73.9584 291.61C74.0352 291.302 73.8048 290.995 73.4976 291.072C71.5776 291.533 66.048 293.76 58.5216 302.438Z" fill="black"/>
</g>
<path d="M70.7328 293.914C70.8096 293.99 70.1184 294.528 69.12 295.373C68.0448 296.218 66.5856 297.37 64.896 298.522C63.2064 299.75 61.6704 300.749 60.5184 301.44C59.3664 302.131 58.5984 302.515 58.5984 302.438C58.5984 302.362 59.2128 301.901 60.3648 301.133C61.5936 300.288 63.0528 299.213 64.6656 298.138C66.2784 296.986 67.7376 295.987 68.9664 295.066C70.0416 294.298 70.7328 293.914 70.7328 293.914Z" fill="#7AC4C3"/>
<path d="M46.9248 324.787L43.392 348.672H65.5104L62.592 324.787H46.9248Z" fill="#455A64"/>
<path d="M63.5136 332.237C63.5136 332.39 59.52 332.467 54.6048 332.467C49.6896 332.467 45.696 332.39 45.696 332.237C45.696 332.083 49.6896 332.006 54.6048 332.006C59.52 332.006 63.5136 332.083 63.5136 332.237Z" fill="#7AC4C3"/>
<path d="M63.8976 334.08C63.8976 334.234 59.7504 334.31 54.6816 334.31C49.6128 334.31 45.4656 334.234 45.4656 334.08C45.4656 333.926 49.6128 333.85 54.6816 333.85C59.8272 333.85 63.8976 334.003 63.8976 334.08Z" fill="#7AC4C3"/>
</svg>
