<svg width="102" height="102" viewBox="0 0 102 102" fill="none" xmlns="http://www.w3.org/2000/svg">
<path d="M51.0002 50.9998V1C78.6143 1 101 23.3857 101 50.9998C101 61.5587 97.6573 71.8466 91.4509 80.389L51.0002 50.9998Z" fill="#7D00DF" stroke="white"/>
<path d="M51.0002 50.9998L91.4509 80.3889C78.7187 97.9132 56.1504 105.246 35.5494 98.5524L51.0002 50.9998Z" fill="#4300D0" stroke="white"/>
<path d="M51.0002 50.9998L35.5494 98.5524C20.3276 93.6065 8.39345 81.6724 3.44757 66.4505L51.0002 50.9998Z" fill="#1781FF"/>
<path d="M51.0002 50.9998L3.44755 66.4505C-1.49833 51.2287 1.14188 34.5591 10.5495 21.6106L51.0002 50.9998Z" fill="#02B3FF" stroke="white"/>
<path d="M51.0001 50.9997L10.5494 21.6105C16.7558 13.0682 25.5072 6.70991 35.5493 3.44702L51.0001 50.9997Z" fill="#FF2AEA" stroke="white"/>
<path d="M51.0002 50.9998L35.5494 3.44717C40.5393 1.82583 45.7534 1 51.0002 1V50.9998Z" fill="#CC00DE" stroke="white"/>
</svg>
