<svg width="544" height="402" viewBox="0 0 544 402" fill="none" xmlns="http://www.w3.org/2000/svg">
<g clip-path="url(#clip0_6_1168)">
<path d="M124.85 338.02C138.69 326.7 140.48 307.66 138.52 290.83C138.19 288.02 138.26 285.03 136.7 282.67C135.14 280.31 131.84 278.88 129.38 280.28C127.34 281.44 126.62 283.95 125.6 286.06C124.24 288.87 122.07 291.28 119.43 292.92C117.69 294 115.49 294.75 113.61 293.93C111.04 292.79 110.47 289.46 110.26 286.66C109.87 281.44 109.47 276.22 109.08 270.99C108.87 268.19 108.64 265.33 107.54 262.74C106.44 260.15 104.29 257.85 101.53 257.32C98.77 256.8 95.56 258.61 95.21 261.4C95.07 262.56 95.4 263.73 95.42 264.89C95.44 266.06 94.99 267.39 93.9 267.81C92.79 268.23 91.59 267.53 90.68 266.78C87.52 264.19 85.23 260.71 83.08 257.24C80.93 253.77 78.82 250.21 75.91 247.35C73 244.48 69.12 242.34 65.04 242.45C60.96 242.56 56.83 245.39 56.12 249.41C55.41 253.44 58.08 257.26 60.88 260.24C65.04 264.67 69.84 268.5 75.08 271.56C76.03 272.11 77.05 272.71 77.48 273.72C78.25 275.54 76.61 277.54 74.79 278.31C72.73 279.18 70.42 279.15 68.23 279.59C66.04 280.03 63.72 281.19 63.05 283.32C62.12 286.28 64.79 289.08 67.34 290.85C72.44 294.39 78.15 297.05 84.15 298.68C86.3 299.26 88.55 299.74 90.35 301.05C92.15 302.36 93.37 304.79 92.52 306.85C91.66 308.91 89.1 309.76 86.89 309.54C84.67 309.32 82.62 308.31 80.47 307.71C76.45 306.58 71.44 307.26 69.21 310.79C67.75 313.11 67.85 316.17 68.9 318.71C69.94 321.25 71.81 323.35 73.77 325.28C80.61 332 89.09 337.17 98.39 339.52C107.69 341.87 116.14 342.02 124.87 338.03" fill="#EBEBEB"/>
<path d="M126.06 350.51C124.89 343.88 122.76 336.11 119.53 327.82C116.32 319.52 112.03 310.7 107.22 301.64C106.01 299.38 104.82 297.14 103.64 294.94C102.46 292.74 101.29 290.57 100.01 288.51C97.47 284.38 94.71 280.6 91.98 277.09C89.25 273.58 86.52 270.35 83.95 267.34C81.37 264.34 78.92 261.59 76.57 259.17C71.89 254.32 67.66 250.86 64.66 248.6C63.16 247.46 61.97 246.62 61.15 246.06C60.75 245.79 60.44 245.58 60.22 245.43C60.01 245.29 59.89 245.23 59.89 245.23C59.89 245.23 59.99 245.32 60.19 245.47C60.41 245.63 60.71 245.85 61.1 246.14C61.9 246.72 63.07 247.59 64.56 248.74C67.53 251.04 71.72 254.52 76.36 259.38C78.69 261.8 81.12 264.56 83.68 267.57C86.24 270.58 88.95 273.82 91.66 277.33C94.38 280.84 97.12 284.61 99.65 288.72C100.92 290.77 102.08 292.93 103.26 295.14C104.44 297.34 105.63 299.58 106.84 301.84C111.64 310.9 115.93 319.69 119.16 327.97C122.4 336.24 124.56 343.97 125.76 350.57" fill="#E0E0E0"/>
<path d="M99.9 288.48C99.9 288.48 99.98 288.05 100.06 287.26C100.14 286.47 100.22 285.33 100.3 283.92C100.46 281.1 100.56 277.19 100.66 272.89C100.76 268.58 100.92 264.69 101.15 261.88C101.26 260.47 101.36 259.34 101.44 258.55C101.52 257.77 101.55 257.33 101.52 257.32C101.49 257.32 101.41 257.75 101.28 258.53C101.15 259.31 101 260.45 100.85 261.85C100.55 264.66 100.33 268.57 100.23 272.88C100.14 277.15 100.06 281.01 99.99 283.91C99.95 285.26 99.91 286.38 99.88 287.25C99.86 288.04 99.86 288.48 99.88 288.48H99.9Z" fill="#E0E0E0"/>
<path d="M62.87 284.75C62.87 284.75 63 284.77 63.25 284.78C63.55 284.78 63.91 284.78 64.34 284.78C65.28 284.78 66.65 284.78 68.33 284.82C71.7 284.89 76.36 285.16 81.47 285.68C86.59 286.21 91.2 286.89 94.52 287.49C96.18 287.77 97.52 288.04 98.45 288.22C98.87 288.3 99.23 288.37 99.52 288.42C99.77 288.46 99.9 288.48 99.9 288.46C99.9 288.45 99.78 288.4 99.54 288.33C99.25 288.25 98.91 288.16 98.49 288.05C97.57 287.82 96.24 287.5 94.58 287.18C91.27 286.51 86.65 285.78 81.51 285.25C76.38 284.73 71.71 284.51 68.33 284.51C66.64 284.5 65.27 284.55 64.33 284.6C63.9 284.63 63.54 284.65 63.24 284.68C62.99 284.7 62.86 284.72 62.86 284.74L62.87 284.75Z" fill="#E0E0E0"/>
<path d="M119.07 327.18C119.07 327.18 119.15 327.03 119.27 326.72C119.4 326.37 119.57 325.92 119.78 325.36C120.22 324.18 120.81 322.46 121.52 320.32C122.93 316.05 124.71 310.09 126.58 303.48C128.45 296.88 130.18 290.91 131.52 286.62C132.19 284.52 132.73 282.79 133.13 281.54C133.31 280.98 133.45 280.52 133.56 280.16C133.65 279.84 133.7 279.67 133.68 279.67C133.67 279.67 133.6 279.82 133.48 280.13C133.35 280.48 133.18 280.93 132.97 281.49C132.53 282.67 131.94 284.39 131.23 286.53C129.82 290.8 128.04 296.76 126.17 303.37C124.3 309.97 122.57 315.94 121.23 320.23C120.56 322.33 120.02 324.06 119.62 325.31C119.44 325.87 119.3 326.33 119.19 326.69C119.1 327.01 119.05 327.18 119.07 327.18Z" fill="#E0E0E0"/>
<path d="M69.32 315.76C69.32 315.76 69.49 315.82 69.82 315.91C70.2 316 70.68 316.11 71.27 316.25C72.58 316.55 74.39 316.96 76.6 317.47C81.1 318.5 87.3 320.01 94.14 321.68C100.99 323.36 107.2 324.82 111.72 325.78C113.98 326.26 115.81 326.63 117.08 326.87C117.68 326.98 118.17 327.07 118.54 327.13C118.88 327.19 119.05 327.21 119.06 327.19C119.06 327.18 118.89 327.13 118.56 327.04C118.19 326.95 117.71 326.84 117.11 326.7C115.8 326.4 113.99 325.99 111.78 325.48C107.28 324.45 101.08 322.94 94.24 321.26C87.4 319.58 81.18 318.12 76.66 317.17C74.4 316.69 72.57 316.32 71.3 316.08C70.7 315.97 70.21 315.89 69.84 315.82C69.5 315.76 69.33 315.74 69.32 315.76Z" fill="#E0E0E0"/>
<path d="M256.234 52.2795L183.933 74.0257L198.591 122.759L270.892 101.013L256.234 52.2795Z" fill="white"/>
<path d="M270.89 100.99C270.89 100.99 270.78 100.68 270.6 100.1C270.41 99.5 270.15 98.64 269.8 97.53C269.1 95.26 268.09 91.96 266.8 87.73C264.23 79.26 260.53 67.12 256.03 52.32L256.29 52.46C236.34 58.48 211.22 66.05 184.01 74.26L184.18 73.94C189.4 91.31 194.36 107.83 198.82 122.68L198.52 122.52C219.8 116.17 237.86 110.78 250.61 106.97C256.99 105.08 262.04 103.58 265.52 102.55C267.25 102.04 268.58 101.65 269.5 101.38C269.94 101.25 270.28 101.16 270.53 101.08C270.76 101.01 270.89 100.99 270.89 100.99C270.89 100.99 270.79 101.03 270.56 101.1C270.32 101.18 269.99 101.28 269.56 101.41C268.65 101.69 267.34 102.09 265.65 102.62C262.19 103.68 257.17 105.21 250.83 107.15C238.06 111.02 219.97 116.51 198.66 122.97L198.43 123.04L198.36 122.81C193.89 107.96 188.91 91.45 183.68 74.08L183.6 73.83L183.85 73.75C211.08 65.59 236.21 58.05 256.17 52.06L256.37 52L256.43 52.2C260.86 67.08 264.49 79.29 267.03 87.8C268.28 92.02 269.25 95.32 269.92 97.58C270.24 98.69 270.49 99.54 270.66 100.13C270.82 100.7 270.9 100.99 270.9 100.99H270.89Z" fill="#E0E0E0"/>
<path d="M256.23 52.26C256.23 52.26 256.2 52.34 256.13 52.48C256.04 52.65 255.93 52.85 255.79 53.1C255.46 53.68 255.01 54.46 254.44 55.46C253.23 57.54 251.51 60.49 249.39 64.13C245.06 71.47 239.09 81.59 232.45 92.87L232.34 93.06L232.13 92.98C231.43 92.71 230.68 92.42 229.92 92.12C217.22 87.17 205.72 82.68 197.36 79.42C193.23 77.78 189.88 76.45 187.51 75.51C186.38 75.05 185.49 74.69 184.84 74.42C184.56 74.3 184.33 74.2 184.15 74.13C184 74.06 183.92 74.02 183.92 74.01C183.92 74.01 184.01 74.02 184.17 74.08C184.36 74.15 184.59 74.23 184.88 74.33C185.54 74.57 186.44 74.9 187.58 75.33C189.96 76.23 193.33 77.51 197.49 79.08C205.87 82.31 217.39 86.74 230.11 91.64C230.87 91.93 231.62 92.23 232.32 92.5L232 92.61C238.7 81.37 244.72 71.28 249.08 63.96C251.26 60.36 253.02 57.43 254.26 55.37C254.86 54.39 255.34 53.62 255.69 53.06C255.84 52.82 255.97 52.62 256.07 52.47C256.16 52.34 256.21 52.27 256.21 52.28L256.23 52.26Z" fill="#E0E0E0"/>
<path d="M466.58 246.91C466.58 246.91 461.9 242.27 452.75 253.86C443.6 265.45 439.63 272.4 439.63 272.4C439.63 272.4 437.35 274.76 435.85 272.62C434.34 270.48 432.8 264.96 429.46 265.24C426 265.52 424.19 268.96 423.75 274.46C423.3 279.95 421.89 291.95 421.75 293.04C421.62 294.1 420.71 295.53 419.45 294.24C418.19 292.95 411.66 281.93 406.62 285.34C401.58 288.75 402.85 304.26 402.96 305.96C403.07 307.66 402.61 308.28 401.77 308.53C400.92 308.78 399.08 304.87 397.09 301.81C395.11 298.75 392.27 295.56 389.52 297.77C386.78 299.98 383.87 310.85 390.79 330.82L394.6 339.86L404.36 341.25C425.43 342.95 435.22 337.42 436.68 334.21C438.13 331 434.33 329.05 430.87 327.9C427.41 326.74 423.17 325.93 423.2 325.05C423.23 324.17 423.72 323.57 425.39 323.25C427.06 322.93 442.4 320.28 444.44 314.55C446.48 308.82 434.18 305.25 432.62 304.36C431.05 303.46 432.21 302.23 433.21 301.84C434.23 301.44 445.49 297.06 450.7 295.26C455.91 293.45 458.79 290.84 458.19 287.42C457.62 284.12 451.89 284.01 449.44 283.08C446.99 282.16 448.71 279.36 448.71 279.36C448.71 279.36 454.44 273.77 463.38 262.01C472.32 250.25 466.49 246.82 466.49 246.82" fill="#EBEBEB"/>
<path d="M458.37 257.28C458.37 257.28 458.32 257.37 458.21 257.53C458.08 257.71 457.91 257.95 457.7 258.24C457.22 258.89 456.55 259.8 455.7 260.95C453.96 263.3 451.4 266.68 448.22 270.84C441.87 279.16 432.99 290.58 423.12 303.14C413.28 315.71 404.37 327.08 397.9 335.35C394.71 339.46 392.11 342.8 390.29 345.14C389.4 346.27 388.71 347.16 388.21 347.79C387.98 348.07 387.8 348.3 387.66 348.47C387.53 348.62 387.47 348.7 387.46 348.69C387.46 348.69 387.51 348.6 387.62 348.44C387.75 348.26 387.92 348.02 388.13 347.73C388.61 347.08 389.28 346.17 390.13 345.02C391.87 342.67 394.43 339.29 397.6 335.13C403.95 326.81 412.83 315.39 422.7 302.83C432.54 290.27 441.44 278.89 447.91 270.63C451.1 266.52 453.7 263.18 455.52 260.84C456.41 259.71 457.1 258.82 457.6 258.19C457.83 257.91 458.01 257.68 458.15 257.51C458.28 257.36 458.34 257.28 458.35 257.29L458.37 257.28Z" fill="#E0E0E0"/>
<path d="M431.3 273.05C431.37 273.05 431.52 274.04 431.67 275.67C431.82 277.3 431.95 279.55 432.04 282.03C432.1 284.42 432.16 286.58 432.21 288.39C432.25 290.02 432.28 291.02 432.21 291.03C432.14 291.03 431.98 290.04 431.84 288.41C431.71 286.78 431.6 284.53 431.51 282.05C431.43 279.66 431.35 277.5 431.29 275.69C431.24 274.06 431.21 273.05 431.29 273.05H431.3Z" fill="#E0E0E0"/>
<path d="M433.06 291.38C433.05 291.24 437.67 290.73 443.38 290.26C449.1 289.78 453.74 289.51 453.75 289.66C453.76 289.8 449.14 290.31 443.42 290.78C437.71 291.26 433.06 291.53 433.05 291.38H433.06Z" fill="#E0E0E0"/>
<path d="M416.47 310.67C416.49 310.6 417.5 310.78 419.13 311.1C420.76 311.41 423.02 311.84 425.52 312.24C428.02 312.64 430.29 312.94 431.94 313.16C433.59 313.37 434.61 313.51 434.6 313.59C434.6 313.66 433.56 313.65 431.9 313.53C430.24 313.41 427.95 313.17 425.43 312.76C422.92 312.36 420.66 311.87 419.05 311.47C417.43 311.06 416.45 310.75 416.47 310.68V310.67Z" fill="#E0E0E0"/>
<path d="M411.23 294.44C411.3 294.42 411.66 295.3 412.2 296.74C412.74 298.18 413.44 300.18 414.19 302.41C414.94 304.63 415.59 306.65 416.04 308.13C416.49 309.61 416.73 310.52 416.66 310.55C416.59 310.57 416.23 309.69 415.69 308.25C415.15 306.81 414.45 304.81 413.7 302.58C412.95 300.36 412.3 298.34 411.85 296.86C411.4 295.39 411.16 294.47 411.23 294.44Z" fill="#E0E0E0"/>
<path d="M394.41 309.61C394.48 309.59 394.94 310.72 395.63 312.56C396.32 314.41 397.24 316.97 398.23 319.8C399.22 322.64 400.08 325.22 400.69 327.1C401.29 328.98 401.63 330.15 401.56 330.17C401.49 330.19 401.03 329.06 400.34 327.22C399.65 325.38 398.73 322.81 397.74 319.97C396.75 317.13 395.89 314.55 395.28 312.67C394.68 310.79 394.34 309.62 394.41 309.6V309.61Z" fill="#E0E0E0"/>
<path d="M401.54 329.63C401.55 329.56 402.85 329.75 404.93 330.08C407.01 330.4 409.89 330.85 413.08 331.27C416.27 331.69 419.16 332.02 421.26 332.24C423.36 332.47 424.65 332.62 424.65 332.69C424.65 332.76 423.34 332.74 421.23 332.61C419.12 332.48 416.21 332.21 413.01 331.79C409.81 331.37 406.94 330.86 404.87 330.44C402.8 330.02 401.53 329.7 401.55 329.63H401.54Z" fill="#E0E0E0"/>
<path d="M422.475 148.576L420.105 226.13L476.779 227.861L479.148 150.307L422.475 148.576Z" fill="#F5F5F5"/>
<path d="M412.031 158.876L409.662 236.429L466.335 238.161L468.705 160.607L412.031 158.876Z" fill="white"/>
<path d="M466.33 238.16C466.33 238.16 466.33 238.03 466.33 237.78C466.33 237.52 466.34 237.16 466.35 236.68C466.37 235.7 466.41 234.28 466.45 232.44C466.55 228.73 466.69 223.34 466.87 216.51C467.26 202.86 467.81 183.5 468.46 160.6L468.69 160.84C451.62 160.33 432.35 159.75 412.02 159.13L412.29 158.88C411.39 187.85 410.55 214.66 409.87 236.43L409.66 236.21C426.8 236.78 440.94 237.25 450.81 237.58C455.74 237.75 459.61 237.89 462.26 237.98C463.57 238.03 464.58 238.07 465.28 238.1C465.96 238.13 466.33 238.16 466.33 238.16C466.33 238.16 466 238.16 465.33 238.16C464.64 238.14 463.65 238.12 462.35 238.09C459.71 238.02 455.86 237.92 450.95 237.8C441.05 237.52 426.86 237.13 409.66 236.65H409.45V236.43C410.1 214.66 410.9 187.85 411.77 158.88V158.62H412.04C432.37 159.25 451.64 159.85 468.7 160.37H468.94V160.61C468.19 183.58 467.56 202.99 467.11 216.67C466.88 223.47 466.69 228.85 466.56 232.54C466.49 234.36 466.44 235.76 466.4 236.73C466.38 237.19 466.36 237.54 466.35 237.8C466.34 238.04 466.33 238.15 466.33 238.15V238.16Z" fill="#E0E0E0"/>
<path d="M446.56 176.83C446.56 176.97 440.39 176.9 432.78 176.67C425.17 176.44 419.01 176.13 419.02 175.99C419.02 175.85 425.19 175.92 432.8 176.15C440.4 176.38 446.57 176.69 446.56 176.83Z" fill="#E0E0E0"/>
<path d="M461.25 184.02C461.25 184.16 451.74 183.99 440.03 183.63C428.31 183.27 418.82 182.87 418.82 182.72C418.82 182.57 428.33 182.75 440.05 183.11C451.77 183.47 461.26 183.87 461.26 184.02H461.25Z" fill="#E0E0E0"/>
<path d="M461.04 191.05C461.04 191.19 451.53 191.02 439.82 190.66C428.1 190.3 418.61 189.9 418.61 189.75C418.61 189.61 428.12 189.78 439.84 190.14C451.56 190.5 461.05 190.9 461.05 191.05H461.04Z" fill="#E0E0E0"/>
<path d="M460.82 198.08C460.82 198.22 451.31 198.05 439.6 197.69C427.88 197.33 418.39 196.93 418.39 196.78C418.39 196.64 427.9 196.81 439.62 197.17C451.34 197.53 460.83 197.93 460.83 198.08H460.82Z" fill="#E0E0E0"/>
<path d="M460.61 205.11C460.61 205.25 451.1 205.08 439.39 204.72C427.67 204.36 418.18 203.96 418.18 203.81C418.18 203.67 427.69 203.84 439.41 204.2C451.13 204.56 460.62 204.96 460.62 205.11H460.61Z" fill="#E0E0E0"/>
<path d="M460.39 212.14C460.39 212.28 450.88 212.11 439.17 211.75C427.45 211.39 417.96 210.99 417.96 210.84C417.96 210.7 427.47 210.87 439.19 211.23C450.91 211.59 460.4 211.99 460.4 212.14H460.39Z" fill="#E0E0E0"/>
<path d="M460.18 219.17C460.18 219.31 450.67 219.14 438.96 218.78C427.24 218.42 417.75 218.02 417.75 217.87C417.75 217.73 427.26 217.9 438.98 218.26C450.7 218.62 460.19 219.02 460.19 219.17H460.18Z" fill="#E0E0E0"/>
<path d="M440.34 225.6C440.34 225.74 435.23 225.7 428.93 225.51C422.63 225.32 417.53 225.05 417.53 224.9C417.53 224.76 422.64 224.8 428.94 224.99C435.24 225.18 440.34 225.45 440.34 225.6Z" fill="#E0E0E0"/>
<path d="M300.337 107.325L282.603 151.865L338.31 174.045L356.044 129.505L300.337 107.325Z" fill="white"/>
<path d="M356.04 129.51C356.04 129.51 355.95 129.48 355.77 129.41C355.59 129.34 355.33 129.24 354.99 129.1C354.3 128.83 353.29 128.43 351.97 127.91C349.33 126.86 345.46 125.33 340.56 123.39C330.77 119.5 316.85 113.98 300.3 107.41L300.42 107.36C295.15 120.62 289.1 135.81 282.7 151.9L282.64 151.77C303.26 159.99 322.43 167.62 338.34 173.97L338.23 174.02C343.59 160.61 348.03 149.49 351.14 141.72C352.7 137.83 353.92 134.79 354.75 132.71C355.17 131.67 355.49 130.88 355.7 130.34C355.92 129.8 356.04 129.52 356.04 129.52C356.04 129.52 355.94 129.79 355.73 130.33C355.52 130.87 355.21 131.66 354.8 132.7C353.98 134.78 352.77 137.83 351.24 141.71C348.15 149.5 343.73 160.65 338.39 174.09L338.36 174.17L338.28 174.14C322.36 167.81 303.19 160.18 282.57 151.98L282.48 151.94L282.52 151.85C288.93 135.77 294.98 120.57 300.26 107.32L300.29 107.24L300.37 107.27C316.93 113.88 330.86 119.45 340.65 123.36C345.53 125.32 349.39 126.86 352.02 127.91C353.33 128.44 354.34 128.84 355.02 129.12C355.36 129.26 355.61 129.36 355.79 129.43C355.96 129.5 356.05 129.54 356.05 129.54L356.04 129.51Z" fill="#E0E0E0"/>
<path d="M301.103 110.934L285.603 149.862L337.399 170.484L352.898 131.557L301.103 110.934Z" fill="#EBEBEB"/>
<path d="M285.81 149.99L313.53 132.99L318.71 152.59L329.54 147.53L337.6 170.61L285.81 149.99Z" fill="#E0E0E0"/>
<path d="M330.68 136.38C329.78 138.63 327.23 139.73 324.98 138.83C322.73 137.93 321.63 135.38 322.53 133.13C323.43 130.88 325.98 129.78 328.23 130.68C330.48 131.58 331.58 134.13 330.68 136.38Z" fill="#E0E0E0"/>
<path d="M155.06 178.82C155.06 178.82 155.45 179.08 156.25 179.02C156.64 178.97 157.13 178.8 157.53 178.38C157.91 177.97 158.19 177.31 158.59 176.66C160.14 173.96 162.35 170.1 165.07 165.34C165.76 164.15 166.48 162.9 167.23 161.59C167.61 160.94 167.99 160.27 168.38 159.6C168.57 159.26 168.8 158.92 168.91 158.59C169.02 158.25 169.03 157.87 168.94 157.52C168.85 157.17 168.65 156.85 168.37 156.61C168.1 156.39 167.69 156.2 167.34 156C166.61 155.59 165.87 155.18 165.12 154.76C163.61 153.92 162.07 153.05 160.48 152.16C154.13 148.59 147.15 144.68 139.82 140.57C139.01 140.1 137.9 140.41 137.39 141.18C136.87 142.07 136.35 142.95 135.84 143.83C134.81 145.6 133.8 147.34 132.8 149.05C130.8 152.47 128.88 155.77 127.04 158.92C126.81 159.31 126.58 159.7 126.36 160.09C126.13 160.45 126.03 160.83 126.04 161.23C126.06 161.62 126.2 162.01 126.45 162.3C126.68 162.61 127.05 162.77 127.44 163C128.94 163.85 130.4 164.67 131.81 165.47C134.62 167.07 137.25 168.55 139.65 169.91C144.41 172.63 148.27 174.83 150.98 176.38C152.29 177.14 153.32 177.74 154.05 178.16C154.38 178.36 154.64 178.51 154.84 178.63C155.02 178.74 155.11 178.8 155.1 178.81C155.1 178.81 155 178.77 154.81 178.68C154.6 178.57 154.33 178.43 153.99 178.25C153.25 177.85 152.2 177.28 150.87 176.55C148.14 175.04 144.25 172.88 139.46 170.23C137.05 168.89 134.42 167.42 131.59 165.84C130.18 165.05 128.71 164.23 127.21 163.39C126.86 163.18 126.4 162.99 126.09 162.59C125.77 162.22 125.59 161.73 125.57 161.24C125.55 160.75 125.7 160.24 125.95 159.84C126.18 159.45 126.4 159.06 126.63 158.67C128.46 155.52 130.37 152.21 132.36 148.78C133.35 147.07 134.37 145.32 135.39 143.55C135.91 142.66 136.43 141.77 136.96 140.86C137.6 139.88 139.02 139.48 140.07 140.09C147.39 144.21 154.36 148.14 160.71 151.72C162.29 152.62 163.84 153.49 165.34 154.34C166.09 154.76 166.83 155.18 167.56 155.59C167.92 155.81 168.28 155.96 168.66 156.26C169.01 156.56 169.26 156.96 169.37 157.39C169.48 157.82 169.46 158.28 169.33 158.7C169.18 159.13 168.94 159.44 168.76 159.78C168.37 160.45 167.98 161.12 167.6 161.76C166.84 163.06 166.11 164.3 165.41 165.49C162.63 170.21 160.37 174.04 158.78 176.73C158.36 177.38 158.09 178.01 157.66 178.46C157.22 178.89 156.69 179.06 156.28 179.09C155.86 179.12 155.55 179.03 155.36 178.94C155.17 178.86 155.08 178.79 155.08 178.79L155.06 178.82Z" fill="#E0E0E0"/>
<path d="M149.78 158.32L152.3 162.8L147.1 162.89L141.9 162.99L144.58 158.42L147.26 153.85L149.78 158.32Z" fill="#E0E0E0"/>
<path d="M488.91 348.98C488.91 349.13 393.26 349.26 275.3 349.26C157.34 349.26 61.67 349.14 61.67 348.98C61.67 348.82 157.3 348.7 275.3 348.7C393.3 348.7 488.91 348.82 488.91 348.98Z" fill="#263238"/>
<path d="M167.42 285.45L137.22 255.12L152.4 227.24C167.58 207.81 199.72 209.06 199.72 209.06C199.72 209.06 221.59 206.95 247.11 211.92C272.64 216.89 270.58 233.78 270.58 233.78L274 296.35L277.67 347.3L183.52 349.2L167.42 285.45Z" fill="#32245A"/>
<path d="M218.14 346.27L133.81 347.3C113.55 347.55 100.03 326.48 108.7 308.16L144.76 241.29L177.6 263.49L155.2 309.98L223.47 311.2L218.15 346.26L218.14 346.27Z" fill="#32245A"/>
<path d="M267.57 223.62L335.24 328.1L295.76 330.68C295.76 330.68 272.18 293.53 272.72 294.3C273.68 295.69 267.57 223.62 267.57 223.62Z" fill="#32245A"/>
<path d="M175.9 269.5C175.9 269.5 175.92 269.31 175.99 268.96C176.09 268.56 176.2 268.06 176.35 267.45C176.66 266.14 177.12 264.24 177.59 261.87C178.06 259.51 178.57 256.68 178.91 253.51C179.23 250.35 179.43 246.83 178.95 243.21C178.41 239.6 177.05 236.32 175.46 233.59C173.86 230.85 172.07 228.6 170.44 226.83C168.81 225.06 167.37 223.74 166.34 222.87C165.32 221.99 164.73 221.53 164.76 221.49C164.77 221.48 164.93 221.58 165.22 221.78C165.51 221.99 165.95 222.28 166.47 222.71C167.54 223.54 169.03 224.83 170.71 226.58C172.39 228.33 174.24 230.58 175.88 233.35C177.52 236.11 178.92 239.44 179.47 243.14C179.96 246.84 179.74 250.39 179.4 253.57C179.03 256.75 178.48 259.59 177.96 261.95C177.44 264.31 176.93 266.2 176.55 267.5C176.36 268.15 176.21 268.65 176.1 268.99C175.99 269.33 175.92 269.5 175.9 269.5Z" fill="#263238"/>
<path d="M173.19 273.1C173.19 273.1 173.01 273.65 172.61 274.61C172.21 275.57 171.6 276.95 170.84 278.64C169.31 282.03 167.14 286.69 164.64 291.79C162.14 296.89 159.78 301.46 158.03 304.74C157.16 306.38 156.44 307.7 155.92 308.61C155.41 309.52 155.11 310.01 155.08 309.99C155.05 309.97 155.28 309.45 155.74 308.51C156.24 307.5 156.9 306.17 157.7 304.56C159.39 301.15 161.66 296.59 164.17 291.54C166.63 286.47 168.85 281.89 170.51 278.46C171.29 276.85 171.94 275.51 172.43 274.5C172.89 273.57 173.16 273.06 173.19 273.07V273.1Z" fill="#263238"/>
<path d="M218.14 346.27C218.14 346.27 218.14 346.21 218.14 346.09C218.15 345.95 218.16 345.78 218.18 345.58C218.23 345.1 218.3 344.43 218.38 343.59C218.58 341.81 218.85 339.28 219.21 336.09C219.96 329.63 221.01 320.52 222.25 309.79L222.49 310.06C214.9 310.06 206.46 310.07 197.58 310.08C180.57 310.05 165.18 310.02 154 310C148.45 309.97 143.95 309.94 140.79 309.92C139.26 309.9 138.06 309.88 137.2 309.87C136.81 309.86 136.5 309.85 136.27 309.84C136.06 309.84 135.95 309.82 135.95 309.81C135.95 309.8 136.06 309.79 136.27 309.78C136.51 309.78 136.82 309.76 137.2 309.75C138.06 309.74 139.26 309.72 140.79 309.7C143.94 309.68 148.45 309.65 154 309.62C165.18 309.6 180.57 309.57 197.58 309.54C206.46 309.54 214.9 309.56 222.49 309.56H222.76L222.73 309.83C221.41 320.55 220.3 329.65 219.51 336.11C219.1 339.29 218.78 341.82 218.55 343.6C218.43 344.44 218.34 345.1 218.28 345.58C218.25 345.79 218.22 345.95 218.2 346.09C218.18 346.2 218.17 346.26 218.16 346.26L218.14 346.27Z" fill="#263238"/>
<path d="M155.79 310.7C155.72 310.74 155.14 309.89 154.11 308.59C153.08 307.3 151.54 305.59 149.61 303.96C147.68 302.33 145.74 301.1 144.29 300.3C142.84 299.49 141.9 299.07 141.93 298.99C141.95 298.93 142.95 299.24 144.46 299.97C145.97 300.7 147.98 301.9 149.94 303.56C151.9 305.22 153.43 307 154.4 308.36C155.38 309.73 155.84 310.66 155.79 310.69V310.7Z" fill="#263238"/>
<path d="M275.41 317.32C275.41 317.32 275.35 317.02 275.28 316.46C275.21 315.85 275.12 315.02 275 313.97C274.77 311.81 274.46 308.68 274.13 304.8C273.45 297.05 272.66 286.34 271.95 274.49C271.25 262.64 270.76 251.91 270.48 244.14C270.34 240.25 270.24 237.11 270.2 234.94C270.18 233.89 270.17 233.05 270.16 232.44C270.16 231.87 270.16 231.57 270.18 231.57C270.2 231.57 270.23 231.87 270.26 232.44C270.29 233.06 270.34 233.89 270.4 234.94C270.51 237.16 270.66 240.29 270.85 244.14C271.23 251.91 271.77 262.63 272.47 274.48C273.17 286.32 273.9 297.04 274.49 304.79C274.79 308.63 275.03 311.75 275.2 313.97C275.28 315.02 275.34 315.85 275.38 316.47C275.42 317.04 275.43 317.34 275.41 317.34V317.32Z" fill="#263238"/>
<path d="M200.13 260.47C200.13 260.47 200.14 259.99 200.24 259.1C200.36 258.15 200.51 256.88 200.7 255.32C201.14 252.02 201.74 247.5 202.44 242.26L202.83 242.5C200.81 243.91 198.63 245.44 196.36 247.03C194.05 248.64 191.83 250.18 189.78 251.61L189.31 251.94L189.4 251.37C190.19 246.18 190.88 241.7 191.38 238.43C191.63 236.89 191.84 235.64 192 234.7C192.15 233.83 192.25 233.36 192.28 233.37C192.31 233.37 192.27 233.85 192.17 234.73C192.05 235.68 191.89 236.94 191.7 238.48C191.25 241.76 190.62 246.25 189.9 251.45L189.51 251.21C191.55 249.78 193.77 248.23 196.08 246.61C198.35 245.03 200.54 243.5 202.56 242.1L203.03 241.77L202.95 242.34C202.18 247.56 201.52 252.08 201.03 255.37C200.78 256.92 200.58 258.18 200.43 259.13C200.28 260.01 200.19 260.48 200.16 260.47H200.13Z" fill="#E0E0E0"/>
<path d="M237.77 264.53C237.77 264.53 237.4 264.21 236.79 263.57C236.13 262.87 235.25 261.94 234.17 260.8C231.91 258.35 228.82 255 225.24 251.12L225.67 250.97C225.47 253.42 225.25 256.08 225.02 258.84C224.78 261.64 224.55 264.34 224.33 266.83L224.28 267.41L223.9 266.98C220.42 263.05 217.41 259.66 215.21 257.18C214.19 256 213.36 255.04 212.73 254.32C212.16 253.65 211.86 253.27 211.88 253.26C211.9 253.24 212.24 253.58 212.85 254.21C213.5 254.91 214.37 255.83 215.43 256.97C217.66 259.41 220.72 262.76 224.26 266.64L223.83 266.78C224.04 264.29 224.26 261.59 224.49 258.79C224.73 256.03 224.96 253.37 225.17 250.92L225.22 250.35L225.6 250.78C229.13 254.71 232.17 258.11 234.4 260.59C235.44 261.77 236.28 262.73 236.91 263.46C237.49 264.13 237.79 264.51 237.77 264.53Z" fill="#E0E0E0"/>
<path d="M256.71 263.19C256.71 263.19 256.49 263.62 256.03 264.38C255.52 265.19 254.84 266.28 254.01 267.61C252.21 270.41 249.74 274.25 246.88 278.69L246.63 278.31C249.05 277.89 251.68 277.44 254.41 276.97C257.18 276.5 259.86 276.05 262.32 275.63L262.89 275.53L262.57 276.01C259.64 280.37 257.11 284.13 255.27 286.88C254.38 288.16 253.66 289.21 253.12 289.99C252.61 290.71 252.33 291.09 252.3 291.08C252.28 291.06 252.52 290.65 252.98 289.9C253.49 289.09 254.17 288.02 255.01 286.71C256.82 283.94 259.29 280.14 262.16 275.74L262.41 276.12C259.95 276.54 257.28 277 254.51 277.48C251.78 277.94 249.15 278.39 246.72 278.8L246.15 278.9L246.47 278.42C249.39 274.02 251.92 270.22 253.76 267.45C254.64 266.15 255.36 265.1 255.91 264.3C256.42 263.57 256.7 263.18 256.73 263.2L256.71 263.19Z" fill="#E0E0E0"/>
<path d="M231.52 282.56C231.52 282.56 231.3 282.99 230.84 283.75C230.33 284.56 229.65 285.65 228.82 286.98C227.02 289.78 224.55 293.62 221.69 298.06L221.44 297.68C223.86 297.26 226.49 296.81 229.22 296.34C231.99 295.87 234.67 295.42 237.13 295L237.7 294.9L237.38 295.38C234.45 299.74 231.92 303.5 230.08 306.25C229.19 307.53 228.47 308.58 227.93 309.36C227.42 310.08 227.14 310.46 227.11 310.45C227.09 310.43 227.33 310.02 227.79 309.27C228.3 308.46 228.98 307.39 229.82 306.08C231.63 303.31 234.1 299.51 236.97 295.11L237.22 295.49C234.76 295.91 232.09 296.37 229.32 296.85C226.59 297.31 223.96 297.76 221.53 298.17L220.96 298.27L221.28 297.79C224.2 293.39 226.73 289.59 228.57 286.82C229.45 285.52 230.17 284.47 230.72 283.67C231.23 282.94 231.51 282.55 231.54 282.57L231.52 282.56Z" fill="#E0E0E0"/>
<path d="M285.94 262.91C285.94 262.91 285.72 263.34 285.26 264.1C284.75 264.91 284.07 266 283.24 267.33C281.44 270.13 278.97 273.97 276.11 278.41L275.86 278.03C278.28 277.61 280.91 277.16 283.64 276.69C286.41 276.22 289.09 275.77 291.55 275.35L292.12 275.25L291.8 275.73C288.87 280.09 286.34 283.85 284.5 286.6C283.61 287.88 282.89 288.93 282.35 289.71C281.84 290.43 281.56 290.81 281.53 290.8C281.51 290.78 281.75 290.37 282.21 289.62C282.72 288.81 283.4 287.74 284.24 286.43C286.05 283.66 288.52 279.86 291.39 275.46L291.64 275.84C289.18 276.26 286.51 276.72 283.74 277.2C281.01 277.66 278.38 278.11 275.95 278.52L275.38 278.62L275.7 278.14C278.62 273.74 281.15 269.94 282.99 267.17C283.87 265.87 284.59 264.82 285.14 264.02C285.65 263.29 285.93 262.9 285.96 262.92L285.94 262.91Z" fill="#E0E0E0"/>
<path d="M158.49 246.91C158.49 246.91 158.27 247.34 157.81 248.1C157.3 248.91 156.62 250 155.79 251.33C153.99 254.13 151.52 257.97 148.66 262.41L148.41 262.03C150.83 261.61 153.46 261.16 156.19 260.69C158.96 260.22 161.64 259.77 164.1 259.35L164.67 259.25L164.35 259.73C161.42 264.09 158.89 267.85 157.05 270.6C156.16 271.88 155.44 272.93 154.9 273.71C154.39 274.43 154.11 274.81 154.08 274.8C154.06 274.78 154.3 274.37 154.76 273.62C155.27 272.81 155.95 271.74 156.79 270.43C158.6 267.66 161.07 263.86 163.94 259.46L164.19 259.84C161.73 260.26 159.06 260.72 156.29 261.2C153.56 261.66 150.93 262.11 148.5 262.52L147.93 262.62L148.25 262.14C151.17 257.74 153.7 253.94 155.54 251.17C156.42 249.87 157.14 248.82 157.69 248.02C158.2 247.29 158.48 246.9 158.51 246.92L158.49 246.91Z" fill="#E0E0E0"/>
<path d="M118.96 321.68C118.96 321.68 119.31 322.02 119.88 322.7C120.49 323.44 121.31 324.42 122.32 325.63C124.42 328.21 127.3 331.75 130.63 335.85L130.19 335.97C130.55 333.54 130.93 330.9 131.33 328.15C131.75 325.37 132.15 322.69 132.51 320.22L132.6 319.65L132.95 320.1C136.18 324.24 138.97 327.81 141.01 330.42C141.96 331.66 142.72 332.67 143.3 333.43C143.83 334.14 144.1 334.53 144.08 334.55C144.06 334.57 143.74 334.21 143.17 333.54C142.56 332.8 141.76 331.82 140.76 330.62C138.69 328.04 135.85 324.51 132.56 320.42L133 320.3C132.64 322.77 132.25 325.45 131.84 328.23C131.43 330.97 131.04 333.61 130.67 336.04L130.59 336.61L130.24 336.16C126.97 332.02 124.14 328.44 122.07 325.82C121.11 324.58 120.33 323.56 119.74 322.8C119.21 322.09 118.93 321.7 118.95 321.68H118.96Z" fill="#E0E0E0"/>
<path d="M209.25 273.27C209.25 273.27 208.77 273.36 207.89 273.44C206.93 273.52 205.66 273.63 204.09 273.77C200.77 274.02 196.22 274.36 190.95 274.75L191.1 274.32C192.89 276 194.84 277.83 196.86 279.72C198.91 281.65 200.88 283.51 202.69 285.22L203.11 285.62L202.54 285.65C197.3 285.94 192.77 286.19 189.47 286.37C187.91 286.44 186.64 286.49 185.69 286.53C184.81 286.56 184.33 286.56 184.33 286.53C184.33 286.5 184.8 286.44 185.68 286.36C186.63 286.28 187.9 286.18 189.45 286.05C192.75 285.82 197.27 285.51 202.51 285.15L202.36 285.58C200.54 283.87 198.56 282.02 196.51 280.09C194.5 278.19 192.55 276.36 190.77 274.67L190.35 274.28L190.92 274.25C196.19 273.93 200.75 273.66 204.07 273.46C205.64 273.38 206.92 273.32 207.88 273.28C208.77 273.25 209.25 273.24 209.25 273.28V273.27Z" fill="#E0E0E0"/>
<path d="M187.1 323.67C187.1 323.67 187.45 324 188.04 324.67C188.67 325.4 189.51 326.36 190.54 327.55C192.69 330.09 195.64 333.58 199.05 337.61L198.61 337.74C198.92 335.3 199.25 332.65 199.6 329.9C199.96 327.11 200.31 324.42 200.63 321.95L200.7 321.38L201.06 321.83C204.37 325.9 207.23 329.42 209.32 331.99C210.29 333.21 211.08 334.21 211.67 334.95C212.21 335.65 212.49 336.03 212.47 336.05C212.45 336.07 212.12 335.72 211.54 335.06C210.92 334.34 210.09 333.37 209.08 332.19C206.96 329.65 204.05 326.18 200.68 322.15L201.12 322.02C200.81 324.5 200.47 327.18 200.12 329.97C199.76 332.72 199.42 335.36 199.11 337.8L199.04 338.37L198.68 337.93C195.33 333.85 192.43 330.33 190.31 327.75C189.33 326.52 188.53 325.53 187.93 324.78C187.38 324.08 187.1 323.69 187.12 323.68L187.1 323.67Z" fill="#E0E0E0"/>
<path d="M147.49 286.7C147.49 286.7 147.01 286.79 146.13 286.88C145.17 286.96 143.9 287.07 142.33 287.21C139.01 287.46 134.46 287.8 129.19 288.19L129.34 287.76C131.13 289.44 133.08 291.27 135.1 293.16C137.15 295.09 139.12 296.95 140.93 298.66L141.35 299.06L140.78 299.09C135.54 299.38 131.01 299.63 127.71 299.81C126.15 299.88 124.88 299.93 123.93 299.97C123.05 300 122.57 300 122.57 299.97C122.57 299.94 123.04 299.88 123.92 299.8C124.87 299.72 126.14 299.62 127.69 299.49C130.99 299.26 135.51 298.95 140.75 298.59L140.6 299.02C138.78 297.31 136.8 295.46 134.75 293.54C132.74 291.64 130.79 289.81 129.01 288.12L128.59 287.73L129.16 287.7C134.43 287.38 138.99 287.11 142.31 286.91C143.88 286.83 145.16 286.77 146.12 286.73C147.01 286.7 147.49 286.69 147.49 286.73V286.7Z" fill="#E0E0E0"/>
<path d="M181.52 322.53C181.52 322.53 181.04 322.62 180.16 322.71C179.2 322.79 177.93 322.9 176.36 323.04C173.04 323.29 168.49 323.63 163.22 324.02L163.37 323.59C165.16 325.27 167.11 327.1 169.13 328.99C171.18 330.92 173.15 332.78 174.96 334.49L175.38 334.89L174.81 334.92C169.57 335.21 165.04 335.46 161.74 335.64C160.18 335.71 158.91 335.76 157.96 335.8C157.08 335.83 156.6 335.83 156.6 335.8C156.6 335.77 157.07 335.71 157.95 335.63C158.9 335.55 160.17 335.45 161.72 335.32C165.02 335.09 169.54 334.78 174.78 334.42L174.63 334.85C172.81 333.14 170.83 331.29 168.78 329.37C166.77 327.47 164.82 325.64 163.04 323.95L162.62 323.56L163.19 323.53C168.46 323.21 173.02 322.94 176.34 322.74C177.91 322.66 179.19 322.6 180.15 322.56C181.04 322.53 181.52 322.52 181.52 322.56V322.53Z" fill="#E0E0E0"/>
<path d="M258.33 231.38C258.33 231.38 257.85 231.47 256.97 231.55C256.01 231.63 254.74 231.74 253.17 231.88C249.85 232.13 245.3 232.47 240.03 232.86L240.18 232.43C241.97 234.11 243.92 235.94 245.94 237.83C247.99 239.76 249.96 241.62 251.77 243.33L252.19 243.73L251.62 243.76C246.38 244.05 241.85 244.3 238.55 244.48C236.99 244.55 235.72 244.6 234.77 244.64C233.89 244.67 233.41 244.67 233.41 244.64C233.41 244.61 233.88 244.55 234.76 244.47C235.71 244.39 236.98 244.29 238.53 244.16C241.83 243.93 246.35 243.62 251.59 243.26L251.44 243.69C249.62 241.98 247.64 240.13 245.59 238.21C243.58 236.31 241.63 234.48 239.85 232.79L239.43 232.4L240 232.37C245.27 232.05 249.83 231.78 253.15 231.58C254.72 231.5 256 231.44 256.96 231.4C257.85 231.37 258.33 231.36 258.33 231.4V231.38Z" fill="#E0E0E0"/>
<path d="M220.96 322.53C220.96 322.53 237.79 317.68 243.35 316.26C245.52 315.71 254.81 320.61 261.23 324.68C261.23 324.68 270.07 329.92 269.35 331.54C268.56 333.32 265.3 332.95 260.11 330.51C260.11 330.51 261.92 335.78 258.36 335.66C258.36 335.66 260.13 341.35 256.79 341.94C253.45 342.53 252.67 335.27 249.72 334.87C246.78 334.48 240.69 334.08 240.69 334.08C240.69 334.08 235.62 342.47 231.7 343.06C227.77 343.65 218.68 342.59 218.68 342.59L220.95 322.52L220.96 322.53Z" fill="#FFBE9D"/>
<path d="M249.68 323.69C249.76 323.57 251.86 324.76 254.38 326.35C256.9 327.94 258.88 329.32 258.8 329.45C258.72 329.57 256.62 328.38 254.1 326.79C251.58 325.2 249.6 323.82 249.68 323.69Z" fill="#EB996E"/>
<path d="M248.69 326.93C248.75 326.8 251.25 327.82 254.27 329.22C257.29 330.61 259.69 331.85 259.63 331.98C259.57 332.11 257.07 331.09 254.05 329.69C251.03 328.3 248.63 327.06 248.69 326.93Z" fill="#EB996E"/>
<path d="M250.49 334.77C250.51 334.63 252.21 334.74 254.29 335.03C256.37 335.31 258.04 335.66 258.02 335.8C258 335.94 256.3 335.83 254.22 335.54C252.14 335.26 250.47 334.91 250.49 334.77Z" fill="#EB996E"/>
<path d="M199.08 148.98C199.47 150.27 199.03 151.77 198 152.63C196.97 153.5 195.41 153.67 194.21 153.07C191.93 151.91 191.64 148.77 192.09 146.25C192.54 143.73 193.39 141.05 192.34 138.72C191.53 136.94 189.78 135.81 188.42 134.41C186.04 131.97 184.78 128.41 185.36 125.05C185.94 121.69 188.46 118.67 191.74 117.76C195.09 116.82 199.22 117.85 201.71 115.43C203.52 113.67 203.63 110.79 205.03 108.7C207.2 105.44 211.79 104.93 215.67 105.46C219.55 105.99 223.49 107.23 227.29 106.29C230.46 105.5 233.07 103.29 236.04 101.93C242.48 98.98 250.72 100.58 255.59 105.72C260.47 110.86 261.62 119.17 258.34 125.45C257.16 127.71 255.38 129.75 253.03 130.71" fill="#7AC4C3"/>
<path d="M218.37 231.58C229.11 231.57 237.77 222.78 237.63 212.04L237.38 193.66C237.38 193.66 252.82 192.11 253.85 176.81C254.87 161.51 254.13 126.21 254.13 126.21C236.82 117.63 216.22 119.08 200.29 130.02L197.93 131.64L199.08 212.58C199.23 223.13 207.83 231.6 218.38 231.58H218.37Z" fill="#FFBE9D"/>
<path d="M250.07 153.91C247.35 153.37 247.37 149.86 250.1 149.36C250.22 149.34 250.35 149.34 250.47 149.36C253.19 149.9 253.17 153.41 250.44 153.91C250.32 153.93 250.19 153.93 250.07 153.91Z" fill="#263238"/>
<path d="M253.07 149.03C252.82 149.28 251.38 148.04 249.27 147.92C247.16 147.76 245.57 148.8 245.35 148.52C245.24 148.39 245.51 147.93 246.2 147.46C246.88 146.99 248.03 146.57 249.35 146.65C250.66 146.74 251.75 147.31 252.36 147.87C252.99 148.43 253.19 148.93 253.06 149.04L253.07 149.03Z" fill="#263238"/>
<path d="M228.68 149.54C229.69 150.24 229.94 151.63 229.24 152.64C228.54 153.65 227.15 153.9 226.14 153.2C225.13 152.5 224.88 151.11 225.58 150.1C226.28 149.09 227.67 148.84 228.68 149.54Z" fill="#263238"/>
<path d="M230.07 149.64C229.82 149.89 228.38 148.65 226.27 148.53C224.16 148.37 222.57 149.41 222.35 149.13C222.24 149 222.51 148.54 223.2 148.07C223.88 147.6 225.03 147.18 226.35 147.26C227.66 147.35 228.75 147.92 229.36 148.48C229.99 149.04 230.19 149.54 230.07 149.65V149.64Z" fill="#263238"/>
<path d="M237.57 167.49C237.57 167.32 238.88 167.13 241.02 166.95C241.58 166.92 242.01 166.82 242.07 166.52C242.19 166.19 242.01 165.59 241.76 164.92C241.29 163.5 240.82 162.05 240.33 160.54C238.36 154.31 237.02 149.18 237.33 149.08C237.65 148.98 239.5 153.95 241.47 160.18C241.93 161.7 242.38 163.15 242.81 164.58C242.98 165.23 243.32 165.99 242.99 166.89C242.81 167.34 242.36 167.64 241.99 167.72C241.62 167.81 241.31 167.79 241.04 167.79C238.9 167.75 237.57 167.64 237.56 167.48L237.57 167.49Z" fill="#263238"/>
<path d="M230.6 169.45C233.3 170.7 236.52 172.26 240.78 173.02C240.78 173.02 238.1 176.82 233.78 174.96C229.29 173.03 230.61 169.45 230.61 169.45H230.6Z" fill="white"/>
<path d="M237.41 193.43C237.41 193.43 227.69 193.69 217.76 186.67C217.76 186.67 221.88 197.95 237.23 197.4L237.41 193.43Z" fill="#EB996E"/>
<path d="M254.23 130.07C254.23 130.07 244.99 134.77 232.73 128.94C224.69 125.12 215.36 123.36 213.35 125C211.34 126.64 211.06 134.86 203.22 137.41C203.22 137.41 204.07 153.06 197.81 152.62C191.55 152.18 194.99 127.85 194.99 127.85L210.12 120.09L226.73 116.62L242.48 118.53L254.7 121.62L254.24 130.07H254.23Z" fill="#7AC4C3"/>
<path d="M198.95 147.59C198.7 147.46 188.6 143.9 188.36 154.39C188.12 164.88 198.7 162.95 198.73 162.65C198.75 162.35 198.95 147.59 198.95 147.59Z" fill="#FFBE9D"/>
<path d="M195.62 158.61C195.62 158.61 195.43 158.73 195.12 158.87C194.82 159 194.3 159.08 193.75 158.87C192.65 158.44 191.76 156.66 191.75 154.77C191.75 153.81 191.96 152.91 192.32 152.17C192.66 151.41 193.17 150.89 193.73 150.8C194.29 150.68 194.68 151.03 194.8 151.33C194.93 151.63 194.86 151.83 194.92 151.85C194.95 151.88 195.15 151.68 195.07 151.24C195.03 151.03 194.91 150.78 194.67 150.57C194.42 150.36 194.06 150.25 193.67 150.28C192.86 150.32 192.12 151.05 191.73 151.86C191.3 152.68 191.03 153.7 191.03 154.77C191.05 156.88 192.09 158.89 193.59 159.36C194.32 159.57 194.94 159.36 195.27 159.12C195.6 158.87 195.66 158.64 195.62 158.62V158.61Z" fill="#EB996E"/>
<path d="M193.61 114.76C193.55 114.64 195.27 114.15 197.25 114.89C199.23 115.62 200.21 117.12 200.09 117.17C199.98 117.28 198.9 116.04 197.07 115.38C195.25 114.68 193.63 114.91 193.61 114.76Z" fill="#263238"/>
<path d="M199.92 108.48C200.1 108.49 199.82 110.69 200.18 113.31C200.54 115.96 201.78 117.8 201.64 117.88C201.59 117.92 201.21 117.51 200.76 116.72C200.32 115.94 199.85 114.75 199.66 113.39C199.28 110.64 199.81 108.46 199.91 108.48H199.92Z" fill="#263238"/>
<path d="M243.01 143.99C242.95 143.87 243.4 143.51 244.25 143.16C245.1 142.81 246.36 142.52 247.77 142.53C249.18 142.55 250.43 142.87 251.27 143.23C252.11 143.59 252.56 143.96 252.5 144.09C252.37 144.37 250.35 143.58 247.76 143.57C245.17 143.52 243.13 144.27 243.01 143.99Z" fill="#263238"/>
<path d="M219.62 141.79C219.56 141.67 220.01 141.31 220.86 140.96C221.71 140.61 222.97 140.32 224.38 140.33C225.79 140.35 227.04 140.67 227.88 141.03C228.72 141.39 229.17 141.76 229.11 141.89C228.98 142.17 226.96 141.38 224.37 141.37C221.78 141.32 219.74 142.07 219.62 141.79Z" fill="#263238"/>
<path d="M241.2 145.64C241.2 145.64 241.23 145.87 241.24 146.26C241.25 146.7 241.27 147.26 241.29 147.95C241.31 148.69 241.32 149.57 241.34 150.58C241.34 151.59 241.4 152.77 241.84 153.98C242.26 155.18 242.98 156.42 244.05 157.47C245.13 158.5 246.54 159.36 248.18 159.74C249 159.93 249.86 160.03 250.74 159.96C251.62 159.92 252.51 159.74 253.36 159.41C255.07 158.78 256.62 157.55 257.67 155.92C258.67 154.37 259.12 152.56 259.08 150.8C259.08 149.01 259.08 147.28 259.09 145.63L259.33 145.87C254.09 145.82 249.61 145.78 246.35 145.75C244.79 145.72 243.53 145.7 242.58 145.68C242.18 145.67 241.84 145.66 241.56 145.65C241.33 145.65 241.2 145.63 241.19 145.62C241.17 145.6 241.62 145.58 242.48 145.56C243.41 145.54 244.65 145.52 246.19 145.49C249.48 145.46 254.02 145.42 259.33 145.37H259.57V145.61C259.57 147.26 259.57 148.99 259.58 150.78C259.64 152.6 259.16 154.55 258.1 156.18C256.99 157.9 255.34 159.21 253.53 159.86C252.63 160.21 251.69 160.39 250.76 160.43C249.83 160.49 248.92 160.39 248.06 160.18C246.33 159.77 244.85 158.85 243.74 157.75C242.63 156.63 241.9 155.33 241.48 154.06C241.05 152.79 241.01 151.57 241.04 150.52C241.06 149.49 241.08 148.59 241.09 147.83C241.11 147.15 241.13 146.6 241.14 146.16C241.15 145.78 241.17 145.6 241.18 145.61L241.2 145.64Z" fill="#263238"/>
<path d="M216.68 145.12C216.68 145.12 216.71 145.35 216.72 145.74C216.73 146.18 216.75 146.74 216.77 147.43C216.79 148.17 216.8 149.05 216.82 150.06C216.82 151.07 216.88 152.25 217.32 153.46C217.74 154.66 218.46 155.9 219.53 156.95C220.61 157.98 222.02 158.84 223.66 159.22C224.48 159.41 225.34 159.51 226.22 159.44C227.1 159.4 227.99 159.22 228.84 158.89C230.55 158.26 232.1 157.03 233.15 155.4C234.15 153.85 234.6 152.04 234.56 150.28C234.56 148.49 234.56 146.76 234.57 145.11L234.81 145.35C229.57 145.3 225.09 145.26 221.83 145.23C220.27 145.2 219.01 145.18 218.06 145.16C217.66 145.15 217.32 145.14 217.04 145.13C216.81 145.13 216.68 145.11 216.67 145.1C216.65 145.08 217.1 145.06 217.96 145.04C218.89 145.02 220.13 145 221.67 144.97C224.96 144.94 229.5 144.9 234.81 144.85H235.05V145.09C235.05 146.74 235.05 148.47 235.06 150.26C235.12 152.08 234.64 154.03 233.58 155.66C232.47 157.38 230.82 158.69 229.01 159.34C228.11 159.69 227.17 159.87 226.24 159.91C225.31 159.97 224.4 159.87 223.54 159.66C221.81 159.25 220.33 158.33 219.22 157.23C218.11 156.11 217.38 154.81 216.96 153.54C216.53 152.27 216.49 151.05 216.52 150C216.54 148.97 216.56 148.07 216.57 147.31C216.59 146.63 216.61 146.08 216.62 145.64C216.63 145.26 216.65 145.08 216.66 145.09L216.68 145.12Z" fill="#263238"/>
<path d="M241.42 146.37C241.42 146.51 239.87 146.63 237.97 146.63C236.07 146.63 234.52 146.51 234.52 146.37C234.52 146.23 236.07 146.11 237.97 146.11C239.87 146.11 241.42 146.23 241.42 146.37Z" fill="#263238"/>
<path d="M197.56 146.51C197.56 146.37 201.84 146.24 207.12 146.22C212.4 146.2 216.68 146.31 216.68 146.45C216.68 146.59 212.4 146.72 207.12 146.74C201.84 146.76 197.56 146.65 197.56 146.51Z" fill="#263238"/>
<path d="M389.7 158.93L359.93 148.24L330.45 158.79C326.69 160.57 323.39 161.63 323.39 165.14V182.6C323.39 194.72 326.57 206.74 333.1 217.34C338.6 226.26 347.11 235.45 360.22 241.29C372.27 237.38 381.26 226.94 386.76 218.02C393.29 207.41 396.47 195.4 396.47 183.28V167.58C396.47 162.58 393.82 160.14 389.7 158.94V158.93Z" fill="#32245A"/>
<g opacity="0.3">
<path d="M360.22 231.15C349.85 226.53 343.11 219.1 338.76 212.04C333.59 203.65 331.08 194.15 331.08 184.55V172.31C331.08 169.54 332.75 166.94 336.08 165.39L359.94 156.47V148.24L330.45 158.79C327.36 160.14 323.39 161.63 323.39 165.14V182.6C323.39 194.72 326.57 206.74 333.1 217.34C338.6 226.26 347.11 235.45 360.22 241.29V231.16V231.15Z" fill="black"/>
</g>
<g opacity="0.4">
<path d="M360.22 241.28C362.31 240.58 364.23 239.78 366.07 238.77C371.01 236.08 375.23 232.38 378.45 229.03C382.05 225.29 384.73 221.24 387.06 217.46C393.59 206.85 396.77 194.84 396.48 182.39L396.5 167.98C396.48 160.8 392.8 160.27 389.71 158.92L359.94 148.23V156.46L384.09 165.53C387.41 167.08 389.09 169.68 389.09 172.45V184.69C389.09 194.28 386.58 203.78 381.41 212.18C377.06 219.24 370.61 226.52 360.24 231.14V241.27L360.22 241.28Z" fill="black"/>
</g>
<path opacity="0.5" d="M367.83 183.77L367.86 181.41C367.86 177.15 364.39 173.68 360.13 173.68C355.87 173.68 352.4 177.15 352.4 181.4L352.37 183.8C350.28 184.11 348.68 185.9 348.68 188.07V201.97C348.68 204.36 350.62 206.3 353 206.3H367.43C369.82 206.3 371.76 204.36 371.76 201.97V188.07C371.76 185.81 370.03 183.96 367.83 183.76V183.77ZM362.2 198.51H358.43L359.02 195.79C358.37 195.38 357.93 194.66 357.93 193.84C357.93 192.57 358.96 191.54 360.23 191.54C361.5 191.54 362.53 192.57 362.53 193.84C362.53 194.64 362.13 195.34 361.51 195.75C361.78 196.81 362.2 198.52 362.2 198.52V198.51ZM366.17 183.75H354.04L354.07 181.41C354.07 178.07 356.79 175.35 360.13 175.35C363.47 175.35 366.19 178.07 366.19 181.4L366.16 183.75H366.17Z" fill="white"/>
<path d="M335.9 183.6C335.83 183.6 335.63 182.69 335.45 181.18C335.27 179.67 335.14 177.57 335.21 175.25C335.24 174.09 335.32 172.99 335.42 171.99C335.52 170.99 335.7 170.06 336.09 169.36C336.47 168.66 337 168.24 337.39 168.05C337.79 167.86 338.05 167.87 338.05 167.9C338.1 167.97 337.04 168.17 336.42 169.53C336.11 170.18 335.97 171.05 335.9 172.04C335.82 173.03 335.76 174.12 335.73 175.27C335.66 177.57 335.73 179.65 335.82 181.15C335.9 182.66 335.98 183.59 335.9 183.6Z" fill="white"/>
<path d="M336.34 191.2C336.2 191.2 336.07 190.49 336.05 189.6C336.03 188.71 336.13 187.99 336.28 187.99C336.42 187.99 336.55 188.7 336.57 189.59C336.59 190.48 336.49 191.2 336.34 191.2Z" fill="white"/>
<path d="M304.93 263.19L271.74 345.28H211.88V348.98H390.16L426.62 263.19H304.93Z" fill="#7AC4C3"/>
<path d="M355.67 311.65C354.47 315.78 350.97 318.39 347.85 317.49C344.73 316.58 343.18 312.5 344.38 308.37C345.58 304.24 349.08 301.63 352.2 302.53C355.32 303.44 356.87 307.52 355.67 311.65Z" fill="#FAFAFA"/>
</g>
<defs>
<clipPath id="clip0_6_1168">
<rect width="432.91" height="298.57" fill="white" transform="translate(56 52)"/>
</clipPath>
</defs>
</svg>
