<svg width="102" height="102" viewBox="0 0 102 102" fill="none" xmlns="http://www.w3.org/2000/svg">
<path d="M51.0002 50.9998L51.0002 1C78.6143 1 101 23.3857 101 50.9998C101 61.5587 97.6573 71.8466 91.4509 80.389L51.0002 50.9998Z" fill="#7D00DF" stroke="white"/>
<path d="M51.0002 50.9998L91.4509 80.3889C75.2197 102.729 43.9514 107.682 21.6111 91.4505C17.3664 88.3665 13.6335 84.6336 10.5495 80.3889L51.0002 50.9998Z" fill="#4300D0" stroke="white"/>
<path d="M51.0002 50.9999L10.5495 80.389C1.14188 67.4405 -1.49833 50.7709 3.44755 35.5491L51.0002 50.9999Z" fill="#1781FF" stroke="white"/>
<path d="M51.0001 50.9999L3.4475 35.5491C8.39338 20.3273 20.3275 8.39314 35.5493 3.44727L51.0001 50.9999Z" fill="#02B3FF" stroke="white"/>
<path d="M51.0002 50.9998L35.5494 3.44716C40.5394 1.82583 45.7535 1 51.0002 1V50.9998Z" fill="#FF2AEA" stroke="white"/>
</svg>
