<svg width="102" height="102" viewBox="0 0 102 102" fill="none" xmlns="http://www.w3.org/2000/svg">
<path d="M50.9985 50.9981V1C72.659 1 91.856 14.9475 98.5495 35.5478L50.9985 50.9981Z" fill="#7D00DF" stroke="white"/>
<path d="M50.9985 50.9981L98.5495 35.5479C105.243 56.1482 97.9103 78.7157 80.3866 91.4474L50.9985 50.9981Z" fill="#4300D0" stroke="white"/>
<path d="M50.9985 50.998L80.3867 91.4474C67.4386 100.855 50.7696 103.495 35.5482 98.5491L50.9985 50.998Z" fill="#1781FF" stroke="white"/>
<path d="M50.9984 50.998L35.5482 98.5491C20.3269 93.6034 8.39313 81.6696 3.44742 66.4483L50.9984 50.998Z" fill="#02B3FF" stroke="white"/>
<path d="M50.9985 50.998L3.44746 66.4483C-1.49825 51.227 1.14188 34.5579 10.5492 21.6099L50.9985 50.998Z" fill="#FF2AEA" stroke="white"/>
<path d="M50.9985 50.9981L10.5492 21.61C19.9565 8.66193 34.9939 1 50.9985 1V50.9981Z" fill="#CC00DE" stroke="white"/>
</svg>
